<?xml version="1.0" encoding="UTF-8" standalone="no"?>
<!-- Created with Inkscape (http://www.inkscape.org/) -->

<svg
   width="587.94067mm"
   height="500mm"
   viewBox="0 0 587.94067 500"
   version="1.1"
   id="svg5"
   xml:space="preserve"
   xmlns:inkscape="http://www.inkscape.org/namespaces/inkscape"
   xmlns:sodipodi="http://sodipodi.sourceforge.net/DTD/sodipodi-0.dtd"
   xmlns="http://www.w3.org/2000/svg"
   xmlns:svg="http://www.w3.org/2000/svg"><sodipodi:namedview
     id="namedview7"
     pagecolor="#ffffff"
     bordercolor="#000000"
     borderopacity="0.25"
     inkscape:showpageshadow="2"
     inkscape:pageopacity="0.0"
     inkscape:pagecheckerboard="0"
     inkscape:deskcolor="#d1d1d1"
     inkscape:document-units="mm"
     showgrid="false"
     showguides="false" /><defs
     id="defs2" /><g
     inkscape:groupmode="layer"
     id="layer2"
     inkscape:label="A"
     transform="translate(1044.0997,5443.9141)"><g
       id="g38903"
       transform="translate(0,3.4291992)"><rect
         style="fill:#cccccc;fill-opacity:1;stroke:#1a1a1a;stroke-width:20;stroke-linecap:round;stroke-linejoin:round;stroke-dasharray:none;stroke-opacity:1;paint-order:stroke fill markers"
         id="rect38211"
         width="567.94067"
         height="480"
         x="-1034.0997"
         y="-5437.3433"
         rx="48.766338"
         ry="48.766338" /><g
         id="g38230"
         transform="translate(-2841.0836,-2514.3072)"><path
           style="fill:#ffffff"
           d="m 1967.9111,-2495.9219 c -7.784,-2.2132 -68.1743,-24.4716 -92.75,-34.1853 l -3.25,-1.2846 v -3.5707 c 0,-1.9638 0.6963,-6.2527 1.5474,-9.5307 0.851,-3.2781 3.551,-13.7226 6,-23.2101 15.5136,-60.1017 15.8269,-61.54 17.5676,-80.6407 l 1.1035,-12.1093 1.8703,-5.0001 c 2.3768,-6.3544 13.0803,-24.2025 21.889,-36.5 l 6.8049,-9.5 1.5603,-7.5 c 0.8582,-4.125 2.9554,-11.55 4.6606,-16.5 l 3.1002,-9 1.5482,-11 c 0.8515,-6.05 1.6156,-17.5876 1.6981,-25.6392 l 0.1499,-14.6392 2,-2.2488 c 4.4934,-5.0523 12.9212,-6.3268 20.1453,-3.0466 l 4.1453,1.8823 3.9883,5.3458 c 2.1936,2.9401 4.7058,6.7668 5.5827,8.5035 l 1.5944,3.1578 3.9929,-0.5355 3.9928,-0.5356 3.6993,1.7554 3.6992,1.7554 1.0968,-1.5 c 0.6033,-0.825 6.0392,-9.9454 12.0799,-20.2676 6.0407,-10.3222 12.9029,-20.9164 15.2493,-23.5426 l 4.2663,-4.7751 16.0939,-9.835 16.0938,-9.835 11.9238,-11.25 11.9237,-11.25 4.2161,0.01 4.2162,0.01 2.8587,1.8847 c 3.7588,2.4782 6.3796,6.5936 7.167,11.2544 l 0.6376,3.7741 -1.6806,5.7812 c -2.4851,8.5485 -17.6038,28.5394 -38.0315,50.2879 -11.5042,12.2481 -18.3747,22.8034 -23.0035,35.3411 l -1.7856,4.8366 1.419,0.8981 c 2.3523,1.489 2.4631,1.3728 11.2754,-11.8212 17.2723,-25.8607 26.814,-34.4266 66.7923,-59.9614 l 18.3512,-11.722 5.6694,-0.034 5.6695,-0.034 2.5918,2.4349 c 7.4463,6.9955 5.1706,24.4811 -4.8412,37.1978 l -4.4345,5.6326 -15.3275,11.5385 c -13.9357,10.4909 -25.7211,21.1457 -30.6346,27.6962 -1.0314,1.375 -4.5183,6.1 -7.7487,10.5 l -5.8735,8 9.9646,-9.0359 9.9647,-9.036 13,-7.4054 c 7.15,-4.0729 15.8204,-9.1193 19.2676,-11.214 l 6.2676,-3.8087 h 4.2324 4.2324 l 3.318,2.023 3.3181,2.0229 2.0517,4.6383 2.0517,4.6382 -0.5634,4.7572 c -1.0595,8.9461 -4.8769,14.5192 -15.5633,22.7213 l -2.3872,1.8322 3.6374,2.1461 3.6373,2.1461 1.6022,3.3598 1.6022,3.3599 -1.6394,6.3991 c -2.1483,8.3855 -4.9743,12.991 -13.0608,21.2847 -3.6659,3.7599 -6.5167,6.9711 -6.3349,7.1359 0.1817,0.1648 5.0554,2.5658 10.8304,5.3356 5.775,2.7697 16.1914,9.0086 23.1475,13.8641 l 12.6475,8.8282 12.6758,11.9275 c 16.171,15.2163 24.9864,22.5654 40.5292,33.7878 18.5321,13.3809 37.0721,32.5191 49.7371,51.342 3.6183,5.3775 7.6256,10.5077 26.5133,33.9427 l 4.8357,6 -0.293,3 -0.2931,3 -6.5,1.148 c -3.575,0.6313 -14.375,2.087 -24,3.2347 -9.625,1.1477 -26.8377,3.2425 -38.2504,4.655 l -20.7504,2.5681 -8.838,-3.9795 c -4.8609,-2.1888 -11.4982,-4.7098 -14.7496,-5.6023 l -5.9116,-1.6227 -22.5,-1.323 -22.5,-1.323 -5,-2.0212 c -2.75,-1.1116 -9.05,-4.3695 -14,-7.2398 -4.95,-2.8703 -10.8743,-5.7876 -13.165,-6.4831 l -4.1651,-1.2644 -13.3349,0.4939 -13.335,0.4938 -12.3436,-2.1119 c -6.789,-1.1615 -14.3868,-3.0156 -16.884,-4.1203 l -4.5404,-2.0089 -14.366,-13.6037 -14.366,-13.6038 v -2.5557 c 0,-5.2817 9.1478,-16.4768 14.5771,-17.8394 2.8084,-0.7049 2.7855,-0.5776 1.1108,-6.1764 l -1.2817,-4.2851 -5.1865,6.3924 c -6.9871,8.6118 -13.5041,14.4767 -18.544,16.6886 l -4.1757,1.8325 -8.3132,0.713 -8.3132,0.7129 -1.4104,1.4104 c -3.2286,3.2286 -5.3461,21.3747 -5.4261,46.498 -0.058,18.295 -2.6585,32.6914 -6.3259,35.022 -1.5097,0.9594 -0.9778,1.0307 -8.7112,-1.1682 z"
           id="path12327" /><path
           style="fill:#1a1a1a"
           d="m 1976.7664,-2499.7033 c 2.4039,-6.021 3.1813,-13.2739 4.1237,-38.4728 0.5405,-14.4525 1.2441,-27.4022 1.5635,-28.7772 0.3193,-1.375 1.0665,-4.4307 1.6604,-6.7905 l 1.0797,-4.2904 1.7961,-0.9613 c 0.9879,-0.5287 5.8362,-1.3792 10.774,-1.8901 l 8.9779,-0.9288 3.1991,-1.6543 c 4.3772,-2.2635 10.8006,-8.3323 17.5461,-16.5773 l 5.6511,-6.9073 h 1.7148 1.7148 l 1.1478,4.75 c 0.6314,2.6125 1.4284,5.7329 1.7712,6.9343 l 0.6234,2.1843 -4.8421,2.3157 -4.8421,2.3157 -3.6858,4.9225 c -2.0272,2.7073 -3.8992,5.7383 -4.16,6.7355 l -0.4741,1.8129 14.1526,13.3764 c 16.3502,15.4535 16.9396,15.8139 30.7602,18.8086 l 10.3924,2.2518 18.5,0.089 c 10.175,0.049 19.4,0.48 20.5,0.9579 1.1,0.4778 6.5357,3.4653 12.0793,6.6388 5.5435,3.1736 12.8419,6.7008 16.2184,7.8383 l 6.1392,2.0681 12.7815,0.01 c 7.0299,0.01 16.8316,0.4718 21.7816,1.0383 l 9,1.03 8,2.8469 c 4.4,1.5658 10.3532,3.884 13.2294,5.1516 l 5.2295,2.3046 18.7705,-2.2652 c 10.3238,-1.2459 25.9706,-3.1227 34.7706,-4.1707 40.2653,-4.7952 38.1296,-0.9843 15.9404,-28.4437 -5.3333,-6.6 -11.5154,-14.7 -13.7379,-18 -12.4445,-18.4772 -31.3684,-38.1193 -48.7025,-50.5507 -15.608,-11.1935 -23.7507,-17.9467 -40.2151,-33.3529 l -13.9957,-13.0961 -12.6446,-8.8278 -12.6446,-8.8277 -11.1601,-5.3723 c -6.1381,-2.9548 -11.4634,-5.8631 -11.8342,-6.463 l -0.674,-1.0906 6.5636,-6.4993 c 17.015,-16.8483 20.2776,-31.1534 8.1091,-35.5539 -0.5816,-0.2103 -4.1124,-0.074 -8.1572,2.9108 -3.1156,2.2994 -6.275,7.0724 -10.2362,9.851 -2.0966,1.4707 -4.7591,3.0959 -6.7954,4.4128 -5.3469,3.4578 -12.9525,6.0548 -12.9525,6.0548 l 9.119,-9.0097 11.6626,-10.7363 9.9931,-6.7733 8.8518,-4.5685 c 6.4384,-3.3229 9.4563,-7.9002 12.3923,-13.7074 l 1.6181,-3.2003 -0.015,-4.7997 c -0.018,-5.9677 -1.5503,-9.0899 -5.8977,-12.0196 -5.0872,-3.4283 -6.9149,-2.9563 -21.8384,5.6384 -22.2383,12.8075 -26.2257,15.5243 -36.7492,25.0384 -12.3383,11.1548 -15.3225,11.88 -10.4039,2.5283 7.191,-13.6724 23.914,-31.4385 40.974,-43.5299 5.7365,-4.0657 13.4042,-10.3341 17.0395,-13.9299 l 6.6096,-6.5376 2.5035,-4.9939 c 1.3769,-2.7466 3.0642,-7.3737 3.7494,-10.2825 l 1.2459,-5.2885 -1.1841,-4.7115 c -1.4732,-5.8616 -3.3446,-7.9914 -7.7477,-8.8175 l -3.4392,-0.6452 -2.6735,1.2122 c -3.6879,1.6721 -33.1225,20.3456 -41.6735,26.4379 -21.6031,15.3916 -30.414,24.6031 -44.9545,46.9986 -8.0549,12.4063 -8.069,12.4175 -12.6854,10.0303 l -3.0406,-1.5724 0.6222,-2.6776 c 0.3422,-1.4727 3.291,-8.091 6.5528,-14.7074 l 5.9307,-12.0297 9.0341,-9.9703 c 27.1578,-29.9719 39.1185,-45.5313 41.6351,-54.1624 l 1.5139,-5.1921 -1.0348,-3.843 -1.0348,-3.843 -3.2693,-3.0702 c -6.7169,-6.3078 -8.5769,-5.635 -23.2865,8.4234 l -11.2136,10.717 -8.8846,5.4389 c -4.8866,2.9914 -12.578,7.8063 -17.092,10.6997 l -8.2074,5.261 -3.1099,4.2931 c -1.7105,2.3613 -8.3107,13.1839 -14.667,24.0503 l -11.5571,19.757 h -2.3417 c -1.288,0 -3.9546,-0.7691 -5.9259,-1.7091 l -3.5842,-1.7092 -1.9362,1.2092 c -3.3945,2.1199 -4.6145,1.3549 -8.5377,-5.3536 -2.1109,-3.6095 -5.7054,-8.284 -7.9877,-10.3877 l -4.1497,-3.8251 -4.0768,-0.6887 -4.0769,-0.6888 -4.4547,1.9705 -4.4547,1.9705 -1.1467,3.4747 -1.1468,3.4746 0.2674,12.8814 0.2673,12.8813 -1.3124,9.5 c -0.7218,5.225 -2.836,14.225 -4.6982,20 -1.8623,5.775 -4.0855,13.8341 -4.9405,17.909 l -1.5546,7.409 -6.8784,9.591 c -8.1397,11.3496 -17.4632,26.4974 -20.8133,33.8148 l -2.3965,5.2348 -1.4698,14.6823 c -1.7543,17.5233 -2.7499,22.1688 -14.8654,69.3592 -5.154,20.075 -9.662,38.075 -10.0178,40 l -0.6469,3.5 19.3138,7.4376 c 31.8075,12.2489 78.1648,28.9717 80.4424,29.0186 l 2.1287,0.044 1.0979,-2.75 z"
           id="path12329"
           sodipodi:nodetypes="sssscsscsscccsscccsscsscssssccscsscsssssscccsscsssssccccsscssssssscsscsscsssscsscsscccsscsscsscsscssscccccccccssscsscssscssccs" /><path
           style="fill:#000000"
           d="m 2033.7795,-2773.3694 c 6.9723,-14.7813 11.0104,-20.4741 24.1768,-34.084 6.385,-6.6 12.6951,-13.575 14.0224,-15.5 1.3274,-1.925 5.4569,-7.2968 9.1768,-11.9373 11.1696,-13.9341 13.4057,-19.844 9.7666,-25.8127 -2.9366,-4.8163 -3.9388,-4.3081 -16.7617,8.5 l -11.7635,11.75 -14.6262,8.7546 -14.6263,8.7546 -3.9423,5.2454 c -2.1683,2.885 -7.6837,11.5454 -12.2564,19.2454 -4.5727,7.7 -9.0332,15.125 -9.9122,16.5 -0.879,1.375 -2.0807,3.4 -2.6705,4.5 l -1.0723,2 12.5602,6.1611 c 6.9081,3.3885 12.6626,6.201 12.7878,6.25 0.1252,0.049 2.4385,-4.5983 5.1408,-10.3271 z"
           id="path12357" /><path
           style="fill:#f7c73b;fill-opacity:1"
           d="m 2013.9111,-2767.2774 -12.5,-6.176 -0.301,-1.634 c -0.3034,-1.6473 15.036,-28.2586 23.935,-41.5231 l 4.8016,-7.1571 8.6192,-5.3429 c 4.7406,-2.9386 12.0676,-7.5272 16.2823,-10.1969 l 7.6629,-4.8541 11.6733,-11.4755 11.6732,-11.4756 2.2924,0.3296 2.2924,0.3296 2.2843,3.3979 2.2844,3.3979 v 3.9151 3.915 l -2.686,5.4856 c -1.4774,3.0171 -5.6559,9.1763 -9.2857,13.6871 -3.6298,4.5108 -7.6825,9.7764 -9.006,11.7014 -1.3235,1.925 -7.6399,8.9 -14.0365,15.5 -13.6866,14.1219 -16.3361,17.8233 -23.6596,33.0535 l -5.5041,11.4465 -2.1611,-0.074 c -1.1885,-0.041 -7.786,-2.8531 -14.661,-6.25 z"
           id="path12355" /><path
           style="fill:#000000"
           d="m 2078.1837,-2752.4451 5.2274,-8.9918 9.1287,-9.057 c 5.0208,-4.9813 14.4264,-13.085 20.9015,-18.0082 23.5772,-17.9265 28.0935,-22.6265 30.566,-31.8085 l 1.0705,-3.9756 -1.2133,-4.3336 c -0.6673,-2.3835 -1.4359,-4.3336 -1.708,-4.3336 -0.7705,0 -29.9144,18.6528 -48.7269,31.1864 l -16.9815,11.3136 -7.2795,9.5 c -4.0038,5.225 -9.9522,13.512 -13.2188,18.4156 l -5.9393,8.9155 9.6447,5.3289 c 5.3046,2.9308 10.1197,5.8083 10.7003,6.3943 l 1.0556,1.0655 0.7726,-1.3099 c 0.4249,-0.7204 3.1249,-5.3562 6,-10.3016 z"
           id="path12353" /><path
           style="fill:#f7c73b;fill-opacity:1"
           d="m 2065.8077,-2741.7316 c -3.0819,-2.047 -8.3694,-5.042 -11.75,-6.6556 l -6.1466,-2.9339 v -1.9832 c 0,-2.1544 11.4443,-19.6369 20.718,-31.6491 l 5.7902,-7.5 16.9959,-11.2783 c 9.3477,-6.2031 24.0273,-15.7656 32.6212,-21.25 l 15.6254,-9.9717 h 2.5268 2.5268 l 1.0979,3.1493 c 0.6038,1.732 1.0879,5.2195 1.0758,7.75 l -0.022,4.6007 -1.8561,4 c -3.523,7.5919 -7.8408,12.0945 -21.9369,22.8754 -27.6602,21.1548 -37.7521,31.5658 -45.9189,47.3704 -4.346,8.4103 -4.0534,8.3207 -11.3476,3.476 z"
           id="path12351" /><path
           style="fill:#000000"
           d="m 2105.9111,-2725.0661 c 11.5336,-10.1645 15.5481,-13.1513 22,-16.3683 3.025,-1.5083 7.8058,-4.503 10.624,-6.655 l 5.1239,-3.9127 2.2794,-4.2966 2.2794,-4.2967 -0.6099,-2.429 c -0.3355,-1.3359 -1.2324,-3.28 -1.9932,-4.3202 l -1.3833,-1.8913 -11.9102,6.4237 c -6.5505,3.5329 -14.0905,7.534 -16.7554,8.8912 -2.6649,1.3572 -7.8399,5.0496 -11.5,8.2053 -3.6601,3.1557 -10.3143,8.5766 -14.7872,12.0463 l -8.1324,6.3087 6.9855,6.2539 6.9855,6.2539 1.1469,-1.3611 c 0.6309,-0.7486 4.972,-4.7321 9.647,-8.8521 z"
           id="path12349" /><path
           style="fill:#f7c73b;fill-opacity:1"
           d="m 2086.0328,-2719.547 c -8.8048,-8.152 -8.8113,-7.9939 0.6283,-15.3831 4.2625,-3.3366 10.7251,-8.6443 14.3614,-11.7949 l 6.6115,-5.7284 17.1878,-9.3116 17.1878,-9.3117 2.6776,0.3117 2.6776,0.3116 1.2584,2.5 c 0.6921,1.375 1.2627,4.3 1.268,6.5 l 0.01,4 -2.2448,3.6476 c -3.0047,4.882 -9.7109,10.3066 -17.7416,14.3508 -7.2893,3.6708 -12.3328,7.4743 -25.0033,18.8557 -10.3009,9.2529 -10.0368,9.2381 -18.8783,1.0523 z"
           id="path12347" /><path
           style="fill:#000000"
           d="m 2130.6557,-2706.4534 c 3.0326,-3.3 6.3944,-7.9524 7.4707,-10.3388 l 1.9569,-4.3389 -0.5775,-2.3008 c -0.3176,-1.2655 -1.3318,-2.5903 -2.2537,-2.9441 l -1.6763,-0.6432 -6.0823,6.3828 -6.0824,6.3828 -7.7377,4.4001 c -9.2533,5.262 -9.1643,4.869 -2.1033,9.2857 l 5.6589,3.5397 2.9565,-1.7126 c 1.626,-0.942 5.4376,-4.4127 8.4702,-7.7127 z"
           id="path12345" /><path
           style="fill:#f7c73b;fill-opacity:1"
           d="m 2110.6719,-2699.2368 -6.7392,-4.2166 -10e-4,-1.5 v -1.5 l 9.023,-4.9343 9.0231,-4.9343 6.3309,-6.8157 c 7.0391,-7.5782 7.2496,-7.6692 10.9695,-4.7431 l 2.6348,2.0726 v 3.716 c 0,6.4707 -6.7796,16.5646 -15.9141,23.6938 -5.6149,4.3823 -7.1118,4.3004 -15.3251,-0.8384 z"
           id="path12343" /><path
           style="fill:#000000"
           d="m 2065.1751,-2584.4352 c 9.4075,-4.693 18.2276,-13.2911 19.2556,-18.7709 l 0.6711,-3.5775 -4.0779,0.9162 c -2.2429,0.504 -5.8476,1.6244 -8.0105,2.4898 -2.1629,0.8654 -5.2082,1.4274 -6.7674,1.2489 l -2.8349,-0.3246 -0.3143,-3.2621 -0.3142,-3.2621 6.1422,-2.9048 c 3.3782,-1.5976 8.4696,-3.219 11.3143,-3.6031 7.1493,-0.9652 8.2043,-1.7258 9.6739,-6.9747 l 1.2844,-4.5875 -2.7338,-9.2029 c -1.5036,-5.0616 -2.8055,-9.526 -2.8931,-9.9209 -0.088,-0.3949 -6.9094,3.3097 -15.1594,8.2324 l -15,8.9503 -5.0367,5.3352 c -2.7702,2.9343 -5.7592,6.827 -6.6423,8.6504 l -1.6057,3.3153 2.3136,8.6172 c 1.2725,4.7395 3.6576,11.6044 5.3003,15.2553 l 2.9867,6.6381 4.73,-0.8836 c 2.6015,-0.486 6.0746,-1.5545 7.7181,-2.3744 z"
           id="path12341" /><path
           style="fill:#f7c73b;fill-opacity:1"
           d="m 2048.0811,-2585.4037 c -3.4088,-7.2844 -6.7004,-17.6072 -7.7628,-24.3449 l -0.6773,-4.2953 3.7957,-5.5111 c 6.0359,-8.7639 35.7574,-29.4201 42.2893,-29.3908 l 1.6851,0.01 2.4003,8.2425 c 3.1682,10.8793 3.5791,14.9584 2.0552,20.4012 l -1.2672,4.5261 -2.0941,0.7942 c -1.1518,0.4369 -5.4379,1.5338 -9.5247,2.4376 -7.1667,1.5849 -14.0695,4.8259 -14.0695,6.6058 0,2.0552 2.4769,1.9336 9.4193,-0.4626 4.0792,-1.4084 8.5786,-2.5603 9.9987,-2.5603 h 2.582 v 3.75 c 0,10.3551 -16.0826,23.9122 -30.6029,25.804 l -5.1045,0.665 -3.121,-6.6694 z"
           id="path12339" /><path
           style="fill:#000000"
           d="m 2256.4111,-2521.0081 c 13.75,-1.682 28.7314,-3.3259 33.292,-3.6532 l 8.2919,-0.595 -2.4177,-2.5985 c -4.5028,-4.8396 -19.1491,-23.5523 -25.1233,-32.0985 -9.0244,-12.9099 -13.7121,-18.5108 -25.3446,-30.2821 l -10.6549,-10.7822 -10.3248,-7.1301 c -13.3329,-9.2074 -27.3834,-20.9997 -44.1637,-37.0656 l -13.445,-12.8726 -8.1983,-5.455 c -4.5091,-3.0002 -14.6588,-8.6476 -22.555,-12.5498 -7.8961,-3.9021 -16.8316,-8.7157 -19.8566,-10.6968 -11.8957,-7.7908 -28.8532,-20.8298 -35.7143,-27.4615 l -7.2142,-6.973 -1.5771,-4.7481 c -2.3217,-6.99 -6.4652,-9.8985 -27.1119,-19.031 -19.6864,-8.7078 -45.5359,-21.3492 -51.6407,-25.2544 l -5.7418,-3.673 v 6.7818 6.7818 l 3.75,3.9938 c 2.0625,2.1966 13.2,11.1433 24.75,19.8815 35.1609,26.6014 39.7172,30.9604 57.4385,54.9519 3.6906,4.9964 9.4695,11.4742 12.8419,14.3952 3.3725,2.921 7.0515,6.7991 8.1757,8.6181 l 2.0439,3.3071 v 5.5129 5.5129 l 2.552,6.7802 2.5521,6.7801 -1.0242,6.6008 c -4.7111,30.3638 -12.6435,41.7019 -34.448,49.2381 l -5.1319,1.7737 -6.595,0.033 -6.595,0.033 -1.5835,-1.75 c -0.871,-0.9625 -2.5082,-3.9074 -3.6384,-6.5441 l -2.0548,-4.7941 -1.7667,0.958 c -0.9716,0.5269 -3.0444,2.301 -4.6062,3.9424 l -2.8397,2.9843 1.0461,1.9547 c 5.5279,10.3289 24.2717,23.3486 37.1332,25.7932 l 9.5,1.8057 18,0.075 18,0.075 10,5.4588 c 5.5,3.0023 12.475,6.7199 15.5,8.2613 l 5.5,2.8025 8.5,0.9494 c 4.675,0.5222 15.6126,1.4335 24.3057,2.0252 19.9927,1.3606 24.066,2.1555 33.9748,6.6294 10.213,4.6113 12.5205,5.2923 16.2195,4.7868 1.65,-0.2255 14.25,-1.7862 28,-3.4682 z"
           id="path12337" /><path
           style="fill:#f7c73b;fill-opacity:1"
           d="m 2220.9111,-2515.9251 c -1.375,-0.4399 -5.5457,-2.1861 -9.2683,-3.8804 -11.1461,-5.0732 -16.5559,-5.968 -48.8447,-8.0787 l -14.613,-0.9553 -5.6031,-1.9693 c -3.0817,-1.0831 -9.3308,-4.2128 -13.887,-6.9548 -4.5561,-2.742 -10.0264,-5.7064 -12.156,-6.5876 l -3.8722,-1.6021 -15.1278,-0.01 c -33.5133,-0.016 -41.7249,-2.6553 -58.3779,-18.7606 l -11.25,-10.88 v -1.9728 c 0,-2.9954 9.3937,-11.3786 12.7502,-11.3786 0.485,0 1.8872,2.4257 3.116,5.3904 1.2288,2.9647 3.106,6.1794 4.1716,7.1438 l 1.9374,1.7533 6.2624,-0.6243 6.2624,-0.6243 8.3786,-4.2106 c 9.0609,-4.5536 18.1992,-12.1313 19.972,-16.5614 1.889,-4.7204 6.1425,-22.4835 6.7849,-28.3343 l 0.6112,-5.5674 -2.7129,-7.86 -2.7129,-7.86 0.5859,-2.9292 0.5858,-2.9293 -1.6348,-3.4452 c -0.8992,-1.8948 -4.3358,-5.7844 -7.637,-8.6434 -3.3011,-2.859 -10.087,-10.5982 -15.0796,-17.1982 -4.9926,-6.6 -12.5629,-15.8881 -16.8228,-20.6403 l -7.7454,-8.6403 -26.0141,-19.732 c -14.3077,-10.8526 -28.0449,-21.9031 -30.527,-24.5567 l -4.5129,-4.8247 0.4033,-5.303 c 0.2219,-2.9166 0.4426,-6.7655 0.4905,-8.553 l 0.087,-3.25 h 1.1465 c 0.6306,0 3.4431,1.5195 6.25,3.3766 6.4189,4.2468 25.3204,13.7271 44.4097,22.2744 18.3044,8.1957 25.5396,11.8233 30.8603,15.4726 l 4.1665,2.8576 1.6584,4.9929 1.6583,4.9928 8.6752,8.0802 c 4.7713,4.4442 14.5251,12.3164 21.6751,17.4939 l 13,9.4136 19.5642,10.0977 c 22.5172,11.6217 26.0048,14.0716 43.5438,30.588 18.3314,17.2624 30.3285,27.3299 42.392,35.5737 l 10.5,7.1753 13.0551,13.0554 13.0551,13.0554 11.6208,16 c 6.3914,8.8 15.4742,20.725 20.1839,26.5 10.0708,12.3485 10.0687,12.2942 0.5038,13.2112 -9.3258,0.8941 -29.976,3.3482 -49.2851,5.8571 -15.9904,2.0777 -18.7711,2.1957 -22.6336,0.9599 z"
           id="path12335" /><path
           style="fill:#000000"
           d="m 1972.8021,-2536.4533 1.0198,-25 1.4797,-7.6627 c 1.7104,-8.8574 4.6528,-15.2304 7.8628,-17.0302 l 2.2467,-1.2598 10.0825,-0.595 10.0825,-0.595 3.8442,-2.9287 c 4.7065,-3.5856 18.6344,-19.1106 26.8498,-29.9286 6.5147,-8.5786 11.7812,-14.0869 29.2704,-30.6142 l 11.1294,-10.5173 -8.419,-10.4343 c -4.6304,-5.7388 -13.3731,-15.7108 -19.4282,-22.1599 l -11.0093,-11.7257 -20.7011,-15.9115 c -11.3857,-8.7513 -23.0633,-17.8002 -25.9502,-20.1086 l -5.2491,-4.1972 -0.4046,1.3343 c -0.2225,0.7339 -1.3729,6.7343 -2.5565,13.3343 -1.1835,6.6 -2.8434,15.0614 -3.6885,18.803 l -1.5367,6.803 -4.1578,-0.303 -4.1578,-0.303 -0.3184,-3.3169 c -0.175,-1.8243 1.3865,-11.0493 3.4702,-20.5 l 3.7886,-17.1831 -0.01,-8 -0.01,-8 -3.2251,-8 c -1.7739,-4.4 -4.9281,-10.4421 -7.0094,-13.427 l -3.7842,-5.427 -3.7469,-1.9445 c -4.941,-2.5641 -5.6291,-1.5733 -1.876,2.7013 l 3.0467,3.47 0.6599,6.3136 c 0.3629,3.4725 0.5143,9.0136 0.3364,12.3136 l -0.3235,6 -5.1346,0.2983 -5.1347,0.2983 -0.6153,3.0767 c -0.3388,1.6922 -0.6157,4.9474 -0.6157,7.2338 0,4.67 -1.512,10.6551 -5.4081,21.4079 -1.4577,4.0233 -3.2873,10.6437 -4.0658,14.7122 -1.6902,8.8342 -1.9143,9.28 -10.777,21.4392 -3.8218,5.2435 -9.8967,14.4836 -13.4996,20.5336 l -6.5508,11.0001 -0.8533,9 c -1.9763,20.8427 -3.4796,28.7312 -11.9104,62.5 -4.8747,19.525 -9.9987,39.55 -11.3866,44.5 -3.151,11.2377 -3.3006,10.2206 1.7016,11.5654 2.3375,0.6284 12.8,4.4575 23.25,8.5092 10.45,4.0517 28.45,10.8981 40,15.2142 l 21,7.8475 0.6855,-4.0682 c 0.3771,-2.2375 1.1445,-15.3181 1.7055,-29.0681 z"
           id="path12333" /><path
           style="fill:#f7c73b;fill-opacity:1"
           d="m 1962.4111,-2503.5156 c -3.3,-1.384 -11.4014,-4.4773 -18.0032,-6.874 -6.6017,-2.3968 -21.9017,-8.1509 -34,-12.787 -12.0982,-4.636 -23.9093,-8.9754 -26.2468,-9.6431 l -4.25,-1.2139 v -2.7865 c 0,-1.5325 1.3351,-7.541 2.9668,-13.3521 12.3522,-43.99 20.765,-81.9257 21.9845,-99.1339 l 0.8761,-12.3624 2.9791,-5.8924 c 3.3686,-6.6627 15.8289,-25.8489 20.7123,-31.8925 4.6564,-5.7626 6.4223,-9.699 7.9935,-17.819 0.7643,-3.9495 3.0337,-11.906 5.0431,-17.681 l 3.6536,-10.5 0.5254,-8.5 c 0.289,-4.675 0.9848,-9.0779 1.5463,-9.7842 l 1.021,-1.2842 4.5991,0.2842 4.5992,0.2842 -0.081,-8.5069 c -0.1058,-11.1724 -0.8401,-13.6927 -5.1356,-17.6272 l -3.5917,-3.2899 1.3624,-1.6417 1.3625,-1.6417 3.9124,0.5248 3.9125,0.5248 3.449,3.3289 c 4.8972,4.7268 9.7453,13.1072 12.7354,22.0149 l 2.5737,7.6667 v 6.5244 6.5244 l -4.0646,19.1598 c -4.2101,19.8456 -4.3118,21.9387 -1.0665,21.9387 h 1.9316 l 1.0697,-4.75 c 1.9377,-8.6043 6.0086,-29.6922 6.3222,-32.75 l 0.3076,-3 2,0.053 c 1.1,0.029 7.175,4.1051 13.5,9.0581 6.325,4.9529 18.1613,14.1101 26.3028,20.3492 l 14.8028,11.3438 10.0549,10.5981 c 10.3042,10.861 29.9118,34.4848 29.7482,35.8414 -0.05,0.4162 -7.5068,7.7318 -16.5701,16.2568 l -16.4788,15.5 -6.5869,8.5 c -10.8746,14.0332 -25.2324,29.7847 -30.0701,32.989 l -4.5457,3.011 h -8.3782 -8.3782 l -3.0383,1.5711 -3.0382,1.5711 -2.3356,5.1789 c -3.1709,7.0308 -4.2857,15.9534 -5.5197,44.1789 -0.5771,13.2 -1.3748,25.8 -1.7726,28 l -0.7232,4 -1.9866,0.227 c -1.0926,0.1248 -4.6865,-0.9054 -7.9865,-2.2893 z"
           id="path12331" /><path
           id="path37477"
           style="fill:#f7c73b;fill-opacity:1;stroke:none;stroke-width:1;stroke-linecap:round;stroke-linejoin:round;stroke-opacity:1;paint-order:stroke fill markers"
           d="m 1948.3884,-2792.4279 c -0.1216,-0.1285 -0.09,-0.093 0,0 z m -0.7081,25.1138 c 1.9518,0.1028 6.6906,0.497 8.642,0.6129 0.041,-5.9944 0.3952,-13.4212 -1.2855,-19.2485 -0.6899,-2.1341 -4.6791,-4.1138 -6.3925,-5.5934 -2.5206,3.358 -0.6175,16.8279 -0.964,24.229 z"
           sodipodi:nodetypes="ccccccc" /></g></g></g></svg>
