<?xml version="1.0" encoding="UTF-8" standalone="no"?>
<!-- Created with Inkscape (http://www.inkscape.org/) -->

<svg
   width="587.94067mm"
   height="500mm"
   viewBox="0 0 587.94067 500"
   version="1.1"
   id="svg5"
   xml:space="preserve"
   xmlns:inkscape="http://www.inkscape.org/namespaces/inkscape"
   xmlns:sodipodi="http://sodipodi.sourceforge.net/DTD/sodipodi-0.dtd"
   xmlns="http://www.w3.org/2000/svg"
   xmlns:svg="http://www.w3.org/2000/svg"><sodipodi:namedview
     id="namedview7"
     pagecolor="#ffffff"
     bordercolor="#000000"
     borderopacity="0.25"
     inkscape:showpageshadow="2"
     inkscape:pageopacity="0.0"
     inkscape:pagecheckerboard="0"
     inkscape:deskcolor="#d1d1d1"
     inkscape:document-units="mm"
     showgrid="false"
     showguides="false" /><defs
     id="defs2" /><g
     inkscape:groupmode="layer"
     id="layer11"
     inkscape:label="J"
     transform="translate(-432.88852,4866.4004)"><g
       id="g40220"
       inkscape:label="J"><rect
         style="fill:#cccccc;fill-opacity:1;stroke:#1a1a1a;stroke-width:20;stroke-linecap:round;stroke-linejoin:round;stroke-dasharray:none;stroke-opacity:1;paint-order:stroke fill markers"
         id="rect38211-4-8-1"
         width="567.94067"
         height="480"
         x="442.88852"
         y="-4856.4004"
         rx="48.766338"
         ry="48.766338" /><g
         id="g39046"
         transform="translate(-2483.2213,-2414.105)"><path
           style="fill:#ffffff"
           d="m 3018.9111,-2025.1404 v -3.5045 l 5.9284,-11.5061 5.9284,-11.5061 4.2451,-16.4942 4.2451,-16.4942 -5.1646,-5.2192 -5.1645,-5.2191 -2.0297,-7.1848 c -2.4627,-8.7175 -9.1188,-28.6593 -15.351,-45.9921 -2.5328,-7.0441 -5.7395,-18.3139 -7.126,-25.044 l -2.521,-12.2366 0.2538,-17.956 0.2537,-17.956 -2.3971,-5.9542 c -1.3184,-3.2748 -5.0285,-10.6861 -8.2447,-16.4696 -3.2162,-5.7834 -6.1143,-11.9369 -6.4403,-13.6743 l -0.5926,-3.1589 1.5612,-3.0191 1.5612,-3.0191 4.7773,-2.3499 4.7773,-2.35 7,0.027 7,0.027 4,2.1223 c 10.568,5.6072 18.8035,17.776 25.9682,38.371 3.6422,10.4695 4.72,12.6569 9.2098,18.6904 l 2.4133,3.2432 2.5723,-1.6855 c 2.9542,-1.9356 4.2851,-4.8044 11.2416,-24.2306 l 5.0489,-14.0991 3.5639,-20.2355 c 7.1653,-40.6841 15.6051,-75.7469 22.5962,-93.8755 l 3.0785,-7.9829 2.6537,-1.0161 2.6536,-1.0162 5.0061,0.619 c 17.1201,2.117 21.8396,17.3027 14.3075,46.0361 l -2.0971,8 -0.3306,24.5 c -0.1819,13.475 -0.5974,26.7418 -0.9235,29.4819 -0.326,2.74 -0.3542,4.7432 -0.062,4.4515 1.0496,-1.0495 22.7519,-64.776 27.2217,-79.9334 8.923,-30.2584 11.2797,-36.0563 16.4113,-40.3742 l 3.1206,-2.6258 h 3.8581 c 5.1097,0 7.6896,1.073 12.7543,5.3044 l 4.2219,3.5273 7.8603,2.6177 7.8603,2.6177 4.8958,0.034 c 7.6483,0.053 19.6384,2.3034 50.8958,9.5518 l 11,2.5508 5.0862,2.8142 c 5.9436,3.2886 16.6287,11.2391 24.3634,18.1282 l 5.4496,4.8538 h 2.8501 c 3.4646,0 6.7201,1.6356 17.3942,8.7391 l 8.2092,5.4631 14.6124,0.8619 c 23.8813,1.4087 28.9927,2.6357 39.5349,9.4909 3.575,2.3246 13.1761,7.5377 21.3358,11.5846 8.1597,4.0469 16.2597,8.5463 18,9.9987 l 3.1642,2.6406 0.7362,67.8605 c 0.4048,37.3234 1.1638,70.9873 1.6865,74.8087 1.2369,9.0428 2.0247,8.5524 -13.7317,8.5485 -24.7752,-0.01 -47.3218,-3.0838 -61.2785,-8.3646 l -6.5874,-2.4924 -4.4126,1.027 -4.4125,1.027 -8.0434,-0.5335 -8.0434,-0.5336 -5.4566,-2.0531 c -5.1242,-1.928 -25.6061,-14.1647 -31.0885,-18.5734 -1.3679,-1.1 -4.1913,-4.925 -6.2742,-8.5 -2.083,-3.575 -7.0513,-9.875 -11.0408,-14 l -7.2537,-7.5 -1.2685,-3.875 -1.2685,-3.8749 0.5939,-4.333 c 0.3267,-2.3831 1.5379,-6.3412 2.6916,-8.7956 l 2.0977,-4.4627 3.2977,-1.5649 3.2976,-1.5648 -2.0508,-5.7646 -2.0508,-5.7645 -0.07,-11.5 -0.07,-11.5 2.3938,-4.8627 2.3937,-4.8627 5.803,-4.5064 5.803,-4.5064 -3.6968,-4.8226 c -15.8962,-20.7372 -24.227,-28.6049 -36.9228,-34.8699 -5.3756,-2.6528 -12.4476,-6.9095 -15.7155,-9.4593 -3.2679,-2.5499 -7.7679,-5.1117 -10,-5.6931 -2.2321,-0.5814 -10.1211,-3.0662 -17.531,-5.5218 l -13.4727,-4.4648 -2.2512,-2.1149 -2.2513,-2.115 -0.486,1.3998 c -0.2673,0.7699 -1.3657,4.9998 -2.441,9.3998 -3.0966,12.6709 -18.6703,69.989 -25.1863,92.6965 -3.2664,11.3831 -5.9389,20.9456 -5.9389,21.25 0,1.6419 2.1876,0.1903 3.0224,-2.0055 2.5707,-6.7614 6.3917,-14.1021 11.2712,-21.654 8.2103,-12.7068 8.2178,-12.7208 13.081,-24.2615 2.5123,-5.9617 7.5527,-15.737 11.201,-21.7228 l 6.6332,-10.8833 3.4225,-9.5756 c 4.5398,-12.7021 4.8591,-13.2092 9.6994,-15.4069 l 4.1693,-1.893 4.7167,-0.022 4.7166,-0.022 3.4853,3.4853 3.4852,3.4852 0.7981,3.7648 c 0.439,2.0706 0.7509,8.0397 0.6933,13.2647 l -0.1048,9.5 -1.7267,5.9343 c -0.9497,3.2639 -3.4317,9.3389 -5.5156,13.5 -2.0838,4.1612 -5.8951,14.5407 -8.4695,23.0657 -6.9224,22.9236 -9.3918,29.3093 -14.1143,36.4995 l -4.2665,6.4958 2.6511,-1.9107 c 1.4581,-1.0508 4.2261,-3.5642 6.1511,-5.5853 1.925,-2.021 5.075,-4.5078 7,-5.5262 5.0306,-2.6614 7.692,-5.2894 16.1759,-15.9731 4.1491,-5.225 9.8377,-11.6375 12.6412,-14.25 l 5.0972,-4.75 h 2.9155 2.9155 l 4.2036,4.5604 c 11.402,12.3697 9.0886,24.0192 -9.0441,45.5418 -5.7883,6.8705 -10.7182,12.8188 -29.2571,35.3008 l -5.8522,7.097 -13.5178,27.5 -13.5177,27.5 -6.3419,9.5 c -3.4881,5.225 -13.0467,18.1437 -21.2414,28.7082 -16.1595,20.8326 -16.1355,20.791 -19.1548,33.2918 -1.1291,4.675 -2.7135,8.9942 -3.5208,9.5981 l -1.468,1.0982 -15.2665,0.6427 c -8.3966,0.3536 -34.7291,0.9433 -58.5166,1.3106 l -43.25,0.6678 v -3.5045 z"
           id="path12159" /><path
           style="fill:#1a1a1a"
           d="m 3077.1636,-2025.0065 c 27.9139,-0.5786 52.6501,-1.3759 54.9694,-1.7718 l 4.2168,-0.7199 2.9031,-11.0986 2.9031,-11.0986 15.4438,-19.8789 c 21.7037,-27.9364 26.2837,-35.2495 41.571,-66.379 l 13.505,-27.5 7.0773,-8.5 c 9.1922,-11.0399 29.7082,-35.9333 34.042,-41.3053 1.8613,-2.3071 4.7265,-7.0293 6.3672,-10.4937 l 2.9832,-6.2991 -0.054,-3.9167 c -0.069,-5.0119 -2.3858,-9.8573 -6.8445,-14.316 l -3.5314,-3.5314 -1.6523,0.5709 c -2.8938,0.9999 -12.062,10.4884 -19.3725,20.0495 l -7.0789,9.2582 -6.6004,4.3844 c -3.6302,2.4114 -8.1754,6.0461 -10.1004,8.0771 -8.7126,9.1924 -15.5738,8.5931 -9.1329,-0.7977 5.5124,-8.0371 9.0918,-16.6002 15.0635,-36.0363 l 6.0176,-19.5853 4.0431,-8.0412 c 2.2236,-4.4227 4.7523,-11.0734 5.6192,-14.7793 l 1.5763,-6.7381 -0.3734,-9.6172 -0.3734,-9.6172 -2.765,-3.625 c -3.3541,-4.3974 -6.3315,-5.2767 -12.2536,-3.6186 l -4.4974,1.2592 -1.8213,2.3153 c -1.0016,1.2735 -3.2488,6.4037 -4.9937,11.4005 l -3.1725,9.0851 -6.6678,11.2089 c -3.6673,6.165 -8.6104,15.709 -10.9848,21.209 -5.3157,12.3132 -8.1483,17.6383 -14.4196,27.1084 -4.4356,6.6979 -8.263,14.0496 -10.8312,20.8046 l -0.9624,2.5311 -2.6085,0.6548 -2.6086,0.6547 -1.0972,-1.0972 -1.0971,-1.0971 10.1203,-35.7797 c 9.6222,-34.0185 21.1963,-76.3094 22.6549,-82.7796 2.6293,-11.6632 2.8348,-11.8757 7.8822,-8.1508 4.4482,3.2827 21.9606,9.6189 33.4948,12.119 1.8214,0.3947 6.2089,2.9384 9.75,5.6526 3.5412,2.7141 11.1871,7.255 16.991,10.0909 l 10.5525,5.1562 4.3144,4.566 c 2.3728,2.5114 7.6367,8.3914 11.6975,13.0668 15.8731,18.2759 16.8165,19.9258 12.6331,22.0963 -1.2375,0.6421 -4.1049,2.6659 -6.3721,4.4973 l -4.122,3.3299 -2.2779,4.7879 -2.2779,4.7879 0.051,9.0275 0.051,9.0276 2.5994,7.7435 c 1.4297,4.2589 2.5994,7.9627 2.5994,8.2306 0,0.2678 -1.7653,1.1933 -3.923,2.0566 l -3.9229,1.5697 -1.7235,3.6321 c -2.0475,4.3146 -2.9467,11.0199 -1.9894,14.834 l 0.6878,2.7407 7.3464,7.5688 c 4.0405,4.1629 9.0832,10.5729 11.2059,14.2444 4.3955,7.6026 4.9365,8.0787 19.5634,17.2184 13.3282,8.3282 18.2727,10.5411 26.1022,11.6821 l 6.1531,0.8967 7.6295,-1.1409 7.6295,-1.1409 6.5456,2.6203 c 12.8495,5.144 38.3897,8.6294 63.562,8.674 l 8.3666,0.015 -0.6672,-2.75 c -0.367,-1.5125 -1.0337,-34.8772 -1.4816,-74.1439 l -0.8144,-71.3938 -2.385,-1.8305 c -1.3117,-1.0068 -10.035,-5.7087 -19.385,-10.4487 -9.35,-4.7399 -18.47,-9.7301 -20.2667,-11.0892 -7.7003,-5.825 -16.8996,-7.9174 -40.7841,-9.2763 l -13.2914,-0.7563 -10.156,-6.7611 -10.1561,-6.7612 -4.1729,-0.5141 -4.1728,-0.5141 -5,-4.7063 c -17.249,-16.2358 -25.153,-20.1111 -54,-26.4763 -11.55,-2.5485 -22.1166,-4.8809 -23.4812,-5.183 -1.3647,-0.3022 -6.0017,-0.7109 -10.3045,-0.9083 l -7.8233,-0.3589 -7.9516,-2.6482 -7.9516,-2.6481 -4.2219,-3.5273 c -9.3659,-7.825 -16.8495,-6.9483 -21.6844,2.5401 -1.7511,3.4367 -7.43,20.8754 -15.3559,47.1555 -8.6903,28.8146 -24.8714,73.7523 -26.2856,73 l -0.94,-0.5 0.365,-32 0.365,-32 2.885,-11.9749 2.885,-11.9749 v -7.0317 c 0,-8.7958 -1.2036,-13.0778 -4.7025,-16.7299 l -2.7419,-2.8619 -5.2945,-1.5392 -5.2944,-1.5391 -2.9118,0.6396 -2.9119,0.6395 -2.9683,8.2034 c -8.6815,23.9924 -15.7802,54.7641 -24.2613,105.1691 -2.409,14.3167 -14.2228,45.1622 -18.3271,47.8515 -6.5951,4.3212 -11.4402,-1.1196 -18.1414,-20.3715 -7.3208,-21.032 -15.1342,-32.7953 -25.2525,-38.0184 l -4.3077,-2.2236 -5.2743,0.047 c -5.8963,0.053 -11.3872,1.9914 -14.5228,5.127 l -2.0885,2.0878 v 2.7501 2.7502 l 5.5453,9.9998 c 7.2865,13.1398 9.1775,17.4997 11.0223,25.4133 l 1.5354,6.5866 -1.1725,12.5 -1.1725,12.5 3.0459,14.5 3.0459,14.5 5.1687,14 c 5.7093,15.4643 10.9396,31.2064 14.005,42.1523 l 2.003,7.1522 5.4867,5.665 c 3.0178,3.1157 5.4868,5.8518 5.4868,6.0802 0,0.2284 -1.986,8.2266 -4.4133,17.7737 l -4.4133,17.3584 -6.0867,11.8133 c -3.3477,6.4973 -6.0867,12.4189 -6.0867,13.1591 v 1.3458 l 2.75,-6e-4 c 1.5125,-3e-4 25.5886,-0.474 53.5025,-1.0526 z"
           id="path12161" /><path
           style="fill:#000000"
           d="m 3307.0133,-2218.1079 c -0.712,-3.4813 -0.5615,-3.3716 -10.9216,-7.9622 -8.3027,-3.679 -10.1806,-5.7275 -10.1806,-11.1057 v -3.7775 h 1.5566 c 0.8562,0 5.1682,1.8594 9.5823,4.1321 l 8.0256,4.1321 4.4,0.496 4.4,0.4959 0.6739,-1.7563 c 0.6308,-1.6437 -0.4796,-7.6829 -2.811,-15.2885 l -1.0081,-3.2887 -5.9512,-4.9527 c -3.2732,-2.724 -7.1253,-5.2473 -8.5604,-5.6075 l -2.6091,-0.6549 -3.3729,1.8165 c -1.8551,0.999 -4.3272,3.3604 -5.4935,5.2475 l -2.1205,3.4311 0.6291,9.5783 c 0.746,11.3567 2.4734,20.8214 4.0359,22.1133 1.0968,0.9069 17.0166,5.9002 19.247,6.0369 l 1.1237,0.069 -0.6452,-3.1546 z"
           id="path12177" /><path
           style="fill:#f7c73b;fill-opacity:1"
           d="m 3295.9111,-2215.3388 c -4.125,-1.2372 -8.4505,-2.7643 -9.6123,-3.3935 l -2.1123,-1.144 -1.1185,-5.7885 c -0.6151,-3.1837 -1.5651,-9.799 -2.1112,-14.7008 l -0.9927,-8.9124 1.0892,-4.3258 1.0893,-4.3259 3.8871,-3.5118 3.8872,-3.5118 h 4.3479 4.348 l 6.6202,5.0116 c 7.8731,5.9601 7.9621,6.1076 10.7449,17.8166 l 2.1794,9.1702 -1.3312,1.604 -1.3313,1.6041 -6.0788,-0.3871 -6.0789,-0.3871 -5.3911,-2.8189 c -2.9651,-1.5504 -6.1905,-3.3181 -7.1675,-3.9283 -2.4689,-1.5418 -3.4169,-0.1865 -2.0176,2.8847 l 1.1748,2.5782 9.3515,4.37 9.3515,4.37 0.6362,3.181 c 0.3499,1.7495 0.6362,4.0248 0.6362,5.056 v 1.875 l -3.25,-0.068 c -1.7875,-0.037 -6.625,-1.0802 -10.75,-2.3175 z"
           id="path12175" /><path
           style="fill:#000000"
           d="m 3427.5575,-2148.2033 c -0.3423,-3.9875 -0.9121,-33.8 -1.2662,-66.25 l -0.6439,-59 -0.969,-1.8726 -0.9689,-1.8727 -16.1492,-7.8091 c -8.8821,-4.295 -19.6738,-10.0539 -23.9817,-12.7974 l -7.8324,-4.9883 -4.6676,-1.0236 c -2.5671,-0.563 -8.191,-1.2087 -12.4974,-1.4349 l -7.8299,-0.4113 -0.8954,2.355 -0.8953,2.3549 h -1.8899 c -1.0394,0 -3.034,-0.9 -4.4325,-2 -1.3984,-1.1 -3.052,-2 -3.6747,-2 -1.9325,0 -8.7719,-3.8338 -18.793,-10.5344 l -9.6189,-6.4318 -3.6798,0.5885 -3.6798,0.5884 -6.6683,-6.6356 c -3.6676,-3.6496 -9.2433,-8.2751 -12.3905,-10.279 -3.1471,-2.0039 -7.2971,-4.875 -9.2221,-6.3804 l -3.5,-2.7369 -12,-3.0106 c -10.4463,-2.6208 -26.4852,-5.9629 -35.9767,-7.4965 l -2.9767,-0.481 -3.6856,1.8802 c -6.5237,3.3282 -17.011,6.9291 -20.1801,6.9291 h -3.0809 l 0.95,0.9293 c 0.5225,0.5111 8.3329,3.0385 17.3564,5.6164 20.5897,5.8822 21.8776,6.4336 28.2566,12.099 5.0478,4.4832 9.991,7.1393 20.1265,10.8143 6.7666,2.4535 8.9887,4.6755 19.7105,19.71 l 9.5,13.3212 10.679,10.6711 c 5.8734,5.8691 12.7384,11.8781 15.2556,13.3532 l 4.5766,2.6821 0.5337,2.6517 c 1.7027,8.4616 3.9237,15.1225 7.1606,21.476 l 3.6558,7.1757 0.033,5 0.033,5 -2.483,4.4998 -2.483,4.4997 -3.4807,1.7022 -3.4806,1.7022 -6.5,0.035 c -3.575,0.019 -10.775,-0.9098 -16,-2.0644 -5.225,-1.1547 -11.196,-2.3218 -13.2688,-2.5937 l -3.7688,-0.4944 -1.474,1.2234 c -0.8107,0.6728 -1.9402,2.9544 -2.5099,5.0702 l -1.0359,3.847 1.4071,3.3675 1.407,3.3676 5.0791,3.919 5.079,3.919 0.043,1.8157 c 0.1109,4.7268 8.3746,13.8886 17.5426,19.449 3.3,2.0015 8.83,5.5657 12.2889,7.9205 3.459,2.3549 8.8075,5.0137 11.8857,5.9086 l 5.5966,1.627 5.6144,-0.5816 c 3.0879,-0.3199 8.0894,-0.866 11.1144,-1.2135 l 5.5,-0.6318 6.536,2.9935 c 11.2079,5.1334 28.452,7.7928 52.3484,8.0732 l 11.8843,0.1394 -0.6223,-7.25 z"
           id="path12173" /><path
           style="fill:#f7c73b;fill-opacity:1"
           d="m 3408.4111,-2138.9978 c -22.9768,-0.982 -35.4556,-3.1749 -46.3893,-8.1518 l -6.3893,-2.9084 -8.9117,1.5309 -8.9118,1.5308 -5.1055,-1.0949 c -15.3875,-3.3001 -41.9735,-22.2352 -46.9199,-33.4174 l -1.9021,-4.3001 -4.0153,-3.1802 c -6.9131,-5.4752 -8.7392,-12.1553 -5.2964,-19.3749 l 1.6587,-3.4783 2.8335,-1.1737 c 3.0637,-1.269 3.4191,-1.2219 15.3491,2.0343 l 8,2.1836 8,0.1723 8,0.1723 2.9689,-1.5 c 1.6329,-0.825 3.988,-3.3 5.2336,-5.5 l 2.2646,-4 0.016,-3.6116 0.016,-3.6116 -4.0556,-8.6543 c -2.2305,-4.7599 -4.6852,-11.6847 -5.4549,-15.3884 l -1.3994,-6.7341 -1.6703,-1 c -11.1519,-6.6767 -24.5306,-20.4797 -39.2553,-40.5 l -10.6645,-14.5 -4.5,-2.1978 c -2.475,-1.2088 -7.4455,-3.3747 -11.0456,-4.8132 l -6.5456,-2.6153 -5.811,-4.9587 c -7.5955,-6.4816 -6.7759,-6.1159 -25.5688,-11.4068 -8.9467,-2.5189 -17.5632,-5.2502 -19.1478,-6.0697 l -2.8812,-1.4899 v -1.9743 -1.9743 h 3.4712 c 3.7955,0 18.0998,-4.8857 21.7121,-7.4158 1.2439,-0.8713 3.5534,-1.5842 5.1321,-1.5842 5.8243,0 47.4971,9.1908 51.3082,11.3159 6.694,3.7324 19.7937,13.5214 25.7116,19.2134 l 6.8352,6.5742 1.3939,-1.1569 1.3939,-1.1568 3.0296,1.0561 c 1.6662,0.5809 6.9631,3.7216 11.7709,6.9795 4.8077,3.2579 12.4312,7.7137 16.9411,9.9017 l 8.1997,3.9783 0.3003,-2.1027 0.3002,-2.1027 9.6164,0.1182 c 5.289,0.065 11.8975,0.6654 14.6855,1.3343 l 5.0692,1.2161 7.6901,4.9981 c 4.2296,2.749 14.6986,8.3478 23.2646,12.4418 8.5659,4.0941 16.3844,8.1767 17.3743,9.0726 l 1.7999,1.6289 v 30.595 c 0,16.8272 0.4915,47.6414 1.0973,68.4758 l 1.1015,37.8808 -1.3474,0.8539 c -0.7411,0.4696 -1.7974,0.7892 -2.3474,0.7102 -0.55,-0.079 -8.65,-0.4706 -18,-0.8702 z"
           id="path12171" /><path
           style="fill:#000000"
           d="m 3075.7684,-2116.2897 c -6.7196,-2.498 -10.3119,-5.2284 -13.3446,-10.1432 l -3.0127,-4.8824 0.025,-14.069 0.025,-14.069 1.2597,-2.25 1.2598,-2.25 3.2148,0.1183 c 1.7681,0.065 4.5648,0.4946 6.2148,0.9545 l 3,0.8362 -5.7475,-0.5261 -5.7475,-0.5262 -1.0955,2.8217 c -0.6025,1.5519 -1.1661,8.2216 -1.2525,14.8216 l -0.157,12 2.1527,4 c 5.7857,10.7507 17.7498,15.1414 28.0568,10.2965 11.8274,-5.5595 17.8378,-16.3359 29.7251,-53.2965 2.6533,-8.25 7.0492,-21.75 9.7686,-30 5.8671,-17.7997 12.457,-40.392 16.6261,-57 1.6568,-6.6 4.8364,-18.975 7.0658,-27.5 8.867,-33.9067 12.94,-49.9578 17.128,-67.5 1.707,-7.15 3.5757,-13.45 4.1527,-14 l 1.049,-1 -0.5486,2 c -1.1085,4.0408 -2.6159,10.1622 -4.0632,16.5 -2.8737,12.5844 -5.8959,24.6037 -8.6748,34.5 -2.2184,7.9004 -14.8317,56.7622 -16.392,63.5 -0.3251,1.4035 -3.9833,15.1712 -7.0415,26.5 -0.7423,2.75 -2.9277,9.725 -4.8564,15.5 -1.9287,5.775 -5.3951,16.575 -7.7031,24 -17.7159,56.9927 -25.1929,69.4304 -42.9822,71.4988 l -4.463,0.5189 -3.6427,-1.3541 z"
           id="path12169" /><path
           style="fill:#000000"
           d="m 3073.1971,-2108.4041 c -10.6511,-3.3287 -17.577,-9.8877 -20.8518,-19.7472 l -1.6785,-5.0537 0.534,-14.1241 c 0.2937,-7.7683 0.8415,-15.0999 1.2174,-16.2924 l 0.6834,-2.1681 -2.8453,-1.5418 -2.8452,-1.5418 1.5589,-0.04 c 0.8573,-0.022 2.3778,0.5588 3.3787,1.2907 l 1.8199,1.3308 -1.2575,8.4524 -1.2575,8.4525 0.4456,9.4668 0.4456,9.4668 2.6189,5.09 c 2.9263,5.6873 7.7092,10.3172 14.0252,13.5765 l 4.2222,2.1788 8.0671,0.4432 8.0672,0.4431 5.6589,-2.6771 5.659,-2.6771 4.5475,-5.1887 c 8.3728,-9.5534 12.4357,-19.2906 26.5744,-63.6887 3.9409,-12.375 8.6592,-27 10.4852,-32.5 3.8446,-11.58 19.1281,-67.163 27.0811,-98.4889 3.0037,-11.8311 6.7321,-26.0111 8.2853,-31.5111 1.5532,-5.5 3.1267,-11.35 3.4966,-13 0.37,-1.65 0.8984,-3.7616 1.1743,-4.6923 l 0.5016,-1.6924 -2.7991,-1.6151 -2.7991,-1.6152 2.5,0.5439 c 1.375,0.2991 2.895,0.5499 3.3778,0.5574 l 0.8778,0.014 -0.6704,4.25 c -0.616,3.9049 -3.9784,16.9014 -19.0798,73.75 -13.3844,50.3844 -17.6831,65.6734 -23.3369,83 -3.3202,10.175 -9.4467,29.0988 -13.6145,42.053 -15.8043,49.1226 -29.5813,63.2114 -54.268,55.4962 z"
           id="path12167" /><path
           style="fill:#000000"
           d="m 3111.8704,-2029.769 17.4593,-0.6843 2.1431,-10 c 2.835,-13.2289 3.1442,-13.8705 11.1742,-23.1934 19.7079,-22.8808 32.4401,-41.2556 40.9829,-59.1455 3.5879,-7.5136 10.0409,-20.8611 14.3402,-29.6611 l 7.8167,-16 7.3121,-8.6149 c 4.0217,-4.7382 11.8265,-13.7382 17.344,-20 21.9351,-24.8944 28.3457,-36.3319 23.9115,-42.6626 -2.1866,-3.1218 -2.1701,-3.1318 -9.9445,5.9822 -12.2632,14.3762 -16.7963,18.8672 -24.582,24.3539 -4.1821,2.9473 -12.612,10.1023 -18.733,15.9 -11.6973,11.0797 -12.4031,11.477 -15.9613,8.9847 l -2.2225,-1.5567 v -2.843 c 0,-3.5265 5.7796,-18.6464 11.4698,-30.0056 2.3523,-4.6959 7.2656,-17.763 10.9184,-29.038 3.6529,-11.275 8.4289,-23.9397 10.6135,-28.1437 4.9091,-9.4472 6.9643,-17.8723 6.9835,-28.6277 l 0.015,-8.2715 -2.4362,-1.11 c -1.34,-0.6105 -3.0922,-0.8583 -3.8939,-0.5507 l -1.4576,0.5594 -2.7443,8.3221 c -3.313,10.0469 -4.7076,12.8937 -12.2309,24.9668 -3.2063,5.1454 -7.829,13.8356 -10.2727,19.3115 -2.4436,5.476 -6.8508,14.026 -9.7938,19 -2.943,4.9741 -8.0626,14.2188 -11.3768,20.5438 -7.9775,15.2246 -8.6403,15.7612 -16.9065,13.6866 l -2.5769,-0.6468 -3.2494,11.2301 c -9.0432,31.2531 -18.2158,57.9728 -24.1093,70.2301 l -4.8081,10 -4.4887,5.0664 -4.4888,5.0664 -6.333,3.4336 -6.3331,3.4336 h -12.5 -12.5 l -5.8442,-2.8639 -5.8443,-2.8638 -5.1574,-5.2405 c -2.8366,-2.8823 -6.2817,-7.4421 -7.6558,-10.1328 l -2.4983,-4.8923 v -17.6043 -17.6043 l -4.2824,-1.2645 -4.2823,-1.2644 -1.0427,-1.9483 -1.0427,-1.9483 1.5083,-2.3021 c 3.5521,-5.4211 28.6255,-22.5799 32.963,-22.5579 0.6439,0 5.3813,8.2158 10.5275,18.25 l 9.3567,18.2441 -0.3567,2.5 -0.3567,2.5 -3.1016,0.3023 c -1.706,0.1663 -5.4884,-0.6046 -8.4054,-1.713 -6.714,-2.5511 -6.6504,-2.6084 -7.4767,6.726 l -0.6928,7.8266 1.4781,3.5374 c 1.7707,4.2381 5.0772,7.5737 9.3129,9.3951 l 3.1145,1.3392 3.5082,-0.9686 c 1.9295,-0.5328 5.5107,-2.7314 7.9583,-4.8859 l 4.4502,-3.9172 3.1614,-5.9313 c 6.6279,-12.4352 23.6162,-61.9686 34.5404,-100.7106 4.6932,-16.6441 20.5312,-78.1323 21.2502,-82.5 l 0.4115,-2.5 -0.6584,1.5 c -0.6452,1.4698 -4.3786,12.1429 -22.5617,64.5 -10.0409,28.9118 -11.846,33.0659 -14.7723,33.9947 -4.4409,1.4095 -8.5733,-3.1149 -7.4683,-8.1765 0.2184,-1 0.8704,-11.4932 1.4489,-23.3182 0.5786,-11.825 1.5201,-25.55 2.0922,-30.5 l 1.0403,-9 -1.2662,-9.4193 -1.2662,-9.4192 2.848,-10.9713 2.8479,-10.9712 0.4806,-9.1874 0.4805,-9.1875 -1.0927,-2.0417 c -0.6009,-1.1229 -2.7299,-2.8186 -4.731,-3.7682 l -3.6384,-1.7266 -0.8095,0.8462 c -3.4089,3.5633 -16.7435,59.3834 -24.4983,102.552 l -2.5677,14.2942 -4.5295,13.4222 c -2.4912,7.3822 -5.735,15.806 -7.2084,18.7194 l -2.679,5.2972 -6.8983,4.5306 c -3.794,2.4918 -7.864,4.5306 -9.0445,4.5306 h -2.1462 l -3.6122,-4.75 c -1.9867,-2.6125 -7.7856,-12.85 -12.8863,-22.75 -5.1008,-9.9 -11.2017,-20.925 -13.5575,-24.5 l -4.2834,-6.5 -3.5218,-2.25 c -1.9369,-1.2375 -4.5163,-2.25 -5.7319,-2.25 h -2.2102 l 3.1449,3.25 c 1.7297,1.7875 4.1033,5.4197 5.2747,8.0716 l 2.1297,4.8216 0.1311,5.6007 0.1311,5.6006 -2.5736,1.9215 -2.5737,1.9215 2.4595,7.6562 2.4595,7.6563 -0.7916,6.5 c -0.4354,3.575 -0.8158,10.325 -0.8455,15 l -0.054,8.5 2.7658,11.6908 c 1.5212,6.4299 4.7133,16.5549 7.0936,22.5 2.3804,5.945 6.009,16.8842 8.0636,24.3092 6.1695,22.2958 6.7737,23.9968 10.6068,29.8606 2.0275,3.1017 8.0591,9.9858 13.4036,15.298 l 9.7171,9.6586 -0.3253,2.8414 -0.3252,2.8414 -2.8146,0.3227 -2.8147,0.3226 -2.5177,-1.6497 c -1.3848,-0.9073 -4.2272,-3.194 -6.3164,-5.0815 l -3.7987,-3.4319 -0.6053,2.2589 c -0.3329,1.2424 -0.6114,3.9654 -0.6189,6.0511 -0.01,2.0856 -0.7271,7.2606 -1.5991,11.5 l -1.5854,7.7078 -4.6547,9.5 c -2.5602,5.225 -4.772,9.725 -4.9152,10 -0.3411,0.6549 58.3002,0.062 80.7,-0.8157 z"
           id="path12165" /><path
           style="fill:#f7c73b;fill-opacity:1"
           d="m 3027.9111,-2027.0205 c 0,-0.6863 2.4346,-6.2394 5.4103,-12.3403 5.8196,-11.9317 7.0897,-16.2049 8.0522,-27.0925 1.4133,-15.9876 1.1922,-15.8262 10.2788,-7.5 6.4895,5.9464 8.5349,6.9801 9.791,4.9478 l 0.6503,-1.0522 -9.9414,-10.1978 c -15.6173,-16.02 -16.0501,-16.8063 -22.8348,-41.4843 -2.4981,-9.0863 -6.7256,-21.9939 -9.3944,-28.6835 -2.6689,-6.6897 -5.1589,-13.9331 -5.5335,-16.0965 -0.3745,-2.1634 -1.5809,-7.5335 -2.6809,-11.9335 l -1.9999,-8 0.6807,-11.5 c 0.9791,-16.5401 0.85,-18.834 -1.4297,-25.4066 -1.1268,-3.2486 -2.0487,-6.8543 -2.0487,-8.0128 v -2.1063 l 2.25,-0.9872 2.25,-0.9871 0.3134,-3.8011 c 0.1724,-2.0905 -0.4415,-6.0737 -1.3641,-8.8515 l -1.6775,-5.0504 -4.4133,-4.606 -4.4132,-4.6059 0.4959,-1.2926 c 0.5978,-1.5577 2.8092,-1.6284 7.7777,-0.2485 8.0851,2.2455 13.2791,9.11 26.0707,34.456 4.7187,9.35 10.4351,19.5894 12.703,22.7541 l 4.1234,5.7542 2.192,-1.1179 c 1.2056,-0.6148 4.5074,-2.684 7.3374,-4.5983 l 5.1453,-3.4804 3.0034,-6.6558 c 4.8884,-10.8331 9.9538,-26.8932 12.192,-38.6559 8.8117,-46.3078 18.1445,-87.2439 23.2546,-102 l 2.4241,-7 2.5916,-0.3091 c 1.4254,-0.17 4.4186,0.623 6.6516,1.7622 l 4.06,2.0712 0.6416,2.5565 c 0.3529,1.406 0.4249,7.363 0.16,13.2378 l -0.4816,10.6814 -2.762,9.9747 -2.762,9.9748 1.3024,6.9026 1.3024,6.9025 -1.1949,15.1227 c -1.9288,24.4086 -3.3216,52.8983 -2.706,55.3508 l 0.5702,2.2719 h 1.8585 c 2.5873,0 3.4152,-1.3058 6.9744,-11 8.8843,-24.1979 30.6019,-88.0866 36.1515,-106.3501 l 6.3356,-20.8501 1.3641,-0.5234 c 3.4794,-1.3352 2.8061,2.5246 -6.2314,35.7236 -2.9196,10.725 -8.5311,32.325 -12.4701,48 -23.0166,91.5945 -43.3531,147.9617 -56.7896,157.4052 l -4.2535,2.9894 -5.3936,0.053 -5.3936,0.053 -3.8452,-3.0711 c -2.1149,-1.6891 -4.632,-4.6141 -5.5936,-6.5 l -1.7485,-3.4289 0.056,-6.5 c 0.031,-3.575 0.3795,-8.3 0.7748,-10.5 l 0.7188,-4 3.4736,0.082 c 1.9105,0.045 5.6059,0.928 8.2121,1.9614 l 4.7386,1.879 1.0992,-1.0992 1.0991,-1.0991 -8.677,-16.8623 c -4.7724,-9.2743 -9.0183,-17.2213 -9.4355,-17.66 -1.238,-1.3023 -18.8423,9.3516 -25.3732,15.3554 l -6.0455,5.5576 0.6667,1.0787 c 0.3666,0.5932 2.6849,1.6745 5.1517,2.4029 5.4771,1.6172 5.4801,1.6248 4.3199,10.9031 -0.5158,4.125 -0.7736,11.55 -0.5729,16.5 l 0.365,9 2.3467,4.8425 c 1.2907,2.6634 4.7349,7.2887 7.6537,10.2784 l 5.3071,5.4358 5.8089,2.6929 5.809,2.6928 10.5,0.014 10.5,0.014 6.104,-3.176 6.104,-3.1761 4.7228,-5.2529 4.7228,-5.2528 4.8317,-10.0565 c 5.7457,-11.9588 20.0647,-54.5704 26.0184,-77.4275 l 1.1386,-4.3711 5.7792,0.6538 5.7793,0.6539 1.015,-1.2828 c 0.5583,-0.7055 3.575,-6.1522 6.7039,-12.1037 3.1288,-5.9516 7.5384,-13.8266 9.799,-17.5 2.2607,-3.6735 7.13,-12.979 10.8206,-20.679 3.6907,-7.7 9.6729,-18.8643 13.2937,-24.8096 l 6.5834,-10.8096 2.7238,-8.551 c 1.4981,-4.7031 3.3491,-9.1762 4.1133,-9.9404 l 1.3894,-1.3894 h 3.8061 c 4.7696,0 5.6887,1.1294 6.5438,8.0416 l 0.6856,5.5416 -1.5854,9.4584 -1.5854,9.4584 -4.4807,9 c -2.4644,4.95 -7.4769,18.225 -11.1388,29.5 l -6.6579,20.5 -4.7039,9.5 c -2.5872,5.225 -6.1879,13.4299 -8.0016,18.233 l -3.2977,8.7331 1.2589,1.5169 c 2.1937,2.6433 3.7016,1.7476 14.3822,-8.5429 5.7427,-5.5329 13.9716,-12.6615 18.2866,-15.8413 7.9555,-5.8625 12.6404,-10.5526 24.3453,-24.3715 l 6.5,-7.6741 2.6276,-0.027 c 3.4618,-0.035 5.0091,2.0062 5.6184,7.4123 l 0.5002,4.4378 -2.9781,6.3117 c -3.6641,7.7653 -9.0746,14.98 -23.563,31.4201 -24.6095,27.9244 -24.7503,28.1364 -39.1162,58.8915 -14.6807,31.429 -22.2244,43.1317 -46.2522,71.7521 -9.7779,11.6469 -9.8557,11.8014 -12.7123,25.2479 l -2.1244,10 -9,0.6185 c -4.95,0.3402 -28.2375,0.9433 -51.75,1.3403 l -42.75,0.7217 v -1.2477 z"
           id="path12163" /><path
           id="path28489"
           style="fill:#b31d37;fill-opacity:1;stroke:none;stroke-width:1;stroke-linecap:round;stroke-linejoin:round;stroke-opacity:1;paint-order:stroke fill markers"
           d="m 3146.6602,-2258.873 c -10.9461,38.7083 -16.5468,56.4197 -38.2019,115.1289 -0.663,2.0015 -1.3129,4.0792 -2.7489,5.6829 -3.6477,4.7996 -7.1439,9.6526 -10.3567,14.7378 -1.5957,2.0665 -3.8954,3.4189 -6.0714,4.7853 -2.2164,1.1057 -4.7543,0.62 -7.1317,0.7856 -2.4948,0.02 -5.0282,0.155 -7.4937,-0.2435 -2.5473,-1.0078 -3.8852,-3.6444 -5.6843,-5.4512 -2.8167,-3.3734 -5.9255,-6.5336 -8.3818,-10.1876 -0.8712,-2.7312 0.05,-5.57 0.041,-8.3501 0.4264,-5.2992 0.655,-10.6222 1.332,-15.896 0.9431,-2.6578 4.1816,-3.8259 6.7734,-3.1289 2.8029,0.258 5.6465,0.45 8.3477,1.2989 -4.0465,-7.7384 -8.1014,-15.4723 -12.1621,-23.2032 -3.3865,1.7496 -6.972,3.1768 -10.11,5.3661 -3.4972,2.7797 -6.9944,5.5593 -10.4916,8.339 1.6127,0.8526 3.3945,1.6442 4.528,3.1251 1.656,2.7008 2.4308,5.916 2.1559,9.0747 -0.2543,9.1048 -0.4738,18.2106 -0.7132,27.3158 2.1018,3.4444 3.8442,7.0269 6.2806,10.2403 2.3961,2.5434 4.7318,5.1699 7.1656,7.6612 l 9.7335,4.5165 c 6.2676,0.01 12.5352,0.019 18.8027,0.029 3.4551,-1.7995 6.9102,-3.599 10.3653,-5.3984 2.8907,-3.3593 6.122,-6.447 8.7078,-10.0546 3.3696,-7.8758 7.1135,-15.5998 10.1114,-23.6297 8.9056,-27.3329 17.89,-54.6411 26.6621,-82.0168 11.9821,-44.8412 23.9643,-89.6823 35.9464,-134.5235 -3.0918,-0.9076 -6.1836,-1.8151 -9.2754,-2.7227 -9.3769,35.5729 -18.7539,71.1458 -28.1308,106.7188 z"
           sodipodi:nodetypes="cccccccccccccccccccccccccccccsc" /><path
           style="fill:#f7c73b;fill-opacity:1;stroke:none;stroke-width:1;stroke-linecap:round;stroke-linejoin:round;stroke-opacity:1;paint-order:stroke fill markers"
           d="m 3003.2801,-2235.9885 5.8364,-1.1673 -0.6485,-7.0037 -2.7236,-7.7818 -7.2631,-9.468 -3.8909,-2.983 -2.2048,2.8533 -2.0751,4.1503 7.5223,13.748 z"
           id="path38064" /><path
           style="fill:#f7c73b;fill-opacity:1;stroke:none;stroke-width:1;stroke-linecap:round;stroke-linejoin:round;stroke-opacity:1;paint-order:stroke fill markers"
           d="m 3210.4076,-2361.7953 -8.8197,-1.6861 -7.263,0.6485 -3.6314,5.7067 2.3344,2.9831 7.7819,-1.6861 7.9116,-2.594 z"
           id="path38066" /></g></g></g></svg>
