<?xml version="1.0" encoding="UTF-8" standalone="no"?>
<!-- Created with Inkscape (http://www.inkscape.org/) -->

<svg
   width="587.94067mm"
   height="500mm"
   viewBox="0 0 587.94067 500"
   version="1.1"
   id="svg5"
   xml:space="preserve"
   xmlns:inkscape="http://www.inkscape.org/namespaces/inkscape"
   xmlns:sodipodi="http://sodipodi.sourceforge.net/DTD/sodipodi-0.dtd"
   xmlns="http://www.w3.org/2000/svg"
   xmlns:svg="http://www.w3.org/2000/svg"><sodipodi:namedview
     id="namedview7"
     pagecolor="#ffffff"
     bordercolor="#000000"
     borderopacity="0.25"
     inkscape:showpageshadow="2"
     inkscape:pageopacity="0.0"
     inkscape:pagecheckerboard="0"
     inkscape:deskcolor="#d1d1d1"
     inkscape:document-units="mm"
     showgrid="false"
     showguides="false" /><defs
     id="defs2" /><g
     inkscape:groupmode="layer"
     id="layer12"
     inkscape:label="K"
     transform="translate(-1171.3827,4866.4004)"><g
       id="g40203"
       inkscape:label="K"><rect
         style="fill:#cccccc;fill-opacity:1;stroke:#1a1a1a;stroke-width:20;stroke-linecap:round;stroke-linejoin:round;stroke-dasharray:none;stroke-opacity:1;paint-order:stroke fill markers"
         id="rect38211-4-8-7"
         width="567.94067"
         height="480"
         x="1181.3827"
         y="-4856.4004"
         rx="48.766338"
         ry="48.766338" /><g
         id="g39075"
         transform="translate(-2293.9802,-2418.279)"><path
           style="fill:#ffffff"
           d="m 3672.9111,-2029.9274 c -5.775,-0.4254 -19.95,-1.2804 -31.5,-1.9 -11.55,-0.6196 -30.225,-1.6226 -41.5,-2.229 -11.275,-0.6063 -20.8997,-1.4784 -21.3882,-1.9379 l -0.8883,-0.8355 3.7692,-24.8117 3.7691,-24.8118 -0.6165,-14.5 c -0.3391,-7.975 -1.386,-21.475 -2.3265,-30 -0.9404,-8.525 -1.7344,-20.45 -1.7643,-26.5 l -0.054,-11 4.7036,-8.5689 c 2.5871,-4.7129 7.2434,-12.3629 10.3475,-17 l 5.6439,-8.4311 -0.6132,-14.5 c -0.3372,-7.975 -0.8954,-22.825 -1.2404,-33 l -0.6273,-18.5 1.6872,-10 c 2.7875,-16.522 8.977,-39.6465 17.2654,-64.5058 l 7.8333,-23.4942 4.763,-0.3053 4.763,-0.3053 4.97,2.705 c 2.7335,1.4877 6.5335,4.2684 8.4443,6.1793 l 3.4743,3.4743 0.6919,4.6138 c 0.9009,6.0074 -1.1319,34.9818 -4.0087,57.1382 -1.2497,9.625 -2.1687,17.6392 -2.0423,17.8094 0.2009,0.2703 11.3314,-8.3789 25.4445,-19.7723 2.475,-1.9981 9.9994,-7.5878 16.7209,-12.4216 6.7216,-4.8339 14.9306,-11.2065 18.2423,-14.1615 l 6.0213,-5.3727 4.2578,-1.1703 4.2577,-1.1703 22.5,0.6411 22.5,0.6412 12.5,1.9298 c 6.875,1.0613 17.9,3.1036 24.5,4.5384 6.6,1.4348 21.7766,4.1489 33.7257,6.0313 35.8429,5.6464 41.1013,7.4197 53.7314,18.1196 l 7.5429,6.3902 11.5233,5.9069 c 6.3378,3.2487 15.6625,8.6248 20.7216,11.9468 l 9.1984,6.0399 0.5884,2.3445 0.5885,2.3445 -6.6929,18.4426 c -3.6812,10.1434 -9.3544,24.7425 -12.6074,32.4425 -3.2529,7.7 -7.5215,18.3875 -9.4858,23.75 l -3.5715,9.75 h -2.2762 -2.2762 l -7.8122,-5.605 c -4.2967,-3.0827 -10.9815,-8.1696 -14.8551,-11.3042 -10.3049,-8.3389 -13.1731,-10.1752 -18.3057,-11.7199 l -4.618,-1.3899 -6.0596,1.0584 -6.0596,1.0584 -8,3.9479 -8,3.9478 -8,1.5965 c -4.4,0.8781 -8.9928,1.7832 -10.2062,2.0113 l -2.2062,0.4148 -0.628,3.742 c -1.5681,9.3432 -3.5391,12.2419 -8.3241,12.2419 h -1.9959 l 0.9302,3.2434 c 0.5116,1.7839 0.9302,4.6695 0.9302,6.4126 v 3.1693 l -3.2654,6.3079 -3.2654,6.3079 -3.3825,2.2795 -3.3825,2.2794 h -4.1296 -4.1296 l -2.1578,-1.5114 -2.1578,-1.5114 -3.2277,6.0558 c -1.7752,3.3306 -4.8794,7.9482 -6.8982,10.2613 -2.0189,2.3132 -5.5818,7.4962 -7.9175,11.518 -5.4893,9.4513 -6.0186,9.5992 -17.1485,4.7924 l -1.5625,-0.6748 -1.2383,13.221 c -0.681,7.2715 -2.0208,15.4998 -2.9772,18.285 l -1.739,5.0641 -9.8906,14 c -30.255,42.8252 -26.8736,40.1951 -49.5299,38.5259 z"
           id="path12193" /><path
           style="fill:#1a1a1a"
           d="m 3695.6182,-2036.7033 c 9.8735,-12.0459 33.9295,-46.1201 35.8289,-50.75 1.2514,-3.0501 2.8942,-14.1432 4.0356,-27.25 l 0.6314,-7.25 h 1.4383 c 0.7911,0 3.2025,0.9 5.3587,2 2.1562,1.1 4.787,2 5.8462,2 h 1.9259 l 4.282,-7.25 c 2.3551,-3.9875 5.9668,-9.1809 8.026,-11.5409 2.0593,-2.36 5.2462,-7.1959 7.082,-10.7463 l 3.3379,-6.4554 h 1.4213 c 0.7817,0 2.2665,0.7613 3.2997,1.6963 l 1.8785,1.7 h 3.4439 3.4439 l 2.7563,-2.0376 c 1.516,-1.1207 4.2928,-5.0269 6.1705,-8.6805 l 3.4142,-6.6429 -1.1642,-3.8855 c -0.6402,-2.1371 -1.1641,-4.8254 -1.1641,-5.9742 v -2.0887 l 3.5271,-0.6617 3.5271,-0.6616 0.9865,-1.8434 c 0.5426,-1.0138 1.2676,-3.9989 1.6111,-6.6336 0.7599,-5.829 1.8001,-7.2851 5.2206,-7.3077 5.7903,-0.038 17.0587,-3.1936 24.6276,-6.8961 19.4593,-9.5191 28.0431,-8.3149 46.5,6.5235 5.225,4.2007 12.6336,9.8498 16.4635,12.5536 l 6.9635,4.916 3.3147,-8.7898 c 1.823,-4.8344 5.5296,-13.9648 8.2368,-20.2898 8.0965,-18.9166 20.0215,-51.4253 20.0215,-54.5807 0,-1.8598 -12.9737,-10.4615 -25.745,-17.069 -12.0007,-6.209 -17.3218,-9.6926 -24.3805,-15.9617 -9.6599,-8.5794 -18.9237,-11.6802 -47.7502,-15.9833 -9.1433,-1.3649 -25.6243,-4.2876 -36.6243,-6.495 -32.1135,-6.4443 -65.6121,-9.5011 -81.8654,-7.4704 l -5.6425,0.705 -5.2461,4.4669 c -2.8853,2.4568 -12.896,10.2358 -22.246,17.2868 -9.35,7.0509 -22.625,17.3736 -29.5,22.9393 -6.875,5.5657 -13.34,10.129 -14.3666,10.1407 l -1.8666,0.021 0.5823,-2.75 c 1.6021,-7.5664 5.6921,-42.7667 6.7285,-57.9087 l 1.1744,-17.1587 -1.876,-3.8413 -1.876,-3.8413 -5.641,-3.8606 -5.641,-3.8605 -4.5453,-0.5123 -4.5454,-0.5124 -1.6104,5.8729 c -0.8858,3.2301 -2.999,9.6979 -4.6961,14.3729 -7.9256,21.8333 -16.8696,56.3599 -18.8549,72.7857 l -1.1223,9.2857 1.0782,19.3785 c 0.593,10.6582 1.0782,24.7122 1.0782,31.2312 v 11.8526 l -6.3304,9.669 c -3.4817,5.3179 -8.0942,13.1439 -10.25,17.3911 l -3.9196,7.7223 0.082,7.5919 c 0.045,4.1756 0.8536,14.117 1.7973,22.092 0.9436,7.975 1.9852,22.915 2.3145,33.1999 l 0.5988,18.7 -3.2919,21.9487 c -1.8106,12.0718 -3.0426,22.5985 -2.7378,23.3927 l 0.5541,1.4441 12.3418,0.6453 c 6.7879,0.3549 22.9167,1.1341 35.8417,1.7315 12.925,0.5975 27.775,1.4388 33,1.8696 5.225,0.4307 13.8456,0.8473 19.1569,0.9257 l 9.6569,0.1425 3.8933,-4.75 z"
           id="path12195" /><path
           style="fill:#000000"
           d="m 3754.4532,-2205.7552 1.8685,-3.1632 -2.2957,-8.7675 c -2.8063,-10.7173 -2.1719,-10.1823 -7.2783,-6.138 l -4.2557,3.3706 h -5.8711 -5.871 l -1.4572,-1.9927 c -0.8014,-1.0961 -1.3276,-2.8961 -1.1693,-4 l 0.2877,-2.0073 5.6405,-0.6064 5.6404,-0.6064 4.0882,-2.8936 c 2.2485,-1.5915 4.0978,-3.2147 4.1095,-3.6071 0.064,-2.1301 -24.3991,-19.6993 -25.6655,-18.433 -1.2313,1.2314 -2.1948,10.3221 -2.2535,21.2616 l -0.06,11.1152 2.0475,2.6029 c 1.1261,1.4317 5.9049,5.1697 10.6196,8.3067 4.7147,3.137 10.8807,7.6742 13.7022,10.0827 l 5.1302,4.379 0.587,-2.8702 c 0.3229,-1.5785 1.4279,-4.2936 2.4556,-6.0333 z"
           id="path12217" /><path
           style="fill:#f7c73b;fill-opacity:1"
           d="m 3745.4111,-2198.5735 c -2.2,-1.9498 -7.6,-5.9391 -12,-8.8651 -4.4,-2.926 -9.6537,-6.9277 -11.675,-8.8926 l -3.6749,-3.5726 -0.6838,-5.4729 -0.6838,-5.4728 1.1239,-11.5095 c 0.6181,-6.3302 1.3901,-12.2035 1.7157,-13.0519 l 0.5919,-1.5424 h 2.4679 c 4.1758,0 24.6016,14.5744 27.6643,19.7392 l 0.8462,1.4271 -2.3462,2.5142 c -3.2301,3.4614 -9.1146,6.3165 -13.0564,6.3348 -1.8094,0.01 -3.8736,0.3857 -4.5871,0.8383 l -1.2974,0.8229 1.303,1.0814 c 3.9674,3.2926 9.3917,2.311 15.9552,-2.8874 7.3773,-5.8429 14.3767,13.2699 8.8365,24.1295 -1.1,2.1562 -2,4.8383 -2,5.9602 v 2.0398 l -2.25,-0.037 c -1.2375,-0.021 -4.05,-1.6329 -6.25,-3.5827 z"
           id="path12215" /><path
           style="fill:#000000"
           d="m 3745.6907,-2177.7102 c 1.2538,-4.2587 2.3788,-8.2738 2.5,-8.9224 0.2174,-1.1633 -16.2008,-14.7248 -28.0261,-23.1497 l -6.0763,-4.329 -1.3386,-3.171 -1.3386,-3.171 v -15.7494 c 0,-8.6622 -0.2374,-15.7497 -0.5276,-15.75 -0.2902,-3e-4 -3.9284,1.7385 -8.0848,3.8641 -4.1564,2.1257 -9.8815,4.6368 -12.7223,5.5804 -6.0405,2.0063 -5.869,1.2165 -2.5516,11.7533 3.6929,11.7293 4.6578,13.2324 11.4598,17.8515 6.8537,4.6543 9.3837,8.1921 10.8937,15.2328 l 1.0479,4.8863 2.993,2.993 2.993,2.993 0.6243,3.9036 c 0.8061,5.0411 1.5731,5.5899 10.4087,7.4486 4.0617,0.8544 8.7532,2.4025 10.4254,3.4403 4.5906,2.8488 4.8649,2.6351 7.3201,-5.7044 z"
           id="path12213" /><path
           style="fill:#f7c73b;fill-opacity:1"
           d="m 3737.6793,-2169.5098 c -2.6025,-1.3548 -7.969,-3.1443 -11.9255,-3.9766 -8.6851,-1.827 -9.4111,-2.3663 -10.2504,-7.6149 l -0.6572,-4.1102 -2.8583,-2.67 -2.8582,-2.6701 -1.6462,-6.4257 -1.6462,-6.4257 -2.1835,-2.3242 c -1.2009,-1.2783 -4.5961,-3.9256 -7.5448,-5.8828 l -5.3613,-3.5587 -1.8945,-4.4197 c -1.042,-2.4309 -3.0821,-8.3131 -4.5335,-13.0715 l -2.6389,-8.6518 1.8063,-1.3208 c 0.9934,-0.7264 2.47,-1.3208 3.2812,-1.3208 0.8111,0 6.0934,-2.25 11.7382,-5 5.6448,-2.75 11.3768,-5 12.7377,-5 h 2.4744 l -0.1329,16.25 -0.133,16.25 1.6257,3.0001 c 0.8941,1.6501 4.1899,4.8001 7.324,7 7.758,5.4457 24.593,18.8306 26.9244,21.4068 l 1.8982,2.0974 -2.7436,9.2479 c -1.509,5.0863 -2.9155,9.8103 -3.1256,10.4978 -0.5471,1.7905 -2.301,1.492 -7.6765,-1.3065 z"
           id="path12211" /><path
           style="fill:#f7c73b;fill-opacity:1"
           d="m 3779.6611,-2155.0334 c -2.6556,-1.5467 2.8699,-13.2108 10.2893,-21.7204 l 1.134,-1.3006 1.3643,1.1323 c 0.7504,0.6228 1.6608,3.1092 2.0232,5.5254 l 0.6587,4.3931 -2.7116,4.627 c -4.7434,8.094 -8.126,10.041 -12.7579,7.3432 z"
           id="path12209" /><path
           style="fill:#000000"
           d="m 3704.6504,-2152.0866 c 1.527,-3.1965 5.2837,-21.0535 5.2019,-24.7268 l -0.059,-2.6399 -1.1912,1.9412 c -0.6552,1.0677 -2.2335,3.0305 -3.5075,4.3618 l -2.3163,2.4205 -3.052,-0.6104 c -1.6786,-0.3357 -6.4863,-2.8587 -10.6837,-5.6067 -4.1974,-2.7479 -8.6665,-4.9985 -9.9314,-5.0013 -4.5751,-0.01 -10.7442,-5.0486 -19.6746,-16.0688 l -1.9743,-2.4363 -0.3332,1.6677 c -0.7285,3.6468 8.9999,24.3758 15.1089,32.1937 l 3.0174,3.8613 1.5831,-3.3613 1.5832,-3.3614 2.0018,-0.2877 c 1.1011,-0.1583 2.8737,0.3497 3.9392,1.1288 l 1.9374,1.4166 -1.2982,4.3327 -1.2981,4.3328 2.7178,2.167 c 8.7419,6.9706 16.1152,8.7004 18.2286,4.2765 z"
           id="path12207" /><path
           style="fill:#f7c73b;fill-opacity:1"
           d="m 3691.0364,-2150.4339 c -9.3766,-5.0528 -12.5598,-8.8967 -9.1253,-11.0194 0.55,-0.3399 1,-1.7495 1,-3.1323 v -2.5143 l -1.7145,0.3301 -1.7146,0.3302 -0.9301,3.2432 -0.9301,3.2431 h -1.823 -1.8229 l -3.9258,-5.25 c -6.9234,-9.2586 -17.0237,-32.0021 -15.7204,-35.3985 1.0642,-2.7733 8.5814,-0.5474 8.5814,2.541 0,3.2075 13.8536,14.0975 17.942,14.1038 h 2.4421 l 7.7362,5.079 7.7362,5.0789 2.3217,-0.3289 2.3218,-0.329 2,-3.7473 2,-3.7473 h 1.643 c 3.2652,-0.01 3.6659,5.2331 1.3384,17.4973 -2.8595,15.0673 -4.2516,17.5194 -9.9225,17.4773 l -3.0589,-0.023 -6.3747,-3.4352 z"
           id="path12205" /><path
           style="fill:#000000"
           d="m 3750.4875,-2131.2033 c 2.0467,-3.4375 5.1773,-7.825 6.9568,-9.75 8.243,-8.9165 25.7199,-36.7862 29.1152,-46.4288 1.858,-5.2766 5.9541,-11.152 9.5695,-13.7263 l 2.8672,-2.0417 11.7075,-1.4013 11.7074,-1.4014 18.6928,-5.5513 18.6928,-5.5513 4.8072,2.1581 c 2.644,1.187 8.4072,3.9142 12.8072,6.0604 l 8,3.9023 9.2786,7.4805 9.2786,7.4805 0.8815,-2.2399 c 0.4849,-1.2319 6.7455,-17.0756 13.9126,-35.2083 l 13.031,-32.9684 -1.1478,-1.383 c -1.6946,-2.0419 -10.7225,-7.6478 -18.9834,-11.7878 -13.2709,-6.6507 -20.928,-11.5623 -27.6831,-17.757 l -6.6905,-6.1353 -6.9387,-2.1758 c -8.4384,-2.646 -13.6882,-3.677 -32.4388,-6.3709 -7.975,-1.1458 -23.725,-4.0486 -35,-6.4506 -11.275,-2.4021 -26.575,-5.0723 -34,-5.9338 l -13.5,-1.5665 h -18.1694 -18.1694 l -5.3306,4.8294 c -2.9318,2.6561 -12.9806,10.6259 -22.3306,17.7106 -30.0151,22.7431 -39.9001,30.3819 -44.5,34.3878 l -4.5,3.919 2.3067,8.8266 c 2.5006,9.5685 6.2977,17.7537 16.156,34.8266 12.6859,21.9696 13.8322,23.2699 22.0373,24.995 1.925,0.4047 6.5708,2.7656 10.324,5.2464 l 6.824,4.5106 1.0581,-1.0581 c 1.3607,-1.3607 1.2809,-10.6716 -0.1364,-15.9352 l -1.0976,-4.076 -3.5044,-3.0769 c -4.4848,-3.9378 -6.9111,-4.4983 -16.5973,-3.8344 l -7.9137,0.5424 -1.4783,-1.4783 c -1.7493,-1.7493 -1.8355,-2.7997 -0.4432,-5.4012 l 1.0352,-1.9343 h 5.9522 5.9522 l -2.4613,-5.5653 c -1.3536,-3.0609 -3.2396,-8.9109 -4.1909,-13 -0.9513,-4.0891 -2.0712,-7.4347 -2.4886,-7.4347 -0.4174,0 -3.2281,-0.9238 -6.2459,-2.0529 l -5.4869,-2.0529 -0.6332,-1.9951 -0.6332,-1.9951 1.205,-1.452 1.2051,-1.452 4.1275,0.022 c 2.2702,0.012 6.0892,0.912 8.4868,2 5.7657,2.6162 9.785,2.4729 14.6408,-0.5219 6.7823,-4.183 11.7157,-6.2758 19,-8.06 3.85,-0.9431 7.5057,-1.8419 8.1237,-1.9975 0.6181,-0.1556 1.4253,-1.8902 1.7938,-3.8547 l 0.6701,-3.5718 2.6249,-0.6588 2.6249,-0.6588 1.8976,2.3434 1.8975,2.3433 -0.4645,1.7765 -0.4646,1.7765 10.6855,7.9346 c 11.5577,8.5823 16.5151,13.1614 18.6403,17.2177 2.5634,4.8928 7.4708,23.1725 7.4708,27.8281 v 4.6585 l -2,3.9229 -2,3.9229 v 5.1661 5.1661 l -1.4138,1.1734 c -2.4492,2.0326 -5.5339,9.7747 -6.2198,15.6109 l -0.6603,5.618 -2.9784,2.1713 c -4.8251,3.5176 -9.7277,18.1075 -9.7277,28.9491 v 4.1471 l 2.75,2.2516 c 3.7454,3.0665 3.6276,3.1256 7.8264,-3.9265 z"
           id="path12203" /><path
           style="fill:#f7c73b;fill-opacity:1"
           d="m 3741.296,-2125.1688 c -1.5867,-1.2186 -3.2158,-2.6811 -3.6202,-3.25 -1.4672,-2.0644 1.3118,-19.2983 4.44,-27.5345 l 2.089,-5.5 3.2557,-3 3.2558,-3 0.5536,-5.2778 0.5536,-5.2778 2.9516,-5.7222 c 1.6234,-3.1472 3.2226,-7.9556 3.5539,-10.6852 0.3312,-2.7297 1.4977,-6.681 2.5922,-8.7808 3.0237,-5.8013 -0.1673,-23.0494 -6.3344,-34.2381 l -2.1947,-3.9818 -12.9905,-9.8009 -12.9905,-9.8009 -0.3104,-3.4672 -0.3103,-3.4673 h -1.9397 -1.9396 v 2.3089 c 0,1.2698 -0.5625,3.0504 -1.25,3.9568 l -1.25,1.6481 -7.22,1.483 c -7.2889,1.4972 -12.4768,3.6161 -19.7607,8.0708 -2.1893,1.339 -5.6194,2.7114 -7.6224,3.0498 l -3.6419,0.6153 -6.2305,-2.6224 c -6.5396,-2.7525 -10.5245,-2.9772 -10.5245,-0.5936 v 1.4166 l 6,1.9833 c 6.6367,2.1937 7.4623,2.9506 7.4847,6.8609 0.01,1.4727 1.403,6.4227 3.0992,11 1.6961,4.5774 3.3222,9.56 3.6135,11.0725 l 0.5296,2.75 h -5.0317 c -5.9623,0 -8.1953,0.7103 -8.1953,2.607 v 1.393 h 10.3521 10.3521 l 3.306,2.25 c 5.0372,3.4283 6.8293,6.5939 8.0681,14.2514 l 1.1327,7.0014 -1.1579,4.3001 c -0.6369,2.365 -1.7964,4.5451 -2.5767,4.8445 l -1.4188,0.5445 -6.9788,-4.6395 c -3.8384,-2.5518 -9.2155,-5.2197 -11.9493,-5.9288 -7.373,-1.9126 -9.6733,-3.8747 -14.371,-12.2584 -2.3422,-4.1799 -7.5209,-13.0595 -11.5083,-19.7325 l -7.2498,-12.1327 -4.0002,-12.3774 c -4.9043,-15.1748 -4.9151,-14.3427 0.2498,-19.1984 3.7329,-3.5095 36.9413,-29.3243 55.8611,-43.4242 3.6901,-2.75 9.2985,-7.25 12.4631,-10 l 5.7539,-5 20.586,0.17 20.5859,0.1699 12.5,1.6316 c 6.875,0.8973 19.925,3.2229 29,5.1681 19.6156,4.2043 27.5306,5.6309 43.4769,7.8361 13.6274,1.8846 23.0155,3.8805 29.5231,6.2766 l 4.5,1.657 7.7571,6.6735 7.7571,6.6734 13.1664,6.8719 c 7.2415,3.7796 16.1258,8.9007 19.7429,11.3804 l 6.5765,4.5086 0.3049,2.13 c 0.4693,3.2775 -27.6636,74.344 -29.4324,74.3495 -0.6201,0 -4.292,-2.647 -8.1597,-5.8864 -24.2403,-20.3025 -32.579,-22.7846 -54.4232,-16.1996 -14.3688,4.3316 -20.6485,5.619 -37.4082,7.6688 l -4.1185,0.5037 -3.9413,3.3737 -3.9414,3.3736 -1.8345,4.3348 c -5.411,12.7852 -8.0674,17.664 -16.2867,29.9116 -4.9545,7.3828 -11.3139,16.2921 -14.132,19.7986 -2.818,3.5065 -6.5075,8.794 -8.1988,11.75 l -3.075,5.3746 h -2.2917 c -1.2605,0 -3.59,-0.997 -5.1766,-2.2155 z"
           id="path12201" /><path
           style="fill:#000000"
           d="m 3704.6305,-2059.9533 c 8.9931,-12.375 17.4619,-24.3424 18.8195,-26.5942 l 2.4685,-4.0941 1.9814,-18.9059 c 1.0897,-10.3982 2.4386,-22.5058 2.9975,-26.9058 1.502,-11.8243 1.2692,-15.5304 -1.3874,-22.0801 l -2.401,-5.9199 -2.849,-1.7447 c -1.5669,-0.9596 -3.5338,-1.7471 -4.3708,-1.75 l -1.522,-0.01 -1.2285,6.4764 c -0.6758,3.562 -2.0159,8.8495 -2.9781,11.75 l -1.7495,5.2736 -3.5,1.8041 -3.5,1.804 -6.0661,-0.3397 -6.0661,-0.3398 -10.7682,-5.9643 -10.7683,-5.9643 -4.6885,-4.6657 -4.6886,-4.6658 -3.7882,-7.6613 c -6.7304,-13.6117 -9.4166,-21.6536 -13.5303,-40.5072 -2.2201,-10.175 -5.1778,-21.9828 -6.5727,-26.2396 -1.3948,-4.2568 -2.8375,-9.6568 -3.206,-12 -0.3685,-2.3432 -1.2685,-5.1846 -2,-6.3142 l -1.3299,-2.0538 0.9166,-3.1962 c 0.5042,-1.7579 0.6713,-3.1962 0.3715,-3.1962 -0.2999,0 0.1665,-1.0863 1.0364,-2.4139 l 1.5817,-2.4139 2.5103,-18.8361 c 2.7395,-20.5552 4.1224,-34.1104 5.144,-50.4179 l 0.6628,-10.5818 -1.1604,-2.1682 c -1.8277,-3.4151 -2.8176,-2.663 -6.6885,5.0818 -4.5155,9.0345 -6.0152,10.75 -9.3978,10.75 h -2.6863 l -3.3082,10.75 c -3.8527,12.5196 -6.0955,21.1618 -9.797,37.75 l -2.6776,12 0.4214,22 c 0.9107,47.5357 0.1477,70.8544 -2.5484,77.8802 l -0.6621,1.7254 -3.6227,-0.3028 -3.6228,-0.3028 -0.3153,-3.8327 -0.3153,-3.8328 -3.5758,5.8328 -3.5758,5.8327 -0.8345,4.9767 -0.8345,4.9767 2.1285,19.5233 2.1284,19.5233 0.085,22 0.084,22 -2.7765,16.3775 c -3.3594,19.8157 -9.5435,16.8473 40.9612,19.6619 23.5624,1.3132 44.8657,2.5595 47.3407,2.7696 2.475,0.2102 5.5954,0.3391 6.9341,0.2866 l 2.4342,-0.096 16.3511,-22.5 z"
           id="path12199" /><path
           style="fill:#f7c73b;fill-opacity:1"
           d="m 3663.3645,-2036.1452 c -7.1756,-0.4947 -27.4256,-1.6665 -45,-2.6038 l -31.9534,-1.7043 -0.3109,-3.2176 c -0.1711,-1.7696 0.616,-8.7446 1.7491,-15.5 1.133,-6.7553 2.544,-17.0074 3.1354,-22.7824 l 1.0755,-10.5 -0.6357,-12.5 c -0.3497,-6.875 -1.5495,-21.275 -2.6662,-32 -2.1213,-20.3729 -2.0439,-29.9773 0.2755,-34.2096 0.7575,-1.3822 3.0705,-5.7256 5.1399,-9.6518 l 3.7625,-7.1386 h 1.6264 1.6263 l -0.55,6.0655 -0.55,6.0655 1.512,0.5802 c 4.8869,1.8753 6.688,-23.7672 4.9317,-70.2112 l -0.8697,-23 1.1925,-8 c 2.7436,-18.4058 13.8838,-59.217 16.3707,-59.9728 0.6517,-0.1981 2.3596,-0.6155 3.7953,-0.9277 l 2.6103,-0.5675 4.4192,-8.766 4.4192,-8.766 2.1573,-0.3113 2.1573,-0.3112 1.7161,2.6191 1.7161,2.6191 -0.6232,13.6922 c -1.1689,25.6777 -6.3713,67.8095 -9.213,74.6105 l -1.5155,3.6273 0.9068,1.7271 c 0.4988,0.95 1.2343,3.7522 1.6346,6.2272 0.4002,2.475 1.8207,7.875 3.1565,12 1.3358,4.125 4.3864,16.3344 6.7791,27.132 l 4.3504,19.6321 4.2162,9.6135 c 2.3189,5.2875 5.9056,12.4281 7.9704,15.868 l 3.7541,6.2544 4.8889,3.7474 c 2.6889,2.0611 9.298,5.9986 14.6869,8.75 l 9.7979,5.0026 h 2.9842 c 8.7066,0 11.1224,-2.9173 14.346,-17.3234 l 2.2772,-10.1766 1.8983,-0.2787 c 1.0441,-0.1533 3.8812,0.7467 6.3047,2 l 4.4063,2.2787 2.8941,7.4055 2.894,7.4054 -1.54,13.5946 c -0.8471,7.477 -2.2566,20.3445 -3.1322,28.5945 -2.5016,23.5682 -0.7533,19.551 -20.0188,46 -5.2081,7.15 -11.9409,16.4875 -14.962,20.75 l -5.4927,7.75 -6.7275,-0.1462 c -3.7001,-0.08 -12.5985,-0.551 -19.7741,-1.0457 z"
           id="path12197" /><path
           style="fill:#f7c73b;fill-opacity:1;stroke:none;stroke-width:1;stroke-linecap:round;stroke-linejoin:round;stroke-opacity:1;paint-order:stroke fill markers"
           d="m 3623.8341,-2340.4425 4.5855,-0.9171 8.6206,-15.2239 -0.7334,-4.2187 -6.7865,-1.4674 -3.4851,12.8395 z"
           id="path38068" /></g></g></g></svg>
