<?xml version="1.0" encoding="UTF-8" standalone="no"?>
<!-- Created with Inkscape (http://www.inkscape.org/) -->

<svg
   width="587.94067mm"
   height="500mm"
   viewBox="0 0 587.94067 500"
   version="1.1"
   id="svg5"
   xml:space="preserve"
   xmlns:inkscape="http://www.inkscape.org/namespaces/inkscape"
   xmlns:sodipodi="http://sodipodi.sourceforge.net/DTD/sodipodi-0.dtd"
   xmlns="http://www.w3.org/2000/svg"
   xmlns:svg="http://www.w3.org/2000/svg"><sodipodi:namedview
     id="namedview7"
     pagecolor="#ffffff"
     bordercolor="#000000"
     borderopacity="0.25"
     inkscape:showpageshadow="2"
     inkscape:pageopacity="0.0"
     inkscape:pagecheckerboard="0"
     inkscape:deskcolor="#d1d1d1"
     inkscape:document-units="mm"
     showgrid="false"
     showguides="false" /><defs
     id="defs2" /><g
     inkscape:groupmode="layer"
     id="layer13"
     inkscape:label="L"
     transform="translate(-1909.8767,4866.4004)"><g
       id="g40185"
       inkscape:label="L"><rect
         style="fill:#cccccc;fill-opacity:1;stroke:#1a1a1a;stroke-width:20;stroke-linecap:round;stroke-linejoin:round;stroke-dasharray:none;stroke-opacity:1;paint-order:stroke fill markers"
         id="rect38211-4-8-19"
         width="567.94067"
         height="480"
         x="1919.8767"
         y="-4856.4004"
         rx="48.766338"
         ry="48.766338" /><g
         id="g39086"
         transform="translate(-2135.0641,-2407.9667)"><path
           style="fill:#ffffff"
           d="m 4414.555,-2040.4538 -13.1439,-13.7742 -13.6075,-10.3371 -13.6075,-10.3371 -17.5006,-17.2755 -17.5006,-17.2756 -4.2897,-10 c -5.0744,-11.8292 -7.9852,-16.2741 -15.0619,-23 l -5.2607,-5 -0.4261,1.2712 c -2.5301,7.5469 -18.1131,22.2425 -34.6621,32.688 -15.2402,9.6194 -16.3991,10.819 -20.5257,21.2474 -4.3412,10.9708 -27.04,47.1673 -31.9892,51.0116 -2.6305,2.0432 -4.1914,1.5578 -21.1677,-6.5823 -19.4559,-9.3291 -26.5707,-12.6905 -50.2816,-23.7552 -21.2146,-9.8998 -26.6191,-12.9429 -26.6191,-14.9886 0,-2.3802 1.3955,-4.6265 15.4642,-24.8921 14.7183,-21.2015 18.1033,-27.0364 25.0098,-43.1108 l 4.7739,-11.1108 -2.2636,-5.8892 -2.2636,-5.8892 -0.7388,-26.5 -0.7388,-26.5 -2.5982,-12.5 c -1.429,-6.875 -2.6087,-14.1149 -2.6215,-16.0887 l -0.023,-3.5886 5.0387,-10.3037 5.0387,-10.3036 3.5082,-12.6077 c 1.9294,-6.9342 4.6612,-16.132 6.0706,-20.4396 l 2.5626,-7.8318 -1.2917,-7.6682 c -0.7105,-4.2174 -1.3222,-10.1341 -1.3594,-13.1481 l -0.068,-5.48 2.6453,-1.2744 c 3.495,-1.6837 13.7001,-2.7048 18.3378,-1.8348 l 3.6964,0.6935 4.3733,4.0312 4.3733,4.0311 2.0536,5.4887 c 2.7194,7.2682 3.9818,20.1146 4.003,40.7332 l 0.017,16.9085 6.2859,-6.036 c 3.4573,-3.3198 8.9698,-7.3987 12.25,-9.064 7.4884,-3.8019 10.1758,-6.6938 15.535,-16.717 2.3526,-4.4 6.3182,-11.15 8.8125,-15 l 4.535,-7 19.5107,-20 c 10.7309,-11 22.3281,-22.7747 25.7716,-26.1661 l 6.2609,-6.1661 3.6378,-1.2006 3.6378,-1.2006 4.3997,0.4959 4.3997,0.4959 4.0508,2.6807 c 2.2279,1.4744 4.997,4.2845 6.1536,6.2448 l 2.1029,3.5641 1.8717,-2.5694 c 1.0294,-1.4132 3.3834,-3.5037 5.2311,-4.6457 l 3.3595,-2.0762 5.9639,-0.084 5.9639,-0.084 4.5603,2.0172 4.5604,2.0172 2.6934,4.0701 2.6934,4.0701 0.4706,4.2683 0.4706,4.2683 -3.0379,5.75 -3.038,5.75 h 5.5235 5.5235 l 2.842,2.842 2.842,2.842 1.1966,4.408 1.1965,4.408 -1.2527,5 c -0.6889,2.75 -2.9909,8.4775 -5.1154,12.7278 -4.5648,9.1322 -4.4458,8.4091 -1.5056,9.147 1.2964,0.3254 4.2214,2.6141 6.5,5.0861 l 4.1428,4.4944 v 2.4707 c 0,9.2486 -8.5019,27.4602 -22.4081,47.9996 l -10.2062,15.0744 -3.3493,8.3594 -3.3494,8.3594 -6.6817,7.2062 -6.6816,7.2062 -0.6442,6.4344 c -0.3543,3.5389 -0.9304,7.4499 -1.2802,8.6911 l -0.6361,2.2567 3.8684,3.5762 c 2.1276,1.967 5.0623,4.4385 6.5215,5.4924 l 2.653,1.9162 -2.3819,-6.7491 -2.382,-6.7491 -0.021,-6.1733 -0.021,-6.1732 2.4417,-2.9019 2.4418,-2.9018 7.1476,-3.2946 7.1477,-3.2946 3.7052,0.497 c 2.0379,0.2734 6.5651,1.6521 10.0604,3.0639 l 6.3551,2.567 4.1002,-3.3197 c 9.0585,-7.3341 12.777,-7.9908 20.7488,-3.6645 2.9433,1.5974 8.7265,4.7355 12.8515,6.9737 l 7.5,4.0694 10.882,0.026 10.8819,0.026 3.3763,2.0866 c 3.5531,2.196 9.646,9.6953 15.3665,18.9134 1.8772,3.025 6.1813,8.525 9.5647,12.2221 l 6.1516,6.7221 3.8021,7.2779 c 2.0912,4.0029 5.914,10.4279 8.4951,14.2779 7.126,10.6289 8.2098,13.1861 18.0768,42.6482 10.6173,31.7024 9.6275,29.4252 16.5371,38.0485 2.9513,3.6831 5.3659,7.6091 5.3659,8.7243 v 2.0276 l -2.8644,1.4813 c -1.5754,0.8146 -27.7879,6.5023 -58.25,12.6391 -30.4621,6.1369 -56.4458,11.3935 -57.7417,11.6813 l -2.356,0.5234 -13.144,-13.7742 z"
           id="path12235" /><path
           style="fill:#1a1a1a"
           d="m 4440.1224,-2031.8731 c 4.5588,-1.0558 16.6137,-3.515 26.7887,-5.4647 34.5171,-6.6143 73.4884,-14.6733 76.25,-15.768 3.6772,-1.4577 3.5376,-2.0677 -2.1058,-9.2057 -6.4197,-8.12 -5.6269,-6.2675 -16.1102,-37.6418 -9.0208,-26.9973 -11.6063,-32.9803 -19.0145,-44 -2.0336,-3.025 -5.4073,-8.775 -7.497,-12.7779 l -3.7995,-7.2779 -6.1791,-6.7221 c -3.3985,-3.6971 -7.8335,-9.4221 -9.8557,-12.7221 -2.0221,-3.3 -5.6506,-8.5108 -8.0632,-11.5795 l -4.3866,-5.5795 -3.5203,-1.6705 -3.5204,-1.6705 h -10.1273 -10.1274 l -6.1845,-3.1219 c -3.4015,-1.7171 -7.9698,-4.2489 -10.1518,-5.6264 -2.182,-1.3774 -5.3709,-3.0909 -7.0863,-3.8076 l -3.1191,-1.3033 -4.0518,1.8141 c -2.2284,0.9977 -5.7234,3.4857 -7.7666,5.5289 l -3.715,3.7149 -1.6839,-0.5212 c -0.9262,-0.2867 -4.384,-1.6707 -7.684,-3.0756 -3.3,-1.4049 -7.674,-2.5651 -9.7201,-2.5782 l -3.7201,-0.024 -5.8505,2.973 c -3.2177,1.6352 -6.7187,3.9348 -7.7799,5.1103 l -1.9294,2.1374 0.1511,6.1396 0.151,6.1397 2.599,6.4396 c 4.8257,11.9571 1.0025,12.1569 -11.4879,0.6004 l -4.0633,-3.7595 0.6616,-7.6402 c 0.3639,-4.2022 1.0597,-9.2153 1.5463,-11.1403 l 0.8847,-3.5 5.3247,-5.5 c 6.081,-6.2812 8.458,-10.0152 11.7767,-18.5 1.2907,-3.3 6.9348,-12.7782 12.5425,-21.0627 11.757,-17.3694 15.3022,-24.0061 19.4728,-36.4546 l 3.0027,-8.9624 -1.4335,-2.7601 c -1.5615,-3.0068 -6.1405,-6.744 -10.114,-8.2547 -3.2649,-1.2414 -3.1817,-2.1194 0.8926,-9.4094 1.8738,-3.3529 4.331,-8.8416 5.4605,-12.1973 l 2.0535,-6.1011 -0.9989,-3.6178 c -0.5494,-1.9898 -2.1467,-4.9818 -3.5494,-6.6488 l -2.5505,-3.0311 h -5.9111 -5.9111 v -0.9973 c 0,-0.5486 1.3951,-3.9501 3.1002,-7.559 l 3.1003,-6.5616 -0.6568,-3.5007 -0.6567,-3.5007 -3.5671,-3.9484 -3.5671,-3.9483 -5.3185,-1.5461 -5.3185,-1.5462 -4.3079,1.1596 -4.3079,1.1595 -3.5964,3.8946 c -4.4297,4.797 -5.1671,4.8223 -7.9786,0.2733 -1.2309,-1.9917 -4.2807,-4.9167 -6.7773,-6.5 l -4.5393,-2.8787 h -3.8538 c -6.0838,0 -7.9554,1.4985 -31.4174,25.1542 -28.8348,29.0729 -33.0011,34.2193 -41.6456,51.4419 -4.8329,9.6287 -7.8788,12.9729 -15.0751,16.5516 l -6.1165,3.0417 -7.72,7.602 c -9.5887,9.4422 -8.8177,10.9154 -9.3882,-17.9381 l -0.4816,-24.3533 -1.4396,-6.2454 c -2.5802,-11.193 -8.3636,-17.7299 -16.6968,-18.8721 l -4.3965,-0.6026 -5.7523,1.1941 -5.7523,1.1942 -0.5334,1.3901 c -0.2934,0.7645 0.2329,5.6465 1.1696,10.8489 2.1038,11.6841 1.7963,14.8926 -2.9323,30.5928 -2.0707,6.875 -4.6487,15.425 -5.7289,19 -1.0803,3.575 -4.2307,11.3331 -7.0009,17.2402 l -5.0367,10.7402 3.095,15.8473 3.0949,15.8473 0.044,15.9125 c 0.024,8.7519 0.4242,20.5052 0.8894,26.1184 l 0.8459,10.2059 2.1866,4.5169 2.1866,4.5169 -0.6838,2.2772 c -4.3261,14.409 -14.8673,33.6723 -31.2766,57.1561 -16.6574,23.8386 -18.3019,19.7127 13.8083,34.6417 25.2411,11.7352 28.7108,13.3706 46.3898,21.8646 9.2894,4.4631 17.4718,8.1148 18.1831,8.1148 3.7646,0 27.0862,-35.79 33.4753,-51.3722 4.5283,-11.0441 4.7618,-11.284 20.5641,-21.1278 l 12.8424,-8 8.5919,-8.5 c 4.7256,-4.675 9.841,-10.6375 11.3677,-13.25 5.1695,-8.8463 17.0603,1.6924 26.5844,23.5614 l 4.2729,9.8113 7.6142,8.1031 c 11.7942,12.5514 30.4826,29.3905 43.3126,39.0267 l 11.6534,8.7524 12.2649,12.9976 12.2648,12.9975 h 1.7705 c 0.9738,0 5.5005,-0.8639 10.0593,-1.9198 z"
           id="path12237" /><path
           style="fill:#1a1a1a"
           d="m 4259.0549,-2228.28 c -0.6056,-0.7297 -1.8156,-3.0368 -2.6889,-5.1269 l -1.5878,-3.8003 0.6349,-3.7579 c 0.3492,-2.0669 1.5725,-4.7644 2.7184,-5.9944 l 2.0835,-2.2364 4.9591,0.5873 4.9592,0.5874 3.3889,2.5848 3.3889,2.5849 v 3.0919 3.092 l -4.8571,4.8572 -4.8572,4.8571 h -3.5204 c -1.9362,0 -4.0159,-0.597 -4.6215,-1.3267 z"
           id="path12247" /><path
           style="fill:#f7c73b;fill-opacity:1"
           d="m 4212.4111,-2051.1605 c -5.7184,-2.965 -58.2008,-27.8126 -69.25,-32.7861 l -5.25,-2.3632 v -1.9257 c 0,-1.0592 3.2387,-6.4915 7.197,-12.0718 19.5249,-27.5251 23.0348,-33.4488 30.8826,-52.1213 4.5412,-10.8048 4.8722,-10.9657 10.7683,-5.2352 5.7367,5.5756 11.8224,9.7105 14.2916,9.7105 3.2384,0 2.0696,-1.6521 -5.8895,-8.325 -4.2625,-3.5737 -9.4048,-8.225 -11.4273,-10.3363 l -3.6773,-3.8387 -1.0625,-6 c -1.3931,-7.8681 -2.8468,-33.5108 -2.2942,-40.4721 l 0.4343,-5.4721 -3.7999,-18.5475 -3.7999,-18.5475 6.7535,-14.8755 6.7535,-14.8755 3.383,-12.1049 c 1.8606,-6.6577 3.8663,-13.9903 4.4572,-16.2946 l 1.0742,-4.1897 1.7277,-0.507 c 0.9502,-0.2788 3.4152,-0.806 5.4777,-1.1716 l 3.75,-0.6646 v -3.9746 c 0,-2.186 -0.7651,-6.8458 -1.7002,-10.3551 -1.8775,-7.0462 -1.4823,-8.3075 2.0929,-6.6785 6.5245,2.9727 10.5531,13.2918 10.6311,27.2308 0.026,4.675 0.4481,12.9858 0.9376,18.4684 l 0.89,9.9683 -0.8507,5.0317 c -3.6921,21.8381 -1.5254,25.6342 7.7966,13.6598 7.9529,-10.2159 12.8964,-14.6281 21.679,-19.3496 l 7.959,-4.2786 3.6096,-7.0632 c 1.9853,-3.8848 7.3523,-12.6598 11.9267,-19.5 l 8.3171,-12.4368 24.1057,-23.7976 c 13.2581,-13.0887 25.3392,-24.4608 26.847,-25.2712 l 2.7413,-1.4736 2.5611,0.6427 c 3.1599,0.7931 13.4562,10.0475 13.4562,12.0946 0,2.7221 -9.287,15.3934 -20.2906,27.6848 -11.0391,12.3311 -17.3968,20.4407 -33.2932,42.4674 -4.9009,6.791 -9.7405,12.7913 -10.7546,13.334 l -1.8438,0.9868 -4.8443,-2.084 c -5.5204,-2.3748 -8.0535,-2.6039 -9.7735,-0.8839 -1.9908,1.9908 -1.451,2.466 4.7912,4.2175 l 5.9912,1.681 1.044,1.9508 c 2.5881,4.8359 7.9628,-0.3462 22.4046,-21.6023 5.9591,-8.7708 13.8125,-19.2733 17.4519,-23.3388 15.221,-17.0031 23.6683,-27.1493 30.0931,-36.1457 3.7461,-5.2456 8.6604,-11.2081 10.9205,-13.25 l 4.1093,-3.7125 h 4.129 4.1291 l 3.2646,2.0176 c 1.7955,1.1097 4.0371,3.1966 4.9812,4.6376 l 1.7167,2.62 -0.5292,3.9458 -0.5293,3.9458 -5.2535,8.6666 c -6.5482,10.8023 -13.0649,19.944 -22.9298,32.1666 -4.2171,5.225 -10.7678,14.225 -14.557,20 l -6.8894,10.5 -11.0592,11 c -6.0826,6.05 -12.58,13.1375 -14.4386,15.75 -3.7482,5.2684 -4.8858,5.6833 -7.5404,2.75 -1.6594,-1.8336 -4.5,-2.752 -4.5,-1.4548 0,3.3881 11.6816,17.1732 13.2358,15.619 l 1.0615,-1.0615 -1.7334,-2.6455 -1.7334,-2.6456 0.5581,-2.2238 c 0.307,-1.2231 7.0226,-8.9878 14.9236,-17.2549 l 14.3654,-15.031 8.1687,-11.9568 c 4.4928,-6.5762 11.591,-16.2066 15.7739,-21.4009 4.1828,-5.1943 9.3043,-11.9192 11.3811,-14.9442 2.0767,-3.025 4.923,-6.5646 6.325,-7.8658 l 2.5492,-2.3658 4.5027,-0.5076 c 2.4765,-0.2791 5.6196,-0.2272 6.9846,0.1154 l 2.4818,0.6229 1.1338,3.4354 1.1337,3.4353 -1.1206,4.1617 c -3.4496,12.8108 -16.6793,35.7644 -29.3698,50.9566 -9.6703,11.5766 -12.2592,15.0018 -19.4743,25.7647 -3.4115,5.0891 -8.8435,11.9516 -12.071,15.25 l -5.8683,5.9972 h -1.9692 c -1.083,0 -3.1133,-0.9 -4.5118,-2 -3.0155,-2.372 -4.3156,-2.5146 -5.0673,-0.5559 l -0.5542,1.4442 4.7798,3.4339 4.7797,3.4339 2.1123,4.4938 c 1.1618,2.4716 2.8292,4.7689 3.7053,5.1051 l 1.593,0.6113 0.5513,-1.4368 c 0.3033,-0.7902 -0.1638,-2.4577 -1.0378,-3.7056 -0.8741,-1.2479 -1.5892,-3.6896 -1.5892,-5.4259 v -3.1571 l 4.2735,-3.5018 c 2.3504,-1.926 7.8233,-8.6177 12.1621,-14.8704 4.3387,-6.2528 12.8949,-17.4437 19.0138,-24.8687 6.1189,-7.425 13.3374,-16.425 16.0413,-20 5.7863,-7.6508 6.1701,-7.9647 9.7593,-7.9847 l 2.75,-0.015 2.0651,2.0651 2.0652,2.0652 -0.6791,3.1848 c -0.3735,1.7517 -2.3009,7.4599 -4.2831,12.6849 l -3.6041,9.5 -11.4364,17 -11.4365,17 -3.278,7.6691 c -5.224,12.2218 -6.3003,13.954 -13.0373,20.9837 l -6.3758,6.6527 v 6.0973 6.0972 h -1.9054 c -1.0479,0 -3.7332,-1.5271 -5.9672,-3.3936 -2.234,-1.8665 -7.5641,-5.431 -11.8446,-7.9212 l -7.7828,-4.5277 -11.5045,-10.3919 c -6.3274,-5.7155 -15.0551,-14.2923 -19.3948,-19.0596 l -7.8904,-8.6678 -4.1709,-2.0191 c -7.7407,-3.7472 -12.6776,-2.5719 -17.5708,4.1829 l -2.9686,4.0981 0.035,3.5999 0.035,3.6 6.2153,10.7217 c 3.4184,5.897 12.093,18.947 19.2768,29 7.1838,10.0531 13.8871,19.6283 14.8961,21.2783 1.009,1.65 5.8188,6.9609 10.6885,11.8021 10.5053,10.4438 10.3807,9.6455 2.9614,18.9819 -7.6708,9.6529 -14.1514,15.1535 -30.8383,26.1749 l -13.6887,9.0411 -2.7927,6.9079 -2.7926,6.9078 -14.1664,21.0922 c -20.5654,30.6193 -18.1776,28.6483 -28.3288,23.3849 z"
           id="path12243" /><path
           style="fill:#f7c73b;fill-opacity:1"
           d="m 4229.9627,-2063.4009 c 20.756,-30.1061 26.3238,-39.3771 27.2354,-45.351 l 0.3416,-2.2379 15.1772,-9.9337 c 16.3604,-10.7082 22.6131,-16.0025 30.2833,-25.6418 6.0016,-7.5422 6.4303,-5.6051 -3.4331,-15.5094 -4.5892,-4.6082 -10.5824,-11.7536 -13.3182,-15.8786 -5.7005,-8.5952 -14.8993,-21.7151 -21.4587,-30.6058 -6.3568,-8.6159 -15.9079,-25.7971 -16.554,-29.7781 l -0.544,-3.3525 1.7962,-3.7852 c 2.4253,-5.1111 7.6385,-10.1472 11.3469,-10.9618 l 3.0425,-0.6682 5.6018,1.6285 5.6018,1.6285 11.1648,11.577 c 16.3139,16.9161 28.2879,27.2772 39.452,34.1378 5.4319,3.3381 10.4571,6.7691 11.167,7.6245 2.2443,2.7042 3.0459,1.7137 3.0459,-3.7635 v -5.3189 l 7.25,-8.0274 7.25,-8.0274 3.3738,-8.4037 3.3739,-8.4038 11.2764,-17 c 12.4197,-18.7236 14.0127,-21.6065 17.8531,-32.3096 3.1299,-8.7228 3.2479,-10.7855 0.6952,-12.1516 -2.878,-1.5403 -4.2941,-0.5735 -9.4555,6.456 -2.5857,3.5216 -9.6658,12.3885 -15.7335,19.7041 -6.0677,7.3156 -14.4401,18.2511 -18.6053,24.3011 -4.1652,6.05 -9.8383,13.1276 -12.6069,15.7279 l -5.0337,4.728 2.3347,4.9847 2.3347,4.9847 -1.2759,1.5373 c -2.519,3.0353 -10.031,0.1395 -10.031,-3.8667 0,-2.1019 -3.9036,-6.51 -8.1246,-9.1745 l -3.8754,-2.4465 v -2.1587 c 0,-5.4394 3.9247,-6.8738 8.7458,-3.1965 l 3.4346,2.6197 6.1598,-6.3719 c 3.3879,-3.5046 9.0513,-10.646 12.5854,-15.8697 3.5341,-5.2238 9.8341,-13.6987 14,-18.8331 4.1659,-5.1344 10.1718,-12.7844 13.3464,-17 l 5.772,-7.6647 7.1027,-14.2667 7.1027,-14.2667 0.485,-4.3022 0.4849,-4.3023 -1.6811,-1.681 c -1.916,-1.9161 -4.938,-2.1365 -9.139,-0.6668 l -2.8992,1.0144 -6,8.1783 c -3.3,4.4982 -9.4004,12.4792 -13.5564,17.7357 -4.156,5.2565 -10.9025,14.5073 -14.9922,20.5573 l -7.4358,11 -14.2578,14.7497 c -14.7688,15.2784 -15.3318,16.1816 -12.6428,20.2855 l 1.615,2.4648 -1.638,2.5 c -3.0375,4.6358 -5.6354,3.0487 -13.0409,-7.9668 l -5.7547,-8.5602 0.5704,-1.4865 0.5704,-1.4865 h 3.2027 c 1.7614,0 3.9897,0.7123 4.9518,1.583 l 1.7491,1.5829 1.2381,-2.3134 c 0.681,-1.2724 6.9414,-8.1722 13.912,-15.333 l 12.6739,-13.0195 7.2864,-11 c 4.0074,-6.05 9.1914,-13.25 11.5198,-16 11.3084,-13.3557 26.7318,-35.9544 30.1941,-44.2409 l 1.3782,-3.2984 -1.2821,-2.447 c -5.7546,-10.9829 -14.4866,-9.1871 -24.7612,5.0923 -8.4928,11.8033 -15.7841,20.777 -27.9456,34.394 l -11.1639,12.5 -10.9616,16.1104 c -11.3806,16.7263 -17.7405,24.0532 -21.7525,25.0602 l -2.3465,0.5889 -2.7242,-2.9827 -2.7243,-2.9827 -3.9223,-0.7358 c -5.3632,-1.0061 -7.4591,-2.2809 -7.4591,-4.5368 0,-4.5191 7.7877,-6.3905 14.6542,-3.5215 5.1101,2.1351 4.6116,2.4747 12.844,-8.75 20.0671,-27.3609 25.8651,-34.8577 32.6759,-42.25 8.749,-9.496 14.287,-16.2373 18.7701,-22.8489 l 3.2879,-4.8488 -1.1768,-2.1512 c -1.6301,-2.9797 -9.3274,-8.6511 -11.7415,-8.6511 h -1.9906 l -24.9959,24.75 -24.996,24.75 -8.2245,11.97 c -4.5235,6.5835 -9.7399,15.1634 -11.5921,19.0665 -3.8758,8.1675 -4.4195,8.7126 -12.5026,12.5353 -7.0287,3.3241 -13.3726,8.9939 -21.0121,18.7797 -3.025,3.8748 -6.5418,7.6101 -7.8151,8.3006 l -2.3151,1.2555 -1.6849,-1.0676 -1.6849,-1.0676 0.22,-7.8862 c 0.1209,-4.3374 0.2507,-17.3362 0.2882,-28.8862 l 0.068,-21 -1.1453,-7 c -1.1842,-7.2369 -3.2825,-11.7247 -7.0444,-15.0658 l -2.1778,-1.9342 1.0609,2.0262 c 1.5544,2.9686 3.4606,14.4192 2.8232,16.9587 l -0.5488,2.1869 -5.403,1.2092 -5.403,1.2091 -1.6963,6.205 c -5.7287,20.9552 -8.2143,28.2695 -13.5651,39.9182 l -5.9769,13.0114 0.018,3.6377 c 0.01,2.0007 1.1652,8.3626 2.5673,14.1376 l 2.5493,10.5 0.8361,22 c 0.4599,12.1 1.3773,25.6847 2.0387,30.1883 l 1.2026,8.1883 6.6626,6.3117 c 3.6643,3.4714 9.0166,8.3929 11.8939,10.9366 5.6291,4.9763 6.4141,7.1718 3.1825,8.9013 l -2.0489,1.0966 -3.5556,-1.1734 c -1.9555,-0.6454 -6.5837,-3.7798 -10.2849,-6.9653 l -6.7294,-5.7918 -1.2507,3.6539 c -0.6879,2.0096 -4.3481,9.9538 -8.1337,17.6538 l -6.883,14 -10.784,15 c -5.9312,8.25 -11.5352,16.1674 -12.4534,17.5942 l -1.6694,2.5943 16.671,7.8295 c 27.5743,12.9504 36.0392,16.9618 50.171,23.7756 l 13.5,6.509 2,-2.5989 c 1.1,-1.4294 4.4982,-6.2225 7.5516,-10.6513 z"
           id="path12245" /><path
           style="fill:#1a1a1a"
           d="m 4422.1508,-2042.2417 c -9.787,-11.4008 -16.647,-17.7122 -31.2397,-28.7418 l -12.5,-9.4478 -16.5919,-16.511 -16.5918,-16.511 -4.2843,-10 c -6.1161,-14.2758 -7.3788,-15.8074 -35.5976,-43.1771 l -8.0656,-7.8229 -3.6422,-7.6993 -3.6423,-7.6993 -2.6408,-1.7304 c -4.3562,-2.8543 -22.4435,-26.2922 -22.4435,-29.0828 0,-0.6862 1.7743,-2.1527 3.9428,-3.259 2.1686,-1.1064 5.6389,-4.0405 7.7118,-6.5204 5.0524,-6.0442 4.8894,-6.1043 18.3165,6.7596 l 11.7617,11.2683 5.3836,2.9001 c 9.0854,4.8941 19.9123,13.4874 30.3836,24.1153 l 10,10.1496 7.7608,5.1869 7.7608,5.1869 2.6521,4.0077 2.6522,4.0076 0.7714,-1.2483 c 1.1735,-1.8987 0.1101,-5.9988 -5.7373,-22.1211 -2.948,-8.1283 -5.36,-16.3062 -5.36,-18.1733 v -3.3946 l 2.4366,-2.8958 c 1.3401,-1.5927 4.3042,-3.5121 6.5867,-4.2654 l 4.1501,-1.3697 6.994,1.1994 6.994,1.1993 3.2686,2.4931 c 1.7977,1.3712 6.5777,6.9914 10.6223,12.4893 10.688,14.5285 14.4947,13.288 4.5275,-1.4754 -2.9811,-4.4155 -5.709,-9.0333 -6.0621,-10.2617 l -0.6419,-2.2333 2.5166,-2.5167 2.5167,-2.5166 h 4.611 4.611 l 7.1844,3.3374 c 7.1397,3.3167 11.7997,6.9691 14.753,11.5629 l 1.5431,2.4003 2.5564,-1.6751 2.5565,-1.675 6.5327,-0.6101 c 3.5929,-0.3355 7.7138,-0.3135 9.1574,0.049 l 2.6249,0.6588 4.5777,6.2184 c 2.5177,3.4201 6.3601,9.2703 8.5386,13.0004 l 3.961,6.7821 4.0255,2.664 c 5.9011,3.9051 11.5973,12.6636 20.6732,31.7871 l 8.0682,17 8.612,25.4763 8.6121,25.4762 2.5116,3.2929 c 1.3814,1.8111 3.6186,4.4874 4.9716,5.9473 4.3959,4.7433 9.3227,3.3787 -69.75,19.3199 -19.0624,3.8431 -35.52,6.9874 -36.5725,6.9874 h -1.9135 l -7.1153,-8.2884 z"
           id="path12239" /><path
           style="fill:#f7c73b;fill-opacity:1"
           d="m 4465.7019,-2042.9744 c 16.3401,-3.2794 39.0653,-7.8892 50.5005,-10.2441 l 20.7912,-4.2816 -3.1328,-2.9766 c -4.5886,-4.3597 -6.3779,-8.4324 -15.1108,-34.3934 l -7.8996,-23.4839 -8.096,-17.0497 c -9.0786,-19.1191 -15.1542,-28.4582 -20.8546,-32.0567 l -3.86,-2.4367 -3.6679,-6.2781 c -5.2758,-9.03 -12.2453,-18.5924 -14.3861,-19.7381 l -1.843,-0.9864 -6.5895,0.6154 -6.5895,0.6153 -1.6813,1.8578 c -2.6228,2.8982 -4.7256,2.2279 -8.1205,-2.5885 l -3.1342,-4.4465 -5.3083,-3.0588 c -2.9196,-1.6823 -7.7082,-3.8254 -10.6412,-4.7623 l -5.3328,-1.7034 -2.6601,1.4931 c -4.0766,2.2881 -3.7536,4.1355 2.2576,12.9128 3.0553,4.4611 5.8332,9.2196 6.1732,10.5743 l 0.6182,2.4632 -1.2341,1.487 c -2.9682,3.5765 -5.3757,1.7225 -15.8215,-12.1842 -7.3128,-9.7358 -9.8568,-11.6628 -17.3189,-13.1192 l -5.6512,-1.1029 -3.5345,0.9759 -3.5345,0.9759 -2.6529,3.1528 -2.6529,3.1527 0.5688,2.8441 c 0.3129,1.5643 2.8897,9.0199 5.7263,16.568 l 5.1575,13.7239 0.1123,5.5 0.1123,5.5 -2.5259,0.2948 -2.5259,0.2948 -3.1389,-4.4532 -3.1389,-4.4532 -8.5021,-5.6574 -8.5022,-5.6574 -7.0664,-7.8259 c -7.3032,-8.0883 -21.2073,-19.1917 -30.6823,-24.5022 -2.9835,-1.6722 -10.613,-7.9241 -16.9544,-13.8931 l -11.5298,-10.8529 -3.9323,4.4673 c -2.1627,2.457 -5.2977,5.0329 -6.9666,5.7242 -1.6689,0.6913 -3.0343,1.5521 -3.0343,1.913 0,2.026 17.2463,23.491 21.1972,26.3823 l 3.032,2.2189 3.8431,8 3.8431,8 5.0642,5.2341 c 2.7853,2.8788 7.4328,7.0225 10.3277,9.2082 5.0063,3.7798 11.9726,11.1721 19.8441,21.0577 1.9708,2.475 5.5082,9 7.861,14.5 l 4.2778,10 17.1049,17.0318 17.1049,17.0319 12,8.9563 c 12.4357,9.2816 21.9023,18.0932 32.0042,29.79 l 5.8815,6.81 2.3479,-0.5893 c 1.2914,-0.3241 15.7171,-3.2724 32.0572,-6.5518 z"
           id="path12241" /><path
           style="fill:#f7c73b;fill-opacity:1;stroke:none;stroke-width:1;stroke-linecap:round;stroke-linejoin:round;stroke-opacity:1;paint-order:stroke fill markers"
           d="m 4200.9373,-2326.2655 -0.5188,-7.1756 -1.7454,-10.4864 -3.2923,-4.1519 -4.8817,0.1703 -2.8626,4.254 5.3507,19.9038 z"
           id="path38070"
           sodipodi:nodetypes="cccccccc" /><path
           style="fill:#f7c73b;fill-opacity:1;stroke:none;stroke-width:1;stroke-linecap:round;stroke-linejoin:round;stroke-opacity:1;paint-order:stroke fill markers"
           d="m 4264.5904,-2223.797 7.263,-3.8909 8.1712,-8.4303 -9.0789,-14.1371 -7.0038,-1.5564 -5.5769,3.2425 -4.7988,7.3928 5.8362,9.857 z"
           id="path38072" /></g></g></g></svg>
