<?xml version="1.0" encoding="UTF-8" standalone="no"?>
<!-- Created with Inkscape (http://www.inkscape.org/) -->

<svg
   width="587.94067mm"
   height="500mm"
   viewBox="0 0 587.94067 500"
   version="1.1"
   id="svg5"
   xml:space="preserve"
   xmlns:inkscape="http://www.inkscape.org/namespaces/inkscape"
   xmlns:sodipodi="http://sodipodi.sourceforge.net/DTD/sodipodi-0.dtd"
   xmlns="http://www.w3.org/2000/svg"
   xmlns:svg="http://www.w3.org/2000/svg"><sodipodi:namedview
     id="namedview7"
     pagecolor="#ffffff"
     bordercolor="#000000"
     borderopacity="0.25"
     inkscape:showpageshadow="2"
     inkscape:pageopacity="0.0"
     inkscape:pagecheckerboard="0"
     inkscape:deskcolor="#d1d1d1"
     inkscape:document-units="mm"
     showgrid="false"
     showguides="false" /><defs
     id="defs2" /><g
     inkscape:groupmode="layer"
     id="layer14"
     inkscape:label="M"
     transform="translate(-2648.3708,4866.4004)"><g
       id="g40172"
       inkscape:label="M"><rect
         style="fill:#cccccc;fill-opacity:1;stroke:#1a1a1a;stroke-width:20;stroke-linecap:round;stroke-linejoin:round;stroke-dasharray:none;stroke-opacity:1;paint-order:stroke fill markers"
         id="rect38211-4-8-0"
         width="567.94067"
         height="480"
         x="2658.3708"
         y="-4856.4004"
         rx="48.766338"
         ry="48.766338" /><g
         id="g39102"
         transform="translate(-1958.3725,-2407.0879)"><path
           style="fill:#ffffff"
           d="m 5039.3398,-2029.0883 c -3.2466,-2.2742 -9.2088,-7.1811 -13.2493,-10.9042 -4.0405,-3.7231 -12.1463,-10.0486 -18.0129,-14.0567 -5.8666,-4.0081 -14.0607,-9.8211 -18.2091,-12.9177 -12.228,-9.1276 -18.4538,-13.1158 -37.4574,-23.9945 -26.968,-15.4381 -58.378,-37.1263 -59.7565,-41.2612 l -0.4103,-1.2307 -5.4166,4.1323 c -2.9791,2.2728 -13.5423,8.2164 -23.4736,13.208 -21.726,10.9198 -19.5456,8.6344 -32.443,34.0051 l -10.5,20.6546 -4,0.2879 -4,0.2879 -25,-9.4412 c -13.75,-5.1926 -31.975,-12.3536 -40.5,-15.9133 -8.525,-3.5597 -17.8625,-7.3088 -20.75,-8.3314 l -5.25,-1.8593 v -2.2183 c 0,-3.22 1.5092,-6.2636 10.5675,-21.3123 4.4694,-7.425 10.8808,-19.125 14.2475,-26 3.3667,-6.875 7.955,-14.8972 10.1961,-17.8271 l 4.0749,-5.3271 -2.293,-5.6729 -2.293,-5.6729 0.2676,-25.5 0.2676,-25.5 -1.156,-5.5 -1.156,-5.5 -0.2001,-35 -0.2001,-35 -1.7399,-8 c -2.8211,-12.971 -3.0398,-12.5683 8.1935,-15.0834 l 7.2766,-1.6292 3.7234,0.6872 3.7234,0.6873 5.1921,5.338 c 8.4997,8.7386 11.6947,16.7866 14.7,37.0284 0.8189,5.5156 2.3997,12.1531 3.5129,14.75 l 2.0239,4.7217 h 1.9007 c 3.0088,0 6.8625,-3.6341 12.1274,-11.4363 6.1275,-9.0805 16.3185,-21.6272 30.1049,-37.0637 5.8945,-6.6 13.5794,-15.4588 17.0777,-19.6862 9.5665,-11.5606 27.1891,-31.3932 35.1531,-39.5615 l 7.0663,-7.2477 4.3861,-2.1233 4.386,-2.1232 4.9671,0.4773 4.9671,0.4773 2.5623,2.3936 c 1.4094,1.3165 3.2251,3.6677 4.035,5.2248 l 1.4726,2.8311 5.3726,-5.0811 5.3725,-5.0811 h 5.8246 5.8247 l 3.9852,2.1001 c 5.5335,2.916 10.2447,7.6411 11.5439,11.5778 l 1.0964,3.3221 -1.187,3.5967 c -0.6529,1.9781 -1.8076,4.7906 -2.566,6.25 l -1.379,2.6533 3.6883,0.7759 c 13.1813,2.7729 14.3313,17.6783 3.2542,42.1784 l -2.2399,4.9543 1.0892,0.363 c 0.5991,0.1997 2.5733,1.3618 4.3872,2.5823 l 3.2979,2.2192 1.3341,3.9635 1.334,3.9634 -0.5286,4.6794 -0.5285,4.6794 -7.4436,16.3206 c -4.094,8.9763 -8.1237,17.9547 -8.9549,19.9519 l -1.5112,3.6313 4.396,0.4955 4.396,0.4955 4.7415,3.8732 c 2.6078,2.1303 7.2273,6.3482 10.2655,9.3732 3.0382,3.025 12.2686,11.1026 20.5119,17.9503 16.612,13.7995 51.2822,47.7601 53.8364,52.7346 0.8995,1.7516 3.6217,8.3242 6.0494,14.6056 5.3736,13.9035 7.4425,18.0373 12.0455,24.0675 4.5996,6.0259 4.6652,5.4261 -3.0499,27.8988 -3.6336,10.5837 -10.1257,29.8182 -14.4269,42.7432 -12.3098,36.9901 -11.1886,35.4143 -20.538,28.865 z"
           id="path12267" /><path
           style="fill:#1a1a1a"
           d="m 5047.7636,-2031.2033 c 0.7101,-1.7875 5.7133,-16.3 11.1183,-32.25 5.405,-15.95 12.1262,-35.6291 14.9359,-43.7313 l 5.1087,-14.7313 -3.5643,-4.6694 c -4.6108,-6.0405 -6.6777,-10.1693 -12.0531,-24.0775 -6.4795,-16.765 -6.075,-16.2103 -26.8273,-36.7905 -17.4469,-17.3023 -25.6752,-24.7516 -40.0707,-36.2769 -2.75,-2.2017 -8.825,-7.7286 -13.5,-12.2819 -4.675,-4.5533 -10.5006,-9.5528 -12.9458,-11.11 l -4.4458,-2.8312 h -3.8042 c -2.0923,0 -3.8042,-0.3512 -3.8042,-0.7804 0,-1.1517 6.0306,-15.162 11.9145,-27.6797 2.8335,-6.0281 5.8119,-13.2309 6.6188,-16.0063 l 1.4669,-5.0461 -0.9762,-3.4039 c -1.0401,-3.6266 -4.6279,-8.0836 -6.5072,-8.0836 -0.624,0 -1.9262,-0.5789 -2.8938,-1.2864 l -1.7592,-1.2864 4.5766,-11.1741 c 2.5171,-6.1457 5.0723,-13.3294 5.6781,-15.9636 l 1.1015,-4.7895 -1.1134,-4.1195 c -0.6124,-2.2657 -2.0444,-5.303 -3.1824,-6.7497 l -2.069,-2.6303 -4.0133,-0.6418 c -5.21,-0.8331 -5.4842,-1.893 -2.3909,-9.2424 l 2.5751,-6.1181 -1.434,-3.432 -1.434,-3.432 -4.829,-3.5085 c -2.656,-1.9297 -6.7409,-3.9912 -9.0776,-4.5812 l -4.2486,-1.0726 -3.2514,1.3977 c -1.7883,0.7687 -5.0303,3.25 -7.2044,5.514 -4.9486,5.1532 -5.4466,5.1315 -9.3503,-0.4067 -3.3984,-4.8214 -6.3547,-6.4769 -11.5661,-6.4769 h -3.2391 l -4.4458,2.8336 c -4.8087,3.0649 -12.5249,10.9941 -23.6096,24.2612 -3.8624,4.6229 -7.831,9.075 -8.8192,9.8937 -0.9881,0.8187 -5.6543,6.2187 -10.3692,12 -4.7149,5.7813 -12.2251,14.5615 -16.6892,19.5115 -11.8288,13.1162 -22.2053,25.8715 -30.5157,37.5114 -14.7347,20.6381 -21.371,18.4336 -24.9595,-8.2913 -2.8374,-21.1315 -9.6142,-34.9425 -19.4917,-39.7241 l -4.1952,-2.0309 -7.2593,1.5271 c -3.9926,0.8398 -7.7046,1.8023 -8.249,2.1387 l -0.9897,0.6117 0.6634,3.1287 c 0.3649,1.7208 1.1272,5.3787 1.694,8.1287 0.5668,2.75 1.4352,22.1 1.9297,43 0.4946,20.9 1.2401,42.275 1.6568,47.5 0.4167,5.225 0.4169,15.575 5e-4,23 l -0.7571,13.5 1.0477,7 c 0.5762,3.85 1.9294,8.8296 3.0071,11.0657 2.5816,5.3568 2.6432,5.0699 -2.5653,11.954 -2.4886,3.2892 -7.2798,11.6053 -10.6471,18.4803 -3.3673,6.875 -9.165,17.4961 -12.8837,23.6025 -6.8823,11.3012 -12.3349,21.4164 -11.7617,21.8195 0.1744,0.1227 2.5672,1.0474 5.3172,2.0548 2.75,1.0074 14,5.5202 25,10.0284 27.5157,11.2771 61.2228,23.692 63.2892,23.3106 l 1.7108,-0.3158 10.5,-20.6546 c 12.8982,-25.3722 10.7181,-23.0877 32.443,-33.9956 9.9313,-4.9864 20.6065,-11.0425 23.7225,-13.458 5.9489,-4.6114 8.5134,-5.3921 9.4756,-2.8847 1.7412,4.5374 32.1951,25.6366 59.8589,41.4717 18.0143,10.3116 22.2829,13.0742 41.6385,26.9482 5.6988,4.0849 13.9111,9.9349 18.2495,13 4.3383,3.0652 10.8633,8.3103 14.5,11.6559 6.22,5.7223 15.9678,13.3374 17.1428,13.3923 0.2919,0.014 1.1117,-1.4377 1.8217,-3.2252 z"
           id="path12269" /><path
           style="fill:#000000"
           d="m 4822.8726,-2088.701 9.4616,-18.728 4.0864,-4.0121 4.0865,-4.0122 16.5551,-8.2949 c 29.9998,-15.0314 29.7047,-14.7432 23.5087,-22.9538 -2.3871,-3.1632 -6.8899,-9.3513 -10.0063,-13.7513 -3.1164,-4.4 -9.4409,-12.162 -14.0546,-17.2488 l -8.3884,-9.2489 -3.8447,-7.573 -3.8448,-7.573 -10.3751,-12.0804 c -13.5769,-15.8084 -15.4665,-20.4576 -11.1753,-27.4957 2.0991,-3.4425 9.4459,-9.2802 11.6794,-9.2802 1.9841,0 1.7468,-0.6164 -2.65,-6.8845 l -4,-5.7024 v -3.9028 -3.9028 l 2.5803,-3.7234 c 1.4192,-2.0479 4.2956,-4.9121 6.3921,-6.365 l 3.8117,-2.6415 4.0514,-0.056 4.0514,-0.056 4.7511,2.6555 4.7512,2.6554 2.3783,-3.0389 c 2.9495,-3.7688 9.5279,-7.6686 14.4555,-8.5695 l 3.723,-0.6807 5.1294,1.2305 5.1294,1.2305 6.1476,4.6585 c 3.3812,2.5622 8.3976,6.0811 11.1476,7.8198 5.2127,3.2957 9.7434,7.6686 13.2343,12.7731 l 2.0517,3 8.357,4.905 c 4.5963,2.6977 10.4451,6.3739 12.9971,8.1694 l 4.6402,3.2644 2.5054,-2.6694 c 4.3161,-4.5987 23.7143,-47.172 23.7143,-52.0461 0,-13.5801 -12.044,-2.7581 -20.4519,18.3767 -5.3195,13.3716 -9.3557,18.8596 -14.7404,20.0422 l -2.8896,0.6347 -1.4591,-1.2109 c -0.8024,-0.666 -1.459,-2.207 -1.459,-3.4244 v -2.2135 l 3.8316,-3.4397 3.8316,-3.4397 1.7987,-4.9744 c 3.539,-9.7874 7.6437,-17.8635 14.0439,-27.6318 10.4241,-15.9095 16.4942,-30.6542 16.4942,-40.0654 v -4.1196 l -1.655,-1.8288 c -5.1126,-5.6494 -8.7409,-1.0326 -37.8578,48.1713 -3.7429,6.325 -9.0559,14.7856 -11.8066,18.8014 l -5.0015,7.3014 -3.0895,-0.3014 -3.0896,-0.3014 -0.3117,-2.7005 c -0.4022,-3.4857 2.9003,-9.0886 44.6786,-75.7995 3.2722,-5.225 6.7509,-11.1912 7.7304,-13.2582 l 1.7809,-3.7582 -2.0277,-2.7418 c -1.1152,-1.508 -3.9153,-3.7963 -6.2223,-5.085 l -4.1946,-2.3433 -2.7168,1.7639 c -1.4942,0.9702 -4.8355,3.5417 -7.4251,5.7146 l -4.7083,3.9507 -2.6826,8.1287 c -3.3294,10.0884 -8.4343,20.4116 -13.3799,27.0575 -2.0756,2.7891 -6.6027,9.7961 -10.0601,15.5711 -7.6835,12.8336 -12.7562,19.8086 -17.0085,23.3867 l -3.2281,2.7163 -2.01,-0.3015 c -1.1055,-0.1658 -2.4897,-1.067 -3.0762,-2.0027 l -1.0662,-1.7011 3.22,-4.2989 c 1.771,-2.3643 6.4798,-9.5315 10.4641,-15.9271 12.095,-19.4149 12.6144,-20.2022 16.7377,-25.3717 4.1275,-5.1747 7.9596,-13.5588 11.0084,-24.0848 l 1.7624,-6.0849 -1.0188,-1.9151 c -0.5603,-1.0534 -1.9357,-2.9277 -3.0565,-4.1652 l -2.0377,-2.25 h -2.5936 c -4.4206,0 -9.4317,4.4186 -21.8003,19.223 -6.5603,7.8524 -12.7139,14.9252 -13.6746,15.7174 -0.9607,0.7923 -5.317,5.9673 -9.6807,11.5 -4.3636,5.5328 -13.3293,15.9096 -19.9237,23.0596 -6.5944,7.15 -17.1762,19.8767 -23.5151,28.2816 l -11.5253,15.2815 -4.0611,2.7185 c -2.2336,1.4951 -5.802,4.2173 -7.9298,6.0493 l -3.8687,3.3309 -1.7622,-0.3394 c -4.2233,-0.8133 -9.7629,-14.9392 -12.2743,-31.2991 -2.9598,-19.2815 -4.9491,-24.9124 -11.7744,-33.3281 -4.4196,-5.4495 -4.6006,-5.175 -2.6164,3.9685 l 1.6313,7.5171 -0.7002,3.7321 -0.7002,3.7322 -2.8357,0.9886 -2.8358,0.9885 -0.5902,10.6889 c -1.0118,18.3239 -0.4436,96.9169 0.7841,108.4667 l 0.5079,4.7778 3.2266,6.0538 3.2266,6.0537 -3.096,2.423 c -4.4805,3.5065 -17.2748,23.2089 -22.998,35.4154 -2.7073,5.7742 -7.2402,14.2293 -10.073,18.7891 l -5.1507,8.2906 1.7261,0.633 c 0.9493,0.3482 4.876,1.9346 8.726,3.5253 29.0582,12.0062 69.2228,27.6885 71,27.722 0.55,0.01 5.2577,-8.4088 10.4615,-18.7092 z"
           id="path12277" /><path
           style="fill:#f7c73b;fill-opacity:1"
           d="m 4804.9111,-2069.6699 c -7.4523,-2.9 -55.1829,-21.8634 -68.25,-27.1159 -10.3158,-4.1464 -9.9931,-3.0048 -3.7116,-13.1326 2.7711,-4.4679 7.8539,-13.8411 11.2952,-20.8292 6.5743,-13.3503 17.0808,-29.8741 21.843,-34.3528 l 2.8146,-2.6471 -3.2456,-6.8529 -3.2456,-6.8529 -0.3691,-30.5 c -0.203,-16.775 -0.2657,-44 -0.1393,-60.5 l 0.2297,-30 0.9245,-1.75 c 0.5085,-0.9625 1.7822,-1.75 2.8304,-1.75 3.7885,0 4.5118,-8.5473 1.4792,-17.4797 l -1.616,-4.7597 1.0071,-1.0071 1.0071,-1.0071 2.4859,0.624 2.486,0.6239 3.5996,4.9037 c 5.0261,6.8469 7.1739,12.1866 9.0913,22.602 0.9113,4.95 2.3577,12.7479 3.2142,17.3287 l 1.5574,8.3287 3.3169,6.9213 c 3.8021,7.9336 3.5642,7.8086 7.9378,4.1713 1.8187,-1.5125 5.109,-3.9607 7.3117,-5.4404 4.0636,-2.7298 6.7603,-5.8983 17.8103,-20.9259 3.3905,-4.611 12.0656,-14.9087 19.2778,-22.8837 7.2122,-7.975 17.2988,-19.675 22.4147,-26 5.1159,-6.325 10.1078,-12.1627 11.093,-12.9727 0.9852,-0.8099 6.6352,-7.3504 12.5555,-14.5342 11.4272,-13.8661 16.4932,-18.213 22.33,-19.1601 l 3.6112,-0.5861 3.4676,3.4676 c 1.9072,1.9072 3.7698,4.6717 4.1392,6.1433 l 0.6715,2.6758 -2.7128,8.7332 c -3.6097,11.6205 -6.7764,18.1367 -11.8953,24.4772 -2.3339,2.8908 -6.6492,9.306 -9.5897,14.256 -2.9405,4.95 -8.2303,13.2067 -11.7552,18.3483 -3.5249,5.1415 -6.1871,9.5701 -5.9159,9.8413 2.4264,2.4264 9.816,-6.4933 21.6679,-26.1546 3.9669,-6.5808 8.7291,-13.9512 10.5826,-16.3786 4.2219,-5.5293 8.5344,-14.5949 11.9246,-25.0675 l 2.6199,-8.093 7.0266,-5.498 7.0266,-5.4979 h 2.4376 c 14.6404,0 17.7804,12.7553 6.8929,28 -1.7676,2.475 -6.288,9.675 -10.0453,16 -3.7574,6.325 -12.7689,20.9675 -20.0258,32.5389 -17.1198,27.2984 -18.2263,29.4611 -15.0732,29.4611 1.5539,0 10.5499,-12.8103 18.6095,-26.5 11.0459,-18.7622 27.3863,-45.0882 29.3278,-47.25 l 2.0206,-2.25 h 3.7439 c 5.5667,0 6.7759,0.7975 7.9781,5.2621 2.4382,9.0548 -4.1434,27.956 -15.5864,44.761 -6.3551,9.3331 -11.4171,19.0753 -13.991,26.9266 l -1.7866,5.4496 -4.3434,4.6435 c -2.3889,2.554 -4.0479,4.9391 -3.6867,5.3004 2.6091,2.6091 9.4413,-3.5007 12.6843,-11.3432 9.6112,-23.2421 17.2849,-34.0587 23.1232,-32.5934 l 2.4796,0.6224 1.6155,3.124 1.6155,3.124 -0.5929,2.9643 c -0.326,1.6303 -4.0208,10.9055 -8.2105,20.6115 -14.5189,33.6345 -18.8363,39.7592 -23.9862,34.0267 -1.0478,-1.1663 -6.4315,-4.7652 -11.9639,-7.9976 -11.1392,-6.5084 -13.2012,-8.1623 -16.2629,-13.0446 -1.151,-1.8355 -4.6582,-5.1373 -7.7936,-7.3373 -3.1355,-2.2 -8.5847,-6.173 -12.1094,-8.8289 -7.9757,-6.0097 -11.8842,-7.6711 -18.0473,-7.6711 h -4.8363 l -4.6088,2.9228 c -2.5348,1.6075 -5.6325,4.3075 -6.8838,6 -2.7373,3.7023 -4.0499,3.8131 -8.2157,0.6933 -4.1156,-3.0822 -7.0144,-3.9219 -10.725,-3.1069 l -2.9968,0.6582 -4.9808,4.8514 -4.9807,4.8514 v 2.8696 2.8696 l 4.5,6.3906 c 5.534,7.859 5.5476,8.443 0.25,10.7864 -2.3375,1.034 -5.7125,3.5457 -7.5,5.5816 l -3.25,3.7016 v 3.8152 3.8151 l 2.9525,4.0758 c 1.6238,2.2417 6.7764,8.4327 11.45,13.7578 l 8.4975,9.6819 3.8,7.5212 3.8,7.5212 7.3144,8.1211 c 4.0229,4.4666 10.0979,11.9015 13.5,16.522 3.4021,4.6205 8.5481,11.5933 11.4356,15.4951 7.9584,10.754 8.35,10.2957 -22.25,26.0345 -24.9586,12.8372 -23.2679,11.0573 -37.4686,39.4456 l -8.0657,16.1239 -1.7329,-0.094 c -0.953,-0.052 -4.6578,-1.2319 -8.2328,-2.623 z"
           id="path12275" /><path
           style="fill:#000000"
           d="m 5046.8243,-2044.7033 c 4.5481,-14.8574 13.8598,-42.8617 19.4533,-58.5045 6.6551,-18.6116 6.2871,-15.6515 2.5314,-20.358 -4.0156,-5.0324 -7.8233,-12.6778 -11.897,-23.8875 -1.7988,-4.95 -4.3715,-11.1948 -5.7171,-13.8773 l -2.4465,-4.8774 -19.1687,-18.9931 c -10.5427,-10.4462 -22.5436,-21.7375 -26.6686,-25.0917 -4.125,-3.3542 -12.1124,-10.3807 -17.7498,-15.6145 -19.4952,-18.0992 -24.8433,-20.1733 -32.9615,-12.783 l -2.2114,2.013 1.1273,2.112 c 0.62,1.1616 4.9111,6.0473 9.5356,10.857 l 8.4084,8.7451 -0.3326,1.7549 -0.3326,1.755 -3.5962,0.3017 -3.5962,0.3017 -4.3459,-3.3148 c -2.3903,-1.8231 -6.3012,-5.7839 -8.691,-8.8017 -2.3898,-3.0178 -6.5173,-7.9619 -9.1722,-10.9869 l -4.8271,-5.5 -11.0769,-6.833 -11.0768,-6.8331 -4.5842,-5.3658 c -4.1143,-4.8159 -18.9695,-16.2079 -26.9617,-20.6762 -1.6804,-0.9394 -4.7877,-1.7269 -6.9052,-1.75 l -3.85,-0.042 -3.4,3.4 c -1.87,1.87 -3.4,4.3124 -3.4,5.4275 v 2.0275 l 2.8589,2.3225 c 10.8551,8.8183 38.5503,34.6243 48.0335,44.7569 l 11.3924,12.1726 3.0174,0.6034 3.0173,0.6035 9.7667,9.593 9.7668,9.5931 0.7208,2.9048 0.7207,2.9048 -1.0044,1.5952 c -0.5525,0.8773 -1.8038,1.7523 -2.7808,1.9442 l -1.7764,0.3491 -10.1164,-9.9919 c -5.5641,-5.4956 -12.139,-11.2402 -14.6109,-12.7659 -2.472,-1.5257 -11.697,-9.7972 -20.5,-18.3812 -8.8031,-8.5839 -22.7444,-21.4463 -30.9808,-28.5831 -8.2364,-7.1368 -17.4712,-15.6006 -20.522,-18.8085 l -5.5467,-5.8324 -2.9781,1.2837 c -10.1936,4.394 -10.3989,6.0377 -2.1199,16.9787 l 6.3581,8.4025 22.2842,21.5 c 12.2563,11.825 28.6359,27.8 36.399,35.5 l 14.1149,14 1.899,4.2595 1.899,4.2596 -1.1347,2.4904 c -1.6343,3.587 -3.9606,3.0822 -8.0707,-1.7512 -10.2606,-12.0663 -59.5861,-60.1076 -72.9336,-71.0348 l -3.3268,-2.7235 h -2.7361 -2.7362 l -2.8421,2.9665 -2.8422,2.9666 2.5145,3.7834 c 1.383,2.0809 7.0595,9.404 12.6145,16.2734 5.555,6.8695 10.6669,13.6195 11.36,15 2.5726,5.125 7.3925,11.74 14.4714,19.8612 4.0036,4.5931 11.3181,14.2681 16.2545,21.5 l 8.9753,13.1489 6.8099,6.7481 c 11.365,11.2616 31.3121,25.035 56.81,39.2269 16.6716,9.2793 22.6725,13.0325 32,20.0141 3.85,2.8817 13.075,9.2798 20.5,14.2181 l 13.5,8.9785 10.9791,10.1572 c 13.0976,12.117 11.5412,11.8574 14.4341,2.4071 z"
           id="path12273" /><path
           style="fill:#f7c73b;fill-opacity:1"
           d="m 5031.2892,-2044.4403 -12.122,-11.2017 -14.378,-9.5754 c -7.908,-5.2665 -18.4281,-12.5193 -23.3781,-16.1174 -4.95,-3.5981 -13.95,-9.3341 -20,-12.7467 -33.826,-19.0801 -52.4141,-31.522 -63.7926,-42.6993 l -6.7925,-6.6725 -9.2075,-13.3908 c -5.0641,-7.365 -12.9378,-17.715 -17.4972,-23 -4.5594,-5.2851 -10.1221,-12.6985 -12.3614,-16.4743 -2.2393,-3.7759 -8.0853,-11.8151 -12.9912,-17.8649 -11.731,-14.4668 -14.8576,-19.1167 -14.8576,-22.0966 v -2.4662 l 3.6331,-3.1899 3.6331,-3.1899 3.6169,0.6705 c 6.7939,1.2595 63.8765,53.9353 77.7548,71.7521 4.7892,6.1483 6.3621,7.0369 6.3621,3.5944 0,-4.1897 -10.0828,-15.8698 -26.1946,-30.3444 -6.7343,-6.05 -21.483,-20.225 -32.7748,-31.5 l -20.5306,-20.5 -4.873,-7.1917 -4.8731,-7.1918 0.642,-2.5576 0.6419,-2.5577 4.1473,-2.618 c 2.281,-1.44 5.7948,-2.8391 7.8086,-3.1092 l 3.6613,-0.4911 4.4225,5.0241 c 2.4324,2.7632 10.4975,10.2782 17.9225,16.7 7.425,6.4218 21.825,19.6597 32,29.4174 10.175,9.7577 20.525,18.9993 23,20.5369 2.475,1.5375 8.7118,7.0419 13.8596,12.232 l 9.3596,9.4366 1.4516,-0.5571 1.4516,-0.557 -1.8112,-3.0929 c -0.9962,-1.7012 -5.7331,-6.8797 -10.5265,-11.5079 l -8.7153,-8.415 h -2.0718 -2.0718 l -14.2129,-14.635 c -7.8171,-8.0493 -21.4129,-21.043 -30.2129,-28.8748 -8.8,-7.8318 -17.0675,-15.3962 -18.3723,-16.8096 l -2.3723,-2.5699 0.622,-2.4783 c 0.9574,-3.8146 5.3062,-8.3729 9.2205,-9.6647 l 3.5325,-1.1658 3.448,0.6468 3.448,0.6469 12.0444,8.1569 12.0443,8.1568 5.4581,6.2169 5.4581,6.2168 7.7779,4.4863 c 11.212,6.4671 17.0952,11.4503 23.3856,19.8083 8.3627,11.1115 17.3294,18.6715 19.5325,16.4684 0.3171,-0.3171 -2.9793,-4.2993 -7.3254,-8.8494 -4.346,-4.5501 -8.5537,-9.5314 -9.3502,-11.0696 l -1.4484,-2.7967 1.6032,-2.6952 c 6.9574,-11.6961 16.569,-9.0155 37.0016,10.3194 4.4149,4.1776 11.6866,10.5491 16.1595,14.1587 4.4728,3.6097 17.2124,15.4607 28.3101,26.3356 l 20.1778,19.7725 2.4374,4.8594 c 1.3406,2.6726 3.9088,8.9093 5.7071,13.8593 4.2177,11.6092 7.2956,17.762 12.1091,24.2057 l 3.8888,5.2056 -8.3805,23.7944 c -4.6092,13.0869 -10.4879,30.5443 -13.0638,38.7943 -8.8753,28.4259 -6.8087,27.2132 -22.1755,13.013 z"
           id="path12271" /><path
           style="fill:#f7c73b;fill-opacity:1;stroke:none;stroke-width:1;stroke-linecap:round;stroke-linejoin:round;stroke-opacity:1;paint-order:stroke fill markers"
           d="m 4760.306,-2307.8855 5.1358,-1.2839 1.1923,-6.2363 -3.3015,-12.8394 -3.9436,-3.3933 -4.9525,2.4762 2.1095,6.97 2.0438,8.1794 z"
           id="path38074"
           sodipodi:nodetypes="ccccccccc" /></g></g></g></svg>
