<?xml version="1.0" encoding="UTF-8" standalone="no"?>
<!-- Created with Inkscape (http://www.inkscape.org/) -->

<svg
   width="587.94067mm"
   height="500mm"
   viewBox="0 0 587.94067 500"
   version="1.1"
   id="svg5"
   xml:space="preserve"
   xmlns:inkscape="http://www.inkscape.org/namespaces/inkscape"
   xmlns:sodipodi="http://sodipodi.sourceforge.net/DTD/sodipodi-0.dtd"
   xmlns="http://www.w3.org/2000/svg"
   xmlns:svg="http://www.w3.org/2000/svg"><sodipodi:namedview
     id="namedview7"
     pagecolor="#ffffff"
     bordercolor="#000000"
     borderopacity="0.25"
     inkscape:showpageshadow="2"
     inkscape:pageopacity="0.0"
     inkscape:pagecheckerboard="0"
     inkscape:deskcolor="#d1d1d1"
     inkscape:document-units="mm"
     showgrid="false"
     showguides="false" /><defs
     id="defs2" /><g
     inkscape:groupmode="layer"
     id="layer15"
     inkscape:label="N"
     transform="translate(-3386.865,4866.4004)"><g
       id="g40483"
       inkscape:label="N"
       style="display:inline"><rect
         style="fill:#cccccc;fill-opacity:1;stroke:#1a1a1a;stroke-width:20;stroke-linecap:round;stroke-linejoin:round;stroke-dasharray:none;stroke-opacity:1;paint-order:stroke fill markers"
         id="rect38211-4-8-3"
         width="567.94067"
         height="480"
         x="3396.865"
         y="-4856.4004"
         rx="48.766338"
         ry="48.766338" /><g
         id="g39117"
         transform="translate(-1780.3758,-2408.3411)"
         style="display:inline"><path
           style="fill:#ffffff"
           d="m 5597.808,-2021.2633 c -2.9683,-2.42 -8.9653,-8.3328 -13.3267,-13.1396 l -7.9299,-8.7395 -12.5701,-9.7208 c -16.1995,-12.5273 -40.9846,-30.2827 -57.9563,-41.5181 -16.7848,-11.1117 -27.9455,-20.3823 -40.2391,-33.4242 l -9.6251,-10.2111 -5.9247,3.5293 c -3.2586,1.9411 -9.9523,5.1376 -14.8749,7.1033 -4.9225,1.9657 -13.9043,5.7969 -19.9593,8.5138 l -11.0092,4.9398 -4.6568,7.7385 c -2.5612,4.2563 -7.8814,13.1386 -11.8226,19.7386 -12.3436,20.6707 -2.4938,22.3649 -77.0022,-13.2447 -7.975,-3.8115 -18.9204,-8.8666 -24.323,-11.2335 l -9.8231,-4.3036 0.6516,-2.6091 c 1.2378,-4.9563 18.8079,-29.9082 38.5821,-54.7917 l 9.6812,-12.1826 -1.3688,-5.8174 -1.3688,-5.8174 -0.016,-13.1988 c -0.01,-7.2593 0.6993,-18.5093 1.5732,-25 l 1.5887,-11.8012 -0.6098,-9.2629 -0.6099,-9.2629 2.6222,-24.2371 2.6222,-24.2371 -0.6474,-12.2123 c -0.3561,-6.7168 -1.0698,-14.8075 -1.586,-17.9794 l -0.9386,-5.7671 1.2403,-1.2403 c 1.6928,-1.6928 15.8353,-3.6912 20.2547,-2.8621 l 3.5864,0.6728 3.91,3.91 c 7.5834,7.5834 10.9798,17.2831 13.4519,38.4168 1.531,13.0879 3.0261,20.2117 4.661,22.2084 l 0.939,1.1467 2.2133,-0.5445 c 3.6155,-0.8895 5.973,-3.1421 16.4826,-15.749 5.5021,-6.6 24.0148,-25.8017 41.1395,-42.6704 17.1247,-16.8687 33.0705,-33.2937 35.4352,-36.5 5.0408,-6.8352 10.1688,-11.5303 15.6439,-14.3235 l 3.9323,-2.0061 h 4.7899 4.7898 l 3.2187,1.9625 c 1.7703,1.0794 4.2453,3.5471 5.5,5.4839 2.8054,4.3304 2.2528,4.3593 8.6586,-0.4539 l 5.3235,-4 h 4.9394 4.9395 l 4.2101,2.11 c 11.7779,5.9028 15.0522,13.3348 10.143,23.0227 -1.412,2.7864 -2.4245,5.158 -2.25,5.2702 0.1744,0.1123 2.2198,1.0314 4.5452,2.0425 5.4108,2.3528 7.3573,5.4036 8.005,12.5463 l 0.5202,5.7374 -2.1566,6.3854 c -1.1862,3.512 -4.1095,10.1047 -6.4964,14.6504 l -4.3397,8.2649 3.4043,1.6154 c 1.8724,0.8886 4.0638,2.557 4.8698,3.7077 l 1.4654,2.0921 v 6.2346 6.2347 l -10.2484,20.2928 c -5.6366,11.1611 -10.3741,20.5554 -10.5278,20.8763 -0.1537,0.3208 1.458,1.1039 3.5816,1.7401 l 3.8609,1.1568 5.9169,5.1756 c 25.3633,22.1856 44.4622,40.8982 54.9559,53.8441 3.7894,4.675 10.5059,12.343 14.9254,17.0399 l 8.0355,8.5399 3.1516,5.9601 c 1.7333,3.2781 4.8097,11.5851 6.8363,18.4601 2.0266,6.875 5.4459,15.7971 7.5984,19.8268 4.6853,8.7713 4.7106,9.2087 0.9997,17.3109 -1.6026,3.4993 -8.1765,19.1873 -14.6086,34.8623 -6.4321,15.675 -14.0173,34.1206 -16.8561,40.9902 l -5.1613,12.4901 -1.5831,0.3049 c -0.8706,0.1677 -4.0116,-1.6752 -6.98,-4.0952 z"
           id="path12293" /><path
           style="fill:#1a1a1a"
           d="m 5611.9115,-2037.7033 c 10.9571,-26.9025 16.9819,-41.5345 18.0142,-43.75 0.5125,-1.1 3.0103,-7.175 5.5507,-13.5 2.5404,-6.325 5.5537,-13.4054 6.6961,-15.7341 l 2.0773,-4.2342 -1.5554,-1.7658 c -3.0039,-3.4106 -6.5895,-11.8849 -10.2672,-24.2659 -2.0421,-6.875 -5.1312,-15.182 -6.8645,-18.4601 l -3.1516,-5.9601 -8.0525,-8.5399 c -4.4289,-4.6969 -11.9306,-13.2649 -16.6706,-19.0399 -9.1671,-11.169 -16.4363,-18.4927 -37.3028,-37.5829 -17.5402,-16.0471 -21.4051,-19.1142 -26.0316,-20.6587 l -3.9425,-1.3161 0.3319,-1.9712 c 0.1825,-1.0841 5.02,-11.3118 10.75,-22.7281 l 10.4181,-20.7571 v -4.2704 -4.2705 l -1.6307,-2.3281 c -0.8969,-1.2805 -3.1469,-2.9617 -5,-3.736 -4.3485,-1.8169 -4.2799,-2.4744 1.4162,-13.5641 2.6321,-5.1242 5.6111,-11.943 6.6202,-15.1528 l 1.8346,-5.8361 -0.5301,-3.952 c -0.7422,-5.5337 -3.1602,-8.7451 -8.2945,-11.0162 l -4.4157,-1.9533 v -1.431 c 0,-0.7871 1.189,-3.8554 2.6422,-6.8185 l 2.6423,-5.3874 -0.6205,-2.4723 c -1.3563,-5.4039 -8.5421,-11.5651 -15.8377,-13.5795 l -3.5091,-0.9689 -3.5832,1.2318 c -1.9707,0.6775 -5.3693,2.6465 -7.5525,4.3756 -5.0808,4.0241 -6.313,3.9539 -9.264,-0.5278 -1.3296,-2.0194 -3.6092,-4.5481 -5.0658,-5.6193 l -2.6482,-1.9477 -3.8518,0.059 c -8.0579,0.1234 -16.4579,6.0145 -23.5833,16.5395 -2.2863,3.3771 -7.0788,8.8401 -10.6501,12.1401 -12.7328,11.7656 -59.9746,60.1649 -67.8379,69.5 -10.1944,12.1025 -11.314,13.0607 -15.9943,13.6884 l -3.8691,0.519 -1.1837,-1.4263 c -1.888,-2.2749 -4.0413,-12.3803 -5.1917,-24.3636 -1.8191,-18.9505 -5.8115,-30.2665 -12.9553,-36.7205 l -3.854,-3.482 -3.8662,-0.5976 c -2.1263,-0.3287 -6.5661,-0.04 -9.8661,0.6425 l -6,1.2401 0.1277,4 c 0.07,2.2 0.4524,10.975 0.8492,19.5 l 0.7216,15.5 -2.1264,20.258 -2.1264,20.258 0.1351,13.242 c 0.074,7.2831 -0.3585,16.392 -0.9619,20.242 -0.6034,3.85 -1.378,13.525 -1.7214,21.5 l -0.6243,14.5 1.6134,6.8121 c 2.3368,9.8665 2.4964,9.4234 -8.2593,22.93 -20.2592,25.4405 -38.8064,51.8501 -37.6865,53.6622 0.3096,0.5008 3.8261,2.2691 7.8147,3.9295 3.9885,1.6604 14.4501,6.4614 23.2481,10.6688 8.798,4.2074 26.4909,12.6013 39.3176,18.6533 l 23.3211,11.0035 1.4199,-0.5449 c 1.5704,-0.6026 6.9073,-8.8348 18.8652,-29.0998 l 7.9275,-13.4345 11.0725,-4.9732 c 6.0899,-2.7352 15.2438,-6.6289 20.3419,-8.6527 5.0981,-2.0238 11.9758,-5.4289 15.2837,-7.567 7.8739,-5.0891 6.6961,-5.5572 19.2301,7.6431 13.6121,14.3356 21.1757,20.5403 42.4345,34.8106 40.0837,26.9069 61.2094,43.2895 78.3947,60.794 16.6097,16.9181 14.2522,17.3182 22.8881,-3.885 z"
           id="path12295" /><path
           style="fill:#000000"
           d="m 5418.8859,-2274.2033 c 2.4192,-1.2375 4.8619,-3.0173 5.4284,-3.9551 l 1.0299,-1.705 -2.3909,-2.545 -2.3908,-2.5449 h -2.3578 c -3.2135,0 -8.4476,2.3193 -10.4081,4.612 l -1.6145,1.888 1.3674,3.25 1.3673,3.25 h 2.7853 c 1.5319,0 4.7646,-1.0125 7.1838,-2.25 z"
           id="path12311" /><path
           style="fill:#1a1a1a;fill-opacity:1"
           d="m 5407.5666,-2269.6263 c -1.2903,-1.2827 -3.6555,-7.3637 -3.6555,-9.3982 0,-2.5375 5.6161,-6.5663 11.2561,-8.0748 l 4.7199,-1.2624 2.762,2.0514 c 1.5191,1.1282 3.3911,3.1592 4.1601,4.5133 l 1.3981,2.4621 -1.8009,2.7484 c -3.015,4.6015 -16.2822,9.5029 -18.8398,6.9602 z"
           id="path12309" /><path
           style="fill:#000000"
           d="m 5409.6815,-2240.9547 c 1.7987,-1.0967 3.7774,-3.1067 4.397,-4.4667 l 1.1266,-2.4727 -1.193,-1.4375 c -0.6561,-0.7906 -2.7096,-2.1571 -4.5631,-3.0367 l -3.3702,-1.5993 -2.4829,0.9441 c -5.3653,2.0398 -6.9805,7.1532 -3.6122,11.4353 l 2.0726,2.6349 h 2.1774 c 1.1976,0 3.6491,-0.9011 5.4478,-1.9977 z"
           id="path12307" /><path
           style="fill:#1a1a1a"
           d="m 5398.3634,-2239.5993 -2.4523,-2.646 v -3.6642 -3.6641 l 3.1187,-3.1899 3.1186,-3.1898 h 2.8163 c 3.746,0 7.4118,1.4654 9.9065,3.9601 l 2.0399,2.0399 v 2.8836 2.8837 l -4.0029,3.6163 -4.0029,3.6164 h -4.0448 -4.0449 z"
           id="path12305" /><path
           style="fill:#000000"
           d="m 5379.6991,-2092.7438 c 4.0084,-6.9902 9.8584,-16.2947 13,-20.6767 l 5.712,-7.9672 5.5,-2.746 c 3.025,-1.5103 10.45,-4.8179 16.5,-7.3502 22.1492,-9.2709 25.0472,-10.5845 27.5,-12.4646 l 2.5,-1.9162 -1.4381,-2.2943 c -0.791,-1.2619 -4.6601,-7.5127 -8.598,-13.8908 -3.9378,-6.3781 -10.5826,-16.174 -14.7661,-21.7688 -4.1834,-5.5947 -10.1015,-14.5513 -13.1512,-19.9035 -6.2899,-11.0387 -13.0766,-22.0273 -19.2966,-31.2438 l -4.25,-6.2975 v -4.3946 c 0,-7.7249 7.765,-16.2953 14.7639,-16.2953 h 2.3723 l -1.9375,-2.75 c -9.465,-13.4341 -6.128,-25.4879 8.3817,-30.2765 l 3.2894,-1.0856 4.2954,1.1566 4.2953,1.1566 6.0198,6.5161 c 3.3108,3.5838 13.3584,14.2171 22.3278,23.6295 14.1104,14.8071 20.4041,22.3117 22.6392,26.9952 l 0.5527,1.1581 0.6422,-1.4266 c 1.5634,-3.4729 9.0263,-10.2534 13.9215,-12.6484 l 5.3468,-2.6159 4.0186,0.6789 c 2.2102,0.3734 5.9428,1.9966 8.2947,3.607 l 4.2762,2.9282 4,-4.3401 c 6.4303,-6.9771 28.4683,-47.4804 28.4902,-52.3617 0.012,-2.6831 -2.4856,-5.3214 -5.0378,-5.3214 h -1.9048 l -5.3985,7.25 c -2.9692,3.9875 -7.7472,11.8637 -10.6179,17.5026 l -5.2193,10.2526 -4.0687,3.4826 c -6.2535,5.3528 -12.7432,5.946 -12.7432,1.1649 v -2.2292 l 4.4615,-3.7293 4.4614,-3.7293 5.2324,-10.6871 5.2324,-10.687 9.3837,-12.4776 c 12.3239,-16.3871 19.2286,-30.2532 19.2286,-38.6148 v -3.1884 l -1.75,-1.5265 c -0.9625,-0.8396 -2.7436,-2.04 -3.958,-2.6677 l -2.208,-1.1412 -4.217,5.7627 c -2.3194,3.1695 -8.5616,11.6127 -13.8717,18.7627 -5.31,7.15 -12.2838,16.825 -15.4972,21.5 -18.0648,26.2811 -23.5871,31.511 -28.2981,26.8 -2.1142,-2.1142 -1.437,-3.3043 12.55,-22.0548 7.5625,-10.138 17.35,-23.5025 21.75,-29.6989 4.4,-6.1964 11.5301,-16.0542 15.8448,-21.9062 4.3146,-5.8521 8.9125,-12.7338 10.2175,-15.2927 l 2.3727,-4.6526 -4.4084,-4.0635 c -2.4246,-2.2349 -5.5877,-4.3595 -7.029,-4.7213 l -2.6206,-0.6577 -5.2688,3.6287 c -7.4617,5.1391 -8.9914,7.0976 -12.5538,16.0726 -3.9895,10.0512 -8.8457,18.0628 -15.0904,24.8954 -5.1138,5.5953 -17.4733,23.7074 -20.4311,29.9405 -2.3058,4.8591 -5.8067,8.4901 -8.9454,9.2779 -6.5888,1.6537 -7.3873,-2.7158 -1.6809,-9.1987 2.1487,-2.4409 5.819,-8.135 8.1563,-12.6534 6.2698,-12.1205 10.3286,-18.1471 16.1912,-24.0405 l 5.2459,-5.2734 3.8744,-7.9058 c 2.131,-4.3482 4.7085,-10.3301 5.7279,-13.2931 l 1.8535,-5.3872 -1.3755,-2.66 c -0.7565,-1.463 -2.3036,-3.5 -3.4379,-4.5265 l -2.0624,-1.8664 -3.5766,0.6709 -3.5765,0.671 -7.0434,6.6444 c -3.8739,3.6544 -7.884,8.2922 -8.9115,10.3062 l -1.8681,3.6618 -33.8576,33.8916 c -18.6217,18.6405 -37.3285,38.0519 -41.5706,43.1367 l -7.7129,9.245 -5.7314,2.8956 c -3.1523,1.5927 -6.5886,3.8449 -7.6364,5.0051 -3.9589,4.3836 -7.1722,2.0839 -11.1554,-7.9835 l -2.5351,-6.4072 -1.3876,-15.5 c -2.0586,-22.9932 -4.448,-30.7276 -11.614,-37.593 l -2.8584,-2.7385 0.9778,3.4091 c 0.5377,1.8751 0.9777,6.7517 0.9777,10.8371 v 7.4278 l -1.655,1.8288 c -0.9102,1.0058 -2.7102,1.8287 -4,1.8287 h -2.345 v 3.75 c -6e-4,2.0625 -1.1504,13.875 -2.5551,26.25 l -2.554,22.5 0.7692,10 c 0.9561,12.4281 0.7459,17.4974 -1.4308,34.5 -0.9505,7.425 -1.6922,16.875 -1.6483,21 l 0.08,7.5 1.5354,4 c 0.8445,2.2 1.8403,4.7122 2.2129,5.5827 l 0.6775,1.5827 -7.8589,9.4173 c -7.6623,9.1816 -27.1373,34.7941 -36.4956,47.9972 l -4.6639,6.5799 5.7164,2.3351 c 5.5109,2.2511 37.7689,17.4741 64.7164,30.5406 7.15,3.4669 13.225,6.3215 13.5,6.3435 0.275,0.022 3.7796,-5.6793 7.788,-12.6695 z"
           id="path12303" /><path
           style="fill:#f7c73b;fill-opacity:1"
           d="m 5357.4111,-2083.9696 c -27.2905,-13.308 -62.3117,-29.8255 -66.75,-31.4823 l -4.75,-1.7731 v -1.8744 c 0,-2.1695 2.8849,-6.3989 19.3402,-28.3539 11.0132,-14.6941 22.4261,-29.1043 26.9002,-33.9649 l 1.8087,-1.9649 -0.6218,-1.5351 c -0.3419,-0.8443 -1.3058,-3.7851 -2.142,-6.5351 l -1.5203,-5 0.5783,-9.5 c 0.318,-5.225 1.2514,-14.675 2.0742,-21 1.6901,-12.9926 1.8808,-23.1563 0.5724,-30.5 l -0.8908,-5 3.2004,-29.7485 3.2005,-29.7485 h 1.5275 c 0.8401,-8e-4 2.5896,-0.7454 3.8877,-1.6547 l 2.3602,-1.6531 -0.6487,-8.0969 c -0.3569,-4.4532 -0.9213,-9.3343 -1.2543,-10.8468 l -0.6056,-2.75 h 2.5497 2.5496 l 3.4424,4.25 c 6.9785,8.6157 9.0774,15.903 10.5844,36.75 l 0.9759,13.5 1.9485,5.5 c 3.8343,10.823 5.7722,13.1976 7.883,9.6596 0.4398,-0.7373 3.7173,-2.8748 7.2832,-4.75 l 6.4834,-3.4096 7.9758,-9.5 c 4.3867,-5.225 22.9238,-24.4162 41.1937,-42.6471 l 33.218,-33.1471 1.9998,-3.92 c 6.2014,-12.1558 22.4722,-21.9633 28.5309,-17.1975 7.7205,6.0729 7.1907,12.3494 -2.6399,31.273 l -4.0839,7.8614 -4.6987,4.6386 c -5.1551,5.0893 -11.7439,14.9715 -16.8643,25.2938 -1.8157,3.6603 -5.1356,8.5078 -7.3775,10.7722 l -4.0764,4.1171 0.9534,0.9534 0.9534,0.9534 2.9744,-1.8383 c 1.6359,-1.011 3.8605,-3.5875 4.9435,-5.7255 3.9016,-7.7029 16.8451,-26.9822 21.0723,-31.3874 5.7464,-5.9884 12.5081,-17.1853 16.0655,-26.6032 l 2.8931,-7.6596 5.5,-4.5131 c 3.025,-2.4822 6.9625,-5.1292 8.75,-5.8821 l 3.25,-1.3689 3.3896,1.4163 c 1.8642,0.7789 5.2392,3.0873 7.5,5.1298 l 4.1104,3.7135 v 1.9235 c 0,3.0986 -3.7388,9.7055 -10.9463,19.3438 -3.7016,4.95 -11.1905,15.2606 -16.6419,22.9124 -5.4515,7.6518 -15.4833,21.3768 -22.2929,30.5 -12.3704,16.5732 -13.7447,18.9757 -11.3392,19.8232 1.8146,0.6393 6.9921,-5.3292 17.0251,-19.6263 4.7824,-6.8149 13.4202,-18.7468 19.1952,-26.5155 5.775,-7.7686 12.525,-16.9398 15,-20.3805 l 4.5,-6.2557 2.1423,-0.5602 2.1423,-0.5602 3.1865,1.6478 3.1865,1.6478 1.4621,3.4995 1.4622,3.4994 -1.5746,6.1842 c -0.8661,3.4012 -3.5725,10.2341 -6.0144,15.1841 l -4.4398,9 -8.5835,10.8969 -8.5835,10.8968 -5.0177,10.4811 -5.0176,10.4811 -5.0869,4.8772 c -7.4371,7.1306 -3.3143,7.8011 4.7001,0.7643 l 3.6862,-3.2365 4.5552,-9.0804 c 6.1793,-12.3183 13.945,-23.5038 17.9799,-25.8977 l 1.3773,-0.8172 3.4692,1.1449 3.4691,1.1449 0.6231,2.4827 c 0.3427,1.3655 0.385,4.2582 0.094,6.4283 l -0.5292,3.9456 -8.7779,16.244 c -11.6289,21.5198 -15.9026,28.5055 -20.1366,32.9145 l -3.5249,3.6705 -1.6246,-0.6133 c -0.8936,-0.3374 -3.6253,-1.8766 -6.0705,-3.4206 l -4.4458,-2.8071 h -3.3538 c -6.1877,0 -15.6513,6.9369 -19.3473,14.1818 -2.5818,5.0607 -3.2331,4.8631 -6.9492,-2.109 l -3.1591,-5.9271 -18.2558,-18.9667 c -10.0407,-10.4316 -19.2796,-20.4044 -20.5309,-22.1617 -1.2513,-1.7574 -4.0835,-4.5051 -6.2938,-6.1062 l -4.0186,-2.9111 h -3.1999 -3.1999 l -3.9001,2.8645 c -4.9253,3.6175 -7.9837,7.0201 -8.8344,9.8286 l -0.6643,2.1932 2.1799,4.3068 c 1.199,2.3688 3.0212,5.5014 4.0494,6.9613 1.0282,1.4599 1.8694,3.5974 1.8694,4.75 v 2.0956 h -2.0398 c -13.3567,0 -18.2987,14.0608 -9.0555,25.7643 2.0571,2.6046 7.1606,10.5857 11.3411,17.7357 8.7083,14.8939 16.0714,26.2758 25.0068,38.6556 8.0423,11.1423 19.7474,30.2687 19.7474,32.2676 0,2.483 -6.4946,6.1176 -23.035,12.8911 -8.5057,3.4832 -18.5972,7.875 -22.4255,9.7594 l -6.9605,3.4263 -3.7804,5 c -4.515,5.9715 -14.2808,21.5545 -18.9471,30.2334 l -3.3515,6.2333 -2.5,-0.066 c -1.375,-0.036 -7.9,-2.6989 -14.5,-5.9173 z"
           id="path12301" /><path
           style="fill:#000000"
           d="m 5612.2535,-2053.7033 c 5.2545,-13.0625 12.5432,-30.725 16.1973,-39.25 3.654,-8.525 6.8832,-16.3004 7.1761,-17.2786 l 0.5324,-1.7785 -2.9749,-5.7215 c -3.2828,-6.3136 -5.6257,-12.7025 -10.1657,-27.7214 -3.5495,-11.742 -6.2329,-16.1973 -16.2616,-27 -4.0848,-4.4 -11.767,-13.2098 -17.0716,-19.5773 l -9.6447,-11.5774 -13.7377,-12.4226 c -22.3591,-20.2187 -26.6738,-23.902 -31.0951,-26.5451 l -4.2031,-2.5127 -4.2969,1.905 c -2.3633,1.0478 -4.8962,2.6311 -5.6287,3.5186 l -1.3317,1.6135 3.267,4.799 c 1.7969,2.6394 5.6587,7.4632 8.5818,10.7194 l 5.3147,5.9204 v 2.2622 2.2622 l -1.8679,0.5929 c -4.4855,1.4236 -11.5365,-3.9828 -19.8588,-15.227 -10.4048,-14.0578 -16.0667,-17.0163 -23.5198,-12.2897 l -4.6381,2.9414 -1.1896,3.9704 -1.1896,3.9705 2.2191,4.584 2.2191,4.5839 5.1092,4.2542 c 9.0673,7.5498 21.2502,20.2145 22.615,23.5094 l 1.328,3.206 -0.6285,2.5042 -0.6286,2.5041 -2.6733,0.671 -2.6734,0.671 -1.5614,-2.215 c -0.8588,-1.2183 -4.1015,-5.497 -7.2061,-9.5082 l -5.6448,-7.2931 -6.3208,-4.4092 c -7.083,-4.9408 -13.5883,-12.5022 -19.4428,-22.5993 l -3.935,-6.7867 -16.506,-16.9826 c -9.0782,-9.3404 -17.4541,-17.76 -18.613,-18.7102 l -2.1071,-1.7276 -3.9721,2.9211 -3.972,2.921 -4.1708,0.667 c -2.294,0.3668 -4.1709,0.8984 -4.1709,1.1813 0,0.8056 8.7136,10.8509 17.5289,20.2078 4.4159,4.6872 11.5363,12.9405 15.8232,18.3406 4.2868,5.4002 10.9207,13.0502 14.7419,17 3.8212,3.9499 10.4012,12.3566 14.6222,18.6816 l 7.6745,11.5 0.055,5 0.055,5 -2.6416,0.306 -2.6416,0.3059 -6.3229,-11.141 -6.3229,-11.141 -11.5355,-12.6951 c -6.3445,-6.9823 -15.2029,-16.9566 -19.6854,-22.165 -4.4824,-5.2084 -9.5178,-10.7655 -11.1898,-12.3492 l -3.0399,-2.8795 -4.2834,3.6664 c -2.3559,2.0165 -5.3079,3.9236 -6.5602,4.2379 -3.4113,0.8561 9.0458,22.5841 27.6127,48.163 3.3169,4.5696 8.8011,13.3446 12.1871,19.5 13.8782,25.2291 29.685,40.8865 65.5423,64.9226 41.415,27.7615 65.4054,46.573 78.4556,61.519 9.0974,10.4188 7.1915,12.0359 18.2679,-15.5 z"
           id="path12299" /><path
           style="fill:#f7c73b;fill-opacity:1"
           d="m 5592.3887,-2036.1038 c -13.6944,-15.4836 -32.6975,-30.4297 -76.3207,-60.0267 -38.2398,-25.9446 -56.5111,-43.6385 -67.329,-65.2014 -3.6421,-7.2597 -12.364,-20.8599 -18.4728,-28.8051 -2.4035,-3.1261 -6.8403,-9.9624 -9.8596,-15.1919 -3.0193,-5.2295 -7.7408,-13.0218 -10.4924,-17.3163 -5.9942,-9.3553 -6.0461,-9.8467 -1.2531,-11.8435 2.0625,-0.8592 5.3876,-3.1579 7.3891,-5.1081 l 3.6391,-3.5459 1.7923,0.3452 c 0.9857,0.1898 6.9351,6.1949 13.2209,13.3447 6.2857,7.1497 16.4416,18.5015 22.5686,25.2262 l 11.14,12.2268 6,10.6632 c 6.0619,10.7733 8.1188,12.7031 7.8562,7.3706 l -0.1438,-2.9205 -7.5061,-11.4147 -7.5061,-11.4146 -8.3797,-8.8688 c -4.6089,-4.8778 -11.0525,-12.2437 -14.3191,-16.3687 -3.2667,-4.125 -11.5288,-13.5743 -18.3602,-20.9985 -17.3665,-18.8734 -17.9769,-20.1325 -10.3507,-21.352 l 3.9619,-0.6335 5.0997,-3.508 c 2.8048,-1.9294 5.4829,-3.508 5.9513,-3.508 0.4684,0 9.1889,8.441 19.3788,18.7577 l 18.5272,18.7578 3.1208,5.4922 c 4.9426,8.6985 13.2725,19.1294 18.1698,22.7526 6.5352,4.835 14.5406,12.9622 18.7051,18.9897 1.995,2.8875 4.2275,5.25 4.9611,5.25 h 1.3338 v -2.35 c 0,-3.4044 -4.6266,-9.2797 -13.5482,-17.2049 -21.72,-19.294 -24.1279,-27.1476 -11.1956,-36.5158 l 4.0439,-2.9293 h 3.7351 3.735 l 5.4753,4.5076 c 3.0114,2.4791 7.2961,7.1032 9.5215,10.2757 6.8979,9.8337 17.233,18.294 17.233,14.1069 0,-0.6104 -2.3262,-3.6479 -5.1694,-6.75 -12.7844,-13.9487 -13.6212,-18.7136 -4.1303,-23.5196 7.7428,-3.9208 11.0915,-2.0234 35.7997,20.2846 19.5984,17.6945 22.2814,20.3989 32.8315,33.0948 3.8849,4.675 10.9731,12.832 15.7516,18.1268 10.8106,11.9784 12.9935,15.7131 16.8765,28.8732 4.0872,13.8523 6.5347,20.3055 10.3108,27.1857 l 3.1206,5.6858 -3.5933,8.3142 c -3.4275,7.9307 -17.0498,40.9416 -27.2621,66.0643 -5.7665,14.1858 -4.9941,14.1089 -16.058,1.5995 z"
           id="path12297" /><path
           style="fill:#f7c73b;fill-opacity:1;stroke:none;stroke-width:1;stroke-linecap:round;stroke-linejoin:round;stroke-opacity:1;paint-order:stroke fill markers"
           d="m 5337.6213,-2325.0352 3.7602,0.1834 2.3845,-1.7425 -1.6508,-20.7265 -3.1183,-1.8342 -5.8693,1.6508 z"
           id="path38076" /><path
           style="fill:#f7c73b;fill-opacity:1;stroke:none;stroke-width:1;stroke-linecap:round;stroke-linejoin:round;stroke-opacity:1;paint-order:stroke fill markers"
           d="m 5409.4303,-2268.9086 8.4375,-2.0177 11.1885,-6.4197 -5.8693,-8.9876 -3.8521,-2.9347 h -4.0351 l -9.171,7.7037 -2.5678,3.8518 z"
           id="path38078" /><path
           style="fill:#f7c73b;fill-opacity:1;stroke:none;stroke-width:1;stroke-linecap:round;stroke-linejoin:round;stroke-opacity:1;paint-order:stroke fill markers"
           d="m 5403.0107,-2235.5262 6.9699,-3.1181 7.5202,-7.3368 -3.378,-5.9914 -4.1422,-3.363 -7.3369,-0.5503 -4.0352,2.201 -2.9347,4.0353 v 3.3015 l 2.3938,5.686 z"
           id="path38080"
           sodipodi:nodetypes="ccccccccccc" /></g></g></g></svg>
