<?xml version="1.0" encoding="UTF-8" standalone="no"?>
<!-- Created with Inkscape (http://www.inkscape.org/) -->

<svg
   width="587.94067mm"
   height="500mm"
   viewBox="0 0 587.94067 500"
   version="1.1"
   id="svg5"
   xml:space="preserve"
   xmlns:inkscape="http://www.inkscape.org/namespaces/inkscape"
   xmlns:sodipodi="http://sodipodi.sourceforge.net/DTD/sodipodi-0.dtd"
   xmlns="http://www.w3.org/2000/svg"
   xmlns:svg="http://www.w3.org/2000/svg"><sodipodi:namedview
     id="namedview7"
     pagecolor="#ffffff"
     bordercolor="#000000"
     borderopacity="0.25"
     inkscape:showpageshadow="2"
     inkscape:pageopacity="0.0"
     inkscape:pagecheckerboard="0"
     inkscape:deskcolor="#d1d1d1"
     inkscape:document-units="mm"
     showgrid="false"
     showguides="false" /><defs
     id="defs2" /><g
     inkscape:groupmode="layer"
     id="layer16"
     inkscape:label="O"
     transform="translate(1044.0997,4288.8862)"><g
       id="g40142"
       inkscape:label="O"><rect
         style="fill:#cccccc;fill-opacity:1;stroke:#1a1a1a;stroke-width:20;stroke-linecap:round;stroke-linejoin:round;stroke-dasharray:none;stroke-opacity:1;paint-order:stroke fill markers"
         id="rect38211-4-8-198"
         width="567.94067"
         height="480"
         x="-1034.0997"
         y="-4278.8862"
         rx="48.766338"
         ry="48.766338" /><g
         id="g39130"
         transform="translate(-2824.7183,-2303.2452)"><path
           style="fill:#ffffff"
           d="m 1879.4111,-1551.6082 c -1.1,-0.2326 -3.0125,-0.639 -4.25,-0.9031 l -2.25,-0.4801 v -2.9439 c 0,-1.6192 0.9534,-5.3231 2.1187,-8.231 1.1653,-2.9078 3.8512,-10.3989 5.9686,-16.6467 2.1175,-6.2478 4.3519,-11.9646 4.9655,-12.7039 l 1.1155,-1.3442 -1.0841,-6.9876 c -1.2106,-7.8024 -1.2881,-19.6154 -0.1868,-28.4486 l 0.7287,-5.8441 -1.9849,-5.6559 -1.9849,-5.656 -0.014,-21.5 -0.014,-21.5 1.186,-5.9367 1.186,-5.9368 -2.6211,-16.224 -2.6211,-16.224 3.2409,-10.0262 3.2409,-10.0262 -2.1215,-11.313 c -1.1668,-6.2222 -2.5927,-18.0561 -3.1686,-26.2974 -0.5759,-8.2414 -1.4627,-16.8384 -1.9705,-19.1045 l -0.9233,-4.1201 0.9597,-8.4466 c 1.917,-16.8704 4.5809,-27.4719 12.1479,-48.3445 8.5387,-23.5528 12.9179,-34.4394 14.4828,-36.0043 l 1.4957,-1.4957 h 7.8937 7.8938 l 3.4699,3.0466 3.4699,3.0466 1.8149,4.7034 1.8149,4.7034 -0.1869,12.0819 c -0.1801,11.6441 -1.1332,18.6086 -5.1889,37.9181 -1.0397,4.95 -1.7846,9.1208 -1.6554,9.2685 0.3678,0.4205 4.3117,-10.0645 9.0483,-24.0555 5.9901,-17.6936 14.6571,-29.6496 30.5979,-42.2095 3.0882,-2.4332 7.8132,-6.722 10.5,-9.5306 2.6867,-2.8086 6.3746,-6.0299 8.1953,-7.1585 l 3.3103,-2.0521 5.6091,0.4652 5.6092,0.4651 2.3305,2.7095 2.3306,2.7094 v 3.3789 c 0,4.4833 -2.4786,16.0762 -4.926,23.0392 l -1.9682,5.6001 -11.0107,16.6852 c -14.2568,21.6042 -16.0951,27.3781 -16.0951,50.5527 v 8.92 l 3.6772,-4.8938 c 4.6816,-6.2304 25.2115,-30.0325 28.9797,-33.5985 1.5719,-1.4876 9.1547,-5.8395 16.8506,-9.6708 18.3254,-9.1231 24.4066,-13.1725 35.335,-23.5293 l 9.0695,-8.5952 h 2.4759 2.4759 l 2.1362,3 c 2.6545,3.7279 3.025,3.723 5.5,-0.074 1.1,-1.6874 3.2704,-3.7397 4.823,-4.5606 l 2.823,-1.4925 2.9424,0.6462 c 1.6183,0.3555 5.2694,2.6326 8.1135,5.0603 2.8442,2.4277 8.1248,6.19 11.7347,8.3606 3.6099,2.1707 9.0384,6.0031 12.0634,8.5166 3.025,2.5135 8.65,6.673 12.5,9.2434 3.85,2.5703 13.075,10.429 20.5,17.4636 l 13.5,12.7904 15.0513,18.2728 15.0514,18.2729 3.4486,-0.2839 3.4487,-0.2839 6.3343,5.5518 c 3.4838,3.0535 7.7588,6.3076 9.5,7.2314 l 3.1657,1.6797 8.1536,0.097 8.1537,0.097 5.7228,3.7997 c 3.1475,2.0899 8.5138,6.3449 11.925,9.4556 3.4113,3.1107 8.0118,7.2308 10.2234,9.1558 l 4.0212,3.5 0.6528,16.5 c 0.359,9.075 1.321,34.275 2.1378,56 0.8167,21.725 1.7356,42.65 2.042,46.5 0.9044,11.3659 2.2118,62.6324 1.7149,67.25 l -0.4573,4.25 -2.1449,-0.01 c -3.1256,-0.01 -6.556,-2.5621 -18.7232,-13.9315 -5.9869,-5.5944 -15.7142,-14.0274 -21.616,-18.74 l -10.7306,-8.5684 -7.5376,-0.9246 c -4.1457,-0.505 -10.4626,-1.5816 -14.0376,-2.389 l -6.5,-1.4679 -18.5,-8.8733 c -10.175,-4.8803 -21.4648,-10.2156 -25.0884,-11.8561 l -6.5884,-2.9828 -12.9116,-19.2423 c -7.1014,-10.5832 -14.3722,-21.5534 -16.1575,-24.3781 l -3.2458,-5.1359 v -5.59 c -0.01,-7.6062 3.2512,-19.9544 7.4931,-28.41 l 3.5117,-7 v -3.2125 c 0,-1.7669 0.9061,-5.6462 2.019,-8.6208 l 2.0235,-5.4083 3.5695,-3.6753 c 4.4189,-4.5501 9.3763,-7.7015 15.8835,-10.0972 2.75,-1.0124 5.0942,-1.8926 5.2093,-1.9559 3.0476,-1.6772 -4.5097,-15.0751 -20.4303,-36.2197 -6.7215,-8.9271 -12.5026,-17.3531 -12.8468,-18.7245 l -0.6258,-2.4936 -6.3841,-4.6869 c -10.4322,-7.6591 -35.2826,-35.1889 -35.5073,-39.3359 -0.047,-0.8632 -0.6415,0.7225 -1.3215,3.5237 -2.3968,9.8728 -7.346,15.1861 -25.5935,27.4762 l -9.5,6.3984 -10.0721,10.0161 -10.0721,10.0162 -3.5744,7.5 c -10.5279,22.0902 -12.5606,25.8789 -16.4405,30.6423 l -4.2295,5.1927 0.9663,9.8325 c 0.5314,5.4079 1.4441,12.2229 2.028,15.1445 l 1.0619,5.312 -1.4753,3.688 -1.4753,3.688 3.3288,13.2444 c 1.8309,7.2844 4.0853,17.7682 5.0098,23.2972 l 1.681,10.0529 -0.5078,15.7027 -0.5077,15.7028 -2.536,9 c -1.3948,4.95 -4.78,13.725 -7.5228,19.5 -2.7427,5.775 -6.8592,15.225 -9.1476,21 -2.2884,5.775 -6.1983,13.992 -8.6886,18.2599 -2.4903,4.268 -5.1627,9.8697 -5.9388,12.4483 -0.776,2.5786 -1.9682,5.0423 -2.6491,5.4748 -1.2498,0.7937 -85.5273,0.9468 -89.2382,0.1621 z"
           id="path11801" /><path
           style="fill:#1a1a1a"
           d="m 1964.6576,-1553.5526 2.9964,-0.5993 1.2008,-4.1507 c 0.6605,-2.2829 3.3807,-7.9757 6.045,-12.6507 2.6643,-4.675 6.6718,-13.0965 8.9055,-18.7144 2.2338,-5.6179 6.3584,-15.0679 9.1658,-21 2.8074,-5.9321 6.2082,-14.8356 7.5574,-19.7856 l 2.4532,-9 0.5925,-12 0.5926,-12 -1.6878,-11.5 c -0.9282,-6.325 -3.2733,-17.8 -5.2112,-25.5 l -3.5234,-14 1.1607,-4.6912 1.1607,-4.6912 -1.0469,-7.3088 c -0.5758,-4.0198 -1.3416,-10.9969 -1.7017,-15.5045 l -0.6549,-8.1957 3.7105,-4.3043 3.7104,-4.3043 8.664,-17.4746 8.6639,-17.4746 5.9065,-6.3202 c 6.9645,-7.4522 17.5909,-16.1586 29.5096,-24.1779 13.1597,-8.8543 17.3134,-13.9859 20.0757,-24.8027 l 1.0853,-4.25 h 1.3941 c 0.7667,0 1.7132,1.0057 2.1033,2.2348 1.2187,3.8398 7.807,11.7978 20.5947,24.8765 l 12.3308,12.6114 4.4091,2.3886 c 2.425,1.3138 4.7329,3.0637 5.1287,3.8887 0.3957,0.825 1.3981,3.075 2.2276,5 0.8294,1.925 7.246,11.15 14.2591,20.5 14.0239,18.6969 16.0984,22.4404 17.0843,30.829 l 0.6666,5.671 h -1.4159 c -10.5783,0 -26.7811,16.0589 -26.8375,26.5993 l -0.022,4.0993 -3.3891,6.4007 c -4.2516,8.0296 -7.3864,18.1021 -8.1458,26.1734 l -0.5859,6.2273 3.3104,5.1359 c 1.8207,2.8247 9.1206,13.7949 16.222,24.3781 l 12.9115,19.2423 6.5885,2.9828 c 3.6236,1.6405 14.9134,6.9868 25.0884,11.8805 l 18.5,8.8977 7,1.4183 c 3.85,0.78 10.1018,1.7354 13.893,2.1231 l 6.893,0.7049 3.607,3.1834 c 1.9838,1.7509 6.532,5.3789 10.107,8.0624 3.575,2.6834 10.1,8.303 14.5,12.4879 12.5579,11.9442 18.588,17.0027 20.268,17.0027 h 1.5518 l -0.6682,-26.75 c -0.3675,-14.7125 -1.1121,-33.95 -1.6547,-42.75 -0.5425,-8.8 -1.4281,-29.5 -1.9679,-46 -0.5399,-16.5 -1.5367,-39.3562 -2.2153,-50.7915 l -1.2337,-20.7914 -3.54,-2.6963 c -1.947,-1.4829 -6.6452,-5.5438 -10.4403,-9.0241 -3.7951,-3.4803 -9.1951,-7.6441 -12,-9.2529 l -5.0997,-2.925 -7.2899,-0.01 -7.2898,-0.01 -3.8763,-1.9775 c -2.132,-1.0877 -6.4939,-4.2681 -9.693,-7.0677 l -5.8167,-5.09 -3.361,0.6305 -3.3609,0.6305 -1.1562,-1.468 c -24.706,-31.3668 -48.2252,-56.5548 -59.6677,-63.9013 -3.0187,-1.9382 -9.3618,-6.6547 -14.0959,-10.4811 -4.734,-3.8265 -11.484,-8.6831 -15,-10.7924 -3.5159,-2.1093 -8.4628,-5.5415 -10.9931,-7.627 -2.5302,-2.0854 -5.7381,-4.2243 -7.1286,-4.753 l -2.5283,-0.9612 -2.163,1.515 c -1.1896,0.8332 -3.2749,3.2763 -4.6339,5.4291 -3.0845,4.8861 -3.7797,4.8777 -7.0644,-0.086 -3.59,-5.4247 -4.0438,-5.273 -14.7581,4.934 -11.0709,10.5466 -15.4196,13.4489 -34.388,22.9494 l -14.2648,7.1448 -4.1167,4.2359 c -6.2729,6.4546 -20.7098,23.3684 -26.8611,31.4698 l -5.4926,7.2339 -1.5,-0.2502 -1.5,-0.2501 0.3142,-13.4838 c 0.5949,-25.5252 1.7696,-29.1046 17.0355,-51.9059 12.218,-18.249 18.8983,-35.9768 16.763,-44.4845 l -0.6417,-2.5569 -2.9359,-1.5182 c -6.733,-3.4818 -10.7956,-1.9194 -21.1776,8.1445 -3.4967,3.3895 -11.587,11.2176 -17.9786,17.3957 -14.1276,13.656 -15.9704,16.4023 -20.4163,30.427 -10.9499,34.5415 -17.557,40.7784 -11.4476,10.8061 1.6582,-8.1353 3.4821,-20.1414 4.0531,-26.6801 l 1.0382,-11.8886 -1.0534,-4.9113 c -1.4207,-6.6248 -3.4153,-10.2212 -7.1391,-12.8728 l -3.1162,-2.219 -6.1467,0.087 -6.1467,0.087 -1.5477,1.9113 c -5.3531,6.6109 -22.6012,60.0432 -25.0633,77.6427 l -1.2081,8.6364 1.1599,11.2078 c 0.6379,6.1643 1.6268,16.6078 2.1974,23.2078 0.5706,6.6 1.6945,14.8404 2.4975,18.3121 0.803,3.4716 1.4601,8.5073 1.4601,11.1904 v 4.8783 l -2.5,6.9306 c -3.0444,8.4397 -3.0713,10.5113 -0.3556,27.3735 l 2.1445,13.3151 -1.1445,8.6133 c -0.6294,4.739 -1.1444,16.6784 -1.1444,26.5337 v 17.9187 l 1.6449,5.468 c 1.7374,5.7756 1.8574,8.2924 1.3095,27.4679 l -0.3429,12 1.2889,5.2288 1.2889,5.2288 -1.9715,3.2712 c -1.0844,1.7992 -2.7592,5.7462 -3.7219,8.7712 -0.9627,3.025 -3.5284,10.3772 -5.7015,16.3383 -2.1732,5.961 -3.6554,11.136 -3.294,11.5 1.5182,1.5286 82.3404,2.9435 89.2461,1.5624 z"
           id="path11803" /><path
           style="fill:#000000"
           d="m 2154.2824,-1708.4115 3.6193,-14.4582 -1.5498,-6.7918 c -0.8524,-3.7355 -1.9868,-8.4574 -2.5208,-10.4931 l -0.9709,-3.7012 -3.7245,2.1485 c -6.3131,3.6418 -10.4509,7.0864 -13.3985,11.154 l -2.8261,3.9001 v 3.12 c 0,11.788 10.0964,29.2085 17.1259,29.5495 0.3443,0.017 2.2547,-6.4758 4.2454,-14.4278 z"
           id="path11819" /><path
           style="fill:#f7c73b;fill-opacity:1"
           d="m 2143.0975,-1695.6569 -6.0933,-4.7964 -2.0309,-5 c -1.117,-2.75 -2.7598,-7.8938 -3.6507,-11.4308 l -1.6198,-6.4307 1.1277,-3.7639 1.1277,-3.7638 4.4931,-4.4931 c 2.4712,-2.4712 7.2254,-6.1529 10.5647,-8.1814 l 6.0716,-3.6883 1.2701,1.376 c 0.6985,0.7568 2.3286,6.2581 3.6225,12.2251 l 2.3525,10.8491 -3.9608,15.6485 -3.9608,15.6485 -1.6102,0.2988 c -0.8855,0.1643 -4.3521,-1.8596 -7.7034,-4.4976 z"
           id="path11817" /><path
           style="fill:#000000"
           d="m 2266.9825,-1608.4533 c -0.6139,-12.65 -1.5419,-34.475 -2.0624,-48.5 -1.0484,-28.2499 -2.7984,-67.446 -3.6542,-81.8429 l -0.5554,-9.343 -3.4717,-1.4505 c -1.9094,-0.7978 -6.3107,-4.0918 -9.7807,-7.3199 -3.47,-3.2281 -7.8251,-6.658 -9.6781,-7.6219 l -3.3689,-1.7526 -8.5755,-0.7187 -8.5755,-0.7187 -3.0536,-1.579 c -1.6795,-0.8685 -5.5807,-3.8887 -8.6692,-6.7115 l -5.6157,-5.1323 -0.6122,1.5955 -0.6123,1.5955 h -2.3003 -2.3004 l -4.426,-4.9228 c -2.4343,-2.7076 -11.1819,-13.1708 -19.4391,-23.2516 l -15.0131,-18.3288 -8.9036,-8.0893 c -4.8969,-4.4492 -12.5035,-10.7186 -16.9035,-13.9321 -4.4,-3.2136 -11.2271,-8.4602 -15.1714,-11.6591 -8.2173,-6.6646 -8.1904,-6.6567 -11.3286,-3.3163 l -2.3486,2.5 h -2.8754 c -3.6764,0 -8.0464,-2.2531 -14.026,-7.2315 -5.7078,-4.7522 -5.9476,-3.6141 -1.0818,5.1354 l 3.6682,6.5961 14.0107,14.2515 14.0107,14.2515 6.7682,4.5823 c 3.7225,2.5203 7.2971,5.2196 7.9435,5.9985 l 1.1754,1.4162 -1.2341,1.487 -1.2341,1.4869 4.7187,7.5709 c 5.3972,8.6594 14.8432,21.5966 19.8332,27.1635 5.8355,6.51 13.0313,31.1846 14.4204,49.4474 l 0.5062,6.6557 -3.7366,16.8443 c -2.0552,9.2644 -4.1429,17.6121 -4.6394,18.5505 -1.8295,3.4579 -17.6095,5.1782 -24.73,2.696 l -3.1492,-1.0979 v -2.9343 -2.9344 l 2.25,-0.8364 c 1.2375,-0.46 2.925,-0.6303 3.75,-0.3784 0.825,0.252 -0.4819,-1.3088 -2.9043,-3.4684 l -4.4043,-3.9264 -1.7039,-4.3579 -1.7038,-4.3578 -1.0927,3.4449 c -0.601,1.8946 -1.6413,7.1481 -2.3117,11.6743 l -1.2191,8.2294 1.0406,2.2706 c 0.5723,1.2488 7.1197,11.4955 14.5497,22.7705 l 13.5092,20.5 19.8702,9.4334 c 22.4017,10.6352 30.2784,13.4271 42.4231,15.037 14.0119,1.8574 24.318,8.3891 46.947,29.7536 l 7.5,7.0809 0.3437,-4.6525 c 0.1891,-2.5588 -0.1585,-15.0024 -0.7723,-27.6524 z"
           id="path11815" /><path
           style="fill:#f7c73b;fill-opacity:1"
           d="m 2261.3843,-1578.0302 c -7.3377,-7.4468 -29.4082,-25.7722 -35.0438,-29.0972 l -3.3107,-1.9534 -10.3093,-1.443 c -13.7545,-1.9252 -16.6953,-2.9544 -42.2273,-14.7789 l -21.9178,-10.1506 -5.4773,-8.5 c -3.0125,-4.675 -9.3133,-14.35 -14.0019,-21.5 l -8.5246,-13 -0.4487,-4.6591 c -1.5707,-16.3068 5.4182,-31.6898 9.5529,-21.0266 l 2.2546,5.8143 4.4903,3.1651 4.4904,3.1651 v 2.0206 2.0206 h -3.441 c -8.223,0 -5.1545,4.024 3.5987,4.7193 l 6.3423,0.5038 4.2944,-1.1621 4.2945,-1.162 0.9599,-2.1995 c 1.3361,-3.0615 6.8408,-27.8916 7.558,-34.092 l 0.5908,-5.1075 -4.2235,-19 c -4.8301,-21.7291 -5.0333,-22.2185 -13.4612,-32.4257 -3.4396,-4.1659 -9.6872,-12.685 -13.8834,-18.9314 l -7.6295,-11.357 v -3.2681 -3.268 l -7.25,-5.0264 -7.25,-5.0264 -13.0759,-13.3485 -13.0759,-13.3485 -4.1741,-7.0582 -4.1741,-7.0581 v -3.1919 -3.1918 h 1.9083 c 1.0496,0 4.3121,1.9483 7.25,4.3296 2.9379,2.3813 6.8889,4.8625 8.78,5.5137 l 3.4384,1.184 3.1092,-3.0137 c 3.8714,-3.7522 5.5769,-3.7751 9.7293,-0.1306 1.8066,1.5856 9.3598,7.4525 16.7848,13.0376 7.425,5.585 17.5895,13.9268 22.5878,18.5374 l 9.0878,8.3829 16.5014,20.3295 c 9.0758,11.1813 17.2462,20.9451 18.1565,21.6974 l 1.6552,1.3677 1.893,-2.3378 1.893,-2.3377 6.7774,6.3398 c 7.8516,7.3449 11.6778,9.2188 18.8048,9.2101 2.8287,0 7.4455,0.6405 10.2596,1.431 l 5.1166,1.4374 6.9987,6.4798 c 3.8494,3.5638 8.9719,7.5115 11.3835,8.7725 l 4.3847,2.2928 0.2328,8.4883 c 0.128,4.6686 0.8965,22.6633 1.7078,39.9883 0.8113,17.325 1.7491,39.15 2.084,48.5 0.335,9.35 1.2484,30.05 2.0298,46 0.7815,15.95 1.4264,30.4625 1.4332,32.25 l 0.012,3.25 h -1.2768 c -0.7023,0 -4.4148,-3.1846 -8.25,-7.0769 z"
           id="path11813" /><path
           style="fill:#000000"
           d="m 1953.6383,-1755.162 c -2.2327,-1.6345 -3.1859,-7.2418 -2.0055,-11.7971 l 0.9046,-3.4911 1.5327,-0.2952 c 0.843,-0.1624 4.0771,0.6568 7.1868,1.8203 l 5.6542,2.1155 v 2.732 2.732 l -3.25,3.127 c -1.7875,1.7198 -4.375,3.4031 -5.75,3.7407 l -2.5,0.6138 z"
           id="path11811" /><path
           style="fill:#000000"
           d="m 1973.0387,-1622.6097 1.3724,-1.6564 -0.1266,-10.5936 c -0.07,-5.8265 -0.874,-16.8936 -1.7876,-24.5936 l -1.661,-14 0.6805,-5.5 c 0.3743,-3.025 1.7945,-8.425 3.156,-12 l 2.4754,-6.5 -0.6082,-16.153 -0.6083,-16.1529 1.5583,-4.3471 1.5583,-4.347 -0.466,-16.1817 -0.466,-16.1816 -2.3148,-4.1187 -2.3148,-4.1186 -6.1806,-2.9497 -6.1805,-2.9497 h -4.0681 -4.0681 l -1.8889,2.0275 c -2.8382,3.0464 -4.189,8.7918 -4.189,17.8168 v 8.1122 l -5.4305,5.4305 -5.4304,5.4305 -2.1057,7.3412 c -4.2082,14.6715 -8.4654,25.6192 -15.2512,39.2201 l -6.9246,13.8788 1.004,1.004 c 4.0364,4.0364 20.7893,-29.9809 26.6013,-54.0146 1.8698,-7.7318 4.3844,-11.8583 8.0833,-13.2646 l 2.2836,-0.8682 3.6355,1.0038 3.6355,1.0038 3.2542,-1.074 c 1.7898,-0.5906 5.2358,-3.0931 7.6578,-5.5609 5.9555,-6.0682 5.9872,-6.0328 5.9872,6.6752 v 11.1621 l -1.6947,5.3762 -1.6947,5.3762 1.203,12.2117 c 1.6681,16.933 1.5905,17.9586 -1.9694,26.0441 l -3.1559,7.1676 0.1088,12 c 0.06,6.6 0.8049,17.1464 1.6558,23.4364 0.8509,6.2901 1.5471,14.9526 1.5471,19.25 0,7.9051 0.6382,9.1616 3.1276,6.1572 z"
           id="path11809" /><path
           style="fill:#000000"
           d="m 1967.8316,-1573.2033 c 4.0645,-7.8375 9.3001,-18.975 11.6347,-24.75 2.3346,-5.775 6.3288,-15.5171 8.8759,-21.6492 2.5471,-6.132 5.2843,-14.232 6.0827,-18 l 1.4515,-6.8508 0.017,-12.7145 0.017,-12.7146 -1.9037,-9.7854 c -1.0471,-5.382 -3.3705,-15.788 -5.1632,-23.1244 l -3.2594,-13.3388 1.7101,-2.895 1.7101,-2.8949 -1.0428,-12.2662 c -0.5735,-6.7464 -1.2382,-14.891 -1.477,-18.0992 l -0.4343,-5.8329 3.4842,-4.5645 c 1.9162,-2.5105 7.2958,-12.2606 11.9545,-21.667 l 8.4704,-17.1026 5.7255,-6.2 c 8.251,-8.9347 21.7359,-20.2558 33.6431,-28.2447 5.6866,-3.8152 11.7573,-8.651 13.4905,-10.7461 l 3.1512,-3.8092 1.9704,-6.3553 c 2.3732,-7.6548 2.4671,-11.0189 0.4285,-15.3608 l -1.5419,-3.2839 -6.8505,6.5 c -7.3155,6.9412 -21.3087,16.1197 -37.5774,24.6478 -11.007,5.7699 -12.4669,6.9462 -24.0473,19.3749 -8.1909,8.7909 -27.1618,32.5885 -29.443,36.934 l -1.2897,2.4568 1.8002,1.0432 c 4.303,2.4938 8.3995,6.8562 9.8556,10.4953 l 1.5711,3.9265 0.2059,16.8108 0.206,16.8107 -1.5246,4 -1.5246,4 0.4774,16.0588 0.4774,16.0587 -2.6264,7.6092 -2.6263,7.6092 v 6.9533 c 0,3.8242 0.7144,13.4236 1.5875,21.332 0.8732,7.9083 1.4357,18.079 1.25,22.6014 l -0.3375,8.2226 -2.1325,2.1321 -2.1325,2.1321 -1.9876,-0.6309 -1.9876,-0.6308 -0.5328,-10.2239 c -0.2931,-5.6231 -1.2937,-16.2988 -2.2236,-23.7238 l -1.6907,-13.5 0.4909,-9.5983 0.4909,-9.5983 3.1735,-7.2306 3.1735,-7.2305 -1.5587,-14.9822 -1.5587,-14.9822 1.6011,-3.6889 1.6012,-3.689 0.5324,-9.9979 0.5324,-9.998 -4.0332,3.6438 c -4.6467,4.198 -8.4121,5.2937 -15.0536,4.3802 l -4.7149,-0.6485 -2.6232,2.8102 -2.6232,2.8102 -1.2442,5.5 c -3.5602,15.7383 -11.8095,35.7827 -21.7093,52.75 l -2.4797,4.25 h -3.2825 c -1.8054,0 -3.8102,-0.6358 -4.4552,-1.4129 l -1.1726,-1.413 8.4757,-17.837 8.4758,-17.8371 4.1193,-13.4709 c 4.2329,-13.8422 5.0345,-15.3587 10.8758,-20.5757 l 3.4112,-3.0466 0.5197,-9.9366 c 0.5576,-10.6606 1.7813,-14.8564 5.2467,-17.9905 l 2.189,-1.9797 4.8681,0.072 4.8681,0.072 -0.456,-2.0725 c -0.8428,-3.8308 -1.1403,-26.9648 -0.5025,-39.0725 l 0.6322,-12 1.7882,-5.3079 1.7882,-5.3079 10.3376,-15.4626 c 13.8459,-20.7105 19.3053,-33.3551 18.2666,-42.3073 l -0.3034,-2.6133 -2,0.1666 c -1.1,0.092 -3.35,1.874 -5,3.961 -2.9754,3.7634 -4.7931,5.5618 -25.1386,24.8724 -11.4958,10.9111 -12.311,12.1015 -16.408,23.9607 -3.4859,10.0905 -10.0241,27.6125 -14.1536,37.931 l -3.1583,7.8916 1.2627,7.1084 c 4.7763,26.8891 5.8798,38.416 4.1205,43.0432 l -0.9752,2.5651 h -2.9657 c -3.8816,0 -4.087,-0.4525 -5.1209,-11.2815 -0.7733,-8.0998 -4.9858,-36.3556 -6.555,-43.9685 l -0.5668,-2.75 h -2.0545 c -3.5524,0 -9.6858,-2.2311 -11.4292,-4.1575 l -1.6747,-1.8506 1.15,-2.524 c 1.6024,-3.5169 3.7584,-4.0508 8.805,-2.1805 l 4.3494,1.6121 0.4431,-2.1998 c 0.2437,-1.2098 0.6982,-5.3497 1.01,-9.1997 0.3118,-3.85 1.7098,-11.5 3.1068,-17 l 2.5399,-10 0.5566,-12.5 0.5566,-12.5 -1.3542,-4 -1.3543,-4 -3.8021,-2 -3.802,-2 -1.4109,1.8961 c -0.7759,1.0429 -2.3771,4.8679 -3.5581,8.5 -1.1811,3.6322 -4.2953,11.7789 -6.9205,18.1039 -5.9982,14.4515 -9.4273,25.3918 -10.9706,35 -0.6625,4.125 -1.6147,9.6596 -2.116,12.2992 -1.2433,6.5467 -1.1445,12.0677 0.2406,13.4528 l 1.152,1.152 0.8406,15.798 c 0.4624,8.6889 1.519,20.1267 2.348,25.4173 2.0191,12.8851 1.9315,15.0435 -1.0766,26.5212 l -2.584,9.8595 1.7939,10.5 1.7938,10.5 0.04,34.5 0.04,34.5 1.8427,3.3796 1.8427,3.3795 -0.5184,3.6205 c -0.285,1.9912 -0.9974,7.5774 -1.5829,12.4138 l -1.0645,8.7933 0.9758,6.8807 c 0.5367,3.7844 1.9151,9.391 3.0631,12.4592 1.1479,3.0683 1.9419,6.3246 1.7644,7.2365 l -0.3229,1.6578 -3.8459,1.0896 -3.8458,1.0895 -3.3013,9.5 c -1.8157,5.225 -3.6135,10.2686 -3.995,11.2081 l -0.6938,1.7081 8.3409,0.3383 c 4.5875,0.1861 21.8478,0.43 38.3563,0.542 l 30.0153,0.2035 7.3899,-14.25 z"
           id="path11807" /><path
           style="fill:#f7c73b;fill-opacity:1"
           d="m 1882.202,-1558.6376 -0.6463,-1.6843 4.0495,-12.0657 4.0495,-12.0657 2.8782,-0.8865 c 1.583,-0.4875 3.3962,-1.0188 4.0293,-1.1806 l 1.151,-0.2942 -2.5655,-6.8193 -2.5655,-6.8194 -0.086,-13 -0.085,-13 1.3433,-4.6192 1.3433,-4.6192 -1.8433,-3.3808 -1.8433,-3.3808 -0.077,-33.5 -0.077,-33.5 -1.8727,-12.7404 -1.8727,-12.7405 2.7362,-10.9065 2.7362,-10.9066 -1.5428,-10.3181 c -0.8486,-5.675 -1.9958,-17.4546 -2.5495,-26.1769 l -1.0067,-15.8587 -1.5955,-3.0854 -1.5955,-3.0854 2.1695,-14.3211 c 2.7225,-17.9718 5.2353,-26.9758 12.7986,-45.8604 3.3042,-8.25 6.5718,-16.8 7.2615,-19 0.6896,-2.2 1.8803,-5.2375 2.6458,-6.75 l 1.392,-2.75 h 3.2243 c 1.7734,0 4.6405,0.8673 6.3713,1.9226 l 3.1469,1.9189 1.2231,3.7063 1.2232,3.7063 -0.4929,14.6211 -0.4929,14.6211 -2.5554,10.2143 c -1.4054,5.6179 -2.8661,13.778 -3.2461,18.1335 -0.3799,4.3555 -1.063,8.5214 -1.5179,9.2575 l -0.8272,1.3383 -4.5682,-1.2218 c -2.5125,-0.672 -5.2368,-1.2218 -6.0539,-1.2218 h -1.4857 v 1.9613 1.9612 l 5.1815,1.5388 c 2.8499,0.8463 6.014,1.5387 7.0314,1.5387 1.0175,0 2.016,0.5625 2.2191,1.25 0.5965,2.0202 6.4298,41.6923 7.104,48.3151 0.3396,3.3359 1.0142,6.7071 1.4991,7.4917 l 0.8817,1.4265 1.2916,-1.2931 1.2916,-1.2931 -0.2043,-7.1985 c -0.1124,-3.9593 -1.3951,-13.9486 -2.8505,-22.1986 -1.4555,-8.25 -2.8845,-16.9125 -3.1757,-19.25 l -0.5296,-4.25 h 1.0286 c 0.5658,0 2.2769,-3.4875 3.8025,-7.75 1.5256,-4.2625 5.1713,-13.9212 8.1015,-21.4638 2.9301,-7.5426 5.3275,-14.1899 5.3275,-14.7719 0,-0.582 1.2845,-3.8608 2.8544,-7.2863 l 2.8543,-6.228 10.939,-10.617 c 6.0164,-5.8394 11.8195,-10.9147 12.8956,-11.2786 1.0762,-0.3639 4.8817,-4.2669 8.4567,-8.6734 l 6.5,-8.0119 2.171,-0.5481 c 1.1939,-0.3015 2.9939,-0.3915 4,-0.2002 l 1.829,0.3479 0.2994,5.156 0.2993,5.1559 -1.6208,6.2547 c -2.2136,8.5427 -6.1842,16.0815 -16.6523,31.6173 -13.808,20.4924 -14.8136,24.1799 -14.807,54.2974 0.01,26.2839 0,26.2696 9.4815,13.3623 9.7063,-13.2074 18.1361,-23.2819 28.502,-34.063 l 8.8463,-9.2007 7.9736,-4.0091 c 18.5168,-9.31 35.5768,-20.6466 43.631,-28.9931 2.1741,-2.253 4.6847,-4.0964 5.5791,-4.0964 h 1.6261 l 2.2328,4.7672 2.2328,4.7671 -1.4678,7.04 c -2.9725,14.2562 -5.2429,17.2493 -21.4423,28.2692 -25.205,17.1461 -36.1743,28.9787 -46.4969,50.1565 -3.6192,7.425 -8.4691,16.4175 -10.7776,19.9834 l -4.1972,6.4834 1.2383,18.135 1.2383,18.135 -1.5074,2.3816 -1.5074,2.3816 2.9298,11.5 c 1.6113,6.325 3.8957,16 5.0765,21.5 l 2.1468,10 -0.063,15.5 -0.063,15.5 -2.0706,7.7333 c -1.1388,4.2534 -3.4832,11.0034 -5.2096,15 -1.7265,3.9967 -5.73,13.5667 -8.8967,21.2667 -3.1667,7.7 -8.8289,19.9625 -12.5827,27.25 l -6.8251,13.25 h -39.8548 -39.8548 l -0.6464,-1.6843 z"
           id="path11805" /><path
           style="fill:#f7c73b;fill-opacity:1;stroke:none;stroke-width:1;stroke-linecap:round;stroke-linejoin:round;stroke-opacity:1;paint-order:stroke fill markers"
           d="m 2096.4338,-1864.1452 7.1334,-5.8364 c 0,0 -3.891,-3.8909 -4.5395,-3.8909 -0.6484,0 -7.9115,-5.577 -7.9115,-5.577 l -5.8364,-5.1879 -3.6315,3.3721 -3.7613,5.1879 6.2255,4.1503 6.7443,4.6692 z"
           id="path38082" /></g></g></g></svg>
