<?xml version="1.0" encoding="UTF-8" standalone="no"?>
<!-- Created with Inkscape (http://www.inkscape.org/) -->

<svg
   width="587.94067mm"
   height="500mm"
   viewBox="0 0 587.94067 500"
   version="1.1"
   id="svg5"
   xml:space="preserve"
   xmlns:inkscape="http://www.inkscape.org/namespaces/inkscape"
   xmlns:sodipodi="http://sodipodi.sourceforge.net/DTD/sodipodi-0.dtd"
   xmlns="http://www.w3.org/2000/svg"
   xmlns:svg="http://www.w3.org/2000/svg"><sodipodi:namedview
     id="namedview7"
     pagecolor="#ffffff"
     bordercolor="#000000"
     borderopacity="0.25"
     inkscape:showpageshadow="2"
     inkscape:pageopacity="0.0"
     inkscape:pagecheckerboard="0"
     inkscape:deskcolor="#d1d1d1"
     inkscape:document-units="mm"
     showgrid="false"
     showguides="false" /><defs
     id="defs2" /><g
     inkscape:groupmode="layer"
     id="layer17"
     inkscape:label="P"
     transform="translate(305.60562,4288.8862)"><g
       id="g40249"
       inkscape:label="P"><rect
         style="fill:#cccccc;fill-opacity:1;stroke:#1a1a1a;stroke-width:20;stroke-linecap:round;stroke-linejoin:round;stroke-dasharray:none;stroke-opacity:1;paint-order:stroke fill markers"
         id="rect38211-4-8-9"
         width="567.94067"
         height="480"
         x="-295.60562"
         y="-4278.8862"
         rx="48.766338"
         ry="48.766338" /><g
         id="g39142"
         transform="translate(-2654.2087,-2304.5894)"><path
           id="path11845"
           style="fill:#ffffff"
           d="m 2630.411,-1919.4534 -8.4997,4.6034 c -4.675,2.5319 -13.848,7.4822 -20.3843,11.0003 l -11.8846,6.3965 -5.8404,5.3346 c -6.4248,5.868 -9.9625,11.4273 -15.2482,23.9644 l -3.499,8.2992 -3.4453,3.8138 c -1.895,2.0976 -3.8402,4.5147 -4.3222,5.3712 l -0.8764,1.557 -8.4998,1.1354 -8.5002,1.1358 -1.2495,1.635 -1.2501,1.6356 v 10.758 c 0,12.3834 -1.9791,28.947 -5.5986,46.8597 -4.5187,22.362 -7.3679,43.1264 -8.4372,61.4918 -1.2245,21.0294 -2.2952,28.7115 -5.0736,36.4045 -1.1132,3.0823 -3.5734,9.986 -5.4674,15.3417 -1.894,5.3557 -4.3962,11.4307 -5.5604,13.5 -8.3898,14.913 -11.7026,22.8825 -15.8445,38.1191 -3.3848,12.4518 -3.9332,13.6803 -13.7971,30.8973 -3.7226,6.4975 -8.2919,15.7546 -10.1539,20.5709 l -3.3853,8.7571 1.1772,1.1772 1.1772,1.1771 7.2316,0.307 c 21.9521,0.9316 56.8285,3.3809 96.2318,6.7582 9.9,0.8486 20.4749,1.6746 23.4999,1.8356 v -5e-4 c 3.025,0.161 6.625,0.3733 8,0.4723 4.1477,0.2984 29.5035,-17.9787 33.9798,-24.4936 l 2.1875,-3.1838 0.8708,-9.8164 0.8707,-9.816 2.5006,-7.0001 c 1.3752,-3.85 3.9069,-10.8248 5.626,-15.4998 l 3.1254,-8.5003 0.5514,-7.0853 0.5519,-7.0854 -1.1859,-3.593 c -1.5025,-4.5525 -7.7432,-14.2859 -14.7376,-22.9862 l -5.4266,-6.75 h -3.823 -3.823 l -2.1146,-5.7991 c -6.5303,-17.9102 -19.9592,-23.8708 -42.0481,-18.664 -7.7475,1.8263 -6.5443,3.8276 -8.7385,-14.5366 l -1.8521,-15.5003 0.1504,-11.5001 c 0.083,-6.325 0.4633,-13.9132 0.8465,-16.8631 l 0.6966,-5.3634 -1.7173,-10.4697 -1.7166,-10.4691 1.0784,-9.1674 c 0.5934,-5.042 1.3686,-12.6141 1.7224,-16.8274 l 0.6434,-7.661 2.7585,3.161 c 4.8448,5.5502 14.6515,20.9343 18.4588,28.9574 l 3.6866,7.768 6.6885,4.3016 c 3.679,2.3655 9.8391,6.3324 13.6891,8.8154 3.85,2.483 9.475,6.6406 12.5,9.2393 l 5.4999,4.7253 10.5001,5.0079 c 5.775,2.7543 17.2503,8.2191 25.5003,12.144 17.9231,8.5268 20.1215,9.8319 30.2095,17.9348 4.2909,3.4465 8.8357,6.9415 10.0997,7.7665 l 2.298,1.5001 3.9357,15.4998 c 5.8798,23.1583 9.9944,43.5 10.6546,52.6728 0.3235,4.4948 0.9078,8.6888 1.2981,9.3204 l 0.7096,1.1482 6.3975,-1.1301 c 15.4064,-2.7225 78.7182,-17.4919 83.4404,-19.465 l 3.3853,-1.4144 0.6072,-2.4195 c 1.7271,-6.8812 -18.013,-95.3146 -25.0951,-112.4231 -4.1947,-10.1334 -19.2029,-40.3194 -28.4835,-57.289 l -6.8363,-12.5 -4.0504,-14.796 c -9.1405,-33.3875 -12.6019,-38.0586 -30.5056,-41.1701 l -8.9354,-1.5529 -11.4763,-6.0797 c -10.1854,-5.3959 -21.1558,-9.981 -44.6531,-18.6624 l -7.0001,-2.5865 -11.9998,-0.076 z m 16.7763,51.2232 c 0.233,0 0.3941,0.015 0.4738,0.044 2.5039,0.895 1.0915,2.9945 -6.8781,10.2257 l -8.1277,7.3747 -1.5048,3.5662 -1.5048,3.5662 -0.507,13.7501 c -0.2789,7.5625 -0.7821,13.7366 -1.1177,13.7196 -1.2395,-0.062 -11.9319,-6.6365 -19.6526,-12.0851 -4.3766,-3.0886 -10.0407,-6.7145 -12.5873,-8.0574 l -4.6302,-2.4417 7.4497,-6.828 c 4.0974,-3.7553 9.2698,-9.2385 11.4943,-12.1848 l 4.0448,-5.3573 3.6359,-0.8857 c 6.1667,-1.5025 25.9155,-4.4232 29.4117,-4.4065 z" /><path
           id="path11847"
           style="fill:#1a1a1a"
           d="m 2641.4109,-1918.7392 -5.4441,0.9798 c -5.6211,1.0113 -11.7923,3.9444 -32.8073,15.5939 -19.7156,10.929 -24.7278,16.2861 -32.1423,34.3534 l -3.606,8.7871 -5.3237,6.397 -5.3237,6.397 -7.5592,0.5721 c -9.8329,0.7436 -9.346,-0.1874 -10.3895,19.8515 l -0.9039,17.354 -2.4572,13.4999 c -8.4246,46.2795 -9.0405,50.7081 -10.5037,75.52 -1.4774,25.0514 -7.4155,46.1664 -18.9766,67.4759 -6.499,11.9789 -8.5584,17.112 -12.0799,30.1072 -3.6324,13.4044 -5.4498,17.5794 -14.2514,32.7453 -6.0315,10.3929 -13.5181,26.7586 -12.6095,27.5642 0.2079,0.1843 9.1534,0.8571 19.8784,1.495 10.7249,0.6378 24.6746,1.594 30.9996,2.1245 6.325,0.5304 20.7251,1.6644 32.0001,2.5202 11.275,0.8559 24.1001,1.9188 28.5001,2.3621 4.4,0.4433 11.9171,0.8688 16.7049,0.9457 l 8.7054,0.1401 11.2949,-8.5328 c 6.2122,-4.6931 12.9709,-10.1403 15.0193,-12.1047 l 3.7243,-3.5714 0.4837,-3.1455 c 0.266,-1.73 0.7516,-5.8457 1.0795,-9.1457 0.764,-7.6895 2.6638,-14.5464 7.4807,-26.9999 2.1273,-5.5 4.4248,-13.024 5.1051,-16.7199 l 1.2366,-6.72 -1.204,-4.02 c -1.2992,-4.3361 -10.6837,-18.894 -16.6249,-25.7901 l -3.6612,-4.2499 h -3.9538 -3.9532 l -0.3587,-1.25 c -1.5477,-5.3981 -4.1278,-11.2364 -6.6466,-15.0389 l -2.9869,-4.5093 -3.5104,-1.666 c -1.9309,-0.9163 -6.7547,-2.0125 -10.7192,-2.4361 l -7.2079,-0.7699 -7.0037,1.3678 c -3.8521,0.7524 -8.1857,1.6213 -9.6299,1.9307 l -2.6256,0.5622 -1.1938,-10.3451 c -0.6566,-5.6899 -1.8374,-15.1986 -2.6241,-21.13 -1.8574,-14.0041 -1.8064,-21.393 0.1974,-28.6003 l 1.6278,-5.8549 -1.6299,-8.8801 c -1.9957,-10.8732 -2.0195,-18.0538 -0.1162,-34.8801 0.8088,-7.15 1.475,-13.7875 1.4805,-14.75 0.043,-7.4658 15.5889,11.4959 25.3344,30.9005 l 4.5868,9.1327 12.4648,7.7779 c 6.8556,4.2779 15.0396,9.9753 18.1865,12.6607 6.5872,5.6211 6.5828,5.6189 36.3492,19.9161 24.2937,11.6685 27.0707,13.3014 40.5883,23.8719 l 8.9999,7.0378 3.7342,14.7263 c 4.6998,18.5336 10.4072,46.6328 11.268,55.4762 l 0.6568,6.7499 h 1.7493 c 0.9619,0 15.6635,-3.1212 32.6703,-6.936 42.6621,-9.5697 47.9673,-10.8477 51.9452,-12.5098 l 3.4762,-1.4521 v -3.623 c 0,-9.416 -16.8528,-85.1173 -22.6689,-101.8264 -2.9692,-8.5302 -16.935,-37.3558 -32.9675,-68.0465 l -4.6457,-8.8935 -3.2866,-12.1067 c -6.5839,-24.2541 -10.9941,-34.0469 -17.2232,-38.2447 l -3.2438,-2.186 -7.2321,-1.1766 c -9.3929,-1.5277 -14.2701,-3.298 -23.7102,-8.6067 -13.4139,-7.5435 -46.3085,-19.8897 -57.0218,-21.4018 z m 7.0057,47.5816 1.9482,2.1528 1.9482,2.1529 -1.451,2.299 c -0.798,1.2646 -4.6517,5.0349 -8.5639,8.3783 l -7.1127,6.0787 -1.6712,4.1765 -1.6712,4.1765 -0.6217,14.3945 -0.6217,14.395 -1.5942,-0.018 c -0.8769,-0.01 -3.8444,-1.2654 -6.5944,-2.79 -2.75,-1.5246 -10.1748,-6.3106 -16.4998,-10.635 -6.325,-4.3244 -12.9625,-8.4749 -14.75,-9.2232 -4.6943,-1.9653 -4.1253,-3.3406 4.2473,-10.2661 4.1235,-3.4109 9.5306,-9.051 12.0158,-12.5336 5.7307,-8.0309 2.5662,-6.9922 36.9895,-12.1393 z" /><path
           style="fill:#000000"
           d="m 2659.9111,-1813.2058 4.5,-1.3116 5.1725,-15.2051 5.1725,-15.205 -3.1725,-2.2244 c -1.7449,-1.2234 -5.7168,-4.6315 -8.8264,-7.5735 l -5.654,-5.3491 -6.846,5.9201 c -3.7654,3.256 -7.6795,6.857 -8.6981,8.002 l -1.852,2.082 -0.8848,14.8085 c -0.4866,8.1447 -0.6307,16.1909 -0.3201,17.8804 l 0.5646,3.0717 8.1722,-1.7921 c 4.4946,-0.9857 10.1971,-2.3824 12.6721,-3.1039 z"
           id="path11863" /><path
           style="fill:#f7c73b;fill-opacity:1"
           d="m 2636.2312,-1807.5614 c -0.3394,-0.8845 -0.3047,-9.3036 0.077,-18.7093 l 0.6942,-17.1011 1.2043,-2.494 c 6.1296,-12.694 18.9566,-17.4886 27.0836,-10.1236 3.6195,3.2802 7.7149,6.7069 9.1008,7.615 3.1587,2.0697 -3.6445,30.797 -8.4753,35.7884 -0.98,1.0126 -23.4278,6.5394 -26.7862,6.5949 l -2.2814,0.038 -0.6171,-1.6081 z"
           id="path11861" /><path
           style="fill:#000000"
           d="m 2761.9111,-1643.5746 c 10.725,-2.4462 26.3976,-6.0589 34.828,-8.0283 l 15.328,-3.5806 -0.6663,-5.1349 c -0.3665,-2.8242 -2.8347,-15.4849 -5.4848,-28.1349 -2.6502,-12.65 -5.5654,-27.95 -6.4782,-34 -0.9128,-6.05 -2.3161,-13.8378 -3.1185,-17.3063 l -1.4588,-6.3063 -12.5412,-26.1937 c -13.1793,-27.5266 -20.497,-41.6672 -26.0757,-50.388 l -3.3554,-5.2454 -3.4117,-12.7802 c -9.0765,-33.9997 -12.5555,-39.5018 -26.1121,-41.2967 l -7.9533,-1.053 -12.9368,-6.569 c -7.1153,-3.613 -21.7403,-9.9564 -32.5,-14.0966 l -19.5632,-7.5277 -6.1589,-0.4981 -6.1588,-0.4982 -3.3412,1.1593 c -1.8376,0.6377 -11.8279,5.9835 -22.2007,11.8796 l -18.8596,10.7203 -4.7163,4.634 c -4.8904,4.8051 -8.5744,11.4202 -11.6164,20.8592 l -1.7704,5.4931 -5.3848,5.6454 -5.3848,5.6454 4.3617,2.1115 c 2.3989,1.1613 5.7451,2.1114 7.4359,2.1114 h 3.0743 l 5.8634,-4.3164 c 6.547,-4.8197 12.6078,-11.3419 17.7793,-19.133 4.8825,-7.3559 4.761,-7.2985 20.1562,-9.5224 7.6566,-1.106 17.2815,-2.7568 21.3887,-3.6684 l 7.4677,-1.6574 2.0323,2.7786 c 1.1178,1.5282 6.1783,7.004 11.2456,12.1685 l 9.2132,9.39 4.5368,1.9447 4.5368,1.9447 -0.026,4.2856 -0.026,4.2855 -4.3402,13.1515 -4.3403,13.1516 2.6516,-0.9244 c 7.6057,-2.6513 8.9944,-5.9057 9.336,-21.8787 l 0.2459,-11.5 3.1836,-0.3084 3.1836,-0.3084 1.3164,2.3084 1.3164,2.3084 -0.01,11.5 -0.01,11.5 -2.2814,4.9635 c -3.2663,7.1067 -4.6789,8.2978 -12.6146,10.6367 l -7.0903,2.0897 -6.7562,6.905 -6.7562,6.9051 h -3.0252 -3.0251 l -0.6418,-1.6723 -0.6417,-1.6723 2.1371,-3.7132 2.1371,-3.7133 -7.714,2.8819 c -4.2427,1.5851 -8.917,2.8836 -10.3872,2.8856 h -2.6733 l -2.8267,-2.3629 c -1.5548,-1.2996 -7.2236,-4.8957 -12.5975,-7.9915 -5.3739,-3.0958 -14.5376,-8.8269 -20.3638,-12.7359 -5.8263,-3.909 -12.9045,-8.1834 -15.7293,-9.4987 l -5.1362,-2.3915 -4,0.01 c -2.2,0 -4.6447,0.4135 -5.4327,0.9122 l -1.4328,0.9066 7.6514,8.5768 c 9.698,10.8708 17.3445,22.1818 20.4798,30.2948 l 2.4486,6.3358 4.1429,2.8172 c 2.2785,1.5495 7.2928,4.4794 11.1428,6.511 l 7,3.6938 10.1684,9.3008 10.1683,9.3007 5.8317,1.8255 c 6.4852,2.0301 23.1414,9.3762 36.7208,16.1956 l 8.8892,4.464 12.8083,9.9834 12.8082,9.9833 1.5784,5.4297 c 4.7399,16.3046 14.5267,61.9471 14.5267,67.7479 v 0.8547 l 3.25,-0.6663 c 1.7875,-0.3665 12.025,-2.6677 22.75,-5.1139 z"
           id="path11859" /><path
           style="fill:#f7c73b;fill-opacity:1"
           d="m 2733.4336,-1638.7033 c -2.0079,-13.2548 -6.2732,-34.4083 -10.2331,-50.75 l -4.6039,-19 -3.5928,-3.2969 c -1.976,-1.8133 -7.822,-6.6098 -12.9912,-10.6587 l -9.3984,-7.3618 -14.1016,-6.938 c -7.7558,-3.816 -17.9265,-8.4167 -22.6015,-10.2238 -4.675,-1.8072 -10.3,-4.0136 -12.5,-4.9033 l -4,-1.6175 -9.3131,-8.6593 -9.313,-8.6592 -7.187,-3.7479 c -3.9528,-2.0614 -9.0512,-5.0156 -11.3298,-6.5651 l -4.1428,-2.8172 -2.4416,-6.3178 c -3.1434,-8.1337 -12.6159,-22.1316 -21.6568,-32.0031 -3.9138,-4.2733 -7.109,-8.0983 -7.1006,-8.5 0.056,-2.6919 5.3873,-5.2314 10.9781,-5.2296 3.8504,0 13.1599,4.8287 28.1604,14.6027 7.5096,4.8931 16.9596,10.8081 21,13.1446 4.0404,2.3364 8.535,5.2004 9.988,6.3644 l 2.6417,2.1164 8.076,-3.1145 c 12.0559,-4.6492 14.5188,-4.1563 11.1004,2.2216 -4.0848,7.6213 -1.5573,7.6522 5.3912,0.066 5.7191,-6.2442 10.8616,-9.5262 17.828,-11.3783 5.5891,-1.4858 7.9223,-3.8404 10.4285,-10.5237 l 1.875,-5 -0.029,-8 c -0.016,-4.4 -0.3584,-9.2375 -0.7604,-10.75 l -0.7308,-2.75 h -2 -1.9999 l 0.1807,12.0449 0.1808,12.0449 -1.9935,2.7051 c -1.9817,2.6891 -10.6913,8.1371 -13.08,8.1817 -2.0635,0.039 -1.4686,-3.2518 3.25,-17.9766 2.475,-7.7234 4.5,-14.8929 4.5,-15.9321 v -1.8895 l -4.25,-2.1015 c -4.4427,-2.1967 -25.75,-22.0241 -25.75,-23.9615 0,-1.4485 -0.8303,-1.413 -9.9002,0.423 -4.1799,0.8461 -12.9805,2.3086 -19.557,3.25 l -11.9572,1.7116 -3.3082,4.5 c -8.3269,11.3267 -13.7862,17.3787 -19.4131,21.521 l -6.0843,4.479 h -5.0743 -5.0742 l -4.3158,-2.0892 -4.3157,-2.0892 v -1.5832 c 0,-0.8708 2.3046,-4.2328 5.1212,-7.4712 l 5.1213,-5.888 2.3543,-6.7699 c 3.2671,-9.3947 6.5058,-14.8257 12.1053,-20.2998 l 4.7979,-4.6904 19.381,-11.0171 19.3809,-11.0172 5.2374,-1.1721 5.2374,-1.172 7.8817,1.7472 c 10.0275,2.2231 38.3888,13.4513 54.1729,21.4471 l 12.1631,6.1615 9.2681,1.3845 9.2681,1.3845 2.5923,2.9012 c 4.2827,4.7932 9.728,19.5033 16.3741,44.2333 0.813,3.025 4.0371,9.775 7.1646,15 6.0077,10.0364 27.9024,54.2847 34.3897,69.5 l 3.8373,9 1.6704,11.5 c 0.9187,6.325 4.3337,24.55 7.5887,40.5 5.6258,27.5667 6.8941,35.8315 5.6843,37.0413 -0.2948,0.2948 -11.2811,3.0025 -24.414,6.017 -13.1329,3.0145 -30.4811,7.0471 -38.5516,8.9613 -17.8922,4.2438 -16.6171,4.2637 -17.3039,-0.2696 z"
           id="path11857" /><path
           style="fill:#000000"
           d="m 2598.4111,-1641.5734 c 9.4217,-5.6764 12.7771,-8.7636 15.9578,-14.6822 l 2.9578,-5.5038 -4.9329,-10.7831 c -8.1827,-17.887 -8.4755,-18.1424 -20.9827,-18.2993 -6.0536,-0.076 -16.7699,1.8251 -18.1677,3.2229 -0.2534,0.2534 0.6928,4.6693 2.1027,9.8132 1.41,5.1438 2.5639,10.638 2.5643,12.2094 l 7e-4,2.857 1.75,-0.7909 c 0.9625,-0.4349 4.0599,-0.9717 6.8832,-1.1927 l 5.1332,-0.402 1.6168,2.3083 c 4.6938,6.7013 -0.525,13.686 -6.6348,8.88 l -2.5213,-1.9832 -2.6651,2.0964 c -3.4077,2.6805 -3.1252,3.6694 2.938,10.2825 5.9817,6.5243 6.3507,6.5762 14,1.9675 z"
           id="path11855" /><path
           style="fill:#f7c73b;fill-opacity:1"
           d="m 2582.5752,-1641.8561 -6.6641,-6.9027 v -1.9786 -1.9785 l 3.4333,-2.6187 c 3.8726,-2.9538 6.7336,-3.3274 8.5667,-1.1187 1.6356,1.9708 3.6298,1.9071 4.4157,-0.1409 l 0.6297,-1.6409 -1.5458,-2.3591 -1.5457,-2.3591 h -2.443 c -1.3437,0 -3.9924,0.7388 -5.8861,1.6419 -1.8937,0.903 -4.0812,1.397 -4.8611,1.0977 l -1.4181,-0.5442 -0.14,-4.8477 c -0.077,-2.6662 -1.0547,-7.9963 -2.1728,-11.8445 -1.118,-3.8483 -2.0328,-8.2038 -2.0328,-9.6791 v -2.6822 l 5.4039,-1.5709 5.4039,-1.571 9.8461,0.015 9.8461,0.015 2.5,1.2352 2.5,1.2353 6.2122,12.5 6.2123,12.5 0.038,3.5228 0.038,3.5228 -3.5725,5.4772 c -4.1845,6.4156 -5.4363,7.503 -15.5154,13.4786 -9.6596,5.7268 -9.3576,5.7689 -17.2481,-2.4042 z"
           id="path11853" /><path
           style="fill:#000000"
           d="m 2604.0845,-1561.261 c 2.3796,-1.8192 8.0903,-6.1864 12.6905,-9.7049 l 8.3639,-6.3972 1.2705,-3.0451 c 0.6988,-1.6748 1.9855,-7.6365 2.8594,-13.2482 l 1.5888,-10.2032 3.5481,-9.0798 c 4.5439,-11.6285 6.5054,-19.2223 6.5054,-25.1854 v -4.7512 l -5.6789,-8.2887 c -3.1234,-4.5587 -6.4805,-9.8636 -7.4602,-11.7886 l -1.7812,-3.5 -0.04,4.5903 -0.04,4.5903 -3.0684,6.1403 -3.0683,6.1403 -3.9209,3.3561 c -2.1566,1.8459 -8.2043,5.7291 -13.4395,8.6293 l -9.5185,5.2731 -3.6442,-0.6837 -3.6441,-0.6836 -10.3481,-10.2483 -10.348,-10.2483 v -4.543 -4.5431 l 2.0285,-2.5788 2.0285,-2.5788 -3.0152,-11.6128 -3.0152,-11.6128 -2.5705,-20.1933 c -2.5364,-19.9255 -2.9332,-27.6874 -2.8216,-55.1932 0.031,-7.7 0.037,-18.05 0.013,-23 -0.024,-4.95 0.3335,-13.965 0.7947,-20.0333 l 0.8386,-11.0333 -1.1576,-6.9667 c -0.6368,-3.8317 -1.6506,-9.1283 -2.2531,-11.7704 l -1.0953,-4.8036 -3.6374,0.3036 -3.6374,0.3037 -0.734,12.5 c -0.8853,15.0763 -3.9774,37.5185 -7.2335,52.5 -3.5392,16.2842 -6.4367,38.7433 -7.5471,58.5 -1.0534,18.7407 -2.6758,28.4768 -5.7732,34.644 -1.0651,2.1208 -2.9591,7.006 -4.2088,10.856 -1.2496,3.85 -6.0112,14.65 -10.5813,24 l -8.3092,17 -2.1503,8.8661 c -3.3656,13.8776 -5.2158,18.3759 -12.2152,29.6979 -7.1419,11.5525 -13.1273,22.8895 -12.4448,23.5719 0.4593,0.4593 5.2101,0.8743 56.6974,4.9534 17.875,1.4161 36.1,2.9265 40.5,3.3565 4.4,0.4299 12.128,0.843 17.1734,0.9179 l 9.1734,0.1363 4.3266,-3.3077 z"
           id="path11851" /><path
           style="fill:#f7c73b;fill-opacity:1"
           d="m 2574.4111,-1556.554 c -24.4444,-2.2272 -50.5365,-4.3189 -74.5,-5.9724 -12.375,-0.8539 -23.5125,-1.7579 -24.75,-2.0088 l -2.25,-0.4562 v -1.5095 c 0,-2.2482 5.3094,-12.4489 13.5081,-25.9524 l 7.2859,-12 2.0628,-7 c 1.1345,-3.85 3.2418,-11.05 4.6827,-16 l 2.6199,-9 6.7786,-13 c 3.7281,-7.15 7.5725,-15.475 8.5431,-18.5 0.9705,-3.025 3.2716,-9.1871 5.1135,-13.6936 4.1124,-10.0614 5.0759,-15.8959 6.3673,-38.5578 0.9907,-17.3834 4.7788,-45.7503 7.5886,-56.8264 2.3961,-9.4451 5.515,-32.678 6.4726,-48.215 1.0806,-17.5323 0.7118,-16.7072 7.4685,-16.7072 h 5.3736 l 0.5209,1.75 c 0.2864,0.9625 1.2742,5.8 2.1949,10.75 l 1.6742,9 -0.7366,16.5 c -0.4051,9.075 -0.6913,17.4 -0.6359,18.5 0.055,1.1 0.2492,15.725 0.4308,32.5 l 0.3303,30.5 1.7006,13 c 2.049,15.6635 4.1772,26.8204 6.7442,35.3553 2.4407,8.1152 2.4032,10.394 -0.2468,14.9984 l -2.1581,3.7498 0.6177,2.4483 c 1.1787,4.6712 19.8778,21.9482 23.7549,21.9482 3.0774,0 18.3301,-8.4525 23.2387,-12.8781 l 4.0173,-3.6219 2.8431,-6 2.843,-6 8e-4,-4.75 8e-4,-4.75 h 2 c 1.1,0 2,0.4198 2,0.9329 0,0.5131 3.375,5.9728 7.5,12.1327 l 7.5,11.1998 -0.01,7.6173 -0.01,7.6173 -3.5616,10 c -6.3086,17.7131 -7.2744,21.1235 -8.3927,29.6356 -0.6044,4.6004 -1.5779,9.5788 -2.1634,11.0631 l -1.0645,2.6986 -12.15,9.4023 c -17.3471,13.4242 -13.9128,12.5813 -41.1499,10.0997 z"
           id="path11849" /></g></g></g></svg>
