<?xml version="1.0" encoding="UTF-8" standalone="no"?>
<!-- Created with Inkscape (http://www.inkscape.org/) -->

<svg
   width="587.94067mm"
   height="500mm"
   viewBox="0 0 587.94067 500"
   version="1.1"
   id="svg5"
   xml:space="preserve"
   xmlns:inkscape="http://www.inkscape.org/namespaces/inkscape"
   xmlns:sodipodi="http://sodipodi.sourceforge.net/DTD/sodipodi-0.dtd"
   xmlns="http://www.w3.org/2000/svg"
   xmlns:svg="http://www.w3.org/2000/svg"><sodipodi:namedview
     id="namedview7"
     pagecolor="#ffffff"
     bordercolor="#000000"
     borderopacity="0.25"
     inkscape:showpageshadow="2"
     inkscape:pageopacity="0.0"
     inkscape:pagecheckerboard="0"
     inkscape:deskcolor="#d1d1d1"
     inkscape:document-units="mm"
     showgrid="false"
     showguides="false" /><defs
     id="defs2" /><g
     inkscape:groupmode="layer"
     id="layer18"
     inkscape:label="Q"
     transform="translate(-432.88852,4288.8862)"><g
       id="g40263"
       inkscape:label="Q"><rect
         style="fill:#cccccc;fill-opacity:1;stroke:#1a1a1a;stroke-width:20;stroke-linecap:round;stroke-linejoin:round;stroke-dasharray:none;stroke-opacity:1;paint-order:stroke fill markers"
         id="rect38211-4-8-05"
         width="567.94067"
         height="480"
         x="442.88852"
         y="-4278.8862"
         rx="48.766338"
         ry="48.766338" /><g
         id="g39154"
         transform="translate(-2466.8522,-2303.7273)"><path
           id="path11893"
           style="fill:#ffffff"
           d="m 3187.4111,-1917.176 -4.2416,1.1477 -4.2416,1.1478 -6.2585,5.1221 c -3.4421,2.8171 -14.1333,12.8445 -23.7582,22.2834 l -17.5003,17.1618 -14.4937,10.9301 -14.4942,10.93 -1.8102,3.8473 c -0.9953,2.1163 -3.3644,11.5666 -5.2648,21.0003 -1.9004,9.4337 -4.383,19.9504 -5.517,23.3707 l -2.0619,6.2187 -8.5028,12.6923 c -9.4825,14.1546 -18.4489,31.4915 -29.4116,56.8704 -4.0388,9.35 -8.2657,18.7811 -9.3933,20.9579 l -2.0505,3.9579 -13.4927,11.3042 c -15.6509,13.1116 -31.6216,28.6976 -32.381,31.6017 l -0.5265,2.0133 3.7,3.6396 c 2.0351,2.0018 10.9006,8.8583 19.7006,15.2368 8.8,6.3784 22.2245,16.9279 29.8323,23.443 7.6078,6.5152 14.9294,12.521 16.2703,13.346 l 2.4381,1.4996 10.773,-10.9998 c 5.9253,-6.05 16.6725,-17.2389 23.8822,-24.8642 l 13.1088,-13.8642 10.3477,-3.4608 10.3472,-3.4613 14.318,-7.6745 c 17.6876,-9.4814 23.5631,-14.1142 33.3969,-26.3312 l 7.7148,-9.5844 7.7855,-4.0142 c 4.2819,-2.2078 8.7452,-4.3049 9.9188,-4.6602 l 2.1342,-0.646 0.6088,2.4268 c 0.3351,1.3349 3.8024,9.3364 7.7049,17.7808 3.9026,8.4444 7.339,16.1625 7.6363,17.1514 l 0.5405,1.7978 -2.0123,2.202 c -2.9802,3.2612 -4.8764,7.5148 -6.1887,13.8828 l -1.1705,5.6808 1.1203,6.3195 c 0.6161,3.4755 1.7684,8.8664 2.5606,11.9797 0.7922,3.1132 2.1313,12.2357 2.9755,20.2726 l 1.5348,14.6126 2.5265,8.7178 c 1.3895,4.7949 3.734,10.9723 5.2105,13.7273 l 2.6846,5.009 18.0005,1.6811 c 9.8999,0.9243 24.0749,2.1638 31.4998,2.7548 7.425,0.591 20.4748,1.7275 28.9998,2.5254 15.3502,1.4366 54.9325,4.3418 66.5004,4.8809 3.3,0.1538 7.7999,0.3572 9.9999,0.4532 2.2,0.096 4.6749,-0.2542 5.4999,-0.7772 l 1.5002,-0.9509 -0.1458,-19.2835 -0.1457,-19.2841 -3.0763,-11.5001 c -1.692,-6.325 -4.1864,-15.1686 -5.5433,-19.6526 -1.3569,-4.484 -2.9568,-11.9087 -3.5549,-16.4997 -0.5981,-4.591 -1.7741,-9.9365 -2.6137,-11.8784 l -1.5266,-3.5305 -5.0441,-3.4422 -5.0441,-3.4421 -6.7454,-0.3809 -6.7458,-0.3814 -2.5942,-5.2891 c -6.8129,-13.8911 -18.2272,-19.673 -29.5026,-14.9437 l -3.7176,1.5596 -1.0004,-1.6697 c -6.9485,-11.6028 -12.8853,-18.2525 -19.5213,-21.8643 l -5.2322,-2.8479 -8.6558,0.4935 -8.6564,0.494 -3.0401,1.5715 c -1.6719,0.8646 -3.641,2.2966 -4.3759,3.1823 l -1.3364,1.6102 -2.1802,-6.7939 c -1.1991,-3.7369 -4.7679,-12.8242 -7.9303,-20.1936 l -5.7495,-13.3987 1.2413,-2.3197 c 1.5927,-2.976 12.5585,-14.1851 21.3594,-21.8333 l 6.8471,-5.95 1.4382,-3.4417 c 2.8193,-6.7474 -8.5891,-19.9978 -17.3287,-20.1264 l -2.1213,-0.031 -0.6418,-4.7501 c -0.353,-2.6125 -2.241,-8.3496 -4.1957,-12.7496 -1.9547,-4.4 -3.7554,-8.4538 -4.0013,-9.0083 l -0.447,-1.0082 7.86,0.3571 7.86,0.3571 3.9682,-2.0247 c 9.5754,-4.885 13.6414,-12.0252 9.3127,-16.354 l -3.0273,-3.0272 4.4163,-4.146 4.4158,-4.146 0.6971,-5.192 c 0.9987,-7.4393 0.3321,-8.5896 -8.8005,-15.1825 -4.5139,-3.2587 -12.475,-9.5985 -17.6909,-14.0885 -11.3601,-9.7793 -11.8837,-10.0721 -27.8851,-15.5888 -6.9289,-2.3888 -16.9313,-5.908 -22.2271,-7.8207 -5.2958,-1.9126 -13.1705,-4.2366 -17.4997,-5.164 z m 5.2938,86.0676 3.853,2.3859 c 2.1192,1.3124 6.3284,3.3965 9.3534,4.6313 3.025,1.2348 6.4907,2.7352 7.7018,3.3346 l 2.202,1.0899 0.6459,3.1068 c 1.495,7.1895 12.8907,20.4209 20.4815,23.781 l 2.7275,1.2071 -3.6293,1.9074 c -1.9962,1.0492 -5.2048,3.3966 -7.1298,5.2167 l -3.5,3.3094 -2.7993,-2.8939 -2.7993,-2.8939 -5.5387,-1.6102 -5.5387,-1.6102 -4.6617,1.172 c -2.5641,0.6446 -6.1006,2.0599 -7.8585,3.145 l -3.1962,1.973 -2.0536,5.4891 c -1.1296,3.0191 -2.0536,6.1471 -2.0536,6.9515 0,3.1834 -10.9343,-2.1024 -14.9944,-7.2487 l -2.1999,-2.7889 0.3891,-14.9996 0.3891,-15.0002 2.111,-4.0002 c 2.4146,-4.5764 5.3002,-7.4025 10.3048,-10.0924 1.925,-1.0346 4.4664,-2.7094 5.6472,-3.7218 z" /><path
           id="path11895"
           style="fill:#1a1a1a"
           d="m 3186.2629,-1915.1281 -3.715,1.5524 c -5.1472,2.1506 -13.2565,9.1927 -33.6373,29.2106 l -17.5002,17.1886 -10.5001,7.7623 c -5.775,4.2694 -12.1788,9.3524 -14.2307,11.2955 l -3.731,3.5331 -1.4687,4.5661 c -0.8077,2.5112 -2.6384,10.8003 -4.0684,18.4206 -1.4301,7.6204 -3.691,17.2954 -5.024,21.5 l -2.4237,7.645 -8.6418,13.0002 c -9.7375,14.6478 -17.5338,29.7089 -28.9879,55.9997 -4.3131,9.9 -8.7607,19.7789 -9.8831,21.9532 l -2.0407,3.9533 -14.4999,12.2157 c -7.975,6.7185 -18.2979,16.0599 -22.9397,20.7585 l -8.4398,8.5426 1.9399,2.1601 c 1.0668,1.1882 9.8147,7.9233 19.4397,14.967 15.9143,11.6463 24.1756,18.2742 41.3933,33.2083 l 5.8937,5.1119 11.6065,-11.9854 c 6.3835,-6.5919 17.2316,-17.8328 24.1066,-24.9798 l 12.5,-12.9946 7.26,-1.8309 7.2606,-1.8309 11.591,-5.8895 c 25.1817,-12.7953 29.389,-15.9277 41.076,-30.5806 l 7.3546,-9.2211 10.3963,-5.1677 10.3957,-5.1676 1.4542,0.5581 c 0.7997,0.3069 1.7414,1.7024 2.0924,3.1011 0.3511,1.3987 4.2337,10.2917 8.6284,19.7626 9.1173,19.6483 8.9724,18.9732 5.0333,23.4595 -5.638,6.4214 -7.2376,16.4802 -4.5165,28.3962 1.8447,8.0782 3.9538,21.503 5.366,34.1509 1.1655,10.4387 4.7447,22.9656 8.3851,29.3491 l 2.281,4.0003 9.4707,0.7075 c 5.209,0.3893 16.896,1.3991 25.971,2.2438 26.4511,2.4622 61.2231,5.3691 78.5001,6.5624 8.8,0.6078 17.1247,1.2357 18.4997,1.3957 1.375,0.1599 7.5626,0.3584 13.7501,0.4408 l 11.2509,0.1504 v -15.8693 -15.8688 l -1.4727,-8.4444 c -0.8099,-4.6442 -3.2778,-14.231 -5.4845,-21.3042 -2.2066,-7.0733 -4.7062,-17.5328 -5.5541,-23.243 -1.8051,-12.1569 -2.4042,-13.3391 -8.8744,-17.5064 l -4.886,-3.1471 -6.3661,-0.1437 c -3.5013,-0.079 -6.5229,-0.3305 -6.7148,-0.5586 -0.1918,-0.2282 -1.8331,-3.2353 -3.6473,-6.6828 -3.9133,-7.4368 -9.3479,-12.6566 -14.9138,-14.3242 l -4.038,-1.2097 -6.1836,2.1115 c -7.2651,2.4807 -6.8526,2.6376 -10.6521,-4.0597 -4.2676,-7.5224 -10.6906,-14.4092 -16.5979,-17.7974 l -5.115,-2.9337 -4.5682,-0.01 c -9.8594,-0.02 -17.0487,3.5779 -18.4619,9.2403 -0.3775,1.5125 -1.2924,2.7502 -2.0329,2.7502 h -1.3462 l -0.6284,-3.7502 c -1.0184,-6.0764 -3.4124,-12.9044 -9.618,-27.4319 -3.2144,-7.525 -5.8441,-15.0263 -5.8441,-16.6698 v -2.9879 l 5.4043,-6.3309 c 2.9723,-3.4819 8.4847,-8.7576 12.2499,-11.7238 16.3112,-12.8499 17.054,-17.5656 4.1005,-26.0294 l -6.2383,-4.0763 h -2.758 -2.7585 l -0.02,-4.7495 -0.02,-4.7501 -4.4803,-10.4893 c -2.4642,-5.769 -4.4804,-11.1088 -4.4804,-11.8665 v -1.3777 l 2.7497,0.6759 c 1.5125,0.3715 5.2604,0.9225 8.3287,1.2243 l 5.5785,0.5488 3.9217,-2.0232 c 2.1567,-1.1127 5.6965,-3.8578 7.8662,-6.0999 l 3.945,-4.0762 -2.695,-2.8127 c -3.6803,-3.8414 -3.4095,-5.5438 1.6656,-10.4707 l 4.3604,-4.2328 0.6692,-4.362 0.6692,-4.3615 -1.2619,-1.5209 c -0.6942,-0.8364 -4.6452,-3.9987 -8.7798,-7.0269 -4.1347,-3.0283 -10.4428,-8.0687 -14.0178,-11.2009 -3.575,-3.1322 -8.6665,-7.3408 -11.3145,-9.3524 l -4.8147,-3.6571 -7.1851,-2.1792 c -3.952,-1.1983 -11.0104,-3.7018 -15.6854,-5.5635 -11.317,-4.5068 -28.4756,-9.9247 -34.1054,-10.7689 z m 6.504,82.8539 c 2.0905,-0.076 4.044,0.4784 5.9143,1.6423 2.0515,1.2767 6.8801,3.5681 10.7301,5.0916 8.2602,3.2688 9.4997,4.1625 9.4997,6.8498 0,1.1099 1.0106,4.0412 2.2454,6.5138 l 2.2453,4.4958 6.2968,5.7697 c 3.4632,3.1735 7.853,6.5084 9.7549,7.4109 4.6893,2.2253 4.3477,4.0582 -1.2924,6.9407 -2.6125,1.3351 -6.3005,4.0431 -8.1959,6.0172 -4.2258,4.4013 -4.3075,4.4025 -8.5803,0.1297 l -3.4593,-3.4597 -4.1863,-1.1271 -4.1858,-1.1271 -4.3635,0.6542 -4.3631,0.6543 -3.4509,3.0298 -3.4504,3.0298 -1.8077,6.1525 -1.8076,6.1526 -1.9493,0.2522 c -1.0723,0.1388 -4.4246,-1.1024 -7.4496,-2.7585 -3.025,-1.656 -6.7377,-4.3643 -8.2502,-6.0182 l -2.7502,-3.0071 v -15.6181 -15.6182 l 1.2227,-4.0809 1.2226,-4.0809 4.0504,-4.0349 c 6.4986,-6.4743 11.7611,-9.6894 16.3603,-9.8562 z" /><path
           style="fill:#000000"
           d="m 3278.2667,-1854.5775 c 1.7294,-1.4432 3.4907,-3.219 3.914,-3.9461 l 0.7695,-1.322 -7.7695,-5.7143 c -4.2733,-3.1429 -11.9263,-9.2539 -17.0067,-13.58 -11.6867,-9.9515 -13.8695,-11.1956 -24.2629,-13.8286 -4.675,-1.1843 -15.472,-4.8496 -23.9933,-8.145 -8.5213,-3.2954 -17.5744,-6.2381 -20.1179,-6.5394 l -4.6245,-0.5477 -1.8235,1.0205 -1.8235,1.0205 13.4413,4.2093 c 15.8682,4.9694 36.9181,12.1617 42.1542,14.4033 5.1589,2.2085 9.5066,6.2468 21.0727,19.5731 15.0564,17.3477 15.2116,17.4512 20.0701,13.3964 z"
           id="path11915" /><path
           style="fill:#f7c73b;fill-opacity:1"
           d="m 3266.801,-1854.7033 c -2.978,-3.1625 -9.6736,-10.6133 -14.8792,-16.5572 l -9.4646,-10.8073 -6.0231,-2.8078 c -6.6795,-3.1139 -23.1605,-8.8545 -43.1701,-15.0369 l -13.1471,-4.0621 -0.6061,-1.5796 c -0.8494,-2.2134 -0.082,-3.0847 3.8611,-4.3862 l 3.4329,-1.1329 6.4002,1.6051 c 3.5201,0.8828 12.476,4.0095 19.9019,6.9482 7.426,2.9387 17.4775,6.3218 22.3367,7.5181 11.1651,2.7485 10.7623,2.5184 24.4675,13.9795 6.325,5.2894 14.5375,11.7833 18.25,14.4309 l 6.75,4.8138 v 2.3272 2.3272 l -4.6408,4.085 c -6.027,5.3052 -7.0216,5.1822 -13.4693,-1.665 z"
           id="path11913" /><path
           style="fill:#000000"
           d="m 3262.9111,-1769.2692 c 3.575,-2.9739 7.594,-6.5976 8.9312,-8.0528 l 2.4311,-2.6459 -1.9311,-1.4744 c -1.0622,-0.8109 -3.924,-2.4616 -6.3596,-3.6682 l -4.4283,-2.1939 -7.0717,1.8109 c -11.5397,2.955 -24.5716,10.3436 -24.5716,13.9311 0,0.3928 3.6556,5.1808 8.1235,10.6399 l 8.1234,9.9256 5.1266,-6.4326 c 2.8196,-3.538 8.0515,-8.8659 11.6265,-11.8397 z"
           id="path11907" /><path
           style="fill:#f7c73b;fill-opacity:1"
           d="m 3236.538,-1758.6608 -8.6181,-10.7925 v -2.1226 -2.1227 l 4.5303,-4.1759 c 4.7058,-4.3376 8.9081,-6.4648 18.8029,-9.5176 l 5.8332,-1.7997 4.75,0.4564 4.7499,0.4565 4.7346,3.2574 c 2.6039,1.7916 4.986,3.9127 5.2933,4.7137 l 0.5588,1.4563 -2.3765,2.5876 c -1.3071,1.4232 -5.3015,4.9858 -8.8765,7.9168 -3.575,2.931 -9.2098,8.5719 -12.5218,12.5354 -7.8582,9.4039 -6.9433,9.5586 -16.8513,-2.8491 z"
           id="path11905" /><path
           style="fill:#000000"
           d="m 3081.1854,-1629.7033 c 10.2058,-10.8625 20.2817,-21.4138 22.3909,-23.4474 l 3.8348,-3.6974 9.5,-2.6918 c 23.2344,-6.5833 43.8537,-19.6812 56.5209,-35.9034 l 6.4436,-8.252 6.2678,-4.0623 c 3.4472,-2.2343 8.7427,-5.03 11.7677,-6.2127 3.025,-1.1828 5.6192,-2.2694 5.7648,-2.4149 0.1457,-0.1454 -1.4928,-4.4952 -3.6411,-9.6662 -2.1482,-5.1711 -5.3582,-13.9925 -7.1332,-19.6032 l -3.2272,-10.2014 -3.1317,0.7014 c -1.7224,0.3857 -9.0022,0.7013 -16.1773,0.7013 h -13.0456 l -2.6285,-1.7234 c -1.4457,-0.9478 -2.9339,-2.6855 -3.3071,-3.8615 l -0.6787,-2.1381 1.3528,-1.3022 1.3528,-1.3022 5.9352,0.9566 c 3.2643,0.5261 8.6324,0.8248 11.929,0.6637 l 5.9939,-0.2929 -7.1352,-5.7577 -7.1351,-5.7576 -0.6826,-3.6383 c -0.3754,-2.0011 -0.4433,-10.4351 -0.1508,-18.7424 l 0.5317,-15.104 2.1477,-5.667 c 2.8109,-7.4165 5.2585,-10.3896 10.9149,-13.2581 5.5141,-2.7963 7.9929,-5.3279 9.0251,-9.2175 l 0.7583,-2.8574 2.6355,-0.3117 2.6354,-0.3118 5.7171,3.6572 c 3.1444,2.0114 9.3537,5.2085 13.7985,7.1045 4.4448,1.8961 9.4804,4.0656 11.1902,4.8211 l 3.1089,1.3737 0.6676,4.1753 c 2.0666,12.9234 19.1261,27.7255 26.0874,22.6353 l 1.855,-1.3564 -3.8926,-8.3936 c -2.141,-4.6165 -5.3157,-10.8686 -7.055,-13.8936 -1.7393,-3.025 -4.3811,-8.425 -5.8708,-12 -3.3475,-8.0337 -4.3904,-9.2409 -12.5093,-14.4802 -3.575,-2.307 -11,-7.9266 -16.5,-12.488 -5.5,-4.5614 -11.649,-9.3939 -13.6644,-10.7389 l -3.6645,-2.4454 -7.8355,2.1944 c -4.3096,1.207 -10.7606,3.6749 -14.3356,5.4842 l -6.5,3.2897 -11.8762,11.038 c -14.7942,13.7501 -18.4632,15.6786 -25.0587,13.171 l -2.5651,-0.9753 v -1.9387 -1.9387 l 6.25,-3.5014 c 3.4375,-1.9257 11.5915,-8.2375 18.12,-14.0262 l 11.87,-10.5248 7.13,-3.497 c 7.3151,-3.5878 21.2418,-7.6227 26.31,-7.6227 h 2.8467 l 4.9866,3.4065 c 2.7427,1.8735 7.6867,5.7239 10.9867,8.5563 3.3,2.8325 10.5,8.2233 16,11.9796 11.9934,8.1911 12.8615,9.1026 17.4299,18.3014 l 3.5701,7.1887 5.5,1.7227 c 3.025,0.9474 7.5768,1.7501 10.1151,1.7837 l 4.6152,0.061 2.6348,-2.0726 c 3.5791,-2.8153 3.3629,-3.8047 -1.96,-8.9692 -2.5271,-2.452 -10.3392,-10.9832 -17.3602,-18.9582 l -12.7653,-14.5 -5.8898,-2.7188 c -15.7969,-7.2918 -49.2176,-17.7811 -56.6542,-17.7811 h -4.8047 l -18.0628,17.25 c -9.9346,9.4875 -23.3066,21.3007 -29.7155,26.2516 l -11.6526,9.0016 -1.839,3.7622 c -1.0114,2.0692 -3.1363,10.7975 -4.722,19.3963 -4.7376,25.6908 -6.0141,29.0178 -17.0544,44.4512 -8.0894,11.3082 -18.2228,30.46 -27.1893,51.3871 -12.4156,28.9766 -13.729,30.9033 -31.6953,46.495 -6.875,5.9663 -15.425,13.8473 -19,17.5133 l -6.5,6.6654 2.4674,1.6631 c 10.3807,6.9972 28.8275,20.9545 35.9439,27.1962 9.0205,7.9118 19.1649,15.923 20.1979,15.9507 0.335,0.01 8.9593,-8.8712 19.1651,-19.7337 z"
           id="path11903" /><path
           style="fill:#f7c73b;fill-opacity:1"
           d="m 3053.4111,-1612.6356 c -3.85,-3.0378 -9.25,-7.6347 -12,-10.2154 -5.6421,-5.2949 -21.1486,-17.1396 -32.75,-25.0163 l -7.75,-5.2617 v -1.7743 -1.7744 l 8.25,-7.897 c 4.5375,-4.3434 13.2,-12.2267 19.25,-17.5184 16.5921,-14.5125 17.344,-15.613 29.0351,-42.4959 11.2152,-25.7884 18.3668,-39.3781 28.7575,-54.6457 10.213,-15.0066 11.8189,-19.0924 15.7119,-39.9741 1.6657,-8.9345 3.7269,-18.3659 4.5805,-20.9587 l 1.552,-4.7142 4.6815,-3.8579 c 2.5748,-2.1218 8.2815,-6.5785 12.6815,-9.9038 4.4,-3.3253 15.6761,-13.4683 25.058,-22.54 9.3819,-9.0717 18.0038,-17.0002 19.1598,-17.6189 l 2.1017,-1.1248 7.3403,0.9377 c 10.0709,1.2865 47.4216,13.5854 57.1089,18.805 l 4.7687,2.5693 7.7313,9.0783 c 4.2522,4.993 12.1188,13.6606 17.4813,19.2613 l 9.75,10.183 v 2.0187 2.0187 l -3.4957,2.6663 -3.4956,2.6663 h -4.9392 c -5.0766,0 -14.2099,-1.7934 -17.3274,-3.4024 -0.9669,-0.499 -3.0313,-3.7157 -4.5877,-7.1482 -3.6325,-8.0113 -7.6989,-12.5817 -15.6775,-17.6206 -3.5263,-2.2271 -11.4886,-8.1542 -17.6941,-13.1714 -6.2056,-5.0172 -12.6648,-9.7895 -14.3538,-10.6051 l -3.0711,-1.4829 -9.6504,2.5686 c -15.3546,4.0868 -20.7095,7.2656 -36.1968,21.4873 -4.4059,4.0459 -10.8146,8.9959 -14.2415,11 -6.8487,4.0052 -7.3181,4.6363 -4.0783,5.4836 l 2.191,0.5729 3.4342,-1.6296 c 1.8888,-0.8963 8.6011,-6.4647 14.9162,-12.3741 l 11.4819,-10.7444 5.9766,-3.1855 c 6.9531,-3.706 19.9373,-7.9423 24.4092,-7.964 l 3.0999,-0.015 3.9001,2.8296 c 2.145,1.5563 7.5,5.9038 11.9,9.6611 4.4,3.7572 11.6,9.1728 16,12.0346 9.6407,6.2703 10.5928,7.3006 13.8384,14.9747 1.3956,3.3 5.7154,12.1792 9.5995,19.7317 l 7.0621,13.7316 v 2.9832 2.9831 l -1.9343,1.0352 c -1.0638,0.5694 -3.5604,1.0352 -5.548,1.0352 h -3.6138 l -5.2019,-3.3371 c -9.0502,-5.8058 -13.1249,-11.3427 -15.6567,-21.2753 l -1.0483,-4.1123 -10.2485,-4.2207 c -5.6367,-2.3213 -13.1027,-6.0165 -16.5912,-8.2116 -3.4884,-2.1951 -6.4786,-3.8452 -6.6449,-3.667 -0.1662,0.1782 -0.9989,2.0052 -1.8504,4.0599 l -1.5482,3.736 -4.8069,2.9612 c -8.4471,5.2037 -9.4906,6.2288 -12.1661,11.952 l -2.6249,5.6149 -0.3515,18.1438 -0.3516,18.1437 8.0936,6.696 c 11.7717,9.739 10.7257,10.9987 -7.9064,9.5212 -11.3093,-0.8967 -12.1827,-0.7588 -9.8658,1.5581 l 1.5151,1.5151 6.9208,1.0775 6.9207,1.0774 10.2005,-1.2089 c 10.6874,-1.2666 12.3087,-1.0244 12.3087,1.8386 0,2.2199 5.8522,19.3771 9.9003,29.025 1.7049,4.0632 3.0997,8.4145 3.0997,9.6697 v 2.2821 l -4.8932,1.6252 c -2.6913,0.8939 -8.0585,3.6504 -11.9272,6.1255 l -7.0339,4.5003 -7.6606,9.5244 -7.6607,9.5245 -6.6622,4.9105 c -3.6642,2.7008 -12.2872,7.7895 -19.1622,11.3081 l -12.5,6.3976 -9.5,2.6748 c -11.8251,3.3295 -8.9121,0.9492 -34.0469,27.8198 l -21.2804,22.75 -1.5864,-0.08 c -0.8724,-0.044 -4.7363,-2.565 -8.5863,-5.6027 z"
           id="path11901" /><path
           style="fill:#000000"
           d="m 3385.9052,-1570.7033 c -0.01,-12.9213 -1.9676,-25.2996 -7.3393,-46.3564 -2.4405,-9.5665 -4.7474,-20.0936 -5.1266,-23.3936 -0.8482,-7.3819 -2.3712,-9.8691 -7.7116,-12.5936 l -4.1542,-2.1193 -4.768,0.6325 -4.7679,0.6325 -2.061,-2.2122 c -1.1335,-1.2167 -3.9228,-5.2935 -6.1983,-9.0597 -2.2755,-3.7661 -5.2623,-7.7324 -6.6371,-8.8139 l -2.4998,-1.9663 h -3.6537 c -2.0096,0 -5.419,0.9 -7.5766,2 -2.1576,1.1 -4.8402,1.9913 -5.9614,1.9807 l -2.0386,-0.019 -5.5,-8.2065 c -7.1565,-10.6782 -13.0555,-17.0253 -17.82,-19.1738 l -3.838,-1.7307 -5.421,1.3247 -5.421,1.3248 -0.2884,8.7145 -0.2884,8.7146 2.025,3.9694 c 2.132,4.179 5.4452,7.1015 8.0509,7.1015 0.8547,0 2.7973,1.9125 4.317,4.25 l 2.7629,4.25 -0.2895,4.5 -0.2895,4.5 -3.1188,0.3036 -3.1187,0.3035 -8.17,-8.8035 -8.1699,-8.8036 -0.496,-2.5 c -1.0689,-5.3877 -2.7732,-9.6412 -5.1204,-12.7795 -1.3491,-1.8037 -3.7227,-6.9787 -5.2746,-11.5 -1.552,-4.5213 -4.8258,-12.4955 -7.2752,-17.7205 -2.4493,-5.225 -6.1786,-14.225 -8.2873,-20 l -3.8339,-10.5 -6.2026,-6.5 c -6.7076,-7.0293 -14.4326,-17.5368 -14.4326,-19.6312 0,-0.7147 -1.3844,-2.8761 -3.0764,-4.8032 l -3.0764,-3.5038 -3.5348,-0.6632 -3.5349,-0.6631 -3.4067,1.6245 c -1.8737,0.8935 -3.9356,2.7853 -4.582,4.204 l -1.1753,2.5795 1.2011,9.5095 1.201,9.5094 6.0869,15.6687 c 12.7822,32.904 14.8699,37.9949 20.1635,49.1687 7.1559,15.1052 7.5066,16.3563 8.69,31 l 1.0102,12.5 3.0467,10.5 c 1.6756,5.775 3.5701,15.0743 4.2099,20.665 l 1.1632,10.165 -1.3155,1.585 c -4.0618,4.8942 -7.3885,1.4932 -8.9573,-9.1574 -0.6678,-4.5334 -2.3331,-11.9584 -3.7007,-16.5 -1.3676,-4.5417 -3.1045,-11.6326 -3.8598,-15.7576 l -1.3732,-7.5 -0.09,4.8026 c -0.049,2.6414 0.5586,7.8164 1.3509,11.5 2.6235,12.1965 4.4208,22.5854 5.4939,31.7566 1.2563,10.7372 3.3163,18.2006 6.8101,24.6735 l 2.5545,4.7328 3.1004,0.4777 c 1.7053,0.2627 6.4755,0.7237 10.6005,1.0244 4.125,0.3007 23.25,1.8993 42.5,3.5524 45.0411,3.8678 79.9974,6.695 84.75,6.8543 l 3.75,0.1257 -0.01,-9.75 z"
           id="path11899" /><path
           style="fill:#f7c73b;fill-opacity:1"
           d="m 3364.4111,-1560.0014 c -4.95,-0.4196 -15.525,-1.2629 -23.5,-1.8739 -7.975,-0.6109 -21.925,-1.776 -31,-2.589 -38.0455,-3.4083 -50.019,-4.4348 -59.3482,-5.0879 l -9.8482,-0.6895 -2.8433,-3.9252 c -4.033,-5.5673 -6.7296,-14.4952 -8.3928,-27.7864 -0.7915,-6.325 -2.5912,-17.35 -3.9994,-24.5 -3.3479,-16.9987 -3.3855,-29.5 -0.089,-29.5 h 1.2462 l 1.2324,7.6396 c 0.6778,4.2017 2.7264,12.9305 4.5524,19.3973 1.826,6.4667 3.6396,14.3914 4.0302,17.6104 0.3905,3.219 1.1476,6.6927 1.6824,7.7194 l 0.9722,1.8666 1.4014,-1.4013 1.4013,-1.4013 -1.0374,-8.4654 c -0.5706,-4.6559 -2.4031,-13.3272 -4.0722,-19.2695 l -3.0348,-10.8041 -1.3208,-13.9076 -1.3208,-13.9075 -4.4774,-9.7883 c -10.1946,-22.2868 -12.0724,-26.755 -20.1529,-47.9536 -8.9967,-23.6023 -10.5816,-29.678 -10.5816,-40.5638 v -6.8618 l 2.385,-2.3851 c 1.3118,-1.3117 4.2661,-2.8915 6.5651,-3.5106 l 4.1801,-1.1255 3.4022,1.1228 c 4.1026,1.354 7.0903,4.7385 10.9939,12.4538 l 2.9297,5.7904 7.6838,8.2734 c 8.85,9.5292 8.9149,9.6342 12.845,20.7689 1.6257,4.6061 4.8095,12.386 7.075,17.2887 2.2656,4.9028 5.6052,12.9641 7.4215,17.9141 1.8162,4.95 4.9259,11.6735 6.9105,14.9412 1.9845,3.2676 3.6082,7.0025 3.6082,8.2996 0,3.8026 2.382,7.294 10.3237,15.1319 l 7.4703,7.3726 1.103,-0.6816 c 1.8702,-1.1559 1.2281,-4.9704 -1.5606,-9.2713 l -2.6636,-4.1078 -2.801,-0.5602 -2.801,-0.5602 -2.7854,-4.2046 -2.7854,-4.2046 -0.3364,-10.7479 -0.3363,-10.7478 2.5089,-1.6439 c 1.3799,-0.9042 4.931,-1.8939 7.8914,-2.1994 l 5.3825,-0.5556 3.9449,2.0322 c 5.0181,2.5849 8.7311,6.5825 15.9826,17.2074 3.1907,4.675 6.1214,8.874 6.5128,9.331 l 0.7116,0.831 3.869,-1.9458 c 2.128,-1.0702 5.5328,-2.2476 7.5663,-2.6164 l 3.6973,-0.6707 3.5595,1.4873 3.5594,1.4872 6.1094,9.5482 6.1094,9.5482 h 6.1881 6.188 l 4.6027,2.9189 c 5.182,3.2863 5.0911,3.0853 7.2721,16.0811 0.877,5.225 3.2043,15.5748 5.1719,22.9997 4.8974,18.4805 6.3366,28.2972 6.3411,43.2503 v 12.75 l -7.25,-0.1425 c -3.9875,-0.078 -11.3,-0.4859 -16.25,-0.9056 z"
           id="path11897" /></g></g></g></svg>
