<?xml version="1.0" encoding="UTF-8" standalone="no"?>
<!-- Created with Inkscape (http://www.inkscape.org/) -->

<svg
   width="587.94067mm"
   height="500mm"
   viewBox="0 0 587.94067 500"
   version="1.1"
   id="svg5"
   xml:space="preserve"
   xmlns:inkscape="http://www.inkscape.org/namespaces/inkscape"
   xmlns:sodipodi="http://sodipodi.sourceforge.net/DTD/sodipodi-0.dtd"
   xmlns="http://www.w3.org/2000/svg"
   xmlns:svg="http://www.w3.org/2000/svg"><sodipodi:namedview
     id="namedview7"
     pagecolor="#ffffff"
     bordercolor="#000000"
     borderopacity="0.25"
     inkscape:showpageshadow="2"
     inkscape:pageopacity="0.0"
     inkscape:pagecheckerboard="0"
     inkscape:deskcolor="#d1d1d1"
     inkscape:document-units="mm"
     showgrid="false"
     showguides="false" /><defs
     id="defs2" /><g
     inkscape:groupmode="layer"
     id="layer19"
     inkscape:label="R"
     transform="translate(-1171.3827,4288.8862)"><g
       id="g40274"
       inkscape:label="R"><rect
         style="fill:#cccccc;fill-opacity:1;stroke:#1a1a1a;stroke-width:20;stroke-linecap:round;stroke-linejoin:round;stroke-dasharray:none;stroke-opacity:1;paint-order:stroke fill markers"
         id="rect38211-4-8-6"
         width="567.94067"
         height="480"
         x="1181.3827"
         y="-4278.8862"
         rx="48.766338"
         ry="48.766338" /><g
         id="g39163"
         transform="translate(-2310.6952,-2303.926)"><path
           style="fill:#ffffff"
           d="m 3865.3868,-1551.375 c -13.7371,-6.7857 -21.2523,-9.3158 -30.0616,-10.1206 -9.4767,-0.8658 -14.8218,-2.7172 -23.5044,-8.1413 -4.0753,-2.5459 -11.6847,-7.0912 -16.9097,-10.1007 l -9.5,-5.4719 -3.7442,-0.3432 c -10.2033,-0.9354 -22.6167,-13.121 -24.7327,-24.279 l -0.9745,-5.1383 1.5146,-8.7417 c 0.8331,-4.8079 1.9639,-10.4268 2.5129,-12.4866 l 0.9983,-3.7449 4.4903,-1.1307 4.4903,-1.1307 -0.6819,-2.1243 c -1.7289,-5.3862 -2.3272,-9.7087 -2.3492,-16.9733 l -0.024,-7.8488 1.5505,-3.2676 c 2.3567,-4.9662 21.826,-19.7108 31.4111,-23.7883 l 2.93,-1.2464 -11.5254,-10.5 c -14.0314,-12.783 -12.5304,-12.3243 -15.7835,-4.8233 -6.6207,15.2659 -10.3969,18.8901 -40.3205,38.6966 l -20.9008,13.8342 -2.8433,4.8963 c -1.5639,2.6929 -6.964,11.4212 -12.0003,19.3962 -5.0363,7.975 -10.8174,17.266 -12.847,20.6467 -5.888,9.8079 -2.3801,10.9564 -74.9208,-24.5298 l -18.75,-9.1724 v -2.1669 -2.1669 l 7.7129,-10.0554 c 4.2421,-5.5304 14.3417,-18.2688 22.4437,-28.3074 l 14.7308,-18.2522 -2.4068,-5.2572 c -5.16,-11.2708 -6.8464,-27.2799 -3.8507,-36.5554 l 1.6298,-5.0466 -2.1865,-12.1821 c -4.9726,-27.7036 -3.1637,-51.3357 6.5795,-85.9544 l 3.518,-12.5 -0.5204,-3.5 c -0.2862,-1.925 -1.0881,-6.0667 -1.7821,-9.2038 l -1.2617,-5.7039 1.8728,-2.0694 c 1.03,-1.1381 4.3331,-2.7846 7.3403,-3.6588 l 5.4675,-1.5895 3.8678,1.2765 c 10.9154,3.6024 19.7505,18.0777 22.8408,37.4218 l 1.0104,6.3249 -1.012,9.7588 c -0.5565,5.3674 -0.8587,9.9121 -0.6715,10.0994 1.0484,1.0484 14.2022,-12.7083 21.2311,-22.2041 11.5092,-15.5485 17.6857,-21.8735 29.5859,-30.2973 l 10.3767,-7.3455 3.9918,-5.525 c 18.6819,-25.8569 45.6114,-38.4336 51.9929,-24.2819 l 1.7849,3.9583 4.7491,-3.4862 c 11.7443,-8.6211 21.2132,-8.6503 28.7306,-0.089 l 3.2344,3.6838 v 4.5935 4.5934 l -3.0613,5.3506 c -1.6837,2.9429 -3.4837,5.6117 -4,5.9308 -1.8367,1.1351 -0.8813,2.4503 3.3113,4.5583 7.8457,3.9447 11.75,9.5593 11.75,16.8972 v 4.0731 l -2.3919,4.7167 c -1.3156,2.5943 -3.3406,5.574 -4.5,6.6218 -2.896,2.617 -2.696,3.1023 1.8383,4.4608 l 3.9463,1.1823 2.0541,2.6114 c 1.1297,1.4362 2.5751,4.3504 3.2119,6.4759 l 1.1579,3.8646 -1.2526,4.25 c -0.6889,2.3375 -2.5859,6.4361 -4.2155,9.108 -1.6296,2.6719 -5.3368,9.8719 -8.2383,16 -4.9814,10.5211 -22.8171,43.9134 -24.6773,46.2013 l -0.8613,1.0593 15.806,4.6907 c 8.6933,2.5799 16.4817,4.6907 17.3076,4.6907 4.9838,0 29.7418,11.1596 39.5797,17.8403 9.3838,6.3725 15.154,15.5416 24.6548,39.178 2.5106,6.2458 5.6062,12.5092 6.8792,13.9188 7.6943,8.5197 23.3808,36.5324 39.6968,70.89 l 7.2787,15.3271 -1.3872,1.3347 c -0.763,0.7341 -11.2872,7.0524 -23.3872,14.0407 -12.1,6.9883 -26.95,15.6415 -33,19.2294 -19.7979,11.7409 -24.1138,14.241 -24.5844,14.241 -0.2553,0 -5.4033,-2.4398 -11.4399,-5.4217 z"
           id="path11941" /><path
           style="fill:#1a1a1a"
           d="m 3882.7604,-1552.3419 c 11.2268,-6.7325 39.9886,-23.5625 55.6507,-32.5642 8.8,-5.0576 16.3487,-9.5335 16.7748,-9.9463 2.3152,-2.2427 -32.787,-68.4858 -44.3002,-83.6009 l -3.8085,-5 -4.0923,-10.2934 c -12.021,-30.2363 -17.2842,-36.2663 -41.8439,-47.9404 l -11.4535,-5.4442 -9.1382,-2.2856 c -7.5483,-1.8879 -16.1988,-4.2975 -32.8882,-9.1612 -3.0129,-0.878 -2.022,-3.5655 7.914,-21.4654 5.3153,-9.5754 12.2857,-22.8098 15.49,-29.4098 3.2042,-6.6 7.4425,-14.925 9.4183,-18.5 l 3.5925,-6.5 -0.4387,-4.7826 -0.4388,-4.7827 -2.3813,-2.5347 c -1.3097,-1.3941 -4.2993,-3.0478 -6.6436,-3.6748 l -4.2624,-1.14 v -1.3994 c 0,-0.7697 1.7735,-3.6269 3.9412,-6.3494 2.1676,-2.7224 4.4622,-6.5287 5.099,-8.4583 l 1.1579,-3.5085 -0.6484,-3.4562 c -0.8449,-4.5036 -5.5084,-9.7309 -11.0936,-12.4347 l -4.4561,-2.1571 v -1.8771 c 0,-1.0323 1.8,-4.662 4,-8.0658 l 4,-6.1888 v -3.7682 -3.7682 l -2.6191,-3.1127 c -3.4196,-4.0639 -7.378,-6.0408 -12.096,-6.0408 h -3.8145 l -3.9852,2.1262 c -2.1919,1.1695 -5.625,3.4195 -7.6291,5 -4.6638,3.6781 -5.5197,3.6146 -7.255,-0.5386 -0.7842,-1.8767 -2.3652,-4.3517 -3.5135,-5.5 l -2.0876,-2.0876 -3.25,0.022 c -9.2076,0.062 -29.8215,15.9375 -41.1253,31.6716 l -3.6264,5.0477 -9.7492,6.8774 c -12.0243,8.4825 -17.0339,13.5591 -28.5003,28.8813 -12.5778,16.8074 -20.3778,24.5 -24.8421,24.5 h -1.9138 l 0.5976,-14.25 0.5976,-14.25 -2.6547,-9 c -4.0764,-13.8198 -10.2769,-22.4209 -18.6892,-25.9252 l -3.6558,-1.5229 -4.9744,1.4772 c -2.7359,0.8125 -5.5125,2.1256 -6.1702,2.9181 l -1.1958,1.4409 2.1044,7.6707 2.1044,7.6707 -1.5036,5.6353 c -0.827,3.0993 -2.6196,9.7165 -3.9837,14.7048 -1.3641,4.9883 -3.4439,14.2133 -4.6218,20.5 l -2.1417,11.4304 -0.5285,15.5304 -0.5286,15.5305 2.2224,13.2679 2.2224,13.2679 -0.5099,4.2016 c -0.2804,2.311 -1.0552,6.547 -1.7218,9.4135 l -1.2119,5.2118 1.6887,9.3792 c 0.9289,5.1586 2.7851,11.7455 4.125,14.6375 3.5067,7.5688 3.5166,7.5432 -8.782,22.718 -37.7358,46.561 -36.0224,41.9401 -18.7451,50.5544 66.8086,33.3103 69.8538,34.3939 74.5713,26.5373 2.0641,-3.4375 7.8735,-12.775 12.9098,-20.75 5.0363,-7.975 10.4364,-16.7033 12.0003,-19.3962 l 2.8433,-4.8963 20.9008,-13.8342 c 30.308,-20.061 31.6145,-21.3021 39.7348,-37.7462 l 4.0132,-8.1271 h 1.4367 c 1.4667,0 5.9234,3.7165 20.3862,17 9.1467,8.4009 9.6847,9.6246 4.6469,10.5697 l -3.52,0.6604 -10.23,6.7822 c -5.6265,3.7303 -12.296,8.7775 -14.8212,11.216 l -4.5912,4.4337 -0.6588,3.294 c -1.1754,5.8768 -0.7014,12.7301 1.3283,19.2049 1.0929,3.4865 1.9929,6.8963 2,7.5773 l 0.013,1.2382 -3.8621,0.6175 c -5.7727,0.9231 -6.1102,1.3739 -8.204,10.9553 -4.6368,21.2181 5.9121,40.2992 22.3508,40.4288 l 2.7847,0.022 8.2153,4.6144 c 4.5184,2.5379 11.7497,6.859 16.0694,9.6023 4.3198,2.7433 9.8508,5.8711 12.2911,6.9505 l 4.4369,1.9627 9.114,0.9429 9.114,0.943 9.715,3.8976 c 5.3432,2.1438 12.136,5.286 15.0949,6.9828 6.6116,3.7913 5.9058,3.8071 12.7293,-0.2848 z"
           id="path11943" /><path
           style="fill:#000000"
           d="m 3696.9111,-1669.6213 c -1.925,-1.4553 -7.4375,-6.5034 -12.25,-11.2181 l -8.75,-8.5722 v -2.2357 -2.2356 l 1.9343,-1.0352 c 3.2074,-1.7166 3.6127,-1.4552 16.5633,10.68 l 12.5024,11.7152 v 2.1778 c 0,4.1382 -5.0043,4.5003 -10,0.7238 z"
           id="path11953" /><path
           style="fill:#000000"
           d="m 3682.5101,-1627.2033 c 3.146,-5.0875 8.6228,-13.75 12.1706,-19.25 14.6663,-22.7364 13.79,-21.8702 36.7304,-36.3059 20.6084,-12.9682 30.5621,-22.0636 37.3364,-34.1168 l 2.0671,-3.6779 -6.7577,0.9148 -6.7577,0.9147 -1.7912,5.1356 c -3.7755,10.8242 -13.4915,21.9294 -23.8137,27.2186 l -4.7167,2.4169 h -4.3551 c -5.7468,0 -12.9047,-2.5124 -15.7319,-5.5218 l -2.2734,-2.42 1.5931,-4.2791 c 2.4907,-6.6901 4.49,-15.3645 6.1723,-26.7791 3.3385,-22.6521 4.5649,-24.7805 16.4393,-28.5316 4.5781,-1.4462 14.9933,-5.9298 23.1449,-9.9635 8.1516,-4.0336 17.2856,-7.8854 20.2977,-8.5595 l 5.4766,-1.2256 4.6577,1.1728 c 2.5617,0.645 6.9785,2.2924 9.8151,3.6608 l 5.1574,2.488 1.7166,-2.2707 c 3.4874,-4.6128 17.8968,-30.6689 23.9294,-43.2707 3.4228,-7.15 8.0054,-16.0459 10.1835,-19.7686 2.1782,-3.7227 3.9603,-7.9626 3.9603,-9.422 v -2.6534 l -1.8161,-1.328 c -0.9989,-0.7304 -3.3081,-1.328 -5.1316,-1.328 h -3.3155 l -2.1456,2.4677 c -1.1801,1.3572 -8.2647,10.987 -15.7434,21.3996 -7.4788,10.4125 -17.1781,23.2712 -21.554,28.5748 l -7.9562,9.643 -1.9683,-0.2926 c -1.8043,-0.2681 -3.7076,-2.6665 -6.7557,-8.5129 l -1.1576,-2.2204 1.2694,-1.5296 c 0.6982,-0.8413 2.5261,-1.5296 4.0621,-1.5296 h 2.7925 l 3.8479,-4.3715 c 4.2555,-4.8344 9.2558,-11.3769 26.848,-35.1285 6.5179,-8.8 13.5209,-18.025 15.5622,-20.5 2.0413,-2.475 4.8815,-6.2503 6.3116,-8.3895 l 2.6003,-3.8896 v -3.4924 -3.4923 l -3.5712,-3.3681 -3.5712,-3.3681 h -2.7206 -2.7206 l -4.0412,4.25 c -2.2227,2.3375 -5.7838,6.725 -7.9135,9.75 -2.1297,3.025 -7.3184,9.1 -11.5303,13.5 -8.4136,8.7891 -16.5752,19.4964 -24.6981,32.4017 l -5.2883,8.4017 1.0889,3.2993 1.0889,3.2994 -1.0966,2.0489 c -1.9959,3.7294 -20.0262,-9.9971 -20.0262,-15.246 0,-3.46 6.1222,-4.8093 9.1968,-2.0269 l 1.8542,1.678 4.0609,-3.928 c 2.2335,-2.1605 5.2093,-6.1781 6.6129,-8.9281 4.5201,-8.8557 10.4071,-16.7907 19.2899,-26 4.7744,-4.95 11.28,-12.6 14.4568,-17 3.1768,-4.4 7.4484,-9.8 9.4923,-12 3.998,-4.3033 11.297,-15.5797 12.4575,-19.246 l 0.7109,-2.246 -3.2889,-3.004 c -7.2641,-6.6347 -18.3521,2.1866 -38.8662,30.9209 -6.5083,9.1163 -14.3903,19.0501 -17.5156,22.0751 -7.0488,6.8229 -13.5736,15.3159 -18.1182,23.5837 -4.7771,8.691 -8.0568,8.676 -25.4066,-0.1158 l -4.9367,-2.5016 v -1.7831 c 0,-2.7945 2.0693,-4.1832 6.2332,-4.1832 h 3.8333 l 5.0662,2.5672 c 2.7864,1.412 5.1703,2.4245 5.2975,2.25 0.1273,-0.1744 2.6254,-3.8216 5.5514,-8.1047 5.5633,-8.1435 15.5422,-18.8876 22.7729,-24.519 2.335,-1.8185 4.2455,-3.9375 4.2455,-4.7089 0,-0.7714 4.275,-7.7628 9.5,-15.5364 9.9875,-14.8593 10.5459,-16.369 7.7844,-21.0439 -3.7049,-6.2719 -26.1396,9.3656 -37.083,25.8476 l -3.6107,5.438 -11.0453,8.2715 c -13.0152,9.7466 -18.0162,14.8906 -30.2218,31.0862 -11.9553,15.8635 -25.0091,27.4524 -30.9225,27.4524 h -2.2559 l -2.0695,-2.6309 -2.0695,-2.631 0.2469,-19.119 0.2469,-19.1191 -2.7734,-6.48 c -3.818,-8.9207 -7.0404,-13.266 -11.8366,-15.9616 l -4.0824,-2.2945 -1.365,1.368 -1.3651,1.3681 2.095,6.858 2.095,6.8579 -1.5912,3.3367 c -4.7437,9.9476 -11.4236,44.5721 -12.3371,63.9474 l -0.6129,13 2.0849,13 c 1.1467,7.15 2.2768,14.575 2.5113,16.5 l 0.4264,3.5 -1.8744,4.787 c -2.1507,5.4925 -2.3532,10.3824 -0.7412,17.8991 l 1.1334,5.2846 6.4591,6.6904 6.4591,6.6905 5.1575,2.4735 c 2.8367,1.3604 7.2837,3.4074 9.8822,4.5489 l 4.7246,2.0753 0.6728,2.6809 0.6729,2.681 -1.6834,1.231 -1.6835,1.2309 -3.214,-0.7549 c -8.8113,-2.0697 -14.9233,-4.3872 -18.606,-7.0549 l -4.0659,-2.9454 -1.432,2.7411 c -0.7875,1.5075 -10.2325,13.7199 -20.9888,27.1386 -20.3399,25.3743 -20.3815,25.4438 -15.8807,26.5734 2.2182,0.5567 32.0572,14.587 63.7594,29.9796 2.75,1.3352 5.0852,2.4551 5.1894,2.4886 0.1042,0.033 2.7635,-4.1017 5.9096,-9.1892 z"
           id="path11951" /><path
           style="fill:#f7c73b;fill-opacity:1"
           d="m 3667.6975,-1619.4486 c -4.2424,-1.8902 -17.5174,-8.2117 -29.5,-14.0478 -11.9825,-5.836 -25.0943,-12.0077 -29.1372,-13.7149 -4.043,-1.7072 -7.5682,-3.6702 -7.8337,-4.3623 l -0.4829,-1.2584 20.6833,-25.8107 c 11.3758,-14.1958 21.0774,-26.8231 21.559,-28.0606 l 0.8756,-2.25 1.7747,0.018 c 0.9762,0.01 3.7572,1.3615 6.1802,3.0033 2.423,1.6418 6.248,3.449 8.5,4.0159 2.252,0.567 5.1283,1.4655 6.3917,1.9967 3.3064,1.3903 5.2029,1.1909 5.2029,-0.5471 v -1.513 l -4.25,-1.8913 c -2.3375,-1.0402 -6.275,-2.7199 -8.75,-3.7327 l -4.5,-1.8414 -7.5955,-7.5043 -7.5955,-7.5043 -1.1545,-4.6928 c -0.635,-2.5811 -1.1545,-7.658 -1.1545,-11.2821 v -6.5893 l 1.5,-3.59 c 1.8844,-4.5101 1.8772,-6.9279 -0.054,-17.9648 -0.8546,-4.8846 -1.9259,-11.8262 -2.3806,-15.4259 l -0.8268,-6.5449 0.8177,-12.6084 c 1.0563,-16.2871 3.1966,-28.734 8.1337,-47.3018 4.4778,-16.8404 4.802,-19.9586 2.7862,-26.7917 l -1.4135,-4.7918 1.0694,-1.7082 c 5.9823,-9.556 21.4463,7.2065 25.4102,27.5439 l 1.2186,6.2522 -1.1306,8.8155 c -0.6218,4.8486 -1.1305,10.8224 -1.1305,13.2753 v 4.4598 l 1.5567,2.2225 c 4.1056,5.8616 17.078,-4.251 33.0673,-25.7775 10.5371,-14.1861 15.5944,-19.3482 28.5122,-29.1028 l 11.7314,-8.8588 3.7284,-5.6171 3.7284,-5.6171 10.4578,-9.443 c 10.2242,-9.2321 14.9594,-12.4149 20.4218,-13.7268 l 2.7041,-0.6494 1.9681,2.1125 c 5.6489,6.0634 5.2371,9.6346 -2.3642,20.5029 -3.0387,4.3448 -7.4345,11.2537 -9.7684,15.3531 -2.334,4.0994 -5.7897,8.8244 -7.6793,10.5 -9.2979,8.2447 -20.0226,19.9789 -24.0643,26.3294 -5.5653,8.7444 -5.2451,8.6188 -12.8701,5.0461 -6.328,-2.965 -10.1346,-3.3577 -10.8708,-1.1213 l -0.3975,1.2076 3.8192,1.6558 c 17.973,7.7917 17.3754,7.7727 21.3497,0.6789 4.9441,-8.8248 9.6256,-14.9651 18.4886,-24.25 4.4626,-4.675 12.5654,-14.8 18.0064,-22.5 11.4471,-16.2 16.4988,-21.9022 25.3736,-28.641 l 6.3992,-4.859 h 3.6547 3.6547 l 3.1961,3.2976 3.1962,3.2976 v 2.4547 c 0,3.2306 -8.8412,18.1699 -13.824,23.359 -2.1606,2.2501 -6.5277,7.6911 -9.7045,12.0911 -3.1768,4.4 -9.6791,12.05 -14.4496,17 -9.1637,9.5086 -13.1389,14.8038 -17.3004,23.0451 -5.7692,11.4252 -13.5409,17.522 -17.1924,13.4871 l -1.7808,-1.9678 -1.9596,1.0487 -1.9596,1.0487 4.3309,3.6691 c 2.382,2.018 5.7743,5.2277 7.5385,7.1327 3.8718,4.1807 5.0894,3.4537 3.2994,-1.9699 l -1.3254,-4.0162 2.056,-2.2387 c 1.1308,-1.2314 3.9627,-5.3794 6.2931,-9.2178 5.8358,-9.6121 14.7941,-21.2027 23.8665,-30.8796 4.1981,-4.4778 9.3915,-10.6164 11.5408,-13.6414 5.7749,-8.1276 10.5361,-12.8334 13.6838,-13.5248 l 2.7936,-0.6135 3.5665,1.6924 c 4.1138,1.9521 7.2793,5.9565 8.1499,10.3094 l 0.6064,3.0319 -2.1025,4.3431 c -1.1564,2.3887 -4.4864,7.2497 -7.4001,10.8023 -2.9138,3.5526 -13.3413,17.2036 -23.1724,30.3356 -9.8311,13.1321 -19.5329,25.6196 -21.5596,27.75 l -3.6848,3.8736 h -2.6549 c -3.2127,0 -3.2014,-0.1665 -0.3311,4.8867 l 2.3236,4.0909 2.513,-2.7388 c 4.9404,-5.3844 17.6664,-21.9648 27.0551,-35.2496 5.2516,-7.4309 11.412,-15.8684 13.6897,-18.75 l 4.1414,-5.2392 h 5.4042 5.4041 l 2.0726,2.6349 c 2.8034,3.5639 2.6123,6.1685 -0.9174,12.5009 -1.6445,2.9503 -6.1715,11.8826 -10.06,19.8496 -7.1462,14.6413 -23.5848,44.1334 -26.7382,47.9701 l -1.7118,2.0828 -8,-3.5069 -8,-3.507 -4.8334,-0.012 -4.8334,-0.012 -7.5695,3.031 c -4.1632,1.667 -11.3526,5.0931 -15.9766,7.6137 -4.624,2.5205 -12.7677,5.9941 -18.0971,7.719 l -9.69,3.1363 -1.77,3.6194 c -1.7506,3.5798 -2.7062,7.8201 -6.6537,29.5224 -1.1146,6.128 -2.7622,13.3087 -3.6614,15.957 l -1.6348,4.8153 2.6116,2.2464 c 12.498,10.7503 36.8506,-3.5669 43.2191,-25.4092 l 1.5303,-5.2486 2.1795,-0.4502 c 1.1987,-0.2476 5.2169,-0.734 8.9294,-1.0809 l 6.75,-0.6308 v 2.3475 c 0,2.8083 -3.2307,7.7914 -11.3813,17.555 l -6.0466,7.2434 -7.5361,5.3996 c -4.1448,2.9698 -12.711,8.6533 -19.036,12.63 -6.325,3.9767 -13.2205,8.5888 -15.3233,10.2491 l -3.8233,3.0188 -9.2613,14.1079 c -5.0937,7.7593 -12.0794,18.7204 -15.5238,24.3579 l -6.2624,10.25 -1.653,-0.029 c -0.9091,-0.016 -5.124,-1.5758 -9.3665,-3.466 z"
           id="path11949" /><path
           style="fill:#000000"
           d="m 3886.0822,-1560.8244 c 26.5361,-15.5194 60.3846,-35.4412 60.7252,-35.7402 1.9439,-1.7067 -34.4055,-68.1972 -40.9601,-74.9245 l -3.9323,-4.0359 -4.97,-13.7355 c -2.7335,-7.5546 -6.4469,-16.7396 -8.2519,-20.4112 l -3.282,-6.6757 -5.5746,-5.73 -5.5746,-5.7301 -14.4254,-6.9645 c -17.3627,-8.3826 -26.52,-11.6032 -39.0118,-13.7206 -16.9969,-2.8809 -22.9733,-4.6565 -35.3432,-10.5011 l -6.6883,-3.1601 -3.3039,0.6198 c -1.8171,0.3409 -7.3681,2.598 -12.3356,5.0157 -4.9674,2.4177 -12.207,5.5412 -16.0879,6.9412 -18.7293,6.756 -21.4878,9.2784 -23.8204,21.7818 -0.8559,4.5881 -2.7007,13.8976 -4.0995,20.6877 l -2.5432,12.3457 1.4042,0.889 c 8.4246,5.3336 26.5434,-10.0262 29.5478,-25.0486 l 0.5642,-2.821 -2.6039,-4.4433 c -5.7513,-9.8138 -0.859,-14.623 6.6301,-6.5175 l 3.9268,4.25 6.9947,-0.2679 c 3.847,-0.1474 8.5908,-0.9349 10.5417,-1.75 5.3414,-2.2318 6.0265,-1.9843 13.1942,4.7679 3.6491,3.4375 11.2021,10.1784 16.7846,14.9799 l 10.1499,8.7298 1.7248,5.1931 c 0.9487,2.8562 3.2491,8.3777 5.1121,12.2701 l 3.3872,7.0771 -0.4685,-12.1065 -0.4684,-12.1066 1.1434,-1.1434 c 1.5912,-1.5912 4.3173,-1.4268 6.1127,0.3686 l 1.5121,1.512 0.6928,7.0313 0.6929,7.0313 2.8665,1.4823 2.8665,1.4824 -0.01,1.7243 c -0.01,0.9484 -2.3008,4.6493 -5.1019,8.2243 -2.8011,3.575 -8.1377,11 -11.859,16.5 -10.2847,15.2003 -15.842,19.8507 -28.2319,23.6243 l -6.7017,2.0411 -2.1053,-0.6681 -2.1053,-0.6682 0.307,-3.1284 0.307,-3.1284 7.8298,-3.2234 c 4.3064,-1.7729 9.0221,-4.0047 10.4794,-4.9595 l 2.6495,-1.736 -5.3002,-1.4745 -5.3002,-1.4745 -2.8911,-2.8911 -2.8912,-2.8911 -0.6799,-3.6244 -0.6799,-3.6243 0.9927,-1.5867 c 0.5461,-0.8728 2.1223,-1.7232 3.5029,-1.8898 l 2.51,-0.303 1.7107,3.605 1.7107,3.6049 2.5551,0.9715 c 9.218,3.5047 10.5539,3.237 15.0836,-3.0224 3.9399,-5.4444 -3.0964,-24.053 -9.095,-24.053 -1.3856,0 -22.0473,12.8849 -28.2582,17.6222 l -3.4287,2.6152 v 7.3195 7.3196 l 2.6034,8.0712 c 1.4318,4.4392 2.3459,8.7419 2.0313,9.5617 l -0.5719,1.4906 h -2.4663 c -1.3565,0 -3.6206,0.4389 -5.0314,0.9752 l -2.5651,0.9753 -8e-4,2.2747 c -5e-4,1.2512 -0.6815,5.5374 -1.5134,9.5249 l -1.5125,7.2502 1.4257,3.4122 c 0.7842,1.8768 3.6325,5.7017 6.3295,8.4999 l 4.9038,5.0876 h 4.2171 4.2171 l 5.1143,2.5916 c 2.8128,1.4254 10.1104,5.6426 16.2167,9.3716 6.1064,3.729 13.45,7.9627 16.3193,9.4084 l 5.2167,2.6284 h 4.3496 c 10.8768,0 22.9153,3.8171 36.4848,11.5684 4.2527,2.4292 7.8091,4.4201 7.9032,4.4242 0.094,0 3.9192,-2.1846 8.5,-4.8637 z"
           id="path11947" /><path
           style="fill:#f7c73b;fill-opacity:1"
           d="m 3868.9111,-1557.931 c -3.575,-2.1845 -10.0321,-5.3559 -14.3492,-7.0477 l -7.8491,-3.076 -9.7282,-0.845 -9.7283,-0.845 -5.1763,-2.623 c -2.8469,-1.4427 -9.8046,-5.4839 -15.4614,-8.9804 -5.6568,-3.4966 -12.6151,-7.5382 -15.463,-8.9813 l -5.178,-2.6239 h -3.7833 -3.7832 l -3.1696,-1.9326 c -4.1034,-2.5021 -11.135,-11.8329 -11.9363,-15.8393 l -0.6244,-3.1222 1.7797,-9.7992 1.7796,-9.7992 1.5266,-1.25 c 0.8397,-0.6875 3.0157,-1.25 4.8355,-1.25 h 3.3089 v -1.8434 c 0,-1.0139 -0.8318,-4.2764 -1.8485,-7.25 -2.4248,-7.0919 -3.409,-15.0065 -2.5656,-20.631 l 0.68,-4.5346 15.1171,-9.907 15.117,-9.9071 3.4984,0.2866 3.4985,0.2865 5.7515,9.4704 c 6.8981,11.3582 6.8208,10.1601 1.158,17.9424 l -4.5936,6.3129 -4.1564,-0.6564 c -2.286,-0.361 -5.8574,-1.1621 -7.9364,-1.7801 l -3.7801,-1.1238 -2.1649,-3.852 -2.165,-3.852 -1.3776,1.3776 -1.3776,1.3777 1.5124,3.6197 1.5124,3.6198 3.2264,1.9621 c 1.7745,1.0791 4.9829,2.2588 7.1298,2.6215 l 3.9035,0.6595 0.5978,1.5579 0.5978,1.558 -2.5811,2.2201 c -1.4196,1.2211 -5.8824,3.4842 -9.9174,5.0291 -7.9528,3.0449 -9.8364,4.1344 -9.8364,5.6897 v 1.0092 l 4.1176,-0.5522 c 10.65,-1.4285 21.0262,-9.1178 29.3069,-21.7179 2.7084,-4.1213 8.0201,-11.5062 11.8037,-16.4109 l 6.8793,-8.9178 -2.9806,-1.2532 -2.9807,-1.2533 -0.6171,-4.829 c -0.3394,-2.6559 -0.8427,-6.2915 -1.1184,-8.079 l -0.5013,-3.25 h -1.7075 -1.7075 v 13.2293 13.2293 l -1.5886,0.3129 -1.5886,0.313 -4.0446,-9.2923 c -2.2246,-5.1107 -4.5839,-10.9852 -5.243,-13.0544 l -1.1984,-3.7622 -15.1969,-13.3684 c -8.3583,-7.3527 -15.7733,-14.0631 -16.4779,-14.912 l -1.2809,-1.5434 -3.6906,1.5722 -3.6905,1.5723 -8.7836,0.1019 -8.7836,0.1018 -3.294,-3.9156 -3.2939,-3.9156 -1.1288,0.6976 -1.1288,0.6977 0.6191,1.7179 c 0.3405,0.9449 1.4458,2.9125 2.4563,4.3724 l 1.8373,2.6543 -8e-4,3.8457 -8e-4,3.8456 -2.9337,6.2013 c -3.581,7.5695 -10.1947,14.9748 -15.5647,17.4277 l -4,1.8271 -4.6682,0.022 c -2.5675,0.012 -5.38,-0.2511 -6.25,-0.585 l -1.5818,-0.607 v -3.4986 c 0,-1.9243 0.6571,-6.0387 1.4603,-9.1431 0.8031,-3.1043 2.169,-10.1443 3.0353,-15.6443 0.8663,-5.5 2.2532,-12.3844 3.0819,-15.2987 l 1.5067,-5.2987 4.6059,-2.921 c 2.5332,-1.6065 7.8018,-4.1234 11.7079,-5.593 3.9061,-1.4696 12.7822,-5.3082 19.7246,-8.5303 l 12.6226,-5.8583 h 4.1736 4.1737 l 7.266,3.4018 c 9.6883,4.536 17.9889,6.9997 30.6415,9.095 14.1058,2.3359 25.6859,6.2985 42.7458,14.6273 l 14.2458,6.955 5.2827,5.2104 5.2827,5.2105 3.7284,7.1593 c 2.0506,3.9376 5.9465,13.2895 8.6575,20.782 l 4.9292,13.6226 4.6978,5.2181 c 5.9945,6.6583 16.61,25.2488 30.5655,53.5281 l 11.0097,22.3102 -1.1395,1.3721 c -0.6298,0.7588 -9.7749,6.4269 -20.3225,12.5958 -10.5476,6.1688 -25.7871,15.1958 -33.8654,20.0601 -16.8416,10.1409 -17.1002,10.1896 -25.8121,4.8664 z"
           id="path11945" /></g></g></g></svg>
