<?xml version="1.0" encoding="UTF-8" standalone="no"?>
<!-- Created with Inkscape (http://www.inkscape.org/) -->

<svg
   width="587.94067mm"
   height="500mm"
   viewBox="0 0 587.94067 500"
   version="1.1"
   id="svg5"
   xml:space="preserve"
   xmlns:inkscape="http://www.inkscape.org/namespaces/inkscape"
   xmlns:sodipodi="http://sodipodi.sourceforge.net/DTD/sodipodi-0.dtd"
   xmlns="http://www.w3.org/2000/svg"
   xmlns:svg="http://www.w3.org/2000/svg"><sodipodi:namedview
     id="namedview7"
     pagecolor="#ffffff"
     bordercolor="#000000"
     borderopacity="0.25"
     inkscape:showpageshadow="2"
     inkscape:pageopacity="0.0"
     inkscape:pagecheckerboard="0"
     inkscape:deskcolor="#d1d1d1"
     inkscape:document-units="mm"
     showgrid="false"
     showguides="false" /><defs
     id="defs2" /><g
     inkscape:groupmode="layer"
     id="layer20"
     inkscape:label="S"
     transform="translate(-1909.8767,4288.8862)"><g
       id="g40286"
       inkscape:label="S"><rect
         style="fill:#cccccc;fill-opacity:1;stroke:#1a1a1a;stroke-width:20;stroke-linecap:round;stroke-linejoin:round;stroke-dasharray:none;stroke-opacity:1;paint-order:stroke fill markers"
         id="rect38211-4-8-5"
         width="567.94067"
         height="480"
         x="1919.8767"
         y="-4278.8862"
         rx="48.766338"
         ry="48.766338" /><g
         id="g39173"
         transform="translate(-2138.1267,-2302.9133)"><path
           style="fill:#ffffff"
           d="m 4376.575,-1554.005 c -17.1237,-9.2991 -20.5802,-11.798 -27.5987,-19.9526 l -5.9616,-6.9267 -0.4994,-3.2845 c -0.2746,-1.8065 -0.7325,-9.5683 -1.0174,-17.2485 l -0.5181,-13.964 -5.7844,-8.2787 c -3.1813,-4.5533 -7.0145,-10.1945 -8.5181,-12.536 l -2.7339,-4.2573 -0.8321,-6.1144 c -0.4576,-3.3629 -0.5188,-9.1409 -0.1359,-12.84 l 0.6961,-6.7258 4.3503,-4.4326 c 2.3927,-2.4379 6.4522,-5.3826 9.0213,-6.5436 l 4.671,-2.1111 0.6547,-5.6162 c 1.3781,-11.8212 4.3752,-15.8635 13.4947,-18.2007 l 5.0476,-1.2937 v -3.8431 c 0,-9.2543 9.7031,-20.7788 17.495,-20.7788 h 1.5746 l -3.4965,-3.0699 c -1.923,-1.6885 -4.455,-4.6209 -5.6265,-6.5165 l -2.1301,-3.4466 -5.5403,5.0636 c -3.0472,2.7849 -7.269,5.9454 -9.3817,7.0232 -2.1128,1.0779 -5.3548,3.4731 -7.2044,5.3228 l -3.3631,3.363 -5.4106,12.3575 c -2.9759,6.7966 -7.0541,14.9002 -9.0627,18.008 l -3.6521,5.6504 -9.2746,7.8723 c -12.5618,10.6624 -19.0066,16.47 -35.2789,31.7909 l -13.8519,13.0421 -2.7576,5.5196 c -1.5166,3.0358 -4.4593,10.6946 -6.5393,17.0196 -3.7403,11.3737 -8.9285,22.921 -12.6929,28.25 l -1.9426,2.75 h -2.2025 -2.2024 l -17.4795,-11.4165 c -9.6137,-6.2791 -28.1669,-18.4469 -41.2294,-27.0395 l -23.75,-15.6229 v -2.3259 -2.326 l 3.9241,-4.8846 c 2.1582,-2.6865 8.6832,-10.9525 14.5,-18.3689 l 10.5759,-13.4842 -0.013,-2.0158 c -0.01,-1.1086 -0.9013,-7.6407 -1.987,-14.5157 -1.0857,-6.875 -1.9799,-14.6609 -1.987,-17.302 -0.01,-2.6411 -1.8429,-12.2473 -4.0793,-21.3472 -2.2365,-9.0999 -4.3169,-19.539 -4.623,-23.1981 l -0.5567,-6.6527 1.6262,-6.3432 c 0.8944,-3.4888 3.2268,-9.2054 5.1831,-12.7035 l 3.5568,-6.3603 -1.1996,-2.2415 -1.1996,-2.2414 0.6155,-11.0551 0.6155,-11.055 -1.691,-8.2973 -1.691,-8.2973 1.034,-1.7027 c 0.5686,-0.9365 2.7954,-2.5774 4.9482,-3.6465 l 3.9144,-1.9438 7.186,-0.056 7.186,-0.056 2.8308,2.0728 c 6.8658,5.0274 12.1632,16.0976 14.3209,29.9272 0.6006,3.85 1.3242,8.4904 1.6079,10.3119 l 0.5158,3.3119 5.237,-8.3119 c 8.4128,-13.3523 8.5822,-13.5605 13.7004,-16.8448 l 4.8901,-3.138 0.5542,-3.1646 c 3.5568,-20.3112 4.8431,-26.4311 7.9584,-37.8644 6.0666,-22.2642 26.709,-53.5964 41.4918,-62.9785 l 4.4458,-2.8216 4.0542,0.022 c 5.3066,0.029 11.4669,2.8971 14.8456,6.9124 l 2.7086,3.2191 v 5.5332 5.5333 l -3.0607,5.7425 c -1.6834,3.1583 -5.7758,9.0713 -9.0943,13.1399 -9.704,11.8975 -12.4174,15.9139 -17.3249,25.6447 l -4.6351,9.1905 -0.9507,9.1896 c -0.5229,5.0543 -0.7965,9.3439 -0.608,9.5324 0.1885,0.1885 3.3964,-5.1703 7.1286,-11.9084 9.2063,-16.621 9.1196,-16.5146 34.5895,-42.4674 l 22.4556,-22.8814 4.116,-1.2012 c 5.3805,-1.5702 8.6938,-1.5164 12.8212,0.2081 l 3.3729,1.4093 4.095,5.1805 4.0949,5.1805 v 2.6861 2.6861 l 4.25,1.9741 4.25,1.9741 2.25,3.3979 2.25,3.3979 v 3.787 c 0,7.5276 -4.3426,14.0132 -32.0846,47.9172 -11.7251,14.3294 -11.27,13.467 -19.1236,36.2466 -3.8404,11.1394 -7.6728,22.1805 -8.5164,24.5357 l -1.5338,4.2824 3.8792,3.426 c 6.5681,5.8009 7.362,5.0599 4.2979,-4.0114 l -2.0813,-6.1617 1.1852,-4.4088 1.1852,-4.4088 3.8959,-3.7098 3.8959,-3.7097 6.7502,-2.1229 c 3.7126,-1.1675 9.2267,-2.3631 12.2535,-2.6567 l 5.5033,-0.5339 6.3371,2.6672 6.3371,2.6673 7.1992,-7.3008 7.1991,-7.3007 5.7278,-2.878 5.7279,-2.878 3.5884,0.5823 c 4.9936,0.8103 8.0198,3.0414 11.4395,8.4336 5.1004,8.0425 3.2333,12.729 -10.962,27.5151 l -7.9414,8.2719 3.4313,4.7282 c 3.648,5.0269 7.5862,8.1202 17.4036,13.6695 l 6.0938,3.4446 10.206,11.0059 c 5.6133,6.0533 18.2633,19.5782 28.1111,30.0554 9.8478,10.4772 20.3177,22.0335 23.2665,25.6805 l 5.3614,6.631 7.387,15.369 7.3869,15.369 2.8466,2.557 c 1.5656,1.4064 4.7872,3.7939 7.1591,5.3057 l 4.3126,2.7485 -0.3244,1.6944 -0.3245,1.6944 -9.5529,5.5 c -5.2541,3.025 -14.2488,8.4868 -19.9881,12.1373 -5.7394,3.6506 -16.9603,10.2287 -24.9353,14.6181 -7.975,4.3893 -16.075,8.8594 -18,9.9335 -27.0893,15.1149 -62.9619,34.3021 -64.0727,34.2706 -0.785,-0.022 -7.2035,-3.1774 -14.2634,-7.0112 z"
           id="path11979" /><path
           style="fill:#1a1a1a"
           d="m 4404.0992,-1556.5946 c 6.7715,-3.6527 18.6119,-10.111 26.3119,-14.3518 7.7,-4.2408 16.475,-9.0583 19.5,-10.7057 20.7062,-11.2761 41.6509,-23.2819 50.7904,-29.1137 5.8903,-3.7585 13.7471,-8.5103 17.4596,-10.5595 7.9366,-4.3809 7.716,-3.8877 3,-6.7056 -2.0625,-1.2324 -5.0309,-3.4066 -6.5965,-4.8316 l -2.8466,-2.5908 -7.2831,-15.1523 c -9.1869,-19.1133 -8.7545,-18.561 -44.5765,-56.9304 l -29.9526,-32.0826 -6.0472,-3.4174 c -9.9601,-5.6286 -13.6248,-8.5659 -17.8896,-14.3389 -5.1102,-6.9175 -5.3701,-5.8275 3.4818,-14.6034 4.1469,-4.1113 9.1532,-9.8106 11.125,-12.6652 l 3.5853,-5.1901 v -2.5516 c 0,-2.8848 -4.1377,-8.7932 -7.871,-11.2393 -5.6597,-3.7084 -13.6499,-0.1752 -24.6081,10.8816 l -6.7291,6.7896 h -2.4001 c -1.32,0 -4.9088,-1.1485 -7.975,-2.5523 l -5.575,-2.5523 -6.0438,1.0959 c -20.572,3.7304 -27.2054,11.6437 -21.9174,26.1464 l 2.1304,5.843 -1.2529,1.5096 c -1.9892,2.3969 -4.5369,1.7882 -9.3759,-2.2403 l -4.5046,-3.75 -0.064,-2.775 c -0.035,-1.5262 0.8744,-5.3512 2.0211,-8.5 1.1466,-3.1487 4.6765,-13.375 7.844,-22.725 7.2587,-21.4261 6.8588,-20.6983 20.1319,-36.6407 15.2311,-18.2941 27.5976,-34.7976 29.517,-39.3913 l 1.6,-3.8292 -0.6035,-3.0171 c -0.9326,-4.6631 -3.0261,-7.1438 -8.0033,-9.4833 l -4.571,-2.1486 v -2.9051 -2.9051 l -3.9485,-4.9953 -3.9485,-4.9952 -3.6167,-1.1936 -3.6167,-1.1936 -3.6848,0.683 c -5.6705,1.0511 -9.0554,3.6227 -18.7291,14.2287 -4.9094,5.3825 -14.618,15.4114 -21.5746,22.2864 l -12.6485,12.5 -3.9703,7 c -10.8616,19.1498 -14.7734,25.4668 -15.1222,24.4204 l -0.3822,-1.1467 -0.8636,1.3631 -0.8637,1.3632 0.028,-2 c 0.016,-1.1 0.4057,-6.5522 0.8671,-12.116 l 0.8388,-10.116 4.7343,-9.384 c 5.5393,-10.9793 6.3868,-12.2572 16.6921,-25.1678 4.2951,-5.3811 8.9343,-12.0037 10.3091,-14.7168 l 2.4997,-4.9329 v -4.3984 -4.3984 l -2.0945,-2.6627 c -2.8613,-3.6376 -9.0256,-6.607 -13.7156,-6.607 h -3.8898 l -3.9001,2.8361 c -6.0378,4.3907 -9.2519,8.2231 -24.0396,28.6639 -11.5274,15.9343 -16.5952,30.1222 -21.7798,60.9755 l -2.3484,13.9755 -1.7266,1.0245 c -0.9495,0.5635 -3.4413,2.2391 -5.5372,3.7237 l -3.8108,2.6992 -7.3288,12.0054 c -4.0308,6.603 -7.8637,12.0259 -8.5175,12.0508 l -1.1888,0.045 -0.632,-4.75 c -3.6025,-27.074 -8.0688,-37.8779 -17.7226,-42.87 l -3.0313,-1.5676 -4.5809,0.687 c -12.5003,1.8745 -13.634,3.4062 -11.1009,14.9981 l 1.906,8.7218 -0.956,4.1404 c -1.3064,5.6585 -1.1154,13.4256 0.434,17.6403 l 1.2866,3.5 -4.4152,8.5 -4.4152,8.5 -0.781,5.7569 -0.7811,5.7568 0.8368,6.1186 c 0.4602,3.3653 2.3564,12.2497 4.2138,19.7432 1.8573,7.4935 3.639,17.3004 3.9592,21.7932 0.3202,4.4928 1.503,13.5657 2.6284,20.162 l 2.0463,11.9934 -0.9141,2.4043 c -0.8006,2.1055 -10.9929,15.5259 -24.8475,32.7172 l -4.3887,5.4456 2.3165,1.8011 c 2.1065,1.6379 21.8215,14.644 64.5755,42.6006 l 15.7409,10.293 1.8631,-2.293 c 3.3973,-4.1812 8.6539,-15.7233 12.7919,-28.0877 2.2465,-6.7129 5.2534,-14.618 6.6818,-17.567 l 2.5973,-5.3619 19.0329,-17.7737 c 10.4682,-9.7755 23.1851,-21.2273 28.2599,-25.4484 13.9618,-11.6131 13.7718,-11.3336 27.6529,-40.6806 l 3.6073,-7.6263 3.2564,-2.4755 c 1.7911,-1.3614 4.6892,-3.2132 6.4402,-4.115 1.7511,-0.9018 5.8612,-4.1185 9.1337,-7.1482 6.3586,-5.887 8.6645,-6.7162 9.6902,-3.4846 0.3533,1.1132 3.0837,4.6609 6.0674,7.8837 6.59,7.118 6.6104,7.3604 0.7506,8.9277 l -4.6744,1.2502 -4.2105,4.2105 -4.2105,4.2105 -1.0667,3.8635 c -0.5867,2.1249 -0.8156,5.1194 -0.5086,6.6545 l 0.5582,2.791 -1.8565,0.9606 c -1.0211,0.5283 -3.5309,1.2627 -5.5772,1.632 -2.0463,0.3692 -5.0706,1.8074 -6.7207,3.1959 l -3.0002,2.5245 -1.0237,3.6857 c -0.563,2.0271 -1.0262,6.0301 -1.0292,8.8956 l -0.01,5.2098 -4.0592,1.2162 c -12.7831,3.8299 -18.9766,17.4592 -14.577,32.0779 l 1.3639,4.5317 7.1895,10.0699 c 8.7307,12.2286 9.0828,13.3707 9.0828,29.4601 v 12.7887 l 1.3773,3.2179 c 3.7121,8.6732 13.7254,17.0219 33.1668,27.6533 13.379,7.3162 10.9088,7.3717 25.644,-0.5767 z"
           id="path11981" /><path
           style="fill:#f7c73b;fill-opacity:1"
           d="m 4205.9111,-1606.9966 c -16.775,-11.0139 -33.3046,-21.6974 -36.7325,-23.741 l -6.2326,-3.7157 0.018,-1.5 c 0.01,-0.825 1.0148,-2.6704 2.2326,-4.1008 6.437,-7.5615 23.2984,-28.8665 25.2458,-31.8992 l 2.2475,-3.5 -1.8683,-10.5 c -1.0275,-5.775 -2.1449,-14.55 -2.4829,-19.5 l -0.6146,-9 -4.5494,-18 -4.5495,-18 -0.1073,-6.6953 -0.1073,-6.6952 5.056,-9.8048 5.056,-9.8047 -1.4586,-7.4103 -1.4586,-7.4102 1.7917,-5.2711 1.7916,-5.271 -1.2312,-4.3187 c -0.6773,-2.3753 -1.7343,-6.4837 -2.3491,-9.1299 l -1.1178,-4.8112 1.46,-0.9096 c 14.2569,-8.8825 23.7699,3.9549 28.1317,37.9627 1.1689,9.1131 2.3217,16.7943 2.5618,17.0693 0.8515,0.9751 4.9957,-4.849 12.8307,-18.0319 7.3583,-12.3807 9.7259,-15.3463 18.736,-23.4681 l 3.3281,-3 2.8085,-20 c 4.2026,-29.9272 5.3349,-32.5652 25.6482,-59.7502 10.488,-14.036 15.2135,-19.2845 19.2865,-21.4207 l 2.8715,-1.5061 3.1629,0.5934 c 4.1718,0.7826 7.2581,3.0332 9.134,6.6607 l 1.5284,2.9556 -1.0148,3.7687 c -1.1733,4.3572 -7.0864,13.4526 -16.4178,25.2535 l -6.5454,8.2776 -5.1315,11.3531 -5.1315,11.3532 -2.8562,18.3097 c -2.991,19.1735 -4.7307,27.581 -5.9997,28.9941 l -0.7567,0.8427 -2.3573,-1.2544 c -1.2966,-0.69 -4.7566,-3.023 -7.689,-5.1845 l -5.3316,-3.93 0.3316,2.3058 0.3316,2.3058 4.826,3.6415 c 2.6543,2.0029 6.4139,4.1289 8.3547,4.7246 l 3.5287,1.083 2.258,-2.4364 c 1.2418,-1.34 5.4247,-9.3975 9.2952,-17.9056 3.8705,-8.5081 9.8948,-20.3181 13.3874,-26.2445 l 6.35,-10.7752 24.3519,-24.3567 24.3519,-24.3568 2.7277,-0.7823 2.7277,-0.7823 2.9204,1.2299 c 1.6062,0.6764 4.63,3.1238 6.7196,5.4386 l 3.7992,4.2089 -0.656,2.1926 c -1.3163,4.4 -25.2174,33.5709 -34.4424,42.0363 -14.8508,13.6281 -16.6439,16.5639 -24.9519,40.8522 -9.9558,29.1059 -9.8483,28.9429 -15.7009,23.8042 -6.2139,-5.4559 -9.0266,-2.6931 -3.0972,3.0423 5.4447,5.2665 17.75,10.1403 17.75,7.0303 0,-0.5101 -1.215,-1.8831 -2.6999,-3.0512 l -2.6999,-2.1238 1.1137,-2.6988 c 0.6126,-1.4843 3.1194,-7.4459 5.5707,-13.248 2.4513,-5.802 5.6772,-14.802 7.1686,-20 1.4914,-5.1979 3.908,-11.7008 5.3703,-14.4508 l 2.6586,-5 10.009,-10 c 9.7741,-9.7654 21.1448,-22.1843 30.9013,-33.75 l 4.8505,-5.75 h 2.4263 2.4263 l 2.4522,2.646 2.4523,2.646 v 4.3259 4.3258 l -6.6247,8.6825 c -3.6436,4.7753 -12.45,15.4755 -19.5699,23.7781 -16.3067,19.0155 -25.7582,39.1763 -34.1654,72.8771 l -0.6939,2.7814 5.1936,5.4913 c 6.1724,6.5265 8.1328,7.1719 15.6543,5.1537 3.1383,-0.8421 8.9985,-1.826 13.0227,-2.1866 l 7.3166,-0.6554 1.4334,1.1895 c 0.7883,0.6543 1.4333,2.1624 1.4333,3.3513 v 2.1617 l -5.25,5.0806 c -2.8875,2.7942 -8.4,7.098 -12.25,9.5639 -9.4192,6.0328 -9.5925,6.2682 -19.9446,27.0778 l -9.0554,18.203 -6.5,5.3432 c -15.211,12.5038 -33.6047,29.112 -43.218,39.0227 l -10.3213,10.6405 -1.8206,6 c -1.0013,3.3 -4.2215,10.95 -7.1559,17 -2.9344,6.05 -6.6906,14.0375 -8.347,17.75 l -3.0118,6.75 -1.8127,-0.01 c -0.997,0 -15.5377,-9.0204 -32.3127,-20.0343 z"
           id="path11987" /><path
           style="fill:#000000"
           d="m 4412.9678,-1785.5457 c 4.5985,-5.9385 4.7936,-7.2601 1.5251,-10.3307 l -2.4181,-2.2718 -3.1377,0.6892 -3.1377,0.6892 -7.9337,7.4194 c -9.4231,8.8125 -9.1672,7.7499 -3.2907,13.6624 l 4.7364,4.7652 4.8566,-4.7652 c 2.6711,-2.6209 6.631,-7.0569 8.7998,-9.8577 z"
           id="path11993" /><path
           style="fill:#f7c73b;fill-opacity:1"
           d="m 4391.5124,-1774.851 c -6.8919,-6.9645 -7.0586,-5.9965 2.5637,-14.8837 8.7871,-8.1156 12.326,-10.2186 17.1964,-10.2186 h 3.4608 l 2.5889,3.0767 c 3.6842,4.3785 3.3227,5.8925 -3.4037,14.2539 -12.4359,15.4587 -14.1955,16.069 -22.4061,7.7717 z"
           id="path11991" /><path
           id="path11989"
           style="fill:#f7c73b;fill-opacity:1"
           d="m 4299.8164,-1917.3164 c -3.1343,3.3278 -6.3539,6.5841 -9.189,10.1778 -7.1431,8.8611 -13.9414,17.9941 -20.4491,27.3292 -3.7612,5.5181 -7.5777,11.1911 -9.4026,17.6908 -1.856,6.5538 -2.7604,13.3268 -3.8141,20.0439 -1.2523,8.4755 -2.4785,16.9549 -3.7194,25.4321 -0.9316,1.4877 -1.8358,3.027 -3.2192,4.1501 -1.9946,1.9244 -4.5825,3.0894 -6.513,5.0885 -3.9806,3.9038 -6.9209,8.6995 -9.8394,13.41 -3.9374,6.4988 -7.5005,13.2374 -11.8425,19.4842 -0.761,1.0091 -1.5221,2.0183 -2.2832,3.0274 -1.6967,-0.084 -3.4832,0.2376 -5.1074,-0.377 -0.071,-10.0295 -1.5837,-20.0127 -3.9635,-29.7414 -1.712,-6.7335 -3.7686,-13.4554 -7.0756,-19.5965 -1.3065,-2.3439 -2.8896,-4.6353 -5.1911,-6.1025 -0.6335,-0.4019 -1.2181,-1.0331 -1.8811,-1.2976 -2.5288,0.6104 -5.0988,1.0598 -7.6055,1.7517 -1.0408,0.2556 -1.798,1.2581 -1.658,2.3386 0.2384,2.4436 1.1667,4.7543 1.7868,7.1162 0.8613,2.9642 1.7185,5.93 2.5782,8.8948 -1.3326,2.9863 -2.9348,5.9735 -3.125,9.3066 -0.2934,4.9576 1.0296,9.8086 1.9199,14.643 0.1097,0.7756 0.4033,1.5816 0.3974,2.3382 -2.6847,4.7964 -5.6799,9.4384 -7.9247,14.4661 -1.6986,3.7563 -2.4444,7.9199 -2.1401,12.0322 0.4523,6.3614 2.1248,12.5468 3.6077,18.7254 1.6333,6.5779 3.3395,13.1414 4.9559,19.721 0.4294,5.8663 0.8233,11.7382 1.6334,17.5674 1.0682,8.5524 2.5964,17.0366 3.9939,25.54 -2.7777,3.9402 -5.6589,7.8049 -8.651,11.585 -6.872,8.777 -13.9179,17.4161 -20.9037,26.1024 1.3008,1.3194 2.7756,2.4367 4.3346,3.4312 6.3093,4.1856 12.7697,8.1381 19.0946,12.3006 12.1838,7.8972 24.3287,15.8613 36.385,23.9479 3.0557,1.94 6.0502,4.0905 9.4788,5.3301 1.6347,0.6059 3.6571,0.5447 4.9559,-0.7459 1.8899,-1.8442 2.8255,-4.3933 3.9521,-6.7257 3.2247,-7.2479 6.7499,-14.3582 9.8821,-21.6473 1.4422,-3.2389 2.7706,-6.5275 3.936,-9.8763 0.8633,-2.1587 1.6234,-4.3623 2.7903,-6.3899 2.4515,-3.1299 5.3553,-5.9189 8.1442,-8.7807 8.8359,-8.8259 17.9353,-17.4032 27.2724,-25.6913 6.5007,-5.7337 13.2577,-11.1701 19.8034,-16.8508 3.5424,-3.0817 6.0629,-7.1143 8.1941,-11.2501 3.8747,-7.473 7.1363,-15.2599 11.1146,-22.6658 1.3864,-2.7001 2.9349,-5.3128 4.7003,-7.7833 0.5258,-0.7552 0.937,-1.6275 1.831,-2.0064 5.7609,-3.7309 11.6556,-7.3166 16.8533,-11.8304 2.2155,-1.9667 4.5337,-3.9447 6.0832,-6.5055 0.6843,-1.0695 0.3756,-2.3738 0.4422,-3.565 -5.4678,0.3701 -10.9759,0.4749 -16.37,1.5318 -3.0497,0.4896 -5.9991,1.4085 -8.9221,2.3834 -0.6464,0.1562 -1.3065,0.5167 -1.9448,0.5498 -2.1387,-1.0226 -4.3698,-1.9201 -6.214,-3.4491 -3.5969,-2.6576 -6.4866,-6.0948 -9.5491,-9.3187 -0.016,-1.4519 -0.072,-2.919 0.3695,-4.3236 1.7542,-6.9105 3.9309,-13.6722 6.0678,-20.4797 3.1947,-9.9138 6.4055,-19.8296 10.1154,-29.5708 0.7357,-2.0261 1.7118,-3.9582 3.0071,-5.6865 4.6609,-6.5276 9.8953,-12.6974 15.1117,-18.819 6.7384,-7.8632 13.6946,-15.555 19.8816,-23.8691 2.1718,-3.0473 4.4464,-6.1563 5.5346,-9.783 0.6882,-2.1374 0.3363,-4.5984 -1.1067,-6.351 -1.1736,-1.4577 -2.5242,-2.7641 -3.7721,-4.1583 -7.5196,8.2593 -14.7809,16.7499 -22.2695,25.0391 -6.3575,6.9764 -12.8913,13.7917 -19.6415,20.3895 -1.6679,1.681 -3.3952,3.3185 -5.0265,5.0265 -1.7109,3.3785 -3.5067,6.728 -4.7549,10.3144 -1.9297,5.0023 -3.1349,10.2422 -4.9439,15.2862 -2.3499,6.7151 -4.8191,13.4047 -7.8274,19.8568 -0.5819,1.4419 -1.5887,2.6465 -2.2481,4.0433 -0.7439,1.4786 -0.6436,3.4475 0.6447,4.5973 0.8114,0.8012 1.8617,1.2923 2.7996,1.9235 0,1.7031 0,3.4062 0,5.1094 -1.1771,0.5416 -2.4559,0.9086 -3.7618,0.6992 -3.927,-0.5301 -7.5469,-2.3422 -10.9287,-4.3242 -3.0521,-1.8652 -5.9934,-4.0787 -8.2549,-6.7872 -0.8021,-1.0159 -1.5505,-2.0727 -2.3281,-3.1074 0.5991,-0.9981 1.1817,-2.1046 2.3287,-2.5643 1.3848,-0.7621 2.9995,-0.71 4.519,-0.9376 1.8837,1.6924 3.5377,3.7163 5.7715,4.9668 0.5595,0.3476 1.1499,-0.07 1.3356,-0.6261 1.7626,-3.683 3.0477,-7.5734 4.4925,-11.3876 4.2169,-11.472 7.7989,-23.1883 12.654,-34.4184 0.9919,-2.3011 2.3308,-4.4719 3.5061,-6.7222 5.9653,-5.8121 12.0693,-11.4882 17.7207,-17.6123 8.3528,-8.9709 16.4259,-18.2109 24.0239,-27.8317 2.0063,-2.6476 4.141,-5.2393 5.6987,-8.1863 0.5361,-0.8314 0.1713,-1.8202 -0.3866,-2.5318 -2.006,-2.6701 -4.5394,-4.9114 -7.1957,-6.9168 -1.1934,-0.7952 -2.5044,-1.9517 -4.0512,-1.5931 -2.6563,0.5442 -4.8324,2.3412 -6.8376,4.0666 -2.8059,2.4544 -5.1256,5.4269 -7.5507,8.2089 -10.3902,11.3202 -21.707,21.733 -32.8019,32.3485 -1.0075,1.0047 -2.1181,1.927 -3.0632,2.9816 -4.1128,7.0008 -8.4183,13.8893 -12.1737,21.0925 -3.7457,7.0525 -7.249,14.2316 -10.5472,21.5043 -2.2034,4.5666 -4.3718,9.1726 -7.0698,13.4735 -0.8277,1.1919 -1.9298,2.1598 -2.8789,3.2519 -1.8843,0.05 -3.7918,-0.065 -5.5719,-0.7408 -3.4788,-1.1976 -6.6657,-3.0336 -9.6281,-5.2621 -2.1102,-1.6216 -4.133,-3.5148 -5.1936,-6.0095 -0.2354,-0.5693 -0.6925,-1.1198 -0.7989,-1.7001 0.3412,-1.0757 0.6827,-2.1514 1.0245,-3.2269 1.0211,-0.034 2.0772,-0.06 2.9925,0.4696 3.6441,1.7069 6.5863,4.5243 9.9545,6.6764 1.1364,0.783 2.3923,1.3649 3.5979,2.0298 1.0829,-4.6732 2.0465,-9.3704 2.8109,-14.1064 1.4458,-8.3707 2.6216,-16.7861 4.065,-25.1462 0.8329,-4.8433 2.0816,-9.6352 4.1075,-14.1253 2.6818,-6.033 5.6307,-11.9284 8.4522,-17.9053 6.3162,-8.1851 13.0369,-16.104 18.4519,-24.9377 1.411,-2.4348 2.9384,-4.9072 3.511,-7.6971 0.132,-1.047 0.031,-2.1076 0.062,-3.1602 -2.0505,-2.0537 -4.1026,-4.1058 -6.1563,-6.1562 -2.4368,0 -4.8737,0 -7.3105,0 -0.052,0.055 -0.1042,0.1107 -0.1563,0.166 z" /><path
           style="fill:#000000"
           d="m 4414.9111,-1568.7269 c 8.525,-4.6887 21.35,-11.7814 28.5,-15.7616 7.15,-3.9802 16.6,-9.1491 21,-11.4865 14.3252,-7.6099 25.8182,-14.2659 35.5,-20.5596 5.225,-3.3965 10.56,-6.5005 11.8555,-6.8979 l 2.3555,-0.7225 -3.6399,-3.0003 c -4.3703,-3.6023 -7.4339,-9.4001 -10.9898,-20.798 -1.4585,-4.675 -3.6267,-9.85 -4.8182,-11.5 -4.4657,-6.1842 -23.9561,-27.7043 -44.3761,-48.9976 l -21.113,-22.0159 -6.2819,-4.4932 c -3.455,-2.4713 -8.0976,-5.8433 -10.3169,-7.4933 -2.2193,-1.65 -9.4666,-9.1966 -16.1051,-16.7702 -6.6386,-7.5736 -14.8883,-15.9918 -18.3329,-18.7071 l -6.2627,-4.9369 -3.5683,-0.6694 -3.5682,-0.6694 -6.5516,1.7734 -6.5515,1.7734 -3.3674,2.9567 -3.3675,2.9567 v 2.4076 c 0,1.3242 1.0125,4.4152 2.25,6.8689 l 2.25,4.4614 2,0.01 c 1.1,0 5.1059,-0.4413 8.902,-0.99 l 6.9019,-0.9976 1.8481,1.6724 c 1.0164,0.9199 1.848,2.0622 1.848,2.5385 0,2.648 7.0468,14.6424 11.5067,19.5855 2.8476,3.1562 5.7143,6.751 6.3705,7.9885 0.6563,1.2375 1.9663,2.25 2.9112,2.25 0.9449,0 6.4402,2.25 12.2116,5 l 10.4935,5 4.0033,0.014 c 2.2017,0.01 5.0206,0.2862 6.2641,0.6194 l 2.261,0.6059 0.6158,2.4537 0.6159,2.4537 -1.1104,1.1104 -1.1104,1.1104 -7.7664,-0.061 -7.7664,-0.061 -10.2563,-4.6226 -10.2562,-4.6227 -3.2438,0.01 c -1.784,0 -4.9023,0.4662 -6.9294,1.0292 l -3.6857,1.0237 -2.5245,3.0002 c -1.3885,1.6501 -2.8179,4.5639 -3.1764,6.4751 l -0.6519,3.475 1.5102,2.3049 c 0.8306,1.2676 4.2365,4.0782 7.5688,6.2456 l 6.0586,3.9407 0.043,2.75 0.043,2.75 h -3.415 -3.415 l -7.5497,-4 -7.5497,-4 h -3.3442 c -6.0174,0 -8.7264,4.5781 -8.7264,14.747 v 5.4486 l 5.25,4.8847 c 2.8875,2.6866 5.5717,4.8926 5.9648,4.9022 0.3932,0.01 1.2119,0.9463 1.8194,2.0814 l 1.1046,2.0639 -1.1919,1.4361 c -2.9155,3.513 -10.5211,0.4269 -17.0336,-6.9118 l -3.6475,-4.1102 -3.7323,1.979 c -2.0528,1.0885 -4.8126,3.2511 -6.1329,4.8058 l -2.4006,2.8268 0.022,6.1732 0.022,6.1733 1.8987,4.182 c 1.0443,2.3 4.5117,8.1498 7.7054,12.9994 l 5.8068,8.8174 11.1095,11.5006 c 17.9422,18.574 28.1757,35.6788 22.4357,37.5006 -3.539,1.1232 -5.3933,-0.3678 -10.9007,-8.7653 -2.9703,-4.5291 -8.1453,-11.7216 -11.5,-15.9833 l -6.0993,-7.7486 -0.2941,8.7486 c -0.3862,11.4887 -0.3257,11.6538 7.1169,19.4593 l 6.3987,6.7106 11.4894,5.5451 c 6.3192,3.0498 12.2853,6.4244 13.2579,7.4991 l 1.7684,1.9541 4.1314,-2.0841 c 2.2723,-1.1463 11.1064,-5.9204 19.6314,-10.6091 z"
           id="path11985" /><path
           style="fill:#f7c73b;fill-opacity:1"
           d="m 4387.2378,-1556.3251 c -1.5547,-1.3045 -7.5985,-4.6541 -13.4308,-7.4435 l -10.604,-5.0717 -6.7654,-7.3065 c -8.254,-8.9143 -8.2045,-8.7731 -7.7292,-22.0565 l 0.3847,-10.75 1.659,0.04 1.659,0.04 6.1171,7.7096 c 3.3644,4.2403 8.7194,11.6472 11.9001,16.4597 9.0534,13.6983 11.9393,11.783 3.3285,-2.2091 l -5.1544,-8.3755 -10.6027,-11.0827 c -14.2958,-14.943 -23.6223,-27.4358 -27.6135,-36.988 l -1.6214,-3.8807 -0.074,-7.1477 -0.074,-7.1476 1.18,-2.2049 c 1.4062,-2.6276 10.8833,-9.2138 13.2579,-9.2138 0.9187,0 3.5105,2.1979 5.7596,4.8843 4.0642,4.8542 10.2461,8.7596 12.0758,7.6287 0.5262,-0.3252 -2.0663,-3.4585 -5.7611,-6.9628 l -6.7178,-6.3716 0.1429,-7.1885 0.1429,-7.1886 1.7563,-3.895 1.7564,-3.8949 3.6008,-1.0002 c 5.5193,-1.5332 6.4005,-1.3355 15.5471,3.4886 12.9445,6.8272 16.2758,5.8116 5.0111,-1.5277 -14.184,-9.2413 -10.6529,-24.1462 6.3663,-26.8721 l 6.3238,-1.0128 4.6762,1.8737 c 2.5719,1.0306 7.7475,3.2807 11.5012,5.0003 l 6.8251,3.1266 6.434,-0.294 6.434,-0.294 0.025,-1 c 0.014,-0.55 -2.7134,-1.3493 -6.0603,-1.7763 l -6.0853,-0.7763 -9.6987,-4.3729 c -5.3343,-2.4051 -11.1612,-4.9228 -12.9487,-5.595 -1.7875,-0.6722 -3.25,-1.5889 -3.25,-2.0371 0,-0.4482 -2.4961,-3.6561 -5.5468,-7.1286 l -5.5469,-6.3138 -4.1742,-8.3662 c -4.8757,-9.7722 -4.8812,-9.7755 -13.9797,-8.3672 -8.509,1.3171 -9.1652,1.0915 -12.2789,-4.2216 l -2.4735,-4.2207 v -4.5586 -4.5585 l 3.4312,-3.0126 3.4312,-3.0127 5.3188,-1.4882 c 2.9253,-0.8184 7.0074,-1.78 9.0712,-2.1367 l 3.7523,-0.6485 4.5006,1.9908 4.5005,1.9908 11.2471,11.3164 c 6.1859,6.224 14.369,14.8557 18.1846,19.1816 l 6.9375,7.8654 7.0625,4.5023 7.0625,4.5023 17.8349,18.1209 c 17.1904,17.4662 45.4643,48.3872 50.8594,55.621 1.4357,1.925 4.3155,8.675 6.3995,15 l 3.7891,11.5 5.3622,5.2587 c 5.7591,5.648 5.8369,6.3823 0.9415,8.8839 -1.7526,0.8956 -8.5866,5.0986 -15.1866,9.34 -6.6,4.2413 -16.95,10.3446 -23,13.5629 -6.05,3.2183 -26.7332,14.5372 -45.9626,25.153 -37.5118,20.7088 -36.9713,20.4868 -41.2107,16.9297 z"
           id="path11983" /></g></g></g></svg>
