<?xml version="1.0" encoding="UTF-8" standalone="no"?>
<!-- Created with Inkscape (http://www.inkscape.org/) -->

<svg
   width="587.94067mm"
   height="500mm"
   viewBox="0 0 587.94067 500"
   version="1.1"
   id="svg5"
   xml:space="preserve"
   xmlns:inkscape="http://www.inkscape.org/namespaces/inkscape"
   xmlns:sodipodi="http://sodipodi.sourceforge.net/DTD/sodipodi-0.dtd"
   xmlns="http://www.w3.org/2000/svg"
   xmlns:svg="http://www.w3.org/2000/svg"><sodipodi:namedview
     id="namedview7"
     pagecolor="#ffffff"
     bordercolor="#000000"
     borderopacity="0.25"
     inkscape:showpageshadow="2"
     inkscape:pageopacity="0.0"
     inkscape:pagecheckerboard="0"
     inkscape:deskcolor="#d1d1d1"
     inkscape:document-units="mm"
     showgrid="false"
     showguides="false" /><defs
     id="defs2" /><g
     inkscape:groupmode="layer"
     id="layer3"
     inkscape:label="B"
     transform="translate(305.60561,5443.9141)"><g
       id="g38919"
       transform="translate(15.667857,3.4291992)"><rect
         style="fill:#cccccc;fill-opacity:1;stroke:#1a1a1a;stroke-width:20;stroke-linecap:round;stroke-linejoin:round;stroke-dasharray:none;stroke-opacity:1;paint-order:stroke fill markers"
         id="rect38211-4"
         width="567.94067"
         height="480"
         x="-311.27347"
         y="-5437.3433"
         rx="48.766338"
         ry="48.766338" /><g
         id="g38426"
         transform="translate(-2670.3365,-2530.2963)"><path
           id="path12381"
           style="fill:#ffffff"
           d="m 2573.4109,-2811.4532 -7.4998,3.7682 c -4.125,2.0726 -10.3973,5.6136 -13.9382,7.8688 -3.5409,2.2552 -14.7909,7.4564 -25,11.5585 -40.2078,16.1556 -42.7432,18.9986 -55.5661,62.3042 -5.5983,18.9065 -15.2758,38.0656 -30.055,59.5002 -8.6334,12.5213 -35.2446,67.2073 -37.0014,76.0378 l -0.6046,3.0375 6.3329,4.9465 c 3.4829,2.7207 11.2201,9.4539 17.1938,14.9624 35.814,33.0253 44.2605,40.5158 45.6877,40.5158 h 1.59 l 13.0985,-26.7503 c 7.2042,-14.7124 14.6618,-30.195 16.5721,-34.4056 l 3.4732,-7.6559 2.5259,-1.6547 c 1.3892,-0.9103 11.4503,-5.2288 22.3583,-9.5968 25.4531,-10.1925 26.2332,-10.6134 36.3327,-19.6009 4.675,-4.1602 13.5218,-10.8871 19.6593,-14.9479 l 11.1595,-7.383 6.1898,-6.7525 c 3.4045,-3.7138 8.589,-10.3931 11.5207,-14.8431 4.8708,-7.3932 17.9529,-22.4095 19.5234,-22.4095 1.3322,0 9.0709,18.2249 11.6794,27.5053 l 2.6913,9.5741 5.0384,3.8504 c 2.7712,2.118 11.5634,10.019 19.5384,17.5576 23.6678,22.3725 43.1507,31.3049 83.7706,38.4054 l 11.2711,1.9699 3.4412,2.127 c 9.175,5.6704 17.947,24.4689 22.6368,48.5103 1.8242,9.3511 3.4184,16.3286 4.3982,19.25 v 5e-4 c 1.3504,4.0265 6.9074,1.4022 45.482,-21.4804 13.475,-7.9935 26.9129,-15.9367 29.8622,-17.6516 7.0688,-4.1101 7.0583,-4.015 1.8041,-15.8652 -4.445,-10.0253 -19.7492,-49.8614 -27.1818,-70.7528 -5.6788,-15.9619 -9.5119,-22.957 -33.9721,-61.9998 -7.0637,-11.275 -14.3238,-23.7434 -16.1334,-27.7079 l -3.2902,-7.2083 -4.7946,-3.5502 c -2.6368,-1.9525 -10.419,-6.3211 -17.294,-9.7079 -14.9417,-7.3608 -30.1,-17.2306 -34.9999,-22.7893 -17.1001,-19.3986 -24.6557,-21.6337 -45.6045,-13.4907 -6.5425,2.5431 -19.3207,7.289 -28.3957,10.5461 -9.075,3.2572 -17.6249,6.5484 -18.9999,7.3138 l -2.5001,1.3916 -3.6302,-3.1486 c -4.9202,-4.2679 -13.5585,-8.967 -38.3698,-20.8726 l -21.0003,-10.0764 -4.4999,-0.1003 z m 5.6679,68.4429 7.1664,6.2166 c 3.9414,3.4193 7.8161,6.7988 8.6109,7.5096 l 1.4449,1.292 -2.1947,3.9057 -2.1953,3.9052 v 6.6931 6.6931 l -6.5887,7.6709 c -3.624,4.219 -8.1296,9.358 -10.0123,11.4205 v 5e-4 l -3.4231,3.7501 -2.2381,-0.044 c -7.7923,-0.1529 -13.249,-4.4134 -14.8575,-11.6009 l -1.2128,-5.4193 2.2872,-12.718 c 2.5991,-14.452 3.0653,-15.6556 6.8249,-17.6145 1.4962,-0.7796 5.7959,-3.7222 9.5545,-6.5391 z m 98.2064,8.0568 h 5.7639 c 3.17,0 8.0084,0.4818 10.7518,1.0702 l 4.9889,1.0697 2.6308,7.18 c 1.4472,3.9491 4.3997,10.6655 6.5609,14.9252 4.4943,8.8576 4.5132,9.0367 2.2355,20.9186 l -1.694,8.8366 -2.5559,-0.1049 c -1.4059,-0.058 -7.035,-0.8454 -12.5093,-1.7502 l -9.9534,-1.6449 -6.0466,-9.6072 c -7.0981,-11.2778 -10.0473,-14.9931 -13.792,-17.3725 l -2.7455,-1.7446 2.7838,-3.6375 c 1.5309,-2.0009 4.0599,-5.6636 5.6203,-8.1386 1.5603,-2.475 3.9895,-5.7372 5.3986,-7.2497 z" /><path
           id="path12383"
           style="fill:#1a1a1a"
           d="m 2577.5801,-2808.9536 c -4.4162,0 -11.4487,2.9909 -18.7508,7.9752 -7.8731,5.3742 -15.3877,9.0322 -32.0626,15.6073 -37.3971,14.7461 -39.9368,17.579 -52.3684,58.4171 -6.8385,22.4647 -15.7302,40.3268 -31.2337,62.743 l -6.3924,9.2423 -9.3214,19.2577 c -23.4149,48.3729 -22.7709,45.1679 -11.0396,54.9486 4.95,4.127 13.7533,11.9598 19.5631,17.4062 11.1716,10.473 30.9845,28.6314 34.6635,31.7691 l 2.1885,1.8666 11.3213,-22.8668 c 6.2267,-12.5766 13.6386,-27.9156 16.4703,-34.0869 l 5.1485,-11.221 3.3223,-2.0283 c 1.8273,-1.1156 11.4222,-5.2233 21.3222,-9.1286 25.3566,-10.0023 25.4644,-10.0596 35.7415,-18.9813 5.0923,-4.4207 14.2804,-11.3852 20.4179,-15.4766 l 11.1595,-7.4388 6.1929,-6.7525 c 3.4062,-3.7138 8.4016,-10.1274 11.1011,-14.2524 5.5153,-8.4274 19.7292,-24.8113 21.6246,-24.9256 2.8113,-0.1696 11.6377,18.7831 14.7929,31.765 l 1.7296,7.1163 5.1201,3.9047 c 2.8161,2.1475 11.645,10.0861 19.62,17.6413 22.6728,21.4793 40.1184,29.8442 76.4496,36.6562 6.0777,1.1396 13.3728,2.6958 16.2109,3.4587 l 5.1598,1.387 4.6768,4.5454 4.6772,4.5455 3.8959,8.3142 c 3.8549,8.226 10.9301,30.7895 10.9301,34.8573 0,1.8213 2.3524,12.7676 3.5476,16.507 l 0.4072,1.2728 3.4809,-1.4547 c 1.9145,-0.7999 6.7621,-3.3472 10.7725,-5.6611 4.0104,-2.3139 17.1917,-10.0595 29.2917,-17.2124 12.1,-7.1529 24.3625,-14.3854 27.25,-16.0724 6.2194,-3.6337 6.0566,-2.6228 1.8919,-11.7699 -3.472,-7.6256 -16.8628,-42.4471 -26.1266,-67.9384 -7.4189,-20.4147 -9.3103,-23.9039 -37.221,-68.6791 -6.2543,-10.0334 -12.6731,-21.1446 -14.2642,-24.691 l -2.8934,-6.4476 -4.8183,-3.5905 c -2.6502,-1.9749 -10.6947,-6.4906 -17.8769,-10.0351 -15.7876,-7.7912 -23.8001,-13.3033 -38.0778,-26.1942 -5.975,-5.3947 -12.3606,-11.0439 -14.1903,-12.5538 l -3.327,-2.7455 -2.6732,0.013 c -2.8463,0.014 -5.5329,0.936 -42.1731,14.4704 -12.925,4.7743 -23.9277,9.0937 -24.4502,9.5984 -1.7531,1.6936 -5.1811,0.9394 -7.6259,-1.6774 -3.7288,-3.991 -13.3984,-9.3581 -37.5879,-20.8633 l -22.164,-10.5415 z m 1.1876,63.116 c 1.3045,-0.015 2.6584,0.8053 4.2193,2.4707 1.3334,1.4226 5.4617,5.0738 9.1742,8.1137 7.4506,6.1008 7.759,6.9333 4.5103,12.1817 l -2.2392,3.6179 -0.079,7.5003 -0.079,7.4998 -4.7759,5.0002 c -2.6265,2.75 -6.604,7.3842 -8.8388,10.2986 -6.0396,7.8758 -11.5429,9.2943 -20.4215,5.2632 v 0 c -2.2947,-1.0419 -4.9435,-3.0712 -5.886,-4.5098 l -1.7136,-2.6153 -0.4878,-6.8177 -0.4878,-6.8171 1.6593,-9.9013 c 0.9125,-5.4453 2.1205,-11.3395 2.6841,-13.0984 l 1.0247,-3.1982 8.1944,-5.4524 c 4.507,-2.9988 9.0494,-6.3973 10.0944,-7.552 1.1828,-1.3069 2.2958,-1.9706 3.4469,-1.9839 z m 104.2721,8.0393 c 2.5004,0.044 5.5076,0.4441 9.3333,1.061 l 7.9623,1.2841 1.2511,2.4996 c 0.6882,1.375 2.6662,6.3237 4.3956,10.9967 1.7293,4.6732 3.9349,9.6236 4.901,11.0004 0.9662,1.3768 2.3212,4.0897 3.0117,6.0286 l 1.2557,3.5253 -1.62,7.8316 c -0.8908,4.3074 -1.6195,9.0432 -1.6195,10.5244 0,4.2579 -2.0261,5.5756 -7.0001,4.5527 -0.825,-0.1697 -6.5544,-1.0768 -12.7321,-2.0159 l -11.2318,-1.7074 -3.9156,-7.1184 c -5.5957,-10.1727 -11.7526,-18.1051 -15.7055,-20.2339 l -3.4148,-1.8386 v -1.7136 c 0,-0.9425 0.4607,-1.9981 1.0238,-2.3461 0.563,-0.348 3.6556,-4.5376 6.8724,-9.3096 6.7919,-10.0752 9.7315,-13.1526 17.2325,-13.0209 z" /><path
           style="fill:#f7c73b;fill-opacity:1"
           d="m 2637.2361,-2761.6294 c -1.2122,-3.3052 -8.0812,-12.7744 -11.2319,-15.4837 -6.6667,-5.7327 -1.3636,-6.7364 6.6028,-1.2497 l 5.2133,3.5905 2.1156,4.3702 2.1156,4.3703 -0.3202,2.7807 -0.3202,2.7806 -1.753,0.3325 -1.7531,0.3325 z"
           id="path12403" /><path
           style="fill:#000000"
           d="m 2630.6696,-2749.7043 1.9421,-5.7509 -1.3531,-3.9083 c -2.0027,-5.7849 -5.5378,-9.8867 -14.1371,-16.4034 -12.3683,-9.373 -35.9425,-25.0811 -38.6671,-25.7649 l -2.5039,-0.6285 -6.3033,2.9497 c -5.2456,2.4547 -16.7361,9.8025 -16.7361,10.7022 0,0.1416 2.8125,-1.1051 6.25,-2.7705 l 6.25,-3.0279 6.2234,-0.4381 6.2235,-0.4381 4.1973,2.1878 c 19.2055,10.0104 41.2507,33.1994 45.4346,47.7918 0.6271,2.187 1.1905,1.3893 3.1797,-4.5009 z"
           id="path12393" /><path
           style="fill:#000000"
           d="m 2472.7718,-2546.2033 c 1.5844,-3.4375 7.7073,-16.0692 13.6064,-28.0703 5.8991,-12.0012 10.5027,-22.0433 10.2302,-22.3158 -1.021,-1.021 -9.4487,1.9313 -16.5505,5.7977 l -7.3532,4.0034 -2.3968,-0.6016 -2.3968,-0.6015 v -2.2585 c 0,-7.9564 25.0558,-20.0779 31.5589,-15.2676 l 1.9411,1.4359 2.0339,-1.3174 c 3.7153,-2.4063 22.8011,-10.3456 34.6996,-14.4343 14.8968,-5.119 14.9037,-5.1229 23.3448,-13.0994 3.8931,-3.6788 12.7064,-10.5675 19.5852,-15.3083 l 12.5068,-8.6197 6.6295,-7.0275 c 3.6462,-3.8652 7.3187,-8.3605 8.1611,-9.9896 l 1.5318,-2.9621 -0.9964,-0.6157 c -1.616,-0.9988 -1.1446,-7.0265 0.9973,-12.751 l 1.9935,-5.3283 3.7565,-3.5959 c 2.066,-1.9777 5.3314,-4.0837 7.2564,-4.6799 1.925,-0.5962 4.85,-1.547 6.5,-2.1128 l 3,-1.0287 -9.5,0.4261 c -15.8216,0.7097 -20.7143,3.468 -34.4888,19.444 -3.8439,4.4582 -8.3439,9.1234 -10,10.3673 l -3.0112,2.2614 h -6.6008 -6.6009 l -6.8891,-3.5072 -6.8892,-3.5073 -1.2685,-2.6465 c -0.6976,-1.4556 -1.7424,-6.1773 -2.3216,-10.4927 l -1.0532,-7.8463 1.59,-10 c 0.8746,-5.5 1.9705,-12.2333 2.4355,-14.9629 l 0.8454,-4.9629 3.3762,-2.8729 c 1.8569,-1.5801 6.0129,-4.6844 9.2355,-6.8985 3.2226,-2.2142 7.5575,-5.7756 9.633,-7.9142 l 3.7737,-3.8886 h 2.9665 2.9665 l 4.0931,2.75 c 2.2512,1.5125 8.0895,6.1853 12.9741,10.384 l 8.881,7.634 3.9534,7.5742 3.9533,7.5743 -0.027,-7.8521 -0.027,-7.852 1.75,-1.9349 1.75,-1.9349 -0.022,-3.9213 c -0.052,-9.3193 -7.3611,-18.0272 -29.14,-34.7176 l -12.6618,-9.7037 h -2.9623 c -4.3309,0 -9.8765,2.2004 -17.7511,7.0432 -9.1251,5.6119 -18.9771,10.1338 -29.4559,13.5198 -9.1463,2.9555 -13.8408,5.2808 -18.3965,9.1125 l -2.8896,2.4304 -2.6104,-0.3029 -2.6103,-0.303 -0.2976,-2.5546 -0.2976,-2.5547 2.2089,-2.8081 c 1.2149,-1.5445 3.5988,-3.6557 5.2976,-4.6916 1.6988,-1.0359 2.6143,-1.8852 2.0345,-1.8872 -2.333,-0.01 -10.544,6.1491 -13.3315,9.9972 l -2.968,4.0971 -6.5872,20.4052 c -10.029,31.0666 -14.576,40.4388 -34.3775,70.8587 -7.2153,11.0844 -11.8907,20.0886 -27.5855,53.1262 l -9.4955,19.9881 7.1997,6.5114 c 3.9598,3.5812 11.2594,10.3366 16.2212,15.0118 34.2183,32.242 31.7091,30.6266 35.3392,22.7506 z"
           id="path12391" /><path
           style="fill:#f7c73b;fill-opacity:1"
           d="m 2447.4269,-2556.2033 c -12.0325,-11.1375 -24.9436,-22.95 -28.6913,-26.25 -3.7476,-3.3 -6.8163,-6.7424 -6.8192,-7.6496 -0.014,-4.3682 28.9461,-62.6869 38.1627,-76.8505 18.7639,-28.8351 22.7327,-37.0006 32.5125,-66.8911 l 7.6534,-23.3911 3.0977,-4.0614 c 4.0523,-5.3129 6.9082,-6.8838 24.0727,-13.2415 17.6871,-6.5513 23.7403,-9.5729 36.1491,-18.0451 11.64,-7.9472 18.6274,-11.347 23.3466,-11.3594 l 3.5,-0.01 6.0277,3.7494 c 8.3457,5.1913 32.0694,21.8517 37.2385,26.1514 5.0926,4.2361 8.625,9.3342 10.2686,14.8198 l 1.2049,4.0218 -1.2411,3.8782 c -2.4422,7.6315 -5.2671,13.378 -6.5764,13.378 h -1.3316 l -0.6295,-3.75 c -2.1565,-12.8463 -9.6048,-22.3161 -31.4611,-40.0002 -17.0229,-13.7733 -21.9535,-14.2196 -40.2841,-3.6465 -13.3892,7.7228 -22.7817,12.0441 -33.6484,15.4807 l -10.4324,3.2993 -4.4212,4.2362 -4.4211,4.2363 0.6989,1.1308 0.6989,1.1308 2.1547,-1.5611 c 5.9118,-4.2833 12.836,-7.7953 19.1547,-9.7153 8.723,-2.6505 23.8063,-9.5957 31.8802,-14.6794 3.3659,-2.1193 8.4576,-4.6256 11.3149,-5.5696 l 5.1952,-1.7163 3.5774,0.9878 c 6.7092,1.8525 35.2056,24.9084 40.3092,32.6134 l 3.1202,4.7108 1.1723,5.6465 1.1722,5.6465 -2.2723,4.2833 -2.2723,4.2834 0.153,8.0499 0.1529,8.05 -1.7492,-0.3369 c -0.9621,-0.1853 -3.176,-2.8059 -4.9198,-5.8236 -5.9526,-10.3008 -6.8411,-11.4019 -14.6248,-18.1241 -16.59,-14.3274 -16.8821,-14.4137 -24.931,-7.3636 -3.4529,3.0244 -9.2031,7.6778 -12.7781,10.3408 l -6.5,4.8419 -2.2876,10.9091 -2.2875,10.9091 0.3384,10 0.3385,10 1.6204,3.0483 1.6205,3.0483 4.8705,2.6508 c 2.6787,1.458 6.9956,3.1271 9.5929,3.7092 l 4.7225,1.0583 3.7184,-1.5536 3.7184,-1.5537 11.7666,-12.3642 11.7665,-12.3642 4.7508,-2.3013 4.7507,-2.3013 12.3357,-0.4118 12.3358,-0.4119 -0.3358,2.3736 -0.3357,2.3735 -4.6161,1.1396 c -10.9633,2.7064 -15.5023,6.939 -18.5364,17.2849 l -1.5908,5.4244 1.8539,1.3557 1.854,1.3557 -2.4065,4.5363 c -1.3236,2.4949 -5.2385,7.5951 -8.6998,11.3336 l -6.2933,6.7974 -11.8918,8.1537 c -6.5406,4.4846 -15.7861,11.7109 -20.5457,16.0586 l -8.6539,7.9048 -4.2368,1.5492 c -2.3302,0.8521 -10.0859,3.6389 -17.2348,6.1929 -7.1489,2.554 -17.0285,6.6168 -21.9546,9.0284 -9.9214,4.8572 -10.6534,5.0129 -13.8326,2.9424 l -2.2148,-1.4425 -6.1236,1.9899 c -10.1719,3.3054 -20.2975,10.3073 -18.0932,12.5116 0.3919,0.3919 4.582,-1.2049 9.3114,-3.5484 l 8.5989,-4.2609 4.6533,-0.1536 4.6532,-0.1536 0.2926,2.0445 0.2926,2.0445 -10.8278,21.9555 c -5.9554,12.0755 -12.2728,25.218 -14.0387,29.2055 -4.0565,9.1595 -1.3268,10.4884 -26.7029,-13 z"
           id="path12389" /><path
           style="fill:#000000"
           d="m 2831.1199,-2545.8127 c 11.7102,-7.0727 25.5662,-15.2431 30.7912,-18.1565 5.225,-2.9134 9.6148,-5.379 9.7552,-5.4791 0.1404,-0.1002 -2.3916,-5.7673 -5.6266,-12.5936 -9.3133,-19.6524 -15.6601,-36.4238 -24.9667,-65.9745 l -3.9566,-12.5631 -11.2171,-18.9369 c -6.1694,-10.4153 -14.3148,-23.9184 -18.101,-30.0069 l -6.8839,-11.07 -2.5019,-7.3559 c -4.1326,-12.1504 -8.3154,-15.7615 -29.2788,-25.2775 -14.1277,-6.413 -21.8254,-11.6227 -36.8764,-24.9576 -7.0983,-6.289 -14.0526,-12.1858 -15.454,-13.104 l -2.5481,-1.6696 -6.422,2.098 c -3.5322,1.1538 -10.6971,3.9311 -15.9221,6.1716 -5.225,2.2405 -15.9831,6.36 -23.9069,9.1543 l -14.4069,5.0806 -1.8512,2.5 c -1.7886,2.4154 -8.0755,18.0929 -7.4903,18.6781 0.1585,0.1585 2.2324,-3.3608 4.6087,-7.8207 5.4964,-10.3157 6.4835,-11.1187 20.7257,-16.8599 6.5015,-2.6209 17.6202,-7.1116 24.7081,-9.9793 l 12.8873,-5.2141 2.4874,1.1333 c 6.8101,3.1029 33.0134,21.5963 45.6754,32.2362 6.5729,5.5232 9.0435,6.9696 19.4715,11.4002 l 4.4087,1.8732 7.4675,8.5265 c 4.1072,4.6896 8.1745,10.0003 9.0384,11.8016 l 1.5709,3.2751 -2.0796,2.0796 -2.0796,2.0796 -1.9143,-0.6075 c -1.0528,-0.3342 -3.6196,-2.8438 -5.704,-5.5771 -5.1058,-6.6952 -15.3087,-16.0248 -17.5249,-16.0248 -3.117,0 -11.311,-4.9742 -19.5919,-11.8934 -11.71,-9.7844 -23.0953,-17.8813 -35.1353,-24.9871 l -7.1353,-4.2111 -19.9583,7.6116 c -10.977,4.1864 -21.2727,8.4109 -22.8792,9.3879 l -2.921,1.7764 -3.8705,7.4079 c -2.1288,4.0743 -4.9587,8.7084 -6.2887,10.2979 l -2.4182,2.89 0.6234,1.61 c 0.3429,0.8855 1.1216,3.7583 1.7306,6.384 l 1.1071,4.774 -2.0186,2.726 c -1.1102,1.4993 -3.9336,4.0225 -6.2741,5.6071 l -4.2556,2.8811 1.3469,0.8536 c 0.7407,0.4694 2.8538,0.8604 4.6956,0.8688 l 3.3488,0.015 2.8953,-3.0994 c 1.5924,-1.7046 6.1079,-8.2459 10.0345,-14.5361 3.9265,-6.2902 8.0917,-11.9697 9.2559,-12.621 l 2.1167,-1.1842 13.2065,-0.03 13.2065,-0.03 1.3199,-1.8045 1.3199,-1.8044 1.6764,0.6433 1.6764,0.6433 2.2972,6.0331 2.2972,6.033 5,5.7063 c 2.75,3.1384 6.35,7.3745 8,9.4135 l 3,3.7073 3.4934,-1.0355 c 1.9214,-0.5695 4.943,-1.0354 6.7148,-1.0354 h 3.2214 l 1.0906,2.0377 c 0.5998,1.1208 0.812,2.9156 0.4715,3.9884 l -0.6191,1.9505 -4.6863,1.3614 -4.6863,1.3614 -0.3076,4.7202 -0.3077,4.7202 4.365,-0.6546 4.3649,-0.6545 1.2753,1.5366 1.2753,1.5367 -0.6207,1.9558 c -0.6814,2.1468 -5.9088,7.0388 -15.45,14.4587 -3.4078,2.6501 -6.6338,5.9697 -7.1688,7.3769 l -0.9727,2.5584 -7.1098,-0.7006 c -3.9104,-0.3853 -10.4644,-1.3424 -14.5645,-2.1269 -4.1,-0.7845 -9.3794,-1.4264 -11.7318,-1.4264 h -4.2772 l -2.6348,-2.0725 c -1.4492,-1.14 -2.6349,-2.6431 -2.6349,-3.3404 0,-3.962 -13.7221,-23.2393 -18.3257,-25.7448 l -1.8257,-0.9936 1.1778,2.2007 c 1.9852,3.7094 5.9736,16.1618 5.9736,18.6505 v 2.3496 l -2.4029,0.9136 c -3.56,1.3535 -3.6624,1.9994 -1.603,10.1056 l 1.8879,7.4313 10.809,10.2964 c 5.9449,5.6629 14.9391,14.0334 19.987,18.6011 l 9.178,8.3048 7.822,4.0399 c 14.8351,7.6621 32.1612,13.1819 57.322,18.2617 l 10.5,2.1199 4.0835,2.3827 c 2.2459,1.3105 6.8148,5.3025 10.1531,8.8711 l 6.0695,6.4884 2.013,5.3801 c 1.1071,2.959 2.9499,10.6132 4.095,17.0093 2.3481,13.1151 7.1582,29.7447 8.6037,29.7447 0.2199,0 9.9809,-5.7868 21.691,-12.8594 z"
           id="path12387" /><path
           style="fill:#f7c73b;fill-opacity:1"
           d="m 2805.0444,-2536.2033 c -3.5438,-10.9116 -5.0651,-16.9628 -7.0732,-28.1341 l -1.9565,-10.884 -2.5917,-5.2972 c -5.9995,-12.2624 -16.2838,-19.5363 -31.8703,-22.5412 -16.4843,-3.1779 -32.3782,-7.6424 -43.9663,-12.3497 -18.1916,-7.3898 -20.9302,-9.3904 -47.9367,-35.0194 l -12.7614,-12.1106 -1.9886,-6.9537 c -1.0937,-3.8246 -1.9886,-8.1812 -1.9886,-9.6813 v -2.7275 l 3,-1.5514 c 1.65,-0.8532 3,-1.8929 3,-2.3103 0,-1.3099 -4.1022,-12.4979 -6.0945,-16.6214 -2.4754,-5.1235 -2.4155,-5.5683 0.7501,-5.5683 5.366,0 12.6425,7.8993 19.805,21.5 4.9473,9.3942 3.3834,8.6089 23.3155,11.7078 l 17.7239,2.7555 1,-1.7236 c 1.5477,-2.6675 7.2841,-8.0198 13.4242,-12.5255 6.9622,-5.1088 11.1207,-10.6266 7.5758,-10.0521 -0.55,0.089 -2.7083,0.4806 -4.7962,0.87 l -3.7963,0.7079 0.2963,-7.37 0.2962,-7.37 4.5,-1.0845 4.5,-1.0845 v -1.9155 -1.9155 l -2.5,0.1818 c -1.375,0.1 -4.5753,0.489 -7.1118,0.8645 l -4.6118,0.6827 -2.8699,-3.8645 c -1.5784,-2.1254 -5.1281,-6.4137 -7.8882,-9.5295 l -5.0183,-5.665 -2.3518,-6.1369 -2.3518,-6.1369 -1.3139,1.7969 -1.314,1.7969 -12.9901,-0.3306 -12.99,-0.3305 -1.9698,1.0542 c -1.0834,0.5798 -3.4644,3.4308 -5.2911,6.3356 -12.6315,20.086 -15.2023,23.3102 -19.4329,24.372 l -2.6758,0.6716 -3.7908,-1.1357 c -2.0849,-0.6247 -4.4035,-1.8741 -5.1525,-2.7765 l -1.3617,-1.6408 1.8829,-1.1046 c 1.0356,-0.6076 3.9575,-2.4583 6.4931,-4.1127 l 4.6102,-3.008 -0.1055,-4.492 c -0.058,-2.4706 -0.4535,-6.1735 -0.8788,-8.2288 l -0.7731,-3.7369 2.5281,-3.3145 c 1.3904,-1.823 4.1863,-6.5684 6.2131,-10.5454 2.0268,-3.977 4.7705,-7.9421 6.097,-8.8113 3.54,-2.3195 43.0173,-17.3551 45.5674,-17.3551 4.1127,0 28.4393,15.9453 43.3518,28.4156 8.7175,7.2898 12.3003,9.508 21.2475,13.1548 l 4.2475,1.7312 4.7862,5.0992 c 2.6324,2.8046 6.3088,7.0117 8.1698,9.3492 3.3771,4.2417 6.049,5.5002 6.049,2.8491 0,-1.7385 -7.3538,-11.5702 -13.1894,-17.6337 l -4.3642,-4.5346 -6.1493,-2.2422 c -6.1075,-2.2269 -8.2786,-3.6957 -27.0312,-18.2876 -11.7753,-9.1627 -31.9611,-22.7775 -34.8555,-23.5091 l -2.0896,-0.5282 -13.9104,5.6621 c -7.6507,3.1141 -18.4093,7.4508 -23.9079,9.6371 -12.1177,4.8181 -12.3247,4.9966 -17.6146,15.1895 -10.6558,20.5323 -14.9034,20.5017 -7.2151,-0.052 l 4.6728,-12.4922 2.6782,-2.6541 2.6782,-2.6541 10.399,-3.366 c 5.7194,-1.8512 14.674,-5.1614 19.899,-7.3559 5.225,-2.1944 14,-5.5979 19.5,-7.5632 l 10,-3.5732 2.5,0.6776 c 1.375,0.3726 9.3974,6.7418 17.8275,14.1538 16.8545,14.8188 21.5803,18.0176 37.7523,25.5536 21.0246,9.7973 24.9099,13.1825 29.0286,25.292 l 2.4104,7.0869 8.3225,13.5472 c 26.7151,43.4862 28.2922,46.5875 35.1112,69.0472 5.7398,18.9053 13.6106,39.0717 22.1931,56.8624 7.792,16.1522 8.925,13.3403 -9.6456,23.9379 -8.525,4.865 -23.0344,13.4251 -32.243,19.0225 -9.2087,5.5974 -17.3845,10.1772 -18.1685,10.1772 h -1.4254 z"
           id="path12385" /><path
           style="fill:#f7c73b;fill-opacity:1;stroke:none;stroke-width:1;stroke-linecap:round;stroke-linejoin:round;stroke-opacity:1;paint-order:stroke fill markers"
           d="m 2615.2061,-2680.5038 17.0581,-17.2413 v -3.1184 l -9.3545,2.0178 -5.1357,5.8695 -3.485,6.9699 z"
           id="path37483" /><path
           style="fill:#f7c73b;fill-opacity:1;stroke:none;stroke-width:1;stroke-linecap:round;stroke-linejoin:round;stroke-opacity:1;paint-order:stroke fill markers"
           d="m 2651.3398,-2684.5389 4.4021,-2.7514 -6.6032,-19.0757 -6.603,2.0177 -2.0176,4.4022 5.1358,10.088 z"
           id="path37485" /><path
           style="fill:#f7c73b;fill-opacity:1;stroke:none;stroke-width:1;stroke-linecap:round;stroke-linejoin:round;stroke-opacity:1;paint-order:stroke fill markers"
           d="m 2643.2694,-2737.1807 2.2456,11.3093 -12.3337,7.7666 0.7337,-10.2716 4.7689,-6.7866 z"
           id="path37487"
           sodipodi:nodetypes="cccccc" /><path
           style="fill:#f7c73b;fill-opacity:1;stroke:none;stroke-width:1;stroke-linecap:round;stroke-linejoin:round;stroke-opacity:1;paint-order:stroke fill markers"
           d="m 2621.9926,-2737.1807 3.485,11.5557 0.9171,9.171 -7.7036,1.4673 -0.3669,-15.9575 z"
           id="path37489" /></g></g></g></svg>
