<?xml version="1.0" encoding="UTF-8" standalone="no"?>
<!-- Created with Inkscape (http://www.inkscape.org/) -->

<svg
   width="587.94067mm"
   height="500mm"
   viewBox="0 0 587.94067 500"
   version="1.1"
   id="svg5"
   xml:space="preserve"
   xmlns:inkscape="http://www.inkscape.org/namespaces/inkscape"
   xmlns:sodipodi="http://sodipodi.sourceforge.net/DTD/sodipodi-0.dtd"
   xmlns="http://www.w3.org/2000/svg"
   xmlns:svg="http://www.w3.org/2000/svg"><sodipodi:namedview
     id="namedview7"
     pagecolor="#ffffff"
     bordercolor="#000000"
     borderopacity="0.25"
     inkscape:showpageshadow="2"
     inkscape:pageopacity="0.0"
     inkscape:pagecheckerboard="0"
     inkscape:deskcolor="#d1d1d1"
     inkscape:document-units="mm"
     showgrid="false"
     showguides="false" /><defs
     id="defs2" /><g
     inkscape:groupmode="layer"
     id="layer21"
     inkscape:label="T"
     transform="translate(-2648.3708,4288.8862)"><g
       id="g40127"
       inkscape:label="T"><rect
         style="fill:#cccccc;fill-opacity:1;stroke:#1a1a1a;stroke-width:20;stroke-linecap:round;stroke-linejoin:round;stroke-dasharray:none;stroke-opacity:1;paint-order:stroke fill markers"
         id="rect38211-4-8-4"
         width="567.94067"
         height="480"
         x="2658.3708"
         y="-4278.8862"
         rx="48.766338"
         ry="48.766338" /><g
         id="g39184"
         transform="translate(-1964.5597,-2302.9331)"><path
           style="fill:#ffffff"
           d="m 4971.9586,-1553.0384 c -8.8318,-6.655 -12.5694,-10.9146 -14.6207,-16.6629 l -1.339,-3.752 -0.096,-14 -0.096,-14 -5.6975,-4.6935 c -3.1337,-2.5815 -10.9109,-9.5565 -17.2827,-15.5 l -11.5852,-10.8065 -25.3031,-17 c -13.9167,-9.35 -27.2855,-18.743 -29.7083,-20.8732 -2.4229,-2.1303 -4.5124,-3.7053 -4.6434,-3.5 -4.6806,7.3323 -17.0054,19.1901 -25.5288,24.5615 -12.5239,7.8925 -14.0129,9.8888 -30.2824,40.599 -4.6,8.6829 -9.2909,16.9545 -10.4242,18.3812 l -2.0605,2.594 -2.6744,-1.4013 c -3.9704,-2.0803 -38.759,-34.8566 -45.8176,-43.1674 -3.3605,-3.9566 -10.5652,-11.4688 -16.0106,-16.6938 l -9.9006,-9.5 0.026,-2.5 c 0.032,-3.0867 6.0882,-14.3702 14.5816,-27.1687 l 6.4164,-9.6687 v -2.3313 c -0.01,-6.0477 -8.8688,-33.4055 -14.7208,-45.4432 -4.2689,-8.7812 -4.3974,-9.8637 -2.2958,-19.3363 2.6499,-11.9442 5.0191,-30.9952 5.0191,-40.3591 v -7.8904 l 1.6261,-3.4268 1.6261,-3.4267 -1.5975,-4.2244 c -0.8786,-2.3234 -2.0901,-6.5517 -2.6922,-9.3962 l -1.0947,-5.1719 1.5867,-3.0683 1.5867,-3.0684 3.9396,-2.0098 c 2.1667,-1.1054 5.6909,-2.0098 7.8315,-2.0098 h 3.8919 l 3.3979,2.265 3.3979,2.265 4.2152,8.485 c 4.522,9.1026 8.4592,21.9904 10.3333,33.8242 l 1.1623,7.3393 5.3961,-9.001 c 2.9678,-4.9506 10.4579,-15.749 16.6446,-23.9965 6.1867,-8.2474 16.4235,-23.6394 22.7485,-34.2043 l 11.5,-19.2089 7.5142,-8.1339 c 4.1328,-4.4737 11.51,-12.7668 16.3939,-18.4292 4.8839,-5.6624 10.696,-11.8499 12.9158,-13.75 l 4.0361,-3.4547 h 4.1721 4.1721 l 3.3979,2.2699 c 1.8689,1.2485 4.2063,3.836 5.1944,5.75 l 1.7966,3.4801 -0.5752,3.855 c -0.6972,4.6732 -1.9802,7.259 -9.9951,20.145 -7.0576,11.3469 -29.2601,52.6844 -31.9577,59.5 -2.0029,5.0605 -4.5089,13 -4.1032,13 0.1463,0 1.5554,-1.9125 3.1313,-4.25 8.1284,-12.0571 14.7755,-20.2873 24.4312,-30.25 5.8636,-6.05 12.6154,-13.7 15.0039,-17 5.8139,-8.0326 29.3528,-32.0578 34.9175,-35.6389 l 4.4458,-2.8611 h 4.8013 4.8013 l 4.1078,3.7111 4.1078,3.7112 -0.4616,6.0388 -0.4616,6.0389 4.316,4.6636 c 6.5659,7.0949 7.0753,15.1644 1.6057,25.4411 -1.4896,2.7986 -5.5784,10.67 -9.0862,17.4919 -3.5079,6.8219 -10.0582,18.0284 -14.5564,24.9034 l -8.1785,12.5 -5.1762,4.3286 -5.1762,4.3285 -1.0205,3.6715 c -0.5612,2.0193 -2.337,6.0471 -3.9461,8.9508 l -2.9256,5.2793 6.1787,-4.8943 c 32.2096,-25.5142 50.1552,-31.7393 57.1398,-19.821 l 2.5389,4.3323 v 4.0273 4.0273 l -2.25,2.875 c -2.5582,3.2688 -5.8647,6.2716 -13.75,12.4869 -3.025,2.3843 -9.8747,8.4722 -15.2216,13.5287 l -9.7217,9.1935 -5.7641,1.9214 -5.7641,1.9214 -0.7247,4.2451 c -1.2778,7.4853 -9.3973,21.62 -23.6676,41.2017 l -1.3638,1.8714 1.3638,0.3589 c 0.7501,0.1974 5.4104,1.3362 10.3561,2.5306 l 8.9924,2.1717 8.9352,4.9827 c 4.9144,2.7405 12.9879,6.363 17.9412,8.05 9.6333,3.2811 15.5955,6.8162 25.1082,14.8873 l 5.9694,5.0647 13.4725,6.938 13.4725,6.9379 1.3543,-1.9335 c 2.2761,-3.2497 9.4196,-6.7565 16.262,-7.9833 l 6.5,-1.1655 4.9486,0.6534 c 2.7218,0.3593 6.205,1.3954 7.7405,2.3025 l 2.7918,1.6491 4.7595,-1.29 c 2.6178,-0.7095 7.9333,-1.5372 11.8123,-1.8394 l 7.0527,-0.5493 4.9473,2.6432 4.9473,2.6432 5.5858,-0.6244 5.5858,-0.6244 2.9142,1.5233 c 1.6028,0.8379 7.5267,6.2224 13.1642,11.9657 l 10.25,10.4423 v 2.559 2.5591 l -22.7209,17.3359 c -12.4965,9.5348 -24.1943,18.4609 -25.9951,19.8359 -50.7579,38.7566 -52.6657,40 -61.3717,40 h -4.7892 l -8.0756,-6.0851 z"
           id="path12011" /><path
           style="fill:#1a1a1a"
           d="m 4990.3973,-1550.0711 3.9862,-1.1066 23.0138,-17.4242 c 12.6576,-9.5833 25.9388,-19.6858 29.5138,-22.45 3.575,-2.7642 14.15,-10.8293 23.5,-17.9224 9.35,-7.093 18.3465,-13.9946 19.9921,-15.3367 l 2.9921,-2.4402 -10.4921,-10.6883 c -5.7706,-5.8786 -11.6229,-11.2804 -13.0049,-12.0041 l -2.5128,-1.3157 -5.1604,1.0203 -5.1604,1.0204 -5.6555,-3.2358 -5.6554,-3.2357 -5.1714,0.6621 c -2.8442,0.3642 -7.785,1.3841 -10.9796,2.2666 l -5.8083,1.6044 -4.5677,-2.2813 -4.5678,-2.2812 -8.3441,0.5206 -8.3441,0.5206 -4.4379,2.6007 c -2.4408,1.4305 -5.3252,3.8189 -6.4097,5.3078 l -1.9719,2.7069 -13.3701,-6.8467 c -14.708,-7.5317 -17.2953,-9.1361 -23.7434,-14.7234 -7.646,-6.6253 -14.4236,-10.5427 -23.6517,-13.6705 -4.9362,-1.6731 -13.025,-5.2906 -17.975,-8.0388 l -9,-4.9968 -8.1666,-2.0571 c -4.4917,-1.1314 -9.3433,-2.0571 -10.7814,-2.0571 h -2.6148 l -0.5594,-1.4579 -0.5595,-1.4579 4.4531,-5.7921 c 12.376,-16.0973 21.0767,-31.363 22.3251,-39.1703 l 0.6865,-4.2932 1.6085,-0.5385 c 0.8847,-0.2961 4.0835,-1.6277 7.1085,-2.9589 l 5.5,-2.4205 8,-7.8131 c 4.4,-4.2973 11.3316,-10.4647 15.4036,-13.7054 10.0711,-8.0152 11.6251,-9.4584 13.6082,-12.6378 l 1.7124,-2.7456 -0.623,-3.3208 -0.623,-3.3209 -3.374,-3.6836 -3.3739,-3.6835 h -3.4457 c -5.5745,0 -22.7955,10.0299 -43.3534,25.25 -14.2542,10.5532 -15.1409,10.2452 -8.5601,-2.9739 2.1291,-4.2769 4.1426,-8.9334 4.4743,-10.3479 l 0.6033,-2.5718 5.0719,-4.2768 5.072,-4.2767 7.8617,-11.7346 c 4.3239,-6.4541 10.3339,-16.6472 13.3555,-22.6515 3.0217,-6.0042 7.0916,-13.5547 9.0444,-16.7789 6.9902,-11.5411 6.9811,-19.3552 -0.031,-26.3669 l -4.3692,-4.3693 0.6432,-6.2787 0.6433,-6.2788 -3.8483,-3.1721 -3.8483,-3.1721 h -3.6326 -3.6326 l -3.8896,2.6259 c -5.2619,3.5525 -30.7419,30.067 -36.2453,37.717 -2.4362,3.3864 -9.6838,11.5571 -16.1057,18.1571 -6.422,6.6 -14.0813,15.6 -17.0208,20 -11.652,17.4414 -14.9223,17.7444 -9.4722,0.8776 l 2.5455,-7.8776 12.8029,-24 c 7.0416,-13.2 15.9512,-29.0215 19.799,-35.1588 3.8479,-6.1374 7.5581,-13.166 8.2449,-15.6192 l 1.2489,-4.4604 -1.6419,-3.175 c -2.0403,-3.9454 -7.0202,-7.0779 -11.26,-7.0829 h -3.2152 l -3.7059,3.25 c -2.0382,1.7875 -7.3413,7.5596 -11.7848,12.8268 -4.4434,5.2673 -11.9039,13.8607 -16.5789,19.0964 l -8.5,9.5197 -11.4108,19.1479 c -6.2759,10.5313 -16.5105,25.9372 -22.7436,34.2352 -6.233,8.298 -13.6981,19.3157 -16.5892,24.4838 l -5.2564,9.3965 -1.6245,0.022 -1.6246,0.022 -1.6291,-10.4599 c -2.6939,-17.2969 -8.6895,-34.1308 -14.5218,-40.7735 l -3.1838,-3.6261 -3.0242,-0.6642 -3.0241,-0.6642 -3.1839,1.2558 c -1.7512,0.6907 -4.1965,2.1614 -5.434,3.2683 l -2.25,2.0124 v 3.2606 c 0,1.7933 0.4101,4.3393 0.9113,5.6576 0.5013,1.3184 1.578,4.6416 2.3926,7.3849 l 1.4813,4.9879 -1.8587,3.9302 -1.8586,3.9302 -0.034,8.5415 c -0.039,9.7515 -2.4465,29.7517 -4.5871,38.1028 -2.0124,7.8511 -1.8694,9.2724 1.6868,16.7589 5.9476,12.5205 15.8664,43.2709 15.8664,49.1889 0,0.9253 -3.2629,6.5706 -7.2508,12.5452 -3.9879,5.9745 -8.9991,14.1949 -11.1359,18.2676 l -3.8852,7.405 10.4688,10.095 c 5.7578,5.5523 12.9064,12.9907 15.8859,16.5298 5.4541,6.4785 40.9846,40.4398 44.0792,42.1324 l 1.6619,0.909 4.45,-7.738 c 2.4476,-4.256 6.8181,-12.2381 9.7124,-17.7381 12.7725,-24.2717 15.0808,-27.2221 27.2663,-34.8508 7.4363,-4.6555 16.6534,-13.1855 22.4234,-20.7516 4.5538,-5.9713 5.29,-6.0126 11.2736,-0.6328 2.6089,2.3456 16.1013,11.899 29.9831,21.2298 l 25.2396,16.9649 9.1876,8.5203 c 7.7199,7.1591 23.922,21.5825 25.6401,22.8253 0.275,0.1989 0.5,7.2218 0.5,15.6065 v 15.2448 l 3.0314,4.9033 c 4.3289,7.0022 18.7053,18.2679 23.4686,18.3905 0.825,0.021 3.2938,-0.4593 5.4862,-1.068 z"
           id="path12013" /><path
           style="fill:#000000"
           d="m 4809.8601,-1636.2708 c 6.9237,-11.7221 10.0288,-15.0363 18.0236,-19.2374 l 6.7657,-3.5553 5.8808,-5.7547 c 3.2345,-3.165 8.1108,-8.5095 10.8363,-11.8766 l 4.9554,-6.122 -0.2714,-4.4131 -0.2714,-4.4131 2.5631,-3.046 c 1.4096,-1.6753 3.6129,-3.3095 4.8961,-3.6316 l 2.333,-0.5855 6.4759,-8.2736 c 8.57,-10.949 15.8747,-21.8662 19.6912,-29.4293 l 3.1063,-6.1558 -1.4668,-0.5629 c -4.2552,-1.6329 0.6025,-7.0216 8.3009,-9.2082 l 5.7323,-1.6282 11.1882,-11.5805 c 6.1535,-6.3693 15.1535,-14.5344 20,-18.1446 l 8.8118,-6.5641 0.294,-2.0552 0.294,-2.0551 -2.0037,-1.8134 -2.0037,-1.8133 -2.3582,0.5918 c -6.353,1.5945 -43.9886,27.1254 -52.8552,35.8553 -7.727,7.608 -12.8517,6.0704 -12.8635,-3.8596 v -3.1495 l 3.4596,-5.141 c 4.6046,-6.8424 8.0282,-13.3794 10.4908,-20.0313 l 2.0256,-5.4713 5.6498,-5.5287 c 6.714,-6.5701 17.9616,-23.801 24.1566,-37.0072 2.4455,-5.2131 6.3575,-12.4131 8.6932,-16 2.3358,-3.5868 4.5478,-7.481 4.9156,-8.6538 l 0.6688,-2.1322 -2.1243,-5.6777 -2.1243,-5.6777 -4.6102,7.7468 c -6.737,11.3205 -20.6141,30.018 -32.4513,43.7237 -3.8711,4.4822 -10.9009,12.9869 -15.6219,18.8994 l -8.5836,10.75 h -2.581 c -1.4196,0 -3.438,-0.6266 -4.4853,-1.3924 l -1.9042,-1.3923 3.7103,-5.5881 c 2.0406,-3.0734 7.874,-10.3798 12.963,-16.2364 34.0477,-39.1833 52.7317,-68.48 46.9881,-73.6778 l -1.7646,-1.597 -3.3151,1.6055 c -3.3614,1.628 -23.5212,22.3868 -33.2895,34.2785 -2.9367,3.575 -10.9704,12.3581 -17.8527,19.5179 -6.8824,7.1599 -14.7421,16.1599 -17.466,20 -13.4889,19.0161 -16.9313,21.5442 -21.6288,15.884 -0.6399,-0.7711 -2.4584,-1.4019 -4.041,-1.4019 h -2.8776 v -2.0352 c 0,-1.1193 0.6487,-3.0318 1.4416,-4.25 0.7929,-1.2181 3.7295,-8.2898 6.5257,-15.7148 l 5.0842,-13.5 10.0596,-18.5 c 5.5329,-10.175 13.3787,-23.5508 17.4352,-29.7241 4.0565,-6.1732 8.1119,-12.6481 9.012,-14.3886 l 1.6364,-3.1645 -1.0478,-2.2997 c -0.5763,-1.2648 -1.9079,-2.76 -2.9592,-3.3226 l -1.9114,-1.023 -1.6166,1.2112 c -0.8891,0.6662 -5.1138,5.5435 -9.3881,10.8385 -4.2744,5.2949 -12.2716,14.581 -17.7716,20.6357 l -10,11.0085 -6.3901,10.8643 c -3.5146,5.9754 -8.4646,14.3973 -11,18.7154 -2.5355,4.3181 -8.2099,12.5667 -12.6099,18.3302 -11.1043,14.5455 -17.1883,23.4913 -22.8709,33.629 l -4.8708,8.6897 h -1.5634 c -2.1235,0 -9.7522,-3.7617 -11.2232,-5.5341 -0.6546,-0.7887 -1.6051,-5.1433 -2.1123,-9.6769 -2.8543,-25.5117 -12.3788,-45.517 -19.2712,-40.4771 l -1.7941,1.3118 2.603,8.2398 c 3.0585,9.6821 3.2306,12.7854 0.8543,15.4112 l -1.7486,1.9321 0.2683,8.1466 c 0.4521,13.7307 -3.0253,35.8815 -7.1723,45.6858 l -0.651,1.5391 3.1042,4.6865 c 6.0826,9.183 12.0793,28.1494 13.8469,43.7947 l 0.9536,8.4405 -0.9913,4.6668 c -0.5452,2.5668 -2.4603,7.0668 -4.2558,10 -1.7955,2.9333 -5.8839,9.5931 -9.0852,14.7996 l -5.8205,9.4665 6.417,6.0335 c 3.5293,3.3185 9.3344,9.3643 12.9001,13.4352 3.5658,4.0709 14.7123,15.1591 24.7701,24.6406 l 18.2869,17.239 7.3567,-14.1797 c 4.0462,-7.7989 9.6795,-18.1124 12.5185,-22.919 z"
           id="path12025" /><path
           style="fill:#f7c73b;fill-opacity:1"
           d="m 4768.6971,-1615.7348 c -11.3927,-10.8452 -23.3646,-22.8804 -26.6043,-26.7449 -3.2397,-3.8645 -8.2059,-9.1082 -11.036,-11.6527 -6.9693,-6.266 -6.8303,-7.0311 4.409,-24.2737 3.041,-4.6653 6.4711,-10.6119 7.6223,-13.2144 l 2.0932,-4.732 -0.5553,-8.5713 c -0.9313,-14.3742 -7.1259,-34.7614 -13.6526,-44.9324 -3.6855,-5.7434 -3.669,-5.3082 -0.5863,-15.4507 1.3618,-4.4805 3.1539,-13.5622 3.9824,-20.1815 l 1.5065,-12.0351 -0.6059,-6.4882 -0.6059,-6.4882 2.0113,-3.7527 2.0113,-3.7526 -0.8402,-3.7241 c -0.4622,-2.0482 -1.5367,-5.6931 -2.3879,-8.0997 -0.8512,-2.4067 -1.5476,-5.6921 -1.5476,-7.3011 v -2.9253 l 3.5734,-1.493 c 9.1178,-3.8097 18.2888,14.0836 21.4573,41.8642 1.0187,8.9315 1.5013,9.7956 6.988,12.5102 l 3.8974,1.9283 6.1684,-10.7768 c 3.3927,-5.9272 8.4855,-13.849 11.3175,-17.6038 2.8319,-3.7549 7.889,-10.427 11.2378,-14.827 5.5577,-7.3021 9.7895,-14.0739 23.9751,-38.3651 l 4.8851,-8.3652 11.5,-12.6487 c 6.325,-6.9568 13.2743,-14.8925 15.4428,-17.6348 2.1685,-2.7424 5.7497,-6.8987 7.9582,-9.2362 l 4.0154,-4.25 h 2.3373 c 1.2854,0 3.4418,1.1045 4.7918,2.4545 l 2.4545,2.4546 v 3.0951 c 0,3.8732 -1.56,6.899 -10.2041,19.7924 -12.1781,18.1647 -26.3095,44.9177 -32.7736,62.0458 -2.7233,7.2159 -5.6941,14.2533 -6.6019,15.6387 l -1.6504,2.5189 h 2.7862 c 1.5325,0 3.577,0.7156 4.5434,1.5901 l 1.7571,1.5902 1.8216,-0.5821 c 1.002,-0.3201 5.8717,-6.0921 10.8217,-12.8267 4.95,-6.7347 14.4166,-17.8758 21.0368,-24.7582 6.6202,-6.8823 14.4825,-15.4383 17.4717,-19.0133 24.591,-29.41 37.3759,-39.6527 42.4693,-34.0245 l 1.7878,1.9755 -0.5082,4.5088 -0.5082,4.5088 -8.6602,14.468 -8.6603,14.468 -11.1382,13.7977 c -6.126,7.5887 -14.1557,17.1727 -17.8437,21.2977 -3.6881,4.125 -9.0258,10.6232 -11.8616,14.4404 l -5.156,6.9405 1.7075,0.9555 1.7075,0.9556 3.0779,-3.896 c 1.6928,-2.1428 8.7029,-10.6481 15.5779,-18.9007 21.7874,-26.1532 31.6307,-39.3419 40.2676,-53.9531 l 2.7676,-4.6821 1.7324,0.32 1.7324,0.3199 2.2088,4.5 c 1.2148,2.475 2.2273,6.1059 2.25,8.0687 l 0.041,3.5688 -4.0433,6.4312 c -2.2238,3.5372 -6.1223,10.7063 -8.6634,15.9313 -2.5411,5.225 -8.5812,15.8043 -13.4224,23.5095 l -8.8021,14.0095 -4.4339,3.7062 -4.4339,3.7063 -2.6249,6.8693 c -1.4437,3.7782 -4.162,9.3061 -6.0406,12.2843 -1.8787,2.9782 -4.3769,7.1516 -5.5517,9.2742 l -2.1359,3.8592 1.2062,2.9122 c 1.7993,4.3437 2.4784,4.3217 7.158,-0.2316 9.7655,-9.5018 45.7711,-33.9057 54.5296,-36.9589 l 3.1165,-1.0864 2.0606,1.1027 c 1.1333,0.6065 2.7386,2.4142 3.5675,4.0169 l 1.5069,2.9142 -0.9268,2.4377 -0.9268,2.4377 -8.4823,6.1235 -8.4824,6.1235 -10.0685,10.8273 c -10.0642,10.8228 -12.3945,12.53 -21.4129,15.6881 l -4.8066,1.6832 0.634,2.8866 0.634,2.8866 -2.5055,5.4728 c -3.296,7.1994 -10.2142,17.8149 -19.2933,29.6041 l -7.3613,9.5587 -3.8377,1.6932 -3.8378,1.6932 -1.1855,2.6019 -1.1855,2.6019 0.6376,3.3983 0.6375,3.3984 -5.6955,6.9615 c -8.131,9.9385 -17.1176,18.0218 -24.2536,21.8157 l -6.1723,3.2814 -3.6281,4.2186 c -3.9493,4.5921 -15.4446,24.478 -23.1042,39.9685 -6.0007,12.1356 -3.2445,13.138 -27.5837,-10.0315 z"
           id="path12023" /><path
           style="fill:#000000"
           d="m 5000.5844,-1562.288 c 4.2082,-3.4756 33.9719,-26.1395 57.8267,-44.0327 11.55,-8.6635 22.3286,-16.7689 23.9524,-18.012 l 2.9523,-2.2602 -3.9523,-3.5411 c -2.1738,-1.9476 -6.6498,-5.8887 -9.9467,-8.7579 l -5.9943,-5.2167 -3.0057,0.6144 c -1.6531,0.3378 -4.1307,0.8469 -5.5057,1.1313 l -2.5,0.517 -5.465,-3.5528 c -3.0057,-1.9541 -6.1557,-3.3551 -7,-3.1133 -0.8442,0.2418 -3.4712,0.9402 -5.8377,1.5519 -2.3666,0.6118 -5.1791,1.9886 -6.25,3.0595 -2.4536,2.4536 -5.9836,2.4881 -9.0624,0.089 -4.3461,-3.3871 -8.7354,-5.1414 -12.8638,-5.1414 h -4.0781 l -6.2215,3.1185 c -3.4218,1.7152 -6.3905,3.2717 -6.5971,3.4589 -0.2065,0.1872 1.031,1.5239 2.75,2.9704 l 3.1256,2.63 v 3.4111 3.4111 h -2.2909 c -1.26,0 -5.8725,-2.2834 -10.25,-5.0743 -4.3775,-2.7908 -13.1341,-7.6911 -19.4591,-10.8895 l -11.5,-5.8151 -8.7584,-7.0733 c -10.8995,-8.8025 -15.7093,-11.6448 -22.8538,-13.5052 -6.1835,-1.6101 -11.3368,-4.0406 -19.1988,-9.055 -2.854,-1.8202 -6.1781,-3.62 -7.387,-3.9994 l -2.198,-0.69 -1.5307,2.9601 -1.5307,2.96 -4.2713,1.4992 c -2.3492,0.8246 -5.7748,1.8779 -7.6124,2.3408 l -3.3411,0.8417 24.2331,15.9761 24.2332,15.976 11.6079,10.4057 c 6.3844,5.7232 16.8469,14.8288 23.25,20.2348 l 11.642,9.8291 4.0313,7.4738 c 5.1575,9.5616 22.1361,35.6045 23.2123,35.6045 0.4504,0 2.091,-1.0506 3.6457,-2.3347 z"
           id="path12021" /><path
           style="fill:#f7c73b;fill-opacity:1"
           d="m 4991.1932,-1562.7033 c -5.4166,-7.7714 -18.515,-28.8259 -21.1666,-34.0235 l -2.1461,-4.2068 -9.1873,-7.7599 c -5.0529,-4.2679 -15.2836,-13.1877 -22.7346,-19.8217 l -13.5475,-12.062 -16.5,-11.0437 c -9.075,-6.074 -20.9057,-13.8666 -26.2903,-17.317 -11.2057,-7.1802 -11.4404,-8.0378 -2.6795,-9.7918 3.5064,-0.702 7.73,-2.0675 9.3856,-3.0345 l 3.0103,-1.758 0.5808,-2.4603 c 1.087,-4.6046 3.4398,-3.9575 18.5553,5.1036 4.4342,2.6581 10.2323,5.3193 12.8847,5.9137 7.7135,1.7286 14.3934,5.4318 24.4347,13.5461 l 9.3817,7.5811 10.6218,5.3271 c 5.842,2.9298 14.6661,7.8663 19.6092,10.9698 l 8.9874,5.6428 0.4011,-1.2034 c 0.2206,-0.6618 -1.2378,-2.7052 -3.2408,-4.5409 -2.0031,-1.8357 -3.642,-4.0009 -3.642,-4.8116 v -1.474 l 7.1736,-3.6125 7.1736,-3.6126 h 5.6038 5.6037 l 4.1545,2.1655 c 2.285,1.191 4.6903,2.811 5.3451,3.6 1.5583,1.8775 3.628,1.8246 4.7166,-0.1207 1.0186,-1.82 7.7034,-4.2947 13.595,-5.0327 l 4.1341,-0.5179 2.6247,1.8029 c 1.4436,0.9916 3.7718,2.6197 5.1738,3.618 l 2.5491,1.8151 3.0265,-1.5651 c 5.7115,-2.9535 8.2986,-1.5964 22.9579,12.0433 l 6.332,5.8916 -0.6399,1.6221 c -0.3519,0.8921 -2.7513,3.1256 -5.332,4.9633 -6.5202,4.6432 -60.386,45.4594 -73.3592,55.5871 -12.686,9.9035 -12.4671,9.8713 -17.5508,2.5775 z"
           id="path12019" /><path
           style="fill:#000000"
           d="m 4986.8386,-1559.0953 c -1.1622,-2.2782 -4.0155,-6.2157 -6.3406,-8.75 -5.2192,-5.6888 -8.1094,-9.8229 -12.2952,-17.5868 l -3.2463,-6.0212 -0.023,8.4121 -0.023,8.4122 2.4023,4.0878 c 1.3212,2.2484 3.8809,5.2129 5.6882,6.5879 7.8541,5.9755 12.53,8.9317 14.1798,8.9646 l 1.7703,0.035 -2.1131,-4.142 z"
           id="path12017" /><path
           style="fill:#f7c73b;fill-opacity:1"
           d="m 4978.4111,-1556.6034 c -6.6271,-4.7723 -12.3514,-10.2532 -14.0144,-13.4187 l -1.3495,-2.5687 -0.3181,-11.831 -0.318,-11.831 1.1672,-0.406 1.1673,-0.406 4.7892,8.7859 c 2.6341,4.8323 7.6124,12.2828 11.0629,16.5568 6.9588,8.6193 10.7337,15.2312 9.9146,17.3658 l -0.5384,1.403 -3.2814,-0.025 -3.2814,-0.025 -5,-3.6005 z"
           id="path12015" /><path
           style="fill:#f7c73b;fill-opacity:1;stroke:none;stroke-width:1;stroke-linecap:round;stroke-linejoin:round;stroke-opacity:1;paint-order:stroke fill markers"
           d="m 4867.1485,-1678.754 12.5642,-3.1181 7.887,-2.5679 0.917,-5.5026 -5.7777,-2.3844 h -10.8217 l -8.7124,2.6595 -0.5504,5.2275 z"
           id="path38084" /></g></g></g></svg>
