<?xml version="1.0" encoding="UTF-8" standalone="no"?>
<!-- Created with Inkscape (http://www.inkscape.org/) -->

<svg
   width="587.94067mm"
   height="500mm"
   viewBox="0 0 587.94067 500"
   version="1.1"
   id="svg5"
   xml:space="preserve"
   xmlns:inkscape="http://www.inkscape.org/namespaces/inkscape"
   xmlns:sodipodi="http://sodipodi.sourceforge.net/DTD/sodipodi-0.dtd"
   xmlns="http://www.w3.org/2000/svg"
   xmlns:svg="http://www.w3.org/2000/svg"><sodipodi:namedview
     id="namedview7"
     pagecolor="#ffffff"
     bordercolor="#000000"
     borderopacity="0.25"
     inkscape:showpageshadow="2"
     inkscape:pageopacity="0.0"
     inkscape:pagecheckerboard="0"
     inkscape:deskcolor="#d1d1d1"
     inkscape:document-units="mm"
     showgrid="false"
     showguides="false" /><defs
     id="defs2" /><g
     inkscape:groupmode="layer"
     id="layer22"
     inkscape:label="U"
     transform="translate(-3386.865,4288.8862)"><g
       id="g40114"
       inkscape:label="U"><rect
         style="fill:#cccccc;fill-opacity:1;stroke:#1a1a1a;stroke-width:20;stroke-linecap:round;stroke-linejoin:round;stroke-dasharray:none;stroke-opacity:1;paint-order:stroke fill markers"
         id="rect38211-4-8-57"
         width="567.94067"
         height="480"
         x="3396.865"
         y="-4278.8862"
         rx="48.766338"
         ry="48.766338" /><g
         id="g39196"
         transform="translate(-1791.9068,-2302.9256)"><path
           style="fill:#ffffff"
           d="m 5312.2206,-1565.225 c -1.6935,-1.2494 -13.5935,-12.1923 -26.4443,-24.3176 -12.8509,-12.1252 -28.92,-27.1514 -35.7092,-33.3914 -15.715,-14.4439 -15.7461,-13.6417 1.5237,-39.346 3.0203,-4.4953 6.1321,-9.3966 6.9152,-10.8918 l 1.4239,-2.7185 -2.0406,-9.2815 c -2.9539,-13.4361 -4.1814,-16.9781 -14.3866,-41.5116 l -2.5916,-6.2302 -0.01,-4.7698 c 0,-2.6235 0.868,-8.8199 1.9374,-13.7699 2.9327,-13.5753 5.2407,-29.8904 4.5009,-31.818 -0.3613,-0.9418 -0.1361,-5.2752 0.5006,-9.6298 l 1.1577,-7.9173 -1.4494,-5.8175 c -0.7972,-3.1996 -1.7364,-7.8978 -2.0871,-10.4405 l -0.6377,-4.6231 2.6619,-3.1635 c 5.1066,-6.0688 14.1563,-7.7561 22.1462,-4.1291 l 4.2236,1.9174 3.3421,5.3107 c 5.9241,9.4137 9.9255,21.6982 12.9673,39.8107 l 1.2595,7.5 4.7248,-8 c 4.8003,-8.1277 8.2465,-13.1044 21.9034,-31.6303 4.2044,-5.7033 12.6776,-18.688 18.8294,-28.8548 11.2332,-18.5647 13.7151,-21.9163 28.5208,-38.5149 4.4154,-4.95 10.8652,-12.4504 14.333,-16.6675 l 6.3051,-7.6675 3.3348,-1.5825 c 6.9021,-3.2753 14.2589,-1.43 18.9809,4.7608 l 2.5517,3.3455 v 4.1085 c 0,5.4968 -0.9264,7.427 -11.2621,23.4642 -11.759,18.2456 -46.4423,86.5455 -36.9468,72.7571 8.5024,-12.3463 18.3125,-24.2253 27.2641,-33.0142 5.8845,-5.7774 13.182,-13.7522 16.2168,-17.7217 3.0348,-3.9696 11.7526,-13.7709 19.3729,-21.7807 l 13.8551,-14.5632 4.9463,-2.4694 c 7.7004,-3.8443 12.94,-2.9924 18.5537,3.0167 l 2.5,2.6761 0.031,6.479 0.031,6.4789 3.1262,1.9794 3.1262,1.9794 1.5928,3.9808 c 3.1302,7.8231 1.4524,17.9236 -4.3871,26.4111 -1.7892,2.6006 -5.5058,9.521 -8.2591,15.3787 -2.7533,5.8578 -8.9255,16.5005 -13.7161,23.6505 -4.7906,7.15 -11.3444,17.5 -14.564,23 -3.2196,5.5 -6.5575,10.8649 -7.4174,11.9219 l -1.5635,1.9219 1.5,-0.8396 c 0.825,-0.4618 3.3,-2.0548 5.5,-3.54 11.8729,-8.0157 32.4739,-21.033 35.6388,-22.5195 l 3.6387,-1.709 3.642,0.6832 3.642,0.6833 2.9977,4.1382 c 1.6488,2.2761 3.242,5.1114 3.5405,6.3008 l 0.5428,2.1625 2.9595,-2.9596 2.9596,-2.9596 7.2192,0.4058 7.2192,0.4059 13,8.1313 c 7.15,4.4723 15.025,10.227 17.5,12.7883 l 4.5,4.657 6.5359,3.3183 c 8.9889,4.5638 15.6118,10.8303 22.9812,21.7444 l 6.2556,9.2645 12.0034,12.1545 12.0034,12.1546 4.6103,-2.1171 4.6102,-2.1171 9,-0.018 9,-0.018 4.6703,1.3382 4.6702,1.3382 3.009,2.9419 c 3.6946,3.6121 6.4918,4.4522 17.8024,5.3466 9.8845,0.7817 12.1392,1.8041 15.3165,6.9451 l 2.1947,3.5511 h 5.0361 5.0361 l 3.703,3.75 c 2.0367,2.0625 7.1864,9.9459 11.4439,17.5186 l 7.7408,13.7686 -0.6001,1.8907 -0.6001,1.8908 -16.2114,5.9988 c -8.9163,3.2994 -23.4114,8.4649 -32.2114,11.4791 -8.8,3.0141 -25,8.7363 -36,12.7159 -11,3.9797 -23.9245,8.5299 -28.721,10.1116 l -8.7211,2.8759 h -6.5786 -6.5786 l -2.908,-1.5038 c -3.7085,-1.9177 -11.9593,-12.0913 -16.1647,-19.9318 l -3.2528,-6.0644 0.1153,-5.707 0.1152,-5.707 4.1387,-12.4191 4.1387,-12.4191 -4.4806,-6.5446 c -2.4643,-3.5995 -8.3158,-13.2178 -13.0033,-21.3739 -4.6875,-8.1561 -10.9425,-17.5874 -13.8999,-20.9583 -2.9574,-3.371 -8.5538,-10.346 -12.4365,-15.5 -8.2682,-10.9758 -18.5616,-22.7828 -22.6384,-25.9675 -3.2695,-2.5539 -6.5698,-9.0995 -6.6024,-13.0945 -0.012,-1.48 -0.472,-2.9691 -1.022,-3.309 -0.55,-0.3399 -1,-0.1777 -1,0.3604 0,1.8945 -10.4182,12.3491 -16.258,16.3148 -3.2497,2.2069 -9.3586,7.1686 -13.5753,11.026 -4.2167,3.8575 -10.4792,9.0298 -13.9167,11.494 l -6.25,4.4804 v 2.8192 c 0,11.3874 -37.0842,66.5493 -58.219,86.5994 l -7.281,6.9073 -7.1994,3.7772 c -8.8778,4.6578 -8.5675,4.2581 -21.2039,27.3145 -5.6991,10.3988 -12.1225,21.9443 -14.274,25.6568 l -3.912,6.75 h -2.2611 c -1.2436,0 -3.6466,-1.0223 -5.3401,-2.2717 z"
           id="path12043" /><path
           style="fill:#1a1a1a"
           d="m 5597.5598,-1603.3555 c 8.7182,-2.9711 21.7013,-7.5111 28.8513,-10.0888 7.15,-2.5777 21.775,-7.7437 32.5,-11.4799 29.2916,-10.2042 45,-16.2123 45,-17.2115 0,-1.8693 -15.2583,-27.4529 -18.0817,-30.3176 l -2.9568,-3 h -5.122 -5.122 l -2.2262,-3.5175 c -1.2244,-1.9347 -2.962,-4.1282 -3.8613,-4.8746 l -1.6351,-1.357 -8.7474,-0.8493 c -13.1968,-1.2813 -14.6369,-1.6751 -18.3337,-5.0137 -4.3045,-3.8872 -6.4325,-4.702 -15.6158,-5.9793 l -7.4132,-1.0311 -5.1924,1.692 c -2.8558,0.9307 -6.4352,2.4084 -7.9542,3.2839 l -2.7618,1.5918 -12.0801,-11.9726 -12.0801,-11.9726 -6.5365,-9.767 c -7.5014,-11.2089 -15.3156,-18.8289 -23.0771,-22.5038 -2.9723,-1.4073 -8.3963,-5.3039 -12.0534,-8.6591 -3.6571,-3.3552 -8.4492,-7.1685 -10.6492,-8.474 -2.2,-1.3055 -7.4848,-4.6162 -11.744,-7.3571 l -7.7441,-4.9833 -4.3402,-0.4892 -4.3403,-0.4892 -3.136,1.6217 c -5.2271,2.703 -6.4453,7.5018 -4.0874,16.101 l 1.0967,4 4.2355,4 c 6.4565,6.0976 14.5888,15.5028 24.0663,27.8333 4.7207,6.1417 10.7004,13.7098 13.2883,16.818 2.5878,3.1083 7.5885,10.7583 11.1125,17 3.5241,6.2418 9.2413,15.6595 12.7049,20.9283 l 6.2976,9.5796 -4.4284,13.4204 -4.4284,13.4204 -0.026,4.36 -0.026,4.36 3.0404,5.7044 c 1.6722,3.1374 5.3298,8.5339 8.128,11.9921 l 5.0876,6.2877 3.122,1.3588 c 1.7171,0.7473 4.9889,1.3763 7.2707,1.3979 l 4.1487,0.039 15.8513,-5.4022 z"
           id="path12051" /><path
           style="fill:#1a1a1a"
           d="m 5326.445,-1580.2033 c 23.426,-42.5756 21.292,-39.5007 30.9175,-44.5506 l 7.0486,-3.6979 7.281,-6.9073 c 14.4794,-13.7364 32.254,-37.3462 45.9945,-61.0942 9.8951,-17.1019 11.2206,-19.9529 11.2562,-24.2102 l 0.032,-3.7898 6.2184,-4.2424 c 3.4201,-2.3333 10.1895,-7.8244 15.0433,-12.2025 4.8537,-4.3781 11.1632,-9.5122 14.0209,-11.4091 6.0126,-3.9909 13.6952,-11.891 16.1159,-16.5721 l 1.6757,-3.2406 -1.0728,-3.0776 c -0.5901,-1.6927 -2.219,-4.5802 -3.6197,-6.4167 l -2.5468,-3.339 h -2.9988 c -3.9288,0 -6.4682,1.3761 -24.8994,13.4924 -31.8633,20.9464 -31.4741,20.9521 -18.8303,-0.276 4.4933,-7.544 11.9791,-19.3414 16.6351,-26.2164 4.656,-6.875 10.8096,-17.4698 13.6747,-23.5439 2.8652,-6.0741 6.6411,-13.0204 8.3911,-15.4362 1.75,-2.4158 3.8896,-6.827 4.7546,-9.8027 l 1.5729,-5.4105 -0.6596,-4.3986 -0.6596,-4.3986 -2.4834,-2.9513 c -1.3658,-1.6232 -3.4226,-3.2494 -4.5705,-3.6137 l -2.0871,-0.6625 0.5722,-5.641 0.5722,-5.641 -1.1912,-2.166 c -1.5768,-2.8675 -5.7263,-6.0537 -8.9312,-6.8581 l -2.5822,-0.6481 -4.6228,2.0449 -4.6229,2.0449 -13.1658,13.598 c -7.2412,7.4789 -15.8102,17.0599 -19.0422,21.2912 -3.232,4.2312 -11.1695,13.0932 -17.6388,19.6932 -6.4693,6.6 -15.8989,17.5125 -20.9546,24.25 -5.0557,6.7375 -9.8533,12.25 -10.6614,12.25 h -1.4692 v -1.8057 c 0,-7.2367 23.4376,-53.7341 39.6142,-78.5896 11.7965,-18.1255 12.6692,-22.1573 6.1708,-28.5106 -3.7562,-3.6724 -6.4626,-4.5648 -11.1673,-3.6822 l -3.3692,0.6321 -4.8743,5.2817 c -5.1386,5.5681 -23.8835,27.1993 -31.1848,35.9864 -2.3709,2.8534 -8.6235,12.3879 -13.8948,21.1879 -11.1776,18.6603 -14.5828,23.7819 -26.5949,40 -4.8884,6.6 -11.3653,16.1445 -14.3932,21.21 -3.0278,5.0655 -6.1545,9.7489 -6.9482,10.4076 l -1.4431,1.1976 -0.8479,-0.9076 c -0.4663,-0.4992 -1.5909,-5.4076 -2.4991,-10.9076 -2.2521,-13.6384 -5.1,-23.6421 -9.1613,-32.1807 l -3.4154,-7.1807 -3.6159,-2.9806 c -6.2266,-5.1324 -15.0081,-5.0082 -20.7284,0.2932 l -2.6472,2.4533 v 2.9688 c 0,1.6328 0.9061,6.784 2.0136,11.447 l 2.0135,8.4781 -1.0135,2.6659 c -0.5575,1.4663 -1.0136,6.171 -1.0136,10.455 0,8.554 -3.2074,31.6079 -5.5282,39.7346 -0.8095,2.8347 -1.4718,6.5925 -1.4718,8.3508 v 3.1968 l 5.4235,12.7948 c 6.3215,14.9133 9.8225,25.5745 12.2097,37.1808 l 1.7118,8.3229 -0.6565,2.6104 c -0.3611,1.4357 -2.7865,5.7107 -5.3899,9.5 -4.9559,7.2136 -16.2986,26.3719 -16.2986,27.5291 0,0.3694 8.6564,8.7016 19.2364,18.516 10.58,9.8145 27.4557,25.607 37.5015,35.0945 l 18.2652,17.25 h 1.845 1.8451 l 7.8407,-14.25 z"
           id="path12045" /><path
           style="fill:#000000"
           d="m 5614.0093,-1614.7725 c 13.421,-4.8506 37.1138,-13.2881 52.6508,-18.75 15.5369,-5.462 28.2494,-10.2423 28.25,-10.6231 9e-4,-0.635 -12.6887,-22.7733 -13.5973,-23.7219 -0.2182,-0.2278 -3.0529,-0.3183 -6.2993,-0.2012 l -5.9025,0.213 -2.85,-4.0835 c -1.5674,-2.2459 -3.2999,-4.6895 -3.8499,-5.4301 l -1,-1.3466 -7.2535,-0.626 -7.2536,-0.626 -1.7187,2.0073 c -2.3531,2.7483 -2.2057,2.8174 -9.5907,-4.4953 -8.9581,-8.8704 -12.2644,-9.8846 -23.8572,-7.3184 -6.8593,1.5184 -6.7339,1.2894 -2.8815,5.2641 l 3.3081,3.4131 -0.6455,2.5719 -0.6455,2.5719 h -2.8434 -2.8435 l -3.3875,-2.7695 c -1.8631,-1.5232 -10.2311,-9.7463 -18.5955,-18.2736 l -15.2081,-15.5041 -6.8374,-9.9764 -6.8374,-9.9764 -6.4546,-4.7574 c -3.55,-2.6166 -11.012,-8.3336 -16.5824,-12.7045 l -10.1278,-7.947 -3.8336,1.9544 -3.8336,1.9545 h -6.6673 -6.6674 l 7.6957,7.75 c 4.2326,4.2625 11.2656,12.3909 15.6288,18.0631 4.3632,5.6723 9.796,12.7421 12.073,15.7107 2.2769,2.9686 6.5156,9.3527 9.4193,14.1869 2.9038,4.8341 9.6986,15.665 15.0997,24.0686 5.401,8.4037 10.5238,16.6402 11.3839,18.3034 l 1.5637,3.024 -0.6399,4.2678 -0.64,4.2677 1.125,4.4289 c 1.2247,4.8212 15.0302,33.9289 16.0921,33.9289 0.359,0 11.6335,-3.9687 25.0545,-8.8192 z"
           id="path12059" /><path
           style="fill:#f7c73b;fill-opacity:1"
           d="m 5580.1499,-1616.7033 c -8.1784,-16.0135 -10.2388,-22.2395 -10.2388,-30.9392 v -6.3261 l -6.3301,-9.7424 c -8.7918,-13.5312 -17.603,-27.5495 -22.1513,-35.2423 -2.1137,-3.575 -7.0093,-10.55 -10.8791,-15.5 -3.8697,-4.95 -9.0842,-11.696 -11.5877,-14.9912 -6.3726,-8.3877 -16.6197,-19.0787 -20.7093,-21.6061 l -3.4455,-2.1295 0.3019,-1.5673 0.3018,-1.5674 9.1644,-0.069 9.1643,-0.069 3.0448,-2.25 c 4.1195,-3.0441 4.3092,-2.9938 11.4059,3.0263 3.421,2.902 10.7834,8.5345 16.3611,12.5166 l 10.1412,7.2403 3.9597,5.2334 c 2.1778,2.8784 5.6667,7.8528 7.7531,11.0543 5.3813,8.2576 38.7734,41.6791 41.6423,41.6791 1.752,0 0.7778,-2.7346 -2.1375,-6 -5.3668,-6.0113 -0.4343,-9 14.8534,-9 h 5.755 l 4.5636,2.8941 c 2.51,1.5918 6.0492,4.7427 7.8648,7.0021 l 3.3012,4.1079 1.6597,-1.5021 1.6598,-1.502 h 4.5317 c 2.4924,0 6.6119,0.2851 9.1545,0.6336 l 4.6229,0.6337 2.6801,4.6163 c 3.416,5.8837 3.992,6.2366 9.0045,5.5158 5.8396,-0.8396 7.6622,0.019 10.3161,4.8615 1.2778,2.3315 4.5402,7.9551 7.2498,12.4969 2.7096,4.5418 4.7817,8.982 4.6047,9.8671 l -0.3218,1.6093 -29.5,10.4155 c -16.225,5.7286 -40.6669,14.4509 -54.3152,19.3829 -13.6484,4.9321 -25.1772,8.9674 -25.6195,8.9674 -0.4423,0 -3.9643,-6.1875 -7.8265,-13.75 z"
           id="path12057" /><path
           style="fill:#000000"
           d="m 5573.9004,-1612.7541 c -5.5694,-11.5047 -8.9176,-21.3814 -9.6751,-28.5404 l -0.6182,-5.8411 -1.4492,3.3411 c -0.7971,1.8377 -2.2605,6.1135 -3.2519,9.5019 l -1.8027,6.1608 2.268,4.8392 c 3.2193,6.8694 10.9986,17.0394 14.8056,19.3558 l 3.2342,1.9679 0.3503,-1.043 c 0.1926,-0.5737 -1.5448,-4.9577 -3.861,-9.7422 z"
           id="path12055" /><path
           style="fill:#f7c73b;fill-opacity:1"
           d="m 5568.0022,-1606.6553 -6.5911,-6.8655 -3.4473,-6.8102 -3.4473,-6.8102 1.8163,-7.0508 c 0.999,-3.8779 2.8821,-9.4606 4.1847,-12.406 l 2.3684,-5.3553 h 1.5126 1.5126 l 0.015,4.75 c 0.024,7.7523 2.7185,17.0174 8.5911,29.5418 3.041,6.4855 5.6112,13.0105 5.7116,14.5 l 0.1825,2.7082 -2.9089,0.3318 -2.9089,0.3317 -6.5911,-6.8655 z"
           id="path12053" /><path
           style="fill:#000000"
           d="m 5328.504,-1598.9533 c 5.7556,-10.175 12.005,-20.6016 13.8876,-23.1701 l 3.423,-4.6701 7.0761,-3.7184 7.0762,-3.7184 6.9722,-6.4553 c 11.0171,-10.2001 28.7363,-33.2948 38.9512,-50.7677 2.8938,-4.95 7.9073,-13.0911 11.1411,-18.0913 6.0353,-9.3319 6.7052,-11.1832 4.7529,-13.1355 l -1.1268,-1.1268 0.6104,-2.4318 0.6103,-2.4318 6.6558,-3.8914 c 3.6607,-2.1403 10.0251,-6.8164 14.1432,-10.3914 4.1181,-3.575 11.8179,-9.779 17.1107,-13.7867 13.7292,-10.3956 16.0291,-13.7835 13.088,-19.279 -1.4629,-2.7335 -1.2873,-2.8053 -15.5542,6.3567 -7.1008,4.56 -18.7224,11.848 -25.8257,16.1955 -7.1033,4.3475 -14.8931,9.6165 -17.3108,11.709 -2.4176,2.0925 -4.5566,3.8045 -4.7531,3.8045 -1.7477,0 -3.8437,-1.7185 -4.6352,-3.8004 l -0.961,-2.5277 4.61,-6.9329 c 2.5356,-3.8131 7.8781,-13.0768 11.8723,-20.586 3.9942,-7.5091 11.0188,-19.278 15.6102,-26.153 8.6531,-12.957 11.1947,-17.4625 16.8086,-29.7965 l 3.3211,-7.2965 5.8553,-6.9909 c 3.2204,-3.8451 6.1447,-8.309 6.4985,-9.9199 l 0.6433,-2.9289 -1.822,-2.4653 c -1.0022,-1.3559 -2.8479,-2.9424 -4.1016,-3.5256 l -2.2794,-1.0604 -2.7206,4.6193 c -9.3636,15.8986 -25.0539,36.3201 -57.3282,74.6147 l -4.0033,4.75 h -1.8731 c -1.0302,0 -2.5955,-0.7224 -3.4784,-1.6054 l -1.6054,-1.6053 0.6605,-2.1447 c 0.9977,-3.2393 6.5547,-10.5976 20.3836,-26.9906 6.8881,-8.1653 16.1868,-19.4066 20.6639,-24.9806 l 8.14,-10.1345 7.6588,-13.6831 c 4.2124,-7.5257 7.9171,-15.2745 8.2327,-17.2196 l 0.5739,-3.5365 -2.515,-0.6312 -2.5151,-0.6313 -2.8577,1.4992 c -3.9198,2.0563 -28.0578,26.789 -33.3422,34.1636 -2.3646,3.3 -9.7884,11.625 -16.4974,18.5 -9.9427,10.1889 -20.7872,23.289 -32.3901,39.1272 l -1.3719,1.8728 h -2.7638 c -1.52,0 -4.0526,-0.6722 -5.628,-1.4938 -1.5754,-0.8217 -3.5967,-1.4967 -4.4919,-1.5 -0.8951,0 -2.191,-0.6852 -2.8798,-1.5151 l -1.2523,-1.5089 2.5543,-3.7411 c 1.4049,-2.0576 3.9777,-8.0161 5.7174,-13.2411 3.9171,-11.765 8.9168,-22.5679 16.7017,-36.0879 3.2975,-5.7266 7.0249,-12.4371 8.2833,-14.9121 1.2583,-2.475 6.0344,-10.1702 10.6133,-17.1005 4.579,-6.9302 8.7583,-13.7388 9.2873,-15.1302 l 0.9618,-2.5298 -3.0408,-2.8697 -3.0409,-2.8698 -6.1389,6.9363 c -3.3763,3.8149 -11.1136,12.3649 -17.1939,19 -14.1371,15.4269 -17.1963,19.6179 -28.5138,39.0637 -10.2298,17.5769 -12.3849,20.7754 -25.0075,37.1144 -4.7225,6.1129 -11.887,16.6879 -15.9211,23.5 -4.0342,6.8121 -8.0228,13.1929 -8.8635,14.1796 l -1.5287,1.794 -2.0173,-0.294 -2.0174,-0.294 -3.2981,-5.875 -3.2982,-5.875 -1.0695,-7.125 c -2.4582,-16.375 -7.7426,-31.7838 -13.48,-39.306 l -2.5316,-3.319 h -3.0148 c -1.6582,0 -3.8406,0.4419 -4.8499,0.9821 l -1.835,0.9821 2.4007,9.2151 c 2.817,10.8125 2.9955,14.9835 0.7856,18.3562 l -1.6152,2.465 0.6819,5.4579 0.6819,5.4579 -1.7047,11.2918 c -0.9376,6.2106 -2.7677,14.8026 -4.0667,19.0935 -3.0447,10.0567 -3.1676,9.0154 2.5984,22.0151 5.7878,13.0486 11.0776,28.8049 13.5466,40.3507 l 1.7466,8.1673 -0.6485,3.4567 c -0.3567,1.9012 -2.9848,6.7759 -5.8403,10.8326 -8.2308,11.6933 -15.7648,24.0352 -15.7648,25.8252 v 1.644 l 13.25,12.0499 c 7.2875,6.6275 22.2329,20.4723 33.212,30.7662 l 19.962,18.7162 1.8521,-3.3127 c 1.0186,-1.8221 6.5612,-11.6378 12.3168,-21.8128 z"
           id="path12049" /><path
           style="fill:#f7c73b;fill-opacity:1"
           d="m 5300.3669,-1583.2315 c -7.1743,-6.722 -22.2493,-20.7371 -33.5,-31.1447 -11.2507,-10.4076 -20.8739,-19.9521 -21.3848,-21.2101 l -0.929,-2.2872 5.3284,-8.7899 c 2.9306,-4.8345 7.5584,-11.8854 10.2839,-15.6688 2.7255,-3.7834 5.5617,-8.3298 6.3026,-10.1031 l 1.3472,-3.2242 -1.8401,-8.9816 c -2.294,-11.1966 -7.8986,-27.7304 -13.8345,-40.8122 l -4.5376,-10 0.048,-3 c 0.026,-1.65 1.0011,-5.903 2.1659,-9.4511 2.9022,-8.8405 5.454,-26.0043 5.2034,-35.0001 l -0.2075,-7.4511 1.7177,-3.1896 1.7178,-3.1897 -2.8735,-11.6043 -2.8734,-11.6044 1.1244,-1.1244 c 1.6015,-1.6015 9.286,-2.8355 11.7719,-1.8904 5.1868,1.972 12.1283,16.8308 15.505,33.1895 3.6899,17.8763 4.0671,19.2179 6.6424,23.6236 3.1959,5.4672 3.923,5.1618 9.227,-3.8766 6.2415,-10.6357 18.084,-27.968 26.2586,-38.4314 3.8673,-4.95 10.8713,-15.525 15.5644,-23.5 13.2932,-22.5889 18.2993,-29.731 28.4175,-40.5425 5.1692,-5.5235 11.6247,-12.7235 14.3455,-16 2.7209,-3.2766 6.5247,-7.645 8.453,-9.7075 l 3.5059,-3.75 h 2.61 2.6099 l 2.8228,2.9464 2.8228,2.9464 -0.6323,3.1617 c -0.3478,1.739 -4.202,8.6256 -8.5649,15.3036 -16.1624,24.7389 -31.462,53.8835 -37.0571,70.5909 -1.7404,5.197 -4.0632,10.7114 -5.1618,12.2542 l -1.9974,2.8051 1.8211,0.5806 c 1.0015,0.3194 3.5658,1.3117 5.6983,2.2051 l 3.8772,1.6245 2.422,-2.9592 c 1.332,-1.6276 6.3275,-8.1343 11.1011,-14.4593 4.7735,-6.325 14.1273,-17.125 20.7861,-24 6.6589,-6.875 13.786,-14.75 15.8381,-17.5 6.176,-8.2765 29.7976,-32.4678 34.3289,-35.1568 l 4.2307,-2.5106 3.0276,0.665 c 1.6652,0.3657 3.4907,1.5303 4.0567,2.5879 l 1.0291,1.9229 -1.1376,4.2247 c -2.9362,10.9043 -18.3105,34.8829 -34.4625,53.7496 -4.0105,4.6845 -10.5613,12.3423 -14.5574,17.0173 -9.4929,11.1057 -15.9173,19.8573 -15.9173,21.6833 v 1.4633 l 1.6829,-0.324 c 0.9255,-0.1783 3.963,-3.0511 6.75,-6.3841 28.9777,-34.6553 45.4844,-55.9143 52.1217,-67.1275 7.0488,-11.9086 7.6035,-12.1163 14.6954,-5.5017 l 2.75,2.5649 v 3.2478 c 0,4.7388 -1.2295,7.1826 -6.9823,13.878 l -5.1554,6 -4.4621,9.5 c -6.0424,12.8642 -6.3438,13.3928 -17.3896,30.5 -5.3269,8.25 -12.2936,19.95 -15.4816,26 -3.188,6.05 -7.749,14.0326 -10.1355,17.7391 l -4.3391,6.7391 0.596,1.5532 c 0.7299,1.9019 0.4479,2.0318 8.3639,-3.8528 5.1804,-3.851 32.8037,-21.4195 51.7441,-32.9094 l 3.2585,-1.9767 1.5367,0.5897 c 0.8452,0.3243 2.2135,2.2096 3.0408,4.1895 l 1.5041,3.5998 -1.0817,3.1643 c -1.559,4.5604 -3.4944,6.5561 -14.5913,15.0459 -5.459,4.1766 -13.0342,10.2906 -16.8337,13.5868 -3.7995,3.2963 -9.9615,7.838 -13.6933,10.0928 l -6.7852,4.0997 0.5053,4.6695 0.5054,4.6695 -13.63,22 c -24.4276,39.4283 -41.2282,59.0965 -57.7092,67.5591 l -5.7152,2.9346 -3.927,5.2531 c -3.4327,4.5919 -12.0121,19.2868 -24.523,42.0032 -4.7255,8.5802 -3.8306,8.8383 -19.1638,-5.5282 z"
           id="path12047" /><path
           style="fill:#f7c73b;fill-opacity:1;stroke:none;stroke-width:1;stroke-linecap:round;stroke-linejoin:round;stroke-opacity:1;paint-order:stroke fill markers"
           d="m 5516.3643,-1762.4853 -3.8518,3.6684 h -17.2414 l -3.8518,-2.0176 -2.3846,-6.4197 3.3017,-6.6031 5.5025,-1.284 7.887,3.485 z"
           id="path38086" /></g></g></g></svg>
