<?xml version="1.0" encoding="UTF-8" standalone="no"?>
<!-- Created with Inkscape (http://www.inkscape.org/) -->

<svg
   width="587.94067mm"
   height="500mm"
   viewBox="0 0 587.94067 500"
   version="1.1"
   id="svg5"
   xml:space="preserve"
   xmlns:inkscape="http://www.inkscape.org/namespaces/inkscape"
   xmlns:sodipodi="http://sodipodi.sourceforge.net/DTD/sodipodi-0.dtd"
   xmlns="http://www.w3.org/2000/svg"
   xmlns:svg="http://www.w3.org/2000/svg"><sodipodi:namedview
     id="namedview7"
     pagecolor="#ffffff"
     bordercolor="#000000"
     borderopacity="0.25"
     inkscape:showpageshadow="2"
     inkscape:pageopacity="0.0"
     inkscape:pagecheckerboard="0"
     inkscape:deskcolor="#d1d1d1"
     inkscape:document-units="mm"
     showgrid="false"
     showguides="false" /><defs
     id="defs2" /><g
     inkscape:groupmode="layer"
     id="layer23"
     inkscape:label="V"
     transform="translate(1044.0997,3711.3726)"><g
       id="g40024"
       inkscape:label="V"><rect
         style="fill:#cccccc;fill-opacity:1;stroke:#1a1a1a;stroke-width:20;stroke-linecap:round;stroke-linejoin:round;stroke-dasharray:none;stroke-opacity:1;paint-order:stroke fill markers"
         id="rect38211-4-8-88"
         width="567.94067"
         height="480"
         x="-1034.0997"
         y="-3701.3726"
         rx="48.766338"
         ry="48.766338" /><g
         id="g39206"
         transform="translate(-2828.1669,-2199.958)"><path
           style="fill:#ffffff"
           d="m 2111.2027,-1076.969 c -3.3104,-1.3326 -24.9324,-15.9929 -31.8373,-21.5866 -5.4427,-4.409 -25.7572,-24.8268 -40.8757,-41.0833 l -5.7526,-6.1857 -3.0166,3.4357 c -1.6591,1.8896 -7.2111,6.8093 -12.3377,10.9327 -13.1252,10.5567 -20.9937,21.4321 -26.6609,36.8493 -2.9471,8.0174 -2.6369,8.0626 -21.5126,-3.1292 -9.239,-5.4779 -27.1482,-16.0655 -39.7982,-23.5279 -12.65,-7.4623 -25.3786,-15.0433 -28.2857,-16.8466 l -5.2857,-3.2787 -0.5882,-2.3438 -0.5883,-2.3438 5.9715,-12.6881 c 3.2842,-6.9785 7.2775,-16.0138 8.8739,-20.0784 l 2.9025,-7.3902 4.7689,-5.2706 4.7688,-5.2707 -1.9923,-3.3768 c -2.4383,-4.1326 -3.4889,-11.3296 -5.5182,-37.8016 -0.8643,-11.275 -2.2516,-24.1 -3.0828,-28.5 -0.8312,-4.4 -1.76,-14.3 -2.0639,-22 l -0.5526,-14 4.5861,-14.3224 4.586,-14.3225 v -6.3926 -6.3926 l 1.5846,-4.6675 1.5847,-4.6675 -2.2983,-8.8089 -2.2982,-8.809 0.9807,-2.8085 0.9808,-2.8085 4.8459,-3.25 4.8458,-3.25 h 4.7789 4.7788 l 4.8581,4.3902 c 8.5002,7.6814 15.7796,23.0788 18.2949,38.6973 l 0.9908,6.1522 -1.0614,4.9492 c -0.5838,2.722 -0.905,5.0951 -0.7138,5.2735 0.5631,0.5254 15.8068,-22.5732 27.3627,-41.4624 17.9974,-29.4183 51.5603,-74.7271 58.9336,-79.5583 5.9238,-3.8814 16.0205,-2.6028 22.1847,2.8094 l 3.607,3.167 -0.4885,6.041 -0.4884,6.0409 -3.9308,11.7644 -3.9308,11.7645 2.2875,-2.7645 c 1.2581,-1.5204 5.2137,-8.6367 8.7901,-15.814 l 6.5027,-13.0495 4.7589,-5.2512 4.759,-5.2511 3.748,-0.5798 3.748,-0.5798 4.5159,1.2643 4.516,1.2644 2.9026,3.306 2.9027,3.3059 1.1037,5.3166 1.1037,5.3165 -1.0372,5.4937 c -0.5704,3.0215 -1.2714,6.2387 -1.5578,7.1494 l -0.5206,1.6557 3.9285,0.6637 3.9284,0.6637 1.9392,2.1806 c 1.0665,1.1993 2.4851,4.0978 3.1523,6.4411 l 1.2132,4.2606 -0.6785,3.7394 c -0.7796,4.2966 -3.0545,9.0846 -7.9596,16.7524 -4.1546,6.4947 -4.1538,6.487 -0.6763,6.487 h 2.7721 l 3.7279,3.0728 3.7278,3.0728 v 4.7457 c 0,6.7076 -2.3549,13.9993 -8.432,26.1087 -2.8982,5.775 -6.0742,12.975 -7.0579,16 -6.6038,20.3084 -22.8125,57.2805 -31.6497,72.1931 l -2.1885,3.6931 7.4788,7.3069 c 4.1133,4.0188 9.5818,9.7819 12.1523,12.8069 l 4.6735,5.5 1.1908,-2 c 0.655,-1.1 2.4775,-3.2092 4.0502,-4.6871 l 2.8593,-2.687 5.6521,-1.1734 5.6521,-1.1734 6.843,0.6743 c 3.7637,0.3709 9.0478,1.3291 11.7425,2.1293 l 4.8995,1.455 2.7513,2.915 2.7513,2.9149 3.0234,-2.544 3.0234,-2.544 9.0423,0.3971 9.0423,0.397 6.9744,3.2656 c 3.8359,1.7961 8.5018,4.4308 10.3687,5.8547 l 3.3944,2.589 3.0649,6.6086 c 4.476,9.6507 6.7898,12.8852 21.5098,30.0685 17.8687,20.8589 32.5878,45.4612 39.2113,65.54 l 2.3092,7 0.084,5.9673 0.084,5.9674 -4,0.7252 c -2.2,0.3989 -12.1,1.4266 -22,2.2837 -9.9,0.8571 -22.5,2.007 -28,2.5554 -5.5,0.5483 -20.35,1.9061 -33,3.0172 -12.65,1.1111 -28.85,2.6865 -36,3.5008 -14.4566,1.6465 -23.8772,1.8082 -27.2084,0.4672 z"
           id="path11533" /><path
           style="fill:#1a1a1a"
           d="m 2138.9111,-1079.9831 c 4.125,-0.5137 17.625,-1.8387 30,-2.9445 12.375,-1.1058 29.925,-2.6822 39,-3.5032 9.075,-0.8209 22.125,-1.9639 29,-2.5401 6.875,-0.5761 14.8625,-1.5147 17.75,-2.0858 l 5.25,-1.0383 v -1.8172 c 0,-0.9995 -1.1515,-5.7909 -2.5589,-10.6476 l -2.559,-8.8304 -7.4363,-14.5315 c -9.8067,-19.1637 -15.1347,-27.2231 -27.0447,-40.9093 -14.6937,-16.885 -19.0097,-22.7602 -23.3305,-31.7589 l -3.9068,-8.1366 -3.3575,-2.5609 c -1.8466,-1.4085 -6.492,-4.0277 -10.323,-5.8205 l -6.9656,-3.2596 -7.6726,-0.043 -7.6726,-0.043 -2.4007,2.25 c -3.2347,3.0317 -5.7294,2.8317 -9.0899,-0.7289 -1.5464,-1.6384 -4.695,-3.5499 -6.9968,-4.2478 l -4.1851,-1.2688 h -10.5 -10.5 l -3.1267,2.2303 c -1.7197,1.2267 -3.8783,3.8142 -4.7969,5.75 -2.4234,5.1069 -3.6302,4.5392 -12.5711,-5.9139 -4.438,-5.1884 -10.3047,-11.3053 -13.0372,-13.5931 -5.3047,-4.4413 -5.9048,-6.1909 -3.3668,-9.8145 6.634,-9.4713 27.1889,-56.0016 33.4225,-75.6588 0.6977,-2.2 3.4672,-8.275 6.1544,-13.5 5.1829,-10.0816 8.8218,-20.3946 8.8218,-25.006 v -2.7911 l -3.5348,-3.1036 -3.5348,-3.1036 h -2.9966 -2.9966 l -0.5882,-1.533 -0.5883,-1.533 3.5156,-5.2949 c 8.3463,-12.5705 9.9025,-17.8538 7.6491,-25.969 l -1.0635,-3.8299 -3.3988,-1.4201 c -1.8694,-0.781 -4.3133,-1.4201 -5.431,-1.4201 h -2.0321 l 0.036,-2.25 c 0.02,-1.2375 0.6726,-4.9177 1.4512,-8.1782 l 1.4156,-5.9282 -1.0403,-4.851 c -0.5722,-2.668 -2.1584,-6.1797 -3.5249,-7.8037 l -2.4846,-2.9528 -3.8299,-1.1474 -3.8298,-1.1475 -3.5424,0.6646 -3.5425,0.6646 -4.0976,4.6551 -4.0977,4.6552 -6.2063,12.44 c -3.4136,6.842 -7.8561,14.2939 -9.8724,16.5597 l -3.666,4.1196 -0.651,-1.6457 -0.651,-1.6457 3.6475,-11.6841 c 2.0061,-6.4263 3.8904,-14.0377 4.1872,-16.9142 l 0.5398,-5.2301 -3.1513,-2.6517 c -5.3215,-4.4778 -12.9847,-5.8681 -18.0126,-3.2681 -5.7385,2.9675 -40.9068,49.6298 -55.0766,73.0773 -5.225,8.646 -14.8649,23.7802 -21.422,33.6314 l -11.9221,17.9113 -1.5779,-0.3214 -1.578,-0.3214 0.1687,-2.4688 c 0.093,-1.3578 0.4757,-5.6188 0.8509,-9.4688 l 0.6822,-7 -2.6561,-9.3922 c -8.439,-29.8408 -24.3457,-41.4632 -35.7192,-26.0987 l -1.8573,2.509 1.9919,7.491 c 2.2792,8.5717 2.5329,13.1994 0.8916,16.2661 -0.631,1.179 -1.2705,5.8154 -1.4212,10.3032 l -0.2739,8.1595 -4.0959,12.812 c -5.5868,17.4754 -6.1544,31.4825 -2.0287,50.0604 0.8896,4.0058 1.6251,11.6377 3.9886,41.3897 1.1776,14.8236 2.965,22.9142 5.5332,25.0456 2.3517,1.9517 1.7279,3.5597 -3.8048,9.8069 l -5.25,5.9281 -2.9043,7.3597 c -1.5974,4.0479 -5.3099,12.4881 -8.25,18.756 -2.9402,6.268 -5.3457,12.1425 -5.3457,13.0546 v 1.6583 l 5.25,3.2419 c 2.8875,1.783 15.6,9.3472 28.25,16.8091 12.65,7.462 30.1418,17.8118 38.8706,22.9996 8.7289,5.1878 15.955,9.2991 16.058,9.1363 0.103,-0.1628 1.4673,-3.3759 3.0319,-7.1402 6.7854,-16.3257 12.8901,-24.5383 26.2683,-35.3382 5.0759,-4.0976 10.744,-9.2204 12.5959,-11.3839 4.3528,-5.0852 4.284,-5.1018 11.6996,2.8163 31.6981,33.8458 40.2773,41.7226 59.3915,54.5284 15.8668,10.6303 15.9136,10.6394 39.5842,7.6917 z"
           id="path11535" /><path
           style="fill:#f7c73b;fill-opacity:1"
           d="m 2004.2753,-1276.3321 c 3.064,-1.2802 7.6358,-5.8752 7.6358,-7.6745 0,-1.3026 -6.8755,-5.1292 -10.8105,-6.0168 l -3.6895,-0.8322 -2.1742,1.4245 c -4.2063,2.756 -3.8762,6.9033 0.9735,12.2278 2.3856,2.6192 3.5741,2.7476 8.0649,0.8712 z"
           id="path11549" /><path
           style="fill:#f7c73b;fill-opacity:1"
           d="m 1959.6236,-1214.6311 c -8.2332,-5.8582 -3.9007,-15.3222 7.0143,-15.3222 h 2.9246 l 2.1743,2.3145 c 3.7418,3.9829 1.4054,10.9633 -4.7318,14.1371 -3.7023,1.9145 -2.9392,2.0312 -7.3814,-1.1294 z"
           id="path11545" /><path
           style="fill:#000000"
           d="m 1986.0184,-1109.1666 c 2.2713,-4.5174 6.5839,-11.5322 9.5837,-15.5884 l 5.454,-7.375 5.9165,-3.6616 c 7.5299,-4.6601 7.4384,-5.1616 -0.9412,-5.1616 h -6.8797 l -5.6071,-4.3541 c -5.5701,-4.3252 -11.1218,-7.4229 -17.4217,-9.7208 -3.9159,-1.4283 -5.6179,-4.171 -4.7454,-7.6471 l 0.6364,-2.5358 4.3087,0.5906 c 2.3698,0.3248 6.8249,1.532 9.9002,2.6826 l 5.5916,2.0921 5.0671,4.5558 5.0671,4.5558 3.7313,0.8666 c 7.3834,1.7148 20.2312,0.4641 20.2312,-1.9695 0,-0.3785 -4.191,-3.0598 -9.3134,-5.9584 -13.8172,-7.8189 -30.9376,-21.7749 -51.5724,-42.0401 l -18.3857,-18.0566 0.5456,-4.0681 0.5456,-4.068 2.7317,-3.5814 2.7317,-3.5814 4.5084,-1.9943 4.5085,-1.9943 4.2965,0.4843 c 6.7319,0.7588 23.3867,11.3484 48.4035,30.7765 l 6.5,5.0479 21.9854,11.0469 c 12.092,6.0758 23.9271,12.3573 26.3002,13.9588 14.1835,9.5724 2.092,-13.938 -14.3248,-27.8525 -3.8715,-3.2814 -12.0685,-11.7898 -18.2155,-18.9075 l -11.1764,-12.9413 -16.0513,-14.3091 c -22.8346,-20.3562 -28.0176,-26.7389 -28.0176,-34.5031 v -3.505 l 3.0203,-3.4399 3.0203,-3.44 4.9567,-1.1891 4.9567,-1.1891 7.273,1.2074 c 9.5198,1.5804 11.3351,2.3887 25.929,11.5461 l 12.344,7.7455 13.7343,14.0044 13.7344,14.0043 1.6322,-3.9096 c 3.96,-9.4854 10.9753,-24.5912 16.3942,-35.3011 3.2305,-6.3847 7.7597,-16.7835 10.0649,-23.1085 2.3051,-6.325 6.8615,-17.7565 10.1253,-25.4033 9.6039,-22.5013 9.9347,-24.8887 3.6043,-26.0133 l -3.7103,-0.6592 -1.9901,3.9009 c -1.0945,2.1454 -4.2026,9.475 -6.9068,16.2879 -5.3058,13.367 -8.7169,19.6806 -16.2134,30.0101 -2.6437,3.6428 -5.9729,8.9244 -7.3981,11.737 l -2.5914,5.1139 0.2602,5.763 0.2603,5.763 -2.1633,0.3082 c -1.1898,0.1695 -4.9023,-1.0745 -8.25,-2.7644 l -6.0867,-3.0726 v -2.4856 -2.4856 h 3.8672 3.8673 l 3.1413,-8.3231 c 1.7278,-4.5777 4.7777,-10.9902 6.7775,-14.25 9.3395,-15.2232 11.6487,-19.694 16.4632,-31.8746 5.4179,-13.7071 10.0641,-22.9048 18.107,-35.8448 2.6639,-4.2859 5.0987,-9.0684 5.4106,-10.6279 l 0.567,-2.8353 -1.1357,-2.1221 -1.1358,-2.1222 h -2.404 -2.4041 l -6.4651,9.75 c -3.5558,5.3625 -9.8922,14.25 -14.0809,19.75 -8.7331,11.4671 -12.7019,19.0541 -15.17,29 -1.8451,7.4356 -2.6664,9.0635 -8.615,17.0763 -2.0726,2.7919 -6.4887,10.8057 -9.8134,17.8083 l -6.0448,12.7321 -3.7162,-0.3084 -3.7161,-0.3083 -0.2991,-2.57 -0.299,-2.5699 5.0794,-12.0272 c 2.7937,-6.6149 6.3033,-13.8436 7.7991,-16.0637 1.4958,-2.2201 4.8447,-7.1264 7.442,-10.9029 2.5974,-3.7765 6.6802,-11.6111 9.073,-17.4104 4.2288,-10.2493 7.9458,-16.5225 17.7494,-29.9559 9.2323,-12.6506 15.4432,-25.9721 16.5855,-35.5735 l 0.6036,-5.0735 -1.6352,-3.162 -1.6351,-3.162 -2.3887,-0.5995 c -4.7141,-1.1832 -12.6494,8.5279 -25.3888,31.0705 l -5.0862,9 -11.2156,13.5 c -16.3196,19.6435 -23.624,31.4384 -29.2852,47.2883 -4.0327,11.2904 -8.3176,19.2106 -13.1862,24.3727 l -3.4211,3.6274 -6.2969,-0.588 c -3.4634,-0.3234 -8.524,-1.413 -11.2459,-2.4214 l -4.949,-1.8333 -0.3032,-2.0982 c -0.1668,-1.154 0.4772,-2.8786 1.431,-3.8325 l 1.7343,-1.7343 4.069,0.5447 c 2.2379,0.2996 5.6884,0.8468 7.6677,1.216 l 3.5988,0.6712 3.2402,-5.266 c 1.7822,-2.8963 5.3763,-10.3063 7.9869,-16.4666 2.6107,-6.1604 8.5965,-17.676 13.3018,-25.5903 16.1233,-27.1194 30.7735,-59.7073 30.7735,-68.4528 v -2.1943 l -2.9051,-1.2033 c -1.5977,-0.6618 -3.9547,-1.0539 -5.2377,-0.8713 l -2.3327,0.332 -8.3617,10 c -14.183,16.9619 -36.6498,48.2324 -46.341,64.5 -11.3809,19.1038 -20.6522,33.1982 -30.5081,46.379 l -7.5455,10.091 1.134,3.136 c 1.8879,5.2209 -0.4356,8.0512 -5.5546,6.7664 l -2.4935,-0.6258 -1.0175,-2.6233 c -0.5597,-1.4428 -1.2576,-6.8983 -1.5509,-12.1233 l -0.5333,-9.5 1.1375,-7.2798 1.1375,-7.2798 -2.0951,-8.2202 c -4.7114,-18.4861 -15.3043,-32.4785 -21.0596,-27.8182 l -2.3488,1.9019 2.7381,8.4076 c 3.2603,10.0115 3.3428,11.5158 0.7811,14.2426 l -1.9569,2.0831 -0.3962,9.9814 -0.3961,9.9814 -4.2523,13 -4.2522,13 0.5786,13 c 0.3182,7.15 1.2691,16.825 2.113,21.5 0.8439,4.675 2.2146,17.275 3.0459,28 0.8313,10.725 1.9857,22.4916 2.5654,26.1478 l 1.0539,6.6477 7.6769,7.3777 c 4.2223,4.0577 10.7798,10.1125 14.5722,13.4552 l 6.8954,6.0775 -0.6367,2.5368 c -1.5066,6.0024 -6.808,3.9785 -19.1792,-7.3219 -11.156,-10.1904 -11.4568,-10.0342 -20.0539,10.4182 -2.5803,6.1386 -6.431,14.6393 -8.557,18.8904 l -3.8654,7.7293 4.2507,2.1318 c 3.773,1.8921 13.4306,7.5564 59.2508,34.751 14.5838,8.6556 12.6673,8.7704 17.6073,-1.0548 z"
           id="path11543" /><path
           style="fill:#f7c73b;fill-opacity:1"
           d="m 1971.4111,-1103.3298 c -4.95,-2.9391 -19.575,-11.6257 -32.5,-19.3035 -12.925,-7.6777 -26.3125,-15.4945 -29.75,-17.3706 l -6.25,-3.4109 v -1.7106 c 0,-0.9408 2.3631,-6.5744 5.2513,-12.5192 2.8882,-5.9447 6.7131,-14.4391 8.4997,-18.8765 7.1968,-17.8739 9.6885,-18.9773 20.6344,-9.1373 10.1345,9.1107 13.5146,11.7052 15.2495,11.7052 3.3041,0 0.5618,-3.464 -10.8849,-13.7496 -6.7375,-6.054 -13.0388,-11.8864 -14.0029,-12.9608 -2.3714,-2.6428 -3.4566,-9.3123 -5.2197,-32.0796 -0.8215,-10.6095 -2.425,-25.664 -3.5631,-33.4545 -1.1382,-7.7906 -2.1304,-18.9101 -2.2049,-24.7101 l -0.1355,-10.5455 4.3158,-13 4.3158,-13 0.1222,-9.1665 0.1223,-9.1665 2.2217,-3.0047 2.2216,-3.0046 -2.1062,-6.3289 c -1.1585,-3.4808 -2.4608,-7.8467 -2.8941,-9.7018 l -0.7879,-3.373 2.377,-2.377 2.377,-2.377 h 3.161 3.1609 l 3.8891,4.25 c 5.2209,5.7054 10.3026,15.6233 12.9507,25.2759 l 2.1771,7.9357 -1.2151,11.6156 -1.2151,11.6157 0.7352,5.9035 c 0.782,6.2791 2.7889,10.4036 5.0621,10.4036 1.6795,0 1.7053,-0.4723 0.2464,-4.5067 l -1.1386,-3.1488 10.4509,-14.4222 c 12.0448,-16.6217 14.5583,-20.4635 28.0819,-42.9223 14.1509,-23.5007 49.8447,-71.3987 56.4143,-75.7033 l 2.5304,-1.6579 4.6107,1.2331 c 2.5359,0.6783 5.2252,1.7432 5.9763,2.3665 l 1.3655,1.1333 -0.6314,3.5642 c -0.3473,1.9602 -1.7712,7.3891 -3.1643,12.0641 l -2.5329,8.5 -9.7928,19.6362 c -5.3861,10.7999 -12.8227,24.6512 -16.5258,30.7807 -3.7031,6.1295 -9.4012,17.087 -12.6626,24.3499 -10.361,23.074 -10.9358,23.6921 -19.8951,21.3993 -5.8118,-1.4874 -8.9479,-1.1824 -8.9479,0.8702 v 1.303 l 4.75,1.5521 c 2.6125,0.8537 6.6755,1.8495 9.0289,2.2128 l 4.2788,0.6606 3.7212,-3.929 c 4.8292,-5.0991 8.5375,-12.0582 12.8374,-24.091 5.417,-15.1587 13.4711,-28.0558 29.9386,-47.9405 6.2876,-7.5924 13.0197,-16.8136 14.9602,-20.4917 15.4576,-29.2989 26.2182,-38.6976 33.7127,-29.4456 l 1.7277,2.133 0.022,6.1197 0.022,6.1198 -1.9784,6.1929 c -2.8454,8.907 -7.8734,17.8863 -17.6763,31.5676 -4.729,6.6 -10.0629,15.15 -11.853,19 -1.7902,3.85 -4.8975,10.5641 -6.9051,14.9203 -2.0077,4.3561 -5.8322,10.8811 -8.4989,14.5 -10.4798,14.2216 -19.2601,36.0797 -14.493,36.0797 h 1.4773 l 4.9598,-10.5688 c 4.2908,-9.1432 9.5602,-18.0106 15.5292,-26.1326 0.8899,-1.2108 2.5147,-5.7108 3.6109,-10 2.5681,-10.0491 7.0276,-18.4526 16.3238,-30.7604 4.1148,-5.4477 10.2284,-14.0709 13.5858,-19.1626 l 6.1045,-9.2576 2.8227,-0.62 2.8226,-0.62 2.0663,1.2904 c 1.1364,0.7097 2.4936,2.5166 3.0161,4.0152 l 0.9499,2.7249 -0.9371,3.2957 c -0.5154,1.8127 -1.9473,4.9491 -3.182,6.9697 -9.2859,15.1964 -14.8147,25.9419 -20.212,39.2832 l -6.2467,15.4405 -7.0291,11.3012 -7.0292,11.3012 -3.2467,8.75 -3.2468,8.75 h -3.9263 -3.9262 l 0.616,0.9967 c 0.6451,1.0438 10.6907,5.6393 11.4258,5.2269 0.2332,-0.1308 0.343,-2.8221 0.2442,-5.9807 l -0.1796,-5.7429 3.2558,-5.6962 c 1.7907,-3.133 6.4551,-10.375 10.3654,-16.0935 l 7.1096,-10.3973 5.2645,-13.4065 c 2.8955,-7.3736 6.1471,-15.1514 7.2258,-17.2841 l 1.9614,-3.8777 5.6511,0.6642 c 3.1081,0.3653 6.087,1.1001 6.6198,1.633 l 0.9688,0.9687 -1.1622,5.5413 c -0.6393,3.0477 -3.242,10.3578 -5.7837,16.2447 -2.5418,5.8869 -7.4563,18.1375 -10.9212,27.2236 -3.4649,9.086 -9.4275,22.811 -13.2502,30.5 -3.8227,7.6889 -9.1636,19.0423 -11.8686,25.2298 l -4.9182,11.25 h -1.3605 c -0.7484,0 -7.9498,-6.6657 -16.0033,-14.8127 l -14.6427,-14.8126 -11.8624,-7.343 c -13.9213,-8.6176 -17.7003,-10.1135 -27.2306,-10.7791 l -7.093,-0.4955 -3.701,1.7563 -3.7011,1.7563 -1.5133,2.9264 -1.5133,2.9264 1.1104,3.3643 c 1.9043,5.7703 7.5483,12.0344 25.6935,28.5167 9.6531,8.7684 20.7356,19.6672 24.6279,24.2195 3.8922,4.5524 13.4758,14.5771 21.2968,22.2771 l 14.22,14 4.2261,8.7884 4.226,8.7884 -1.1215,2.4616 c -1.5062,3.3057 -2.5779,3.1379 -10.1645,-1.5915 -3.575,-2.2286 -15.5,-8.4432 -26.5,-13.8102 l -20,-9.7582 -10.5,-7.9888 c -16.9617,-12.9053 -33.8381,-24.4263 -39.7349,-27.126 l -5.4895,-2.5131 -3.8427,1.1513 c -4.9298,1.477 -9.8334,5.6156 -11.5656,9.7614 l -1.3608,3.2568 1.1411,2.5044 c 0.6276,1.3774 5.57,6.3684 10.9832,11.0911 5.4132,4.7227 11.9858,11.0756 14.6057,14.1176 9.3466,10.8523 40.2292,34.0543 50.4362,37.8925 0.92,0.3459 1.95,1.3516 2.2889,2.2349 l 0.6163,1.606 -2.0667,2.0667 -2.0668,2.0667 h -11.2222 -11.2222 l -6.5,-5.2676 c -5.9743,-4.8416 -12.1031,-7.8957 -19.3245,-9.6297 l -2.8245,-0.6782 0.3245,2.2827 0.3245,2.2827 5,2.0458 c 6.8765,2.8137 12.2171,5.8936 17.3277,9.9929 l 4.3278,3.4714 h 6.3404 c 11.9262,0 12.4442,2.0042 2.2541,8.7211 l -7.25,4.7789 -5.1282,6.8385 c -2.8206,3.7612 -7.082,10.8487 -9.47,15.75 l -4.3418,8.9115 -1.53,-0.016 c -0.8415,-0.01 -5.58,-2.4211 -10.53,-5.3603 z"
           id="path11541" /><path
           style="fill:#000000"
           d="m 2173.4111,-1088.8343 c 23.65,-2.2205 50.2,-4.729 59,-5.5746 8.8,-0.8456 16.9596,-1.5389 18.1325,-1.5408 h 2.1326 l -2.5954,-7.75 c -6.3114,-18.8466 -22.766,-47.1136 -35.644,-61.2321 -12.883,-14.1241 -19.6381,-23.1152 -23.2638,-30.9646 -1.898,-4.1091 -4.1959,-8.0566 -5.1064,-8.7722 -3.8551,-3.0298 -16.0391,-8.2117 -20.7653,-8.8315 l -5.1098,-0.6701 -2.0755,1.1108 -2.0755,1.1108 5.4353,9.1981 5.4353,9.1981 v 3.2423 c 0,3.78 -0.9888,4.6523 -4.3248,3.815 l -2.4168,-0.6066 -7.2585,-10.4158 c -3.9922,-5.7288 -9.1783,-12.1854 -11.5245,-14.3481 l -4.266,-3.9323 -3.8547,-1.0704 c -2.1201,-0.5887 -6.6065,-1.0729 -9.9698,-1.0759 l -6.1152,-0.01 -2.5757,2.0262 c -1.4167,1.1143 -2.8613,2.9256 -3.2102,4.0251 l -0.6345,1.999 7.0841,7.5855 c 6.9512,7.4434 8.8548,10.8678 7.7058,13.8621 l -0.5764,1.5022 h -2.5836 -2.5836 l -7.6978,-7.1306 c -4.2338,-3.9218 -22.5478,-22.1081 -40.6978,-40.4138 l -33,-33.2831 -9.4151,-6.0794 -9.4151,-6.0793 -1.6917,2.743 c -2.33,3.778 -4.8797,5.8862 -9.4064,7.7776 l -3.855,1.6107 1.3916,1.2754 c 0.7654,0.7015 6.7917,6.0273 13.3917,11.8352 13.9336,12.2614 20.4313,18.8864 30.3899,30.9853 3.9572,4.8076 10.3025,11.2522 14.1008,14.3211 l 6.906,5.5798 3.5894,7.179 c 1.9742,3.9485 7.1999,11.6791 11.6128,17.1791 4.4129,5.5 8.6846,11.2416 9.4926,12.759 l 1.4692,2.7591 -1.0655,1.9909 c -1.71,3.1951 -7.1312,1.8131 -11.4026,-2.9066 -1.0464,-1.1563 -2.5078,-2.1024 -3.2476,-2.1024 h -1.345 l -0.1107,2.25 c -0.061,1.2375 -0.038,3.1887 0.05,4.336 0.088,1.1473 -0.508,2.641 -1.3254,3.3194 l -1.4861,1.2334 -1.9746,-1.0568 c -1.086,-0.5812 -2.9311,-2.6045 -4.1003,-4.4963 -2.4769,-4.0077 -9.6692,-9.0147 -19.553,-13.6119 -3.85,-1.7907 -13.3,-6.2604 -21,-9.9327 l -14,-6.6767 -9,-6.89 c -4.95,-3.7895 -13.439,-9.9621 -18.8644,-13.7168 l -9.8644,-6.827 -1.3858,1.7846 c -0.7622,0.9816 -2.3256,3.2526 -3.4744,5.0465 l -2.0886,3.2617 5.0111,5.7383 c 10.8435,12.4172 24.6884,24.056 40.4305,33.9883 3.7048,2.3375 9.6443,6.092 13.1988,8.3432 l 6.4629,4.0933 5.4536,6.6567 c 2.9995,3.6613 11.0038,12.1717 17.7872,18.9121 6.7834,6.7404 14.5548,14.774 17.2697,17.8524 l 4.9362,5.5971 14.0638,9.4378 c 7.7351,5.1908 15.6388,10.5883 17.5638,11.9946 l 3.5,2.5568 6.5,-0.519 c 3.575,-0.2854 25.85,-2.3357 49.5,-4.5561 z"
           id="path11539" /><path
           style="fill:#f7c73b;fill-opacity:1"
           d="m 2112.384,-1084.1696 c -1.6351,-1.3543 -9.0281,-6.4336 -16.4289,-11.2875 l -13.4559,-8.8251 -5.5441,-5.7199 c -3.0492,-3.1458 -11.6232,-11.9593 -19.0534,-19.5854 -7.4301,-7.6261 -16.4301,-17.0192 -20,-20.8735 l -6.4906,-7.0078 -11,-6.6602 c -6.05,-3.6631 -15.981,-10.4874 -22.069,-15.1651 l -11.0689,-8.505 -9.1811,-9.9577 c -10.6806,-11.5843 -10.3446,-10.3637 -4.9901,-18.1231 5.4754,-7.9349 4.5807,-8.3149 35.3343,15.0056 l 9.0253,6.8439 17.9747,8.6152 c 9.8862,4.7383 20.82,10.0086 24.2975,11.7117 l 6.3227,3.0965 5.2952,5.8513 5.2952,5.8514 0.6666,-5.0244 0.6665,-5.0245 h 3.2784 3.2785 l 2.8742,3 c 2.7588,2.8796 6.5,4.0505 6.5,2.0344 0,-0.531 -4.2935,-6.4935 -9.541,-13.25 -5.2475,-6.7564 -10.886,-15.0768 -12.5298,-18.4898 l -2.9888,-6.2053 -7.4583,-6.1693 c -4.102,-3.3932 -10.0255,-9.3758 -13.1631,-13.2948 -8.2616,-10.3186 -19.1968,-21.455 -32.319,-32.9135 -16.2974,-14.2311 -15.9769,-13.6789 -9.75,-16.8043 5.1757,-2.5979 8.4726,-5.509 10.3707,-9.1575 1.9366,-3.7225 2.0633,-3.6855 13.6792,3.9898 l 10.2001,6.7399 18.512,18.5101 c 10.1816,10.1806 24.1316,24.3665 31,31.5241 14.8616,15.4876 31.7222,30.7685 33.0461,29.9503 l 0.9473,-0.5855 -1.0984,-2.0524 c -0.6042,-1.1289 -4.2054,-5.4033 -8.0027,-9.4987 -7.8741,-8.4922 -8.1922,-9.8196 -3.5362,-14.7564 l 3.368,-3.5712 8.382,0.01 c 4.61,0 10.1819,0.4936 12.3819,1.0901 l 4,1.0846 5.0797,5.3208 c 2.7938,2.9264 7.881,9.4108 11.3049,14.4099 l 6.2253,9.0891 h 1.5534 1.5535 l -0.6645,-2.75 c -0.3655,-1.5125 -2.8893,-6.2693 -5.6084,-10.5706 -5.4692,-8.6515 -5.9912,-11.0485 -2.7804,-12.7669 l 2.1634,-1.1579 6.5866,0.4957 6.5865,0.4957 5.9486,2.6598 c 3.2718,1.4629 7.452,3.8065 9.2893,5.2079 l 3.3407,2.548 3.3126,7.1692 c 3.5462,7.6746 10.8442,17.4073 23.1123,30.8228 14.7156,16.092 31.4516,45.7993 37.0579,65.7799 2.1402,7.6277 4.6552,6.5748 -21.5742,9.0318 -12.368,1.1585 -39.3622,3.7041 -59.9872,5.6569 -20.625,1.9528 -41.7872,3.7919 -47.0271,4.0871 l -9.5272,0.5365 -2.9728,-2.4623 z"
           id="path11537" /></g></g></g></svg>
