<?xml version="1.0" encoding="UTF-8" standalone="no"?>
<!-- Created with Inkscape (http://www.inkscape.org/) -->

<svg
   width="587.94067mm"
   height="500mm"
   viewBox="0 0 587.94067 500"
   version="1.1"
   id="svg5"
   xml:space="preserve"
   xmlns:inkscape="http://www.inkscape.org/namespaces/inkscape"
   xmlns:sodipodi="http://sodipodi.sourceforge.net/DTD/sodipodi-0.dtd"
   xmlns="http://www.w3.org/2000/svg"
   xmlns:svg="http://www.w3.org/2000/svg"><sodipodi:namedview
     id="namedview7"
     pagecolor="#ffffff"
     bordercolor="#000000"
     borderopacity="0.25"
     inkscape:showpageshadow="2"
     inkscape:pageopacity="0.0"
     inkscape:pagecheckerboard="0"
     inkscape:deskcolor="#d1d1d1"
     inkscape:document-units="mm"
     showgrid="false"
     showguides="false" /><defs
     id="defs2" /><g
     inkscape:groupmode="layer"
     id="layer24"
     inkscape:label="W"
     transform="translate(305.60562,3711.3726)"><g
       id="g40051"
       inkscape:label="W"><rect
         style="fill:#cccccc;fill-opacity:1;stroke:#1a1a1a;stroke-width:20;stroke-linecap:round;stroke-linejoin:round;stroke-dasharray:none;stroke-opacity:1;paint-order:stroke fill markers"
         id="rect38211-4-8-06"
         width="567.94067"
         height="480"
         x="-295.60562"
         y="-3701.3726"
         rx="48.766338"
         ry="48.766338" /><g
         id="g39231"
         transform="translate(-2654.1275,-2203.8345)"><path
           style="fill:#ffffff"
           d="m 2807.087,-1081.216 c -31.7737,-30.8429 -35.7926,-33.1168 -78.1759,-44.2322 -9.625,-2.5243 -19.9707,-5.808 -22.9905,-7.2973 l -5.4906,-2.7077 -5.3613,-6.5 c -15.2662,-18.5083 -20.9071,-23.3873 -30.1576,-26.0839 -6.0394,-1.7606 -10.7887,-4.9736 -15.2623,-10.3255 -12.2899,-14.7026 -18.6785,-17.6338 -25.5667,-11.7301 -6.8245,5.8492 -15.7758,11.8255 -35.4422,23.6633 -8.1241,4.8901 -18.6991,12.0023 -23.5,15.8049 -10.3881,8.228 -13.4265,9.6662 -36.2288,17.1487 -25.4243,8.3429 -23.9217,7.3895 -62.6226,39.7341 -4.4674,3.7337 -8.7835,6.7885 -9.5914,6.7885 h -1.4688 l -9.5804,-19.75 c -5.2691,-10.8625 -15.6905,-32.1625 -23.1585,-47.3334 -7.4681,-15.1708 -13.5783,-28.2848 -13.5783,-29.1422 0,-4.0305 18.0919,-17.7101 34.6034,-26.1643 l 9.1035,-4.6612 3.2471,-6.7245 c 18.6706,-38.6653 37.827,-68.0296 52.2741,-80.1298 l 9.7281,-8.1477 7.0099,-14.2235 c 9.2196,-18.7073 11.8217,-21.557 23.8981,-26.1716 3.83,-1.4635 7.2111,-3.3058 7.5135,-4.0939 l 0.5499,-1.4329 -4.9561,-6.4663 c -2.7259,-3.5564 -7.9971,-11.0995 -11.7138,-16.7625 l -6.7577,-10.2963 0.061,-5 0.061,-5 4.4389,-8.5 4.439,-8.5 2.6417,-0.306 2.6418,-0.306 -0.5095,-1.948 c -0.7481,-2.8607 1.4273,-10.5066 4.2708,-15.011 l 2.4803,-3.929 h 2.3526 c 1.2939,0 3.4967,0.9 4.8951,2 1.3985,1.1 3.2592,2 4.1349,2 h 1.5923 l 0.1151,-2.25 c 0.063,-1.2375 0.047,-2.9686 -0.037,-3.8469 -0.084,-0.8783 0.5523,-2.1814 1.4131,-2.8959 l 1.5651,-1.2989 11.7218,0.6064 c 6.447,0.3335 14.5704,1.3024 18.0519,2.1529 l 6.3301,1.5466 4.6699,3.1433 c 2.5684,1.7289 7.2954,5.3897 10.5044,8.1351 l 5.8346,4.9918 13.1654,-4.0919 c 18.6537,-5.7976 20.3784,-6.1807 27.8535,-6.1869 3.6783,0 9.5283,-0.6555 13,-1.4498 10.6998,-2.4482 25.7077,-4.3245 29.0774,-3.6354 l 3.2063,0.6558 2.3268,3.4619 2.3268,3.4619 2.8721,0.7617 c 9.7865,2.5954 14.4865,15.3611 9.4078,25.5527 l -2.5948,5.2071 -4.2484,3.4812 c -4.1856,3.4298 -15.0645,9.4599 -17.1111,9.4846 -0.577,0.01 -1.594,1.5197 -2.2601,3.3615 -0.666,1.8418 -2.8537,5.4574 -4.8616,8.0346 l -3.6507,4.6859 5.9107,5.1977 c 12.2685,10.7886 18.9074,17.5301 26.6587,27.0708 4.396,5.4109 9.401,10.6967 11.1224,11.7463 l 3.1297,1.9084 h 3.6733 3.6732 l 3.0395,2.5575 c 1.6717,1.4067 6.2159,6.8022 10.0981,11.9899 3.8822,5.1878 12.801,15.1744 19.8195,22.1925 l 12.7609,12.7601 5.5421,8.5 c 3.0482,4.675 8.0156,11.425 11.0387,15 10.4623,12.3724 22.6749,29.1929 25.6541,35.3335 1.6456,3.3916 4.7992,9.9943 7.0082,14.6725 4.8978,10.3728 7.9085,13.5649 21.5566,22.855 12.7137,8.654 12.5161,6.7018 2.5179,24.8797 -4.4648,8.1177 -13.4174,24.4344 -19.8947,36.2594 -6.4773,11.825 -14.6721,26.675 -18.2106,33 l -6.4338,11.5 -3.7456,0.3148 -3.7457,0.3148 -9.6758,-9.3924 z"
           id="path11567" /><path
           style="fill:#1a1a1a"
           d="m 2828.6814,-1085.9532 c 3.5421,-6.325 11.7407,-21.175 18.219,-33 6.4783,-11.825 15.206,-27.7371 19.3947,-35.3603 4.1888,-7.6231 7.616,-14.1602 7.616,-14.5269 0,-0.3667 -5.1791,-4.2546 -11.5092,-8.6398 l -11.5092,-7.973 -3.04,-4.2319 c -1.672,-2.3276 -5.0608,-8.7898 -7.5306,-14.3604 -6.3024,-14.2146 -13.4244,-24.7808 -30.1871,-44.7856 -2.9393,-3.5078 -8.0565,-10.4116 -11.3716,-15.3419 l -6.0275,-8.9642 -12.5688,-12.658 c -6.9129,-6.962 -15.7239,-16.8731 -19.58,-22.0247 -6.9664,-9.3068 -11.3463,-13.1024 -15.176,-13.1516 -1.1,-0.014 -3.8499,-0.8658 -6.1108,-1.8925 l -4.1108,-1.8669 -8.0192,-9.8612 c -8.04,-9.8869 -19.194,-21.1574 -29.0092,-29.3123 -6.2314,-5.1774 -6.2682,-5.4278 -1.6794,-11.4375 1.9638,-2.572 4.4376,-6.6364 5.4973,-9.0321 l 1.9268,-4.3557 3.383,-0.6347 c 8.2302,-1.544 20.2353,-12.0161 22.521,-19.6452 l 1.1816,-3.9437 -1.1864,-3.9597 c -1.5428,-5.1494 -6.121,-9.7551 -11.0038,-11.0699 l -3.8901,-1.0475 v -1.3507 c 0,-0.7428 -0.8325,-2.3788 -1.8501,-3.6354 l -1.8501,-2.2848 -4.8999,0.1313 c -2.6949,0.072 -10.0749,1.1076 -16.3999,2.301 -6.325,1.1933 -16,2.5186 -21.5,2.9452 -9.8452,0.7635 -16.7703,2.3996 -31.4252,7.4245 -9.8593,3.3807 -10.332,3.3162 -16.9038,-2.3036 -8.9525,-7.6557 -14.331,-10.8746 -21.2452,-12.7147 l -6.4258,-1.7101 -11.5,-0.1128 -11.5,-0.1128 -0.3048,4.75 -0.3048,4.75 h -2.5772 c -1.4174,0 -4.1042,-0.9438 -5.9706,-2.0972 -4.3206,-2.6703 -5.3279,-2.2246 -8.2655,3.6573 l -2.4002,4.806 -0.088,5.5669 -0.088,5.567 -2,0.1019 c -1.1,0.056 -2.4916,0.1686 -3.0923,0.25 -1.6796,0.2277 -8.5938,15.7303 -8.701,19.5085 l -0.095,3.349 4.625,7.3953 c 2.5436,4.0674 7.7965,11.6703 11.673,16.8953 9.7328,13.1186 9.5912,14.3639 -2.1737,19.1064 l -8.1127,3.2702 -3.7701,3.7701 -3.77,3.77 -7.111,14.5707 -7.1109,14.5707 -9.1807,7.5416 c -14.2764,11.7274 -32.8789,39.933 -51.2963,77.7766 -4.4441,9.1319 -5.4299,10.1161 -14.8844,14.8607 -11.2175,5.6294 -19.9967,11.4729 -27.0487,18.0039 l -6.0486,5.6018 9.6778,19.8287 c 5.3228,10.9058 15.5726,31.9063 22.7773,46.6679 l 13.0996,26.8391 2.8727,-2.3391 c 1.5799,-1.2866 8.6163,-7.0642 15.6362,-12.8392 27.4198,-22.5569 29.0854,-23.5401 52.4386,-30.9541 21.3276,-6.7709 24.8878,-8.4534 35.2846,-16.6747 4.7792,-3.7792 14.9042,-10.637 22.5,-15.2396 21.3647,-12.9457 29.1884,-18.1489 36.6613,-24.3816 9.2321,-7.6999 11.1558,-6.9303 29.2051,11.6842 l 7.056,7.2769 5.944,2.1759 c 12.2904,4.4992 18.6899,9.6954 31.2917,25.4079 9.115,11.365 7.6903,10.7029 44.5692,20.7126 32.9479,8.9428 37.4127,11.655 68.815,41.8031 l 9.7318,9.3431 1.6832,-0.3269 1.6833,-0.3268 6.4402,-11.5 z"
           id="path11569" /><path
           style="fill:#000000"
           d="m 2614.1808,-1418.5803 1.7698,-0.5203 -4.7698,-3.9911 c -2.6233,-2.1951 -6.5697,-5.0558 -8.7697,-6.357 l -4,-2.3659 -9.7106,-1.0694 c -12.5096,-1.3775 -11.7894,-1.4649 -11.7894,1.4307 v 2.5 h 3.9171 c 4.9251,0 11.0836,2.6162 18.6713,7.9318 l 5.9116,4.1413 3.5,-0.5898 c 1.925,-0.3245 4.2964,-0.8241 5.2697,-1.1103 z"
           id="path11611" /><path
           style="fill:#f7c73b;fill-opacity:1"
           d="m 2599.8239,-1417.8163 c -8.0383,-5.7367 -13.5503,-8.2441 -19.4652,-8.8546 l -5.2971,-0.5467 -0.6157,-2.4529 c -0.3386,-1.3491 -0.3221,-3.3776 0.037,-4.5079 l 0.6523,-2.055 10.6381,0.6601 10.6382,0.6601 6,2.9224 c 3.3,1.6074 8.4425,5.1119 11.4277,7.788 l 5.4276,4.8655 -0.6961,1.1264 c -0.6251,1.0115 -10.0795,4.2576 -12.4003,4.2576 -0.5133,0 -3.3691,-1.7383 -6.3461,-3.863 z"
           id="path11609" /><path
           style="fill:#f7c73b;fill-opacity:1"
           d="m 2699.9111,-1412.3456 v -2.6506 l 2.25,-0.8555 c 7.2499,-2.7567 13.522,-5.0203 15.3946,-5.556 l 2.1447,-0.6135 1.6585,1.6586 c 0.9123,0.9122 1.5222,2.615 1.3554,3.7839 l -0.3032,2.1254 -5.0553,1.6783 c -2.7804,0.9231 -7.8429,1.9937 -11.25,2.3792 l -6.1947,0.7008 z"
           id="path11607" /><path
           style="fill:#000000"
           d="m 2628.0455,-1408.3516 6.3725,-2.3986 16.9965,-2.5984 c 9.3481,-1.4292 21.5534,-3.287 27.1229,-4.1286 11.4324,-1.7274 23.6882,-5.5703 27.2838,-8.555 l 2.4101,-2.0006 -0.9101,-0.8806 -0.9101,-0.8807 -13,1.9223 c -30.8751,4.5654 -51.5927,9.1361 -65.3573,14.4189 -2.0035,0.769 -5.5987,1.9001 -7.9893,2.5135 l -4.3465,1.1155 1.7515,1.9354 c 2.2293,2.4633 2.8765,2.435 10.576,-0.4631 z"
           id="path11605" /><path
           style="fill:#f7c73b;fill-opacity:1"
           d="m 2615.238,-1406.2922 -3.6437,-3.3392 0.6699,-1.0839 c 0.3684,-0.5961 2.1272,-1.3802 3.9084,-1.7425 1.7812,-0.3623 7.0635,-1.936 11.7385,-3.4972 20.8548,-6.9644 57.4425,-14.3771 75,-15.1952 l 6.5,-0.3028 0.2976,3.0391 0.2977,3.0391 -4.0012,2.2488 c -8.9358,5.0221 -15.4594,6.526 -48.5941,11.202 -18.4603,2.6051 -26.3712,4.3545 -31.4815,6.9616 -5.3012,2.7044 -6.4446,2.5622 -10.6916,-1.3298 z"
           id="path11603" /><path
           style="fill:#f7c73b;fill-opacity:1"
           d="m 2703.5301,-1393.7605 c -0.2745,-0.444 -0.8028,-3.0973 -1.1741,-5.896 l -0.675,-5.0887 1.865,-0.5481 c 1.6866,-0.4957 9.4545,-2.0782 16.6151,-3.3849 l 2.75,-0.5018 v 1.9053 c 0,4.7591 -17.3255,16.8401 -19.381,13.5142 z"
           id="path11601" /><path
           style="fill:#f7c73b;fill-opacity:1"
           d="m 2676.2727,-1389.453 c -1.2419,-3.2364 10.3817,-12.0516 16.809,-12.7477 l 2.3294,-0.2526 v 4 4 l -6.4052,3.25 c -3.5228,1.7875 -7.6994,3.25 -9.2813,3.25 h -2.8763 l -0.5756,-1.5 z"
           id="path11599" /><path
           style="fill:#000000"
           d="m 2593.8324,-1389.377 c 0.8683,-0.7831 5.3405,-3.4321 9.9382,-5.8868 l 8.3596,-4.463 -8.1972,-6.09 c -4.5084,-3.3495 -10.616,-7.4739 -13.5725,-9.1655 l -5.3755,-3.0755 -3.2869,0.577 -3.287,0.577 -10.75,-4.4257 -10.75,-4.4257 0.073,3.151 c 0.04,1.733 0.4192,5.5892 0.8423,8.5693 l 0.7693,5.4184 2.9077,2.3274 c 1.5992,1.2801 5.1803,2.9908 7.958,3.8015 4.8178,1.4062 17.4427,9.4111 20.3304,12.8906 1.6647,2.0058 2.0377,2.0261 4.0406,0.22 z"
           id="path11597" /><path
           style="fill:#f7c73b;fill-opacity:1"
           d="m 2586.6959,-1388.7556 c -7.3638,-6.2823 -14.0819,-10.4571 -18.8526,-11.7156 -2.7749,-0.732 -6.5288,-2.4625 -8.3422,-3.8456 l -3.297,-2.5148 -0.6378,-5.3109 c -0.3508,-2.9209 -0.6417,-7.6733 -0.6465,-10.5608 l -0.01,-5.25 1.75,0.01 c 0.9625,0.01 6.25,1.8268 11.75,4.0477 l 10,4.0382 3.1116,-0.5672 3.1117,-0.5671 5.6188,2.9557 c 3.0904,1.6256 9.9027,6.1334 15.1384,10.0173 l 9.5195,7.0617 v 1.5234 c 0,0.8379 -1.2375,2.0642 -2.75,2.7251 -1.5125,0.661 -6.433,3.3513 -10.9345,5.9786 -9.5667,5.5836 -10.1995,5.6696 -14.5307,1.9746 z"
           id="path11595" /><path
           style="fill:#000000"
           d="m 2618.6943,-1378.343 c 8.5842,-4.3491 23.6768,-10.5046 38.0301,-15.5106 7.7878,-2.7162 16.815,-6.5515 20.0604,-8.523 3.2455,-1.9715 7.5752,-4.2841 9.6217,-5.1392 2.0464,-0.8551 3.5596,-1.6997 3.3627,-1.8769 -0.9563,-0.8607 -37.695,4.8846 -48.3581,7.5624 l -8,2.0089 -16,8.5671 c -8.8,4.7119 -16.1422,8.687 -16.3161,8.8335 -3.9637,3.3401 11.8316,7 17.5993,4.0778 z"
           id="path11593" /><path
           style="fill:#f7c73b;fill-opacity:1"
           d="m 2604.1611,-1376.685 -6.25,-3.7045 v -1.7675 -1.7675 l 6.25,-3.1279 c 3.4375,-1.7204 10.6206,-5.5897 15.9625,-8.5986 l 9.7124,-5.4708 8.3922,-2.3089 c 4.6157,-1.2699 16.2201,-3.4972 25.7875,-4.9495 9.5675,-1.4522 19.8704,-3.0289 22.8954,-3.5037 7.3594,-1.1551 9.9174,1.1279 4.75,4.2392 -12.0957,7.2827 -21.1053,11.6042 -32.6285,15.6506 -15.3253,5.3814 -27.0873,10.1506 -38.0933,15.4459 -9.1736,4.4137 -9.1,4.4143 -16.7782,-0.1368 z"
           id="path11591" /><path
           style="fill:#000000"
           d="m 2595.6769,-1363.8462 5.3896,-5.393 -1.3277,-0.8905 c -0.7302,-0.4898 -2.2277,-1.3954 -3.3277,-2.0124 -1.1,-0.6171 -5.15,-3.711 -9,-6.8754 -9.225,-7.5824 -17.4704,-12.9305 -19.9772,-12.9578 -2.8714,-0.031 -9.2899,-3.3733 -14.3505,-7.4725 -5.5193,-4.4706 -5.8486,-4.4266 -8.217,1.0987 l -1.9735,4.6042 3.7109,6.1458 c 3.397,5.6258 10.2865,16.2776 13.6596,21.1189 l 1.3747,1.9731 2.8865,-0.2107 2.8865,-0.2108 2,3.411 c 1.1,1.8761 4.4544,6.0936 7.4541,9.3723 l 5.4542,5.9613 3.9839,-6.1346 c 2.1911,-3.3741 6.4092,-8.5615 9.3736,-11.5276 z"
           id="path11589" /><path
           style="fill:#f7c73b;fill-opacity:1"
           d="m 2574.3759,-1351.2033 c -3.6973,-3.9875 -7.1547,-8.1924 -7.6831,-9.3442 l -0.9608,-2.0942 -2.3414,0.4476 -2.3415,0.4476 -2.1685,-2.3534 c -1.1926,-1.2944 -5.7236,-7.9707 -10.0689,-14.8363 l -7.9006,-12.4829 0.041,-2.5171 c 0.023,-1.3844 1.0352,-4.5421 2.25,-7.0171 l 2.2088,-4.5 1.784,-0.3299 1.784,-0.3298 7.216,5.455 7.216,5.455 3.9069,0.5874 c 4.4051,0.6624 10.2471,4.3167 22.5131,14.0828 4.631,3.6872 9.6935,7.3625 11.25,8.1674 3.9583,2.0469 3.5737,3.5753 -2.2882,9.0938 -2.815,2.6501 -7.3287,8.0808 -10.0305,12.0683 -2.7017,3.9875 -5.5314,7.25 -6.2882,7.25 -0.7567,0 -4.401,-3.2625 -8.0983,-7.25 z"
           id="path11587" /><path
           style="fill:#000000"
           d="m 2638.9111,-1262.6901 c 0,-0.8518 -3.1386,-4.5594 -6.9747,-8.2389 -3.8361,-3.6796 -9.1848,-10.0278 -11.886,-14.1072 -2.7011,-4.0794 -6.2657,-8.9921 -7.9211,-10.9171 l -3.01,-3.5 -1.648,6 c -0.9065,3.3 -2.9163,10.1325 -4.4662,15.1833 l -2.8182,9.1834 5.1121,1.2206 c 2.8117,0.6713 9.6121,3.1043 15.1121,5.4066 l 10,4.186 4.25,-1.4339 4.25,-1.434 z"
           id="path11585" /><path
           style="fill:#f7c73b;fill-opacity:1"
           d="m 2617.464,-1260.6529 c -6.0209,-2.5248 -12.8834,-4.8088 -15.25,-5.0755 l -4.3029,-0.485 0.013,-2.12 c 0.01,-1.1659 1.0809,-5.4949 2.3865,-9.6199 1.3055,-4.125 3.4304,-11.6625 4.7218,-16.75 3.0306,-11.9383 5.0777,-10.9347 17.779,8.7168 2.149,3.3249 7.3256,9.3868 11.5036,13.4709 l 7.5963,7.4257 v 2.6194 2.6193 l -3.6935,1.5432 c -2.0314,0.8488 -5.0689,1.7013 -6.75,1.8945 l -3.0565,0.3512 -10.9471,-4.5906 z"
           id="path11583" /><path
           style="fill:#000000"
           d="m 2589.1631,-1238.1608 3.0893,-1.7075 4.0793,0.532 4.0794,0.5319 7,-4.2306 c 3.85,-2.3268 8.2704,-5.2839 9.8231,-6.5714 l 2.8231,-2.3408 -2.6484,-1.0069 c -1.4566,-0.5538 -6.7517,-2.1874 -11.7669,-3.6303 l -9.1186,-2.6233 -6.0561,-0.027 -6.0562,-0.026 -3.5,1.5249 c -6.4217,2.7979 -16.9636,15.8826 -16.9906,21.089 l -0.01,1.8066 3.0777,-1.8066 c 1.6927,-0.9936 5.9943,-4.8666 9.559,-8.6067 l 6.4812,-6.8002 5.0898,0.3002 5.0898,0.3002 2.012,2.7038 2.012,2.7038 -1.2832,1.5462 -1.2832,1.5462 h -3.2502 -3.2502 l -4.1274,4.4777 c -4.9315,5.3501 -5.1564,6.1667 -1.046,3.798 1.6948,-0.9766 4.4715,-2.5441 6.1707,-3.4832 z"
           id="path11581" /><path
           style="fill:#f7c73b;fill-opacity:1"
           d="m 2577.9111,-1233.3125 v -2.3592 l 4.085,-4.6408 4.085,-4.6408 h 2.3332 c 1.2833,0 3.0645,-0.2806 3.9582,-0.6236 l 1.6249,-0.6235 -1.6981,-1.8765 -1.6982,-1.8764 h -3.0603 -3.0603 l -5.5347,5.9604 c -6.8689,7.3973 -11.7285,11.0396 -14.729,11.0396 h -2.3057 v -3.2356 c 0,-1.7797 1.2194,-5.6458 2.7097,-8.5914 l 2.7098,-5.3557 5.1525,-4.7091 5.1525,-4.7091 4.0037,-1.1995 c 7.3852,-2.2127 15.0188,-1.2725 31.5218,3.8821 l 9.75,3.0454 v 1.873 1.8729 l -8.3336,5.545 c -4.5835,3.0498 -9.9823,6.2339 -11.9973,7.0758 l -3.6636,1.5307 -3.7527,-0.5914 -3.7528,-0.5914 -4.5,3.061 c -2.475,1.6835 -5.5125,3.0691 -6.75,3.0791 l -2.25,0.018 z"
           id="path11579" /><path
           style="fill:#000000"
           d="m 2464.3002,-1106.2949 c 25.9105,-22.6491 35.8317,-28.7577 60.2915,-37.122 22.677,-7.7546 26.8434,-9.67 34.3816,-15.8059 7.0494,-5.7381 18.1598,-13.0979 29.4378,-19.5002 14.3924,-8.1705 32.4819,-23.1635 54.8546,-45.4652 5.4201,-5.4028 14.2826,-12.9628 19.6946,-16.8 13.038,-9.2441 13.3033,-10.25 3.4508,-13.0827 l -4,-1.1501 -7,1.1553 c -10.934,1.8044 -18.6667,4.7752 -28.2016,10.8346 -4.8391,3.0752 -11.9252,7.4306 -15.7467,9.6787 l -6.9484,4.0874 -6.2894,0.2169 -6.2895,0.2169 -2.7622,2.0047 -2.7622,2.0047 -6.8022,1.0618 c -6.117,0.9548 -13.001,0.7469 -19.5137,-0.5893 l -2.3159,-0.4752 -1.4536,-3.4789 -1.4536,-3.479 0.9873,-6.1304 c 0.543,-3.3717 1.6912,-8.2497 2.5515,-10.84 l 1.5643,-4.7096 4.3969,-4.5889 c 5.4972,-5.7371 11.461,-8.8365 18.4833,-9.6057 l 5.4443,-0.5963 5.2856,-16.5 c 6.5463,-20.4352 6.5511,-20.2521 -0.3738,-14.08 -7.458,6.6472 -12.3004,6.3182 -12.3004,-0.8356 v -2.7728 l 4.1539,-4.1128 c 2.2847,-2.2621 7.1745,-5.7001 10.8663,-7.6401 l 6.7122,-3.5272 4.2147,-5.4629 c 8.713,-11.2937 21.6798,-19.8582 52.3236,-34.5595 l 14.3286,-6.8741 9.6067,-8.6023 c 5.2837,-4.7313 9.8597,-9.2616 10.169,-10.0675 0.6891,-1.7959 0.8167,-1.797 -4.375,0.035 -2.3383,0.825 -6.7143,1.5 -9.7245,1.5 h -5.4731 l -2.6782,-2.867 -2.6782,-2.8671 -17.973,6.8375 c -9.8852,3.7607 -22.248,8.9508 -27.473,11.5336 l -9.5,4.696 -7.5,7.6317 c -4.125,4.1974 -10.65,11.0128 -14.5,15.1452 l -7,7.5136 -10.642,7.1382 -10.642,7.1381 -3.7701,4.6009 -3.7701,4.6009 -2.5879,-0.3008 -2.5879,-0.3008 -0.2984,-2.5635 -0.2985,-2.5636 3.9858,-5.9687 c 4.1829,-6.264 8.7728,-10.459 15.8534,-14.4894 5.3195,-3.028 4.8599,-4.3607 -4.0556,-11.7599 l -1.5773,-1.309 -2.934,3.2838 c -1.6138,1.8061 -6.7009,5.7783 -11.3047,8.8271 l -8.3707,5.543 -7,14.1621 c -8.0627,16.3119 -8.4513,16.8126 -18.5799,23.9355 l -7.5799,5.3305 -4.0196,5.7859 c -6.2337,8.9728 -19.0065,30.9368 -29.8247,51.286 -5.4093,10.175 -11.0887,20.352 -12.6209,22.6155 l -2.7858,4.1153 -8.2946,4.2604 c -9.5801,4.9206 -26.4145,15.8155 -29.195,18.8944 l -1.9004,2.1043 3.325,7.2551 c 1.8287,3.9903 10.2213,21.2966 18.6503,38.4584 8.4291,17.1618 15.3255,31.6743 15.3255,32.25 0,1.8314 1.1356,1.1713 7.3891,-4.295 z"
           id="path11577" /><path
           style="fill:#f7c73b;fill-opacity:1"
           d="m 2452.7628,-1105.2032 c -1.8179,-3.9875 -8.9811,-18.725 -15.9182,-32.75 -16.0711,-32.4917 -20.2353,-41.771 -19.5486,-43.5607 0.9536,-2.485 17.0934,-13.6835 28.8417,-20.0115 l 11.2734,-6.0723 2.6284,-3.9277 c 1.4457,-2.1603 5.2229,-8.8779 8.3939,-14.9279 24.6419,-47.0152 34.1729,-61.4839 46.6353,-70.7957 l 8.3037,-6.2043 2.5894,-4 c 1.4242,-2.2 4.0998,-7.5302 5.9457,-11.8448 1.846,-4.3147 4.5997,-9.722 6.1193,-12.0162 l 2.7629,-4.1712 5.8107,-3.4839 c 3.1959,-1.9162 8.1825,-5.8464 11.0813,-8.7339 2.8988,-2.8875 5.8107,-5.25 6.471,-5.25 1.7843,0 12.7641,11.192 12.7228,12.9687 l -0.036,1.5313 -6.5623,4 c -7.0297,4.2848 -13.4253,10.7583 -16.4263,16.6262 -2.8418,5.5566 -1.1749,5.3849 4.4572,-0.4591 2.8064,-2.9119 9.1526,-7.9083 14.1026,-11.103 l 9,-5.8085 8.5,-9.0939 c 4.675,-5.0016 11.425,-12.0477 15,-15.658 l 6.5,-6.5642 9.5,-4.7294 c 5.225,-2.6012 17.15,-7.6974 26.5,-11.3249 9.35,-3.6276 18.3078,-7.1107 19.9063,-7.7404 l 2.9063,-1.1448 0.4914,1.4432 c 0.2703,0.7937 1.5295,2.4812 2.7982,3.75 l 2.3068,2.3068 3.2955,0.01 c 1.8125,0.01 6.113,-0.9794 9.5566,-2.1888 l 6.2611,-2.199 1.1333,1.1332 1.1332,1.1332 -1.2591,3.0398 -1.2591,3.0397 -9.6104,8.6056 -9.6104,8.6056 -13.463,6.4278 c -15.9523,7.6164 -33.4323,17.1941 -41.0867,22.5125 l -5.5,3.8215 -5.4318,6.9694 -5.4318,6.9694 -5.0682,2.7236 c -11.609,6.2385 -17.2409,11.4799 -15.95,14.844 1.0091,2.6297 3.3326,1.7562 9.1711,-3.4476 3.0854,-2.75 6.4201,-5 7.4103,-5 h 1.8004 v 1.917 c 0,1.7633 -8.9942,31.8564 -10.964,36.6839 l -0.8573,2.1008 -5.4618,0.5637 c -10.0919,1.0416 -18.9336,7.272 -23.241,16.3769 l -2.6048,5.5061 -0.5694,6.792 -0.5694,6.792 2.2408,2.2407 2.2408,2.2408 10.7317,-0.3673 10.7317,-0.3673 4.2837,-2.8348 4.2838,-2.8349 4.25,0.6374 4.2501,0.6373 7.3775,-3.8931 c 4.0577,-2.1412 11.2597,-6.4274 16.0045,-9.5249 10.4932,-6.8503 15.2276,-8.9413 25.3352,-11.1901 l 7.7792,-1.7307 6.1293,0.5012 6.1294,0.5012 3.8025,2.2558 3.8025,2.2559 -0.3025,2.0931 -0.3025,2.0932 -11.7967,8.5356 c -6.4882,4.6945 -14.0209,11.0713 -16.7394,14.1705 -4.5522,5.1897 -28.1755,26.6429 -40.2352,36.5389 -2.8089,2.3049 -12.3345,8.5161 -21.1679,13.8026 -8.8335,5.2865 -19.4358,12.3284 -23.5608,15.6487 -9.7972,7.8858 -12.8844,9.3722 -35.7052,17.1913 -26.0026,8.9092 -32.1387,12.6167 -58.8444,35.5542 -5.1947,4.4618 -10.0859,8.1124 -10.8693,8.1124 h -1.4242 l -3.3053,-7.25 z"
           id="path11575" /><path
           style="fill:#000000"
           d="m 2834.8785,-1108.9532 c 6.7554,-12.375 16.5986,-30.1128 21.8737,-39.4174 l 9.591,-16.9174 -2.466,-1.7821 c -1.3564,-0.9801 -6.8333,-4.9749 -12.171,-8.8775 l -9.7049,-7.0954 -3.4632,-5.7051 c -1.9048,-3.1378 -4.4023,-8.0898 -5.55,-11.0045 -4.6036,-11.6909 -9.1988,-19.0506 -22.6035,-36.2007 -4.5137,-5.775 -10.6829,-14.325 -13.7092,-19 l -5.5024,-8.5 -14.9684,-15.6021 c -8.2326,-8.5812 -17.5837,-18.8391 -20.7802,-22.7954 l -5.8118,-7.1931 -4.1335,-2.4224 c -2.2734,-1.3323 -6.1214,-3.1238 -8.5511,-3.981 -5.5217,-1.9482 -6.5726,-2.8988 -15.6431,-14.1513 -7.7683,-9.6369 -20.3369,-21.997 -29.0822,-28.5998 l -5.2166,-3.9385 -4.0161,2.8418 c -5.1705,3.6586 -5.6359,2.7868 6.1911,11.5955 18.1984,13.5539 25.1816,22.9147 20.55,27.5463 -1.9195,1.9195 -2.6338,1.5417 -9.6472,-5.1029 -5.6412,-5.3446 -20.6381,-17.8991 -28.5504,-23.9007 l -2.2459,-1.7035 -9.2333,4.4535 c -5.0783,2.4495 -9.7084,4.4536 -10.2891,4.4536 -0.5807,0 1.4421,2.5875 4.4952,5.75 3.053,3.1625 7.8716,8.675 10.708,12.25 7.0241,8.8531 12.6495,14.6136 17.7127,18.1379 l 4.25,2.9582 v 1.7776 c 0,0.9777 -1.1001,2.8111 -2.4446,4.0743 l -2.4447,2.2966 -2.4347,-0.6111 c -3.6816,-0.924 -11.769,-8.6766 -23.0266,-22.0733 -5.574,-6.6331 -11.6856,-13.4917 -13.5815,-15.2413 l -3.447,-3.181 -4.5605,2.5822 c -10.741,6.0818 -14.1342,8.696 -18.0923,13.9384 l -4.1927,5.5532 1.1922,2.2278 c 2.6948,5.0353 15.0686,20.5488 22.8405,28.6362 9.4152,9.7972 11.1173,11.9987 12.0904,15.637 l 0.6887,2.5752 10.4564,0.1066 10.4564,0.1065 3.4382,1.8725 c 1.8911,1.0299 5.8286,4.2628 8.75,7.1843 l 5.3118,5.3118 v 1.9801 1.9802 l -5.1306,4.085 c -2.8219,2.2468 -5.6344,4.1106 -6.25,4.1417 -0.6157,0.031 2.4806,1.7563 6.8806,3.8338 4.4,2.0774 9.4865,5.0372 11.3034,6.5772 l 3.3034,2.8 -0.3034,3.1162 -0.3034,3.1162 -3.0195,0.2962 -3.0196,0.2961 -12.3541,-6.0801 -12.3542,-6.0801 -2.6038,1.706 c -1.432,0.9384 -5.5389,4.6908 -9.1263,8.3387 -3.5874,3.6479 -8.9957,8.8013 -12.0184,11.4519 l -5.496,4.8191 4.4836,3.6262 c 2.466,1.9943 8.5832,7.4981 13.5938,12.2305 l 9.1102,8.6045 7.1924,2.7483 c 9.4166,3.5983 15.1908,8.3019 24.1758,19.6933 12.475,15.8162 12.2092,15.6639 38.9361,22.3185 23.9417,5.9612 35.957,9.9601 41.7937,13.9097 5.7487,3.8901 28.2654,22.8548 37.1452,31.2857 l 6.4927,6.1645 1.1266,-1.6645 c 0.6196,-0.9154 6.6537,-11.7894 13.4092,-24.1644 z"
           id="path11573" /><path
           style="fill:#f7c73b;fill-opacity:1"
           d="m 2816.3929,-1083.2365 c -1.64,-1.8374 -5.6818,-5.6402 -8.9818,-8.4506 -3.3,-2.8104 -11.3134,-9.6413 -17.8076,-15.1796 -17.9287,-15.2899 -20.5222,-16.4751 -55.0777,-25.1695 -28.1801,-7.0903 -28.6304,-7.3446 -40.578,-22.9244 -9.2567,-12.0707 -13.8879,-15.7201 -25.4291,-20.0382 l -5.5552,-2.0785 -10.4675,-9.8423 c -5.7572,-5.4133 -12.069,-11.0638 -14.0262,-12.5566 -4.6229,-3.5261 -4.4873,-5.3989 0.6913,-9.5447 2.3375,-1.8714 8.8312,-7.7968 14.4304,-13.1675 l 10.1804,-9.7649 h 2.585 c 1.4217,0 8.0285,2.7288 14.6818,6.0639 6.6532,3.3352 12.7213,5.8243 13.4846,5.5314 3.9438,-1.5134 -0.5846,-5.6495 -12.3622,-11.2914 l -9.25,-4.4311 v -1.4107 c 0,-0.7759 1.296,-2.081 2.8801,-2.9001 11.3127,-5.85 10.4886,-11.5572 -2.7965,-19.3673 l -4.5836,-2.6947 h -10.4259 -10.4258 l -0.7266,-2.7086 c -0.9873,-3.6806 -4.5478,-8.6251 -9.0412,-12.5556 -4.6492,-4.0669 -14.8288,-16.2339 -22.2747,-26.6238 l -5.653,-7.888 0.6456,-2.112 c 2.2688,-7.4224 22.2444,-23.612 29.1339,-23.612 h 1.8255 l 6.0769,6.25 c 3.3423,3.4375 8.4352,9.175 11.3176,12.75 11.8461,14.693 19.6165,21.589 23.0855,20.488 3.1833,-1.0103 2.2824,-3.0703 -3.0033,-6.8678 -2.7311,-1.962 -7.7936,-7.0403 -11.25,-11.285 -3.4565,-4.2448 -9.547,-11.3996 -13.5345,-15.8996 -9.1428,-10.318 -9.355,-9.5249 4.2985,-16.0644 l 11.5484,-5.5314 5.2016,4.3924 c 2.8608,2.4158 9.0265,7.4661 13.7015,11.2229 4.675,3.7568 10.8514,9.1025 13.7253,11.8792 5.6697,5.4779 7.7543,5.5686 4.8694,0.2117 -2.682,-4.9803 -8.0519,-10.2026 -19.8771,-19.3314 -5.8089,-4.4843 -10.8689,-8.6504 -11.2444,-9.258 l -0.6827,-1.1047 2.3377,-2.4883 c 1.2857,-1.3686 3.8265,-3.4086 5.6463,-4.5332 l 3.3085,-2.0448 4.1352,2.8572 c 7.5243,5.199 22.5122,19.1714 28.4424,26.5154 3.2117,3.9772 7.7922,9.3709 10.1789,11.9859 l 4.3394,4.7546 5.1606,1.7088 c 7.6257,2.525 12.0631,5.8689 18.5168,13.9538 3.1828,3.9874 12.5047,14.2877 20.7153,22.8896 l 14.9284,15.6398 4.6832,7.2047 c 2.5758,3.9625 6.8508,10.0752 9.5,13.5837 2.6493,3.5085 8.0912,10.7085 12.0933,16 4.0021,5.2915 8.8892,12.996 10.8601,17.121 1.971,4.125 5.4028,11.2363 7.6262,15.8028 l 4.0427,8.3029 4.0111,3.4333 c 2.2061,1.8883 8.2463,6.4354 13.4226,10.1047 l 9.4117,6.6714 -0.4772,1.8247 c -0.2625,1.0036 -5.6394,10.9452 -11.9487,22.0925 -6.3094,11.1472 -16.6516,29.7177 -22.9828,41.2677 -12.4879,22.7817 -12.8472,23.161 -17.2604,18.2167 z"
           id="path11571" /></g></g></g></svg>
