<?xml version="1.0" encoding="UTF-8" standalone="no"?>
<!-- Created with Inkscape (http://www.inkscape.org/) -->

<svg
   width="587.94067mm"
   height="500mm"
   viewBox="0 0 587.94067 500"
   version="1.1"
   id="svg5"
   xml:space="preserve"
   xmlns:inkscape="http://www.inkscape.org/namespaces/inkscape"
   xmlns:sodipodi="http://sodipodi.sourceforge.net/DTD/sodipodi-0.dtd"
   xmlns="http://www.w3.org/2000/svg"
   xmlns:svg="http://www.w3.org/2000/svg"><sodipodi:namedview
     id="namedview7"
     pagecolor="#ffffff"
     bordercolor="#000000"
     borderopacity="0.25"
     inkscape:showpageshadow="2"
     inkscape:pageopacity="0.0"
     inkscape:pagecheckerboard="0"
     inkscape:deskcolor="#d1d1d1"
     inkscape:document-units="mm"
     showgrid="false"
     showguides="false" /><defs
     id="defs2" /><g
     inkscape:groupmode="layer"
     id="layer25"
     inkscape:label="X"
     transform="translate(-432.88852,3711.3726)"><g
       id="g40067"
       inkscape:label="X"><rect
         style="fill:#cccccc;fill-opacity:1;stroke:#1a1a1a;stroke-width:20;stroke-linecap:round;stroke-linejoin:round;stroke-dasharray:none;stroke-opacity:1;paint-order:stroke fill markers"
         id="rect38211-4-8-86"
         width="567.94067"
         height="480"
         x="442.88852"
         y="-3701.3726"
         rx="48.766338"
         ry="48.766338" /><g
         id="g39245"
         transform="translate(-2482.9751,-2197.9192)"><path
           style="fill:#ffffff"
           d="m 3405.2509,-1097.7951 c -2.6619,-2.113 -12.4898,-10.4889 -21.8398,-18.6132 -28.3727,-24.6532 -30.6027,-25.8984 -49.3492,-27.557 -23.7068,-2.0976 -30.2208,-3.0463 -36.4576,-5.3102 -7.1098,-2.5807 -32.515,-17.0716 -50.6633,-28.898 l -11.8473,-7.7203 -3.5355,-4.3146 c -16.0555,-19.5936 -17.1529,-49.5681 -1.9544,-53.3826 l 2.5386,-0.6372 -0.6391,-6.6125 -0.6392,-6.6126 1.5615,-5.9447 c 3.2409,-12.3381 8.1247,-18.3692 20.8149,-25.7048 3.9438,-2.2798 7.3558,-4.3015 7.5823,-4.4927 0.769,-0.6497 -5.1132,-10.8145 -14.6963,-25.3961 l -9.5547,-14.5383 -7.0803,4.68 c -3.8942,2.5739 -11.9208,7.2809 -17.8368,10.46 l -10.7564,5.78 -6.1446,6.5783 c -3.3796,3.6181 -8.8053,9.3658 -12.0572,12.7726 l -5.9125,6.1944 4.3135,1.052 c 2.3725,0.5786 7.3347,1.9743 11.0271,3.1016 l 6.7136,2.0496 1.9535,2.4835 c 1.0745,1.3659 2.2352,4.1577 2.5794,6.204 l 0.6258,3.7206 -2.552,8.7966 c -1.4036,4.8381 -3.8979,11.4628 -5.5429,14.7215 -1.645,3.2587 -2.9909,6.3662 -2.9909,6.9057 v 0.9808 l 6.2127,0.2977 6.2127,0.2977 0.8007,3.5 c 0.4404,1.925 0.8791,9.8 0.975,17.5001 l 0.1743,14 -2.0428,4.5 -2.0429,4.5 -20.4044,20.0367 c -21.8844,21.49 -28.5783,27.2606 -35.9636,31.003 -10.2211,5.1794 -48.1808,14.9312 -71.8007,18.4455 -18.0862,2.691 -21.5431,4.0102 -38.1033,14.5407 l -13.4669,8.5636 -2.5254,-0.2948 -2.5254,-0.2947 -0.7502,-5.5 c -0.4127,-3.025 -2.9813,-21.475 -5.708,-41 -2.7268,-19.525 -5.6613,-41.125 -6.521,-48 -0.8598,-6.875 -1.8186,-13.7566 -2.1308,-15.2925 l -0.5676,-2.7924 16.3887,-16.7077 c 9.0137,-9.1891 19.0662,-20.2929 22.3388,-24.6752 12.7163,-17.028 35.4902,-38.5396 52.1949,-49.3019 l 6.2448,-4.0233 6.7552,-1.1618 c 13.9602,-2.4009 25.517,-10.1318 45.7552,-30.6076 15.5592,-15.7418 23.6179,-21.5114 38.2006,-27.3493 2.6397,-1.0567 6.5208,-2.6541 8.6247,-3.5498 l 3.8253,-1.6284 -8.8253,-9.273 -8.8253,-9.273 -4.2575,-7.6958 c -2.3416,-4.2326 -4.7915,-9.6923 -5.4441,-12.1325 l -1.1867,-4.4368 2.39,-5.1027 c 1.3145,-2.8065 4.3168,-6.8788 6.6718,-9.0496 l 4.2818,-3.9468 2.2724,0.01 c 2.83,0.012 10.873,3.7138 18.063,8.3132 3.0052,1.9224 8.0017,4.7378 11.1033,6.2565 l 5.6393,2.7613 10.0017,9.4351 10.0017,9.4351 6.2316,-4.0552 c 7.8273,-5.0935 13.4137,-7.5621 21.9555,-9.7016 l 6.7238,-1.6842 2.4904,0.6251 2.4905,0.6251 1.5772,5.2399 c 0.8674,2.8819 1.8347,7.9399 2.1495,11.2399 l 0.5724,6 -1.0996,4 -1.0995,4 -5.9845,6.8936 -5.9845,6.8936 0.6139,1.1064 c 0.3376,0.6085 3.8117,6.2588 7.7202,12.5562 l 7.1064,11.4497 9.3816,9.1522 9.3817,9.1523 7.2638,0.075 7.2638,0.075 5.2939,2.2773 c 7.1908,3.0934 19.8284,12.5914 28.975,21.7765 l 7.5598,7.5917 12.3709,17.5 c 15.2129,21.5203 25.4717,35.1619 33.1635,44.0989 l 5.8693,6.8194 -0.5752,62.291 c -0.3164,34.2599 -0.7802,63.3033 -1.0307,64.5408 l -0.4555,2.25 h -2.3912 -2.3911 l -4.8398,-3.8419 z"
           id="path11629" /><path
           style="fill:#1a1a1a"
           d="m 3413.2702,-1102.2032 c 0.3242,-2.8875 0.6929,-30.9302 0.8194,-62.317 l 0.2299,-57.0672 -7.0387,-8.4329 c -7.6585,-9.1756 -17.9407,-22.9714 -34.7873,-46.6748 l -10.8328,-15.2418 -7.1321,-6.7582 c -9.5024,-9.0043 -18.8026,-15.9115 -26.1175,-19.3974 l -6,-2.8592 -7.5179,-8e-4 -7.5178,-8e-4 -10.068,-10.25 -10.0679,-10.25 -7.1642,-11.6411 c -8.6511,-14.0571 -8.6359,-13.7782 -1.2011,-22.1538 l 5.9632,-6.7177 1.1646,-4.2437 1.1646,-4.2437 -1.6065,-8.443 c -0.8835,-4.6437 -2.2383,-9.0749 -3.0106,-9.8472 l -1.4042,-1.4042 -8.2433,2.1368 c -9.2694,2.4027 -11.7005,3.521 -21.1037,9.7072 -8.3359,5.484 -6.756,5.9354 -17.8693,-5.1055 l -9.5179,-9.4559 -7,-3.8576 c -3.85,-2.1218 -10.6,-5.944 -15,-8.494 -4.4,-2.55 -9.1821,-4.9188 -10.6269,-5.264 l -2.6269,-0.6276 -3.4267,3.0086 c -1.8847,1.6548 -4.6548,5.2651 -6.1558,8.023 l -2.7292,5.0144 0.6758,2.8045 c 2.046,8.4908 11.2883,22.4357 21.079,31.8045 4.0234,3.85 7.3143,7.6844 7.313,8.5208 v 1.5209 l -11.25,4.7091 c -6.1875,2.59 -14.175,6.4056 -17.75,8.4792 l -6.5,3.77 -14.5219,14.5 c -22.0857,22.0523 -32.9471,29.4673 -47.3957,32.3563 l -7.9176,1.5831 -5.5824,3.6763 c -16.6497,10.9646 -39.2347,32.4378 -51.6989,49.154 -3.1703,4.2516 -12.899,14.9793 -21.6195,23.8391 l -15.8553,16.109 1.0869,8.8911 c 2.219,18.1525 7.9158,59.4216 10.4421,75.6463 0.7917,5.0847 1.7456,12.7389 2.1197,17.0093 0.8767,10.0063 0.269,9.9578 14.0787,1.122 19.0853,-12.2113 20.5996,-12.7704 44.3319,-16.3673 23.1291,-3.5055 59.2502,-13.3019 69.4571,-18.8374 7.8956,-4.2821 51.7499,-46.0103 55.3659,-52.6817 l 1.626,-3 0.3395,-11 c 0.1867,-6.0501 -0.02,-13.7001 -0.4594,-17.0001 l -0.799,-6 -6.749,-0.2957 -6.7491,-0.2957 v -1.9828 c 0,-1.0906 1.3466,-4.6505 2.9925,-7.911 4.1839,-8.2881 8.0075,-20.1333 8.0075,-24.8063 v -3.9388 l -2.0127,-2.5587 -2.0127,-2.5587 -4.7373,-1.5439 c -2.6055,-0.8491 -6.9873,-2.0118 -9.7373,-2.5838 -8.9776,-1.8671 -9.5002,-2.0485 -9.485,-3.2937 0.01,-0.677 6.4208,-7.7561 14.25,-15.7315 l 14.235,-14.5005 9.5,-4.9033 c 5.225,-2.6968 13.1694,-7.3091 17.6541,-10.2495 4.4848,-2.9403 8.3957,-5.3461 8.691,-5.3461 1.9173,0 26.6549,40.2589 26.6549,43.3792 v 1.4458 l -8.25,4.731 c -9.8337,5.6393 -14.5379,10.2745 -18.391,18.1215 l -2.859,5.8225 -0.01,10.3023 -0.01,10.3023 -4.0697,1.8221 c -5.296,2.3711 -8.146,6.1136 -9.0019,11.8211 l -0.6909,4.6071 1.2102,6.5726 c 1.5588,8.4659 7.6591,21.334 12.8341,27.0726 l 4.058,4.5 10.839,6.8436 c 44.4747,28.0806 50.6081,30.632 78.5169,32.6611 27.3023,1.9851 24.9219,0.6564 68.7984,38.402 7.412,6.3763 13.9976,11.5933 14.6348,11.5933 h 1.1585 l 0.5895,-5.25 z"
           id="path11631" /><path
           style="fill:#000000"
           d="m 3280.9111,-1390.6414 c 0,-2.8503 -1.2359,-8.2182 -2.5461,-11.0585 -0.6196,-1.3432 -19.2399,6.5155 -23.9539,10.1098 l -2,1.5249 8,8.1109 8,8.1108 6.25,-6.564 6.25,-6.5641 z"
           id="path11651" /><path
           style="fill:#f7c73b;fill-opacity:1"
           d="m 3258.5417,-1379.8221 -8.8278,-8.8689 0.3583,-1.8601 0.3582,-1.8601 6.4494,-3.7498 c 9.1582,-5.3248 24.0313,-9.888 24.0313,-7.3731 0,0.2306 0.7063,3.1761 1.5695,6.5455 l 1.5694,6.1262 -0.6676,3.0399 -0.6677,3.0399 -6.5229,6.9147 c -8.0775,8.5625 -7.0713,8.6739 -17.6501,-1.9542 z"
           id="path11649" /><path
           style="fill:#000000"
           d="m 3184.9318,-1245.8253 7.2963,-15.3719 0.4449,-4.6295 0.4448,-4.6296 -1.8964,-1.7161 c -2.6233,-2.3742 -13.3195,-4.954 -19.0139,-4.5861 l -4.724,0.3052 -4.8214,5.9941 -4.8214,5.9941 -1.9648,6.3612 c -1.0806,3.4987 -1.9648,8.0258 -1.9648,10.0602 v 3.6988 l 2.8591,4.4458 c 4.0372,6.2777 7.2889,8.9647 13.3195,11.0063 l 5.2474,1.7764 1.1491,-1.6685 c 0.6321,-0.9176 4.4326,-8.5858 8.4456,-17.0404 z"
           id="path11647" /><path
           style="fill:#f7c73b;fill-opacity:1"
           d="m 3167.9861,-1226.6739 -4.425,-1.5627 -4.3715,-4.498 c -2.4044,-2.4739 -5.1035,-5.8977 -5.998,-7.6084 l -1.6265,-3.1103 0.055,-4.5882 c 0.03,-2.5235 0.8265,-7.2485 1.7694,-10.5 l 1.7145,-5.9118 4.2849,-6 c 2.3567,-3.3 5.241,-6.8596 6.4095,-7.9103 l 2.1244,-1.9103 9.1424,1.1256 9.1424,1.1257 4.6017,2.2846 4.6018,2.2847 0.3134,3.8011 c 0.4305,5.2207 -1.8795,11.6313 -10.6116,29.4489 l -7.4738,15.25 -2.614,-0.079 c -1.4377,-0.044 -4.6052,-0.7822 -7.039,-1.6417 z"
           id="path11645" /><path
           style="fill:#000000"
           d="m 3276.3527,-1232.8773 4.5584,-5.9241 v -2.3259 c -0.01,-4.7951 -9.1462,-35.1978 -12.6536,-42.0857 l -1.4053,-2.7598 -7.4155,5.0039 c -9.0382,6.0989 -14.1967,11.22 -16.6364,16.5156 l -1.8428,4 0.052,4.5 c 0.029,2.475 0.3563,6.4321 0.728,8.7936 l 0.6759,4.2937 13.5,7.8613 c 16.3256,9.5066 14.8792,9.3561 20.4416,2.1274 z"
           id="path11643" /><path
           style="fill:#f7c73b;fill-opacity:1"
           d="m 3264.9111,-1226.8416 c -2.475,-1.5756 -9.0588,-5.3905 -14.6306,-8.4775 l -10.1305,-5.6127 -0.6058,-2.2608 c -0.3332,-1.2434 -0.6021,-6.0857 -0.5975,-10.7607 l 0.01,-8.5 1.8315,-4 c 2.2651,-4.9468 9.7147,-11.9814 19.1563,-18.0891 l 7.1697,-4.6381 1.3169,1.3636 c 3.1315,3.2427 12.9653,33.0984 14.173,43.03 0.8135,6.6898 -0.054,8.9753 -5.79,15.2512 -5.9067,6.4628 -5.9618,6.4753 -11.9013,2.6941 z"
           id="path11641" /><path
           style="fill:#000000"
           d="m 3035.5909,-1119.0182 c 15.7109,-10.1776 19.5274,-11.4643 44.2379,-14.9144 19.7352,-2.7554 56.2674,-13.0088 65.383,-18.351 4.4489,-2.6071 28.8564,-24.9902 43.5195,-39.9097 l 7.3201,-7.4482 0.9274,-3.9058 0.9274,-3.9059 -0.6339,-9.2408 -0.6339,-9.2407 -1.1136,-0.9165 c -0.6125,-0.5041 -2.6653,-1.0708 -4.5618,-1.2593 l -3.4481,-0.3428 -1.6338,5.3662 c -0.8986,2.9514 -2.272,5.7168 -3.0519,6.1454 l -1.4181,0.7792 -10.5,-2.0916 -10.5,-2.0915 -5.7347,-5.8137 c -3.1541,-3.1975 -6.6957,-7.6975 -7.8704,-9.9999 l -2.1356,-4.1863 0.4476,-10.5539 0.4477,-10.5539 2.0271,-4.5 c 2.6928,-5.9779 15.1317,-21.9086 20.8177,-26.6615 2.4962,-2.0865 7.4148,-7.4231 10.9302,-11.8591 3.5154,-4.4359 8.3444,-10.026 10.731,-12.4224 l 4.3394,-4.3571 8.0033,-3.6907 c 8.7207,-4.0216 25.4544,-14.0483 27.4418,-16.443 l 1.2417,-1.4962 -6.0007,-8.285 c -3.3004,-4.5567 -7.3542,-9.57 -9.0084,-11.1406 l -3.0076,-2.8556 -3.8351,1.2457 c -16.3501,5.311 -36.5466,18.0789 -47.4848,30.019 -9.0798,9.9115 -24.6812,23.1842 -33.4798,28.4824 l -5.5435,3.3381 -9.1635,2.1042 c -11.5656,2.6559 -19.4838,6.4818 -27.3606,13.2203 -8.8523,7.5728 -35.4325,35.4072 -42.545,44.5524 -3.3147,4.262 -11.8163,13.4371 -18.8923,20.3891 -7.076,6.9521 -12.8655,12.9002 -12.8655,13.2182 0,0.318 1.0961,8.355 2.4358,17.86 1.3397,9.505 4.3468,30.8944 6.6824,47.5319 2.3356,16.6375 4.4609,30.25 4.7229,30.25 0.262,0 4.6894,-2.7292 9.8387,-6.065 z"
           id="path11639" /><path
           style="fill:#f7c73b;fill-opacity:1"
           d="m 3023.4096,-1111.2032 c -0.2413,-0.6875 -2.4938,-15.875 -5.0056,-33.75 -2.5119,-17.875 -5.4503,-38.4471 -6.53,-45.7157 -1.0796,-7.2687 -1.9629,-14.8174 -1.9629,-16.775 v -3.5592 l 11.6132,-11.2251 c 6.3872,-6.1738 15.0076,-15.5001 19.1563,-20.7251 4.1488,-5.225 16.8103,-18.7452 28.1369,-30.045 l 20.5936,-20.545 6.5,-3.1935 c 3.575,-1.7564 10.6384,-4.1334 15.6965,-5.2823 l 9.1966,-2.0888 6.0231,-3.6727 c 8.9994,-5.4875 24.3629,-18.544 32.9656,-28.0154 10.8684,-11.9658 37.8929,-28.649 51.4574,-31.7664 l 2.8393,-0.6525 5.1607,5.4839 c 2.8385,3.0162 7.3463,8.7003 10.0176,12.6314 l 4.8567,7.1474 -0.5837,1.5214 c -0.7971,2.0771 -17.4414,12.7755 -26.6298,17.1167 -11.344,5.3596 -13.4202,7.0265 -22.2467,17.8608 -4.4808,5.5 -12.0044,13.825 -16.7192,18.5 -4.7147,4.675 -10.8832,11.9609 -13.7076,16.191 l -5.1354,7.6909 -1.0956,5.1083 c -0.6025,2.8095 -1.0856,7.6736 -1.0735,10.809 l 0.022,5.7008 1.8436,4.059 c 1.014,2.2324 4.2666,6.6471 7.2281,9.8104 l 5.3844,5.7516 8.9493,1.9395 c 11.7621,2.5491 11.1398,2.7063 13.1027,-3.3105 0.9419,-2.8875 2.1842,-5.8438 2.7605,-6.5695 l 1.0478,-1.3195 2.0698,0.6566 c 1.1385,0.3612 3.6449,0.9624 5.5699,1.3359 l 3.5,0.6792 0.6759,4.4836 c 0.3717,2.466 0.7092,8.4357 0.75,13.2659 l 0.074,8.7821 -1.3565,3.2467 -1.3566,3.2466 -19.8934,19.143 c -27.3391,26.3078 -30.3933,28.5875 -44.3935,33.1355 -12.5662,4.0822 -43.4772,11.1881 -57.4139,13.1985 -19.8171,2.8586 -24.349,4.5833 -40.4001,15.3755 -8.4389,5.674 -10.8987,6.5874 -11.6875,4.34 z"
           id="path11637" /><path
           style="fill:#000000"
           d="m 3408.6812,-1206.6578 -0.2701,-11.2046 -3.5849,-3.7955 c -4.1502,-4.394 -13.3955,-16.5031 -23.5122,-30.7954 -26.9467,-38.0688 -28.2398,-39.6086 -42.6613,-50.8005 -10.3757,-8.0522 -12.7096,-9.5431 -16.7547,-10.7033 -1.7922,-0.514 -3.0849,-0.7705 -2.8727,-0.57 0.2122,0.2005 4.0306,3.0595 8.4853,6.3534 11.2755,8.3373 14.847,13.9451 10.9442,17.1841 l -1.4563,1.2087 -4.7937,-2.6166 c -17.2745,-9.4292 -41.8861,-33.6639 -57.0969,-56.2223 -8.2901,-12.2948 -16.6329,-21.5676 -35.8107,-39.8024 l -19.5414,-18.5807 -6.1271,-3.093 c -3.37,-1.7011 -9.2556,-5.2899 -13.0792,-7.9752 -8.3432,-5.8592 -8.6633,-5.8886 -12.5656,-1.1544 -6.1607,7.474 2.3341,21.7315 24.8449,41.6992 l 12.1439,10.772 5.8849,7.7307 c 8.0256,10.5428 31.0462,45.4759 36.1761,54.8958 2.2986,4.221 4.7538,8.3495 5.456,9.1745 7.3367,8.6198 16.4214,38.1451 16.4214,53.3696 v 8.2388 l -2.8321,4.4458 c -1.5576,2.4452 -4.7663,6.1852 -7.1305,8.3111 l -4.2985,3.8654 -4.1194,-0.5187 -4.1195,-0.5188 -13,-7.0098 c -7.15,-3.8554 -14.9714,-7.5877 -17.3809,-8.2941 l -4.3808,-1.2843 -1.978,2.4427 -1.978,2.4427 0.5972,5.0048 c 2.0292,17.0044 9.6834,29.1297 23.8408,37.7671 51.2335,31.2574 47.0916,29.6318 83.2882,32.6882 15.3417,1.2954 20.5234,2.8832 29.0653,8.9061 7.6591,5.4004 33.9311,27.7674 39.4262,33.5658 l 3.5,3.6932 0.7701,-43.8077 c 0.4235,-24.0943 0.6485,-48.8498 0.5,-55.0124 z"
           id="path11635" /><path
           style="fill:#f7c73b;fill-opacity:1"
           d="m 3400.9111,-1110.7127 c -8.1008,-7.9855 -33.325,-29.2485 -40.1292,-33.8274 -7.2335,-4.8678 -12.9651,-6.214 -33.5969,-7.8909 -24.4946,-1.9909 -30.9209,-3.8159 -43.7065,-12.412 -2.2371,-1.5041 -8.3424,-5.2279 -13.5674,-8.2752 -5.225,-3.0473 -13.2683,-7.7443 -17.8739,-10.4378 -13.9401,-8.1524 -17.8349,-13.053 -23.4968,-29.5652 l -2.6293,-7.668 v -5.6275 -5.6275 l 2.4545,-2.4546 c 1.35,-1.35 2.8546,-2.4545 3.3435,-2.4545 2.8048,0 14.1141,4.8617 24.4273,10.5011 6.5176,3.5639 12.9387,6.7529 14.2692,7.0869 l 2.4189,0.6071 5.5006,-5.2022 5.5005,-5.2022 1.6857,-4.4139 1.6857,-4.4139 -0.5824,-7.2314 c -1.9599,-24.337 -12.7354,-46.2772 -48.7137,-99.1873 -9.5557,-14.0526 -13.0129,-17.9197 -34.0118,-38.0442 l -11.478,-11 -4.3863,-7.8697 -4.3864,-7.8697 -0.4341,-4.1303 -0.434,-4.1303 3.1432,-3.75 3.1432,-3.75 h 3.2704 3.2703 l 7.1052,4.9898 c 3.9078,2.7443 9.4909,6.0509 12.4068,7.3479 l 5.3017,2.3582 19,18.041 c 21.8248,20.7231 27.2669,26.7115 37.4989,41.2631 14.8264,21.0857 27.8883,35.0504 45.0011,48.1115 13.4063,10.2323 15,11.0802 15,7.9812 v -1.9074 l -5.25,-4.7359 c -2.8875,-2.6047 -7.6125,-6.3102 -10.5,-8.2342 l -5.25,-3.4984 v -1.9943 -1.9943 l 4.75,0.6409 4.75,0.6409 8.4254,5.745 c 4.634,3.1598 12.1069,9.2203 16.6064,13.4679 l 8.1809,7.7228 13.3105,18.7772 c 19.1521,27.0177 28.8141,40.0094 34.2268,46.0219 l 4.75,5.2764 -0.01,49.2395 c 0,27.0817 -0.295,52.9519 -0.6482,57.4894 l -0.6422,8.25 -1.1018,-0.176 c -0.606,-0.097 -4.0268,-3.0594 -7.6018,-6.5835 z"
           id="path11633" /></g></g></g></svg>
