<?xml version="1.0" encoding="UTF-8" standalone="no"?>
<!-- Created with Inkscape (http://www.inkscape.org/) -->

<svg
   width="587.94067mm"
   height="500mm"
   viewBox="0 0 587.94067 500"
   version="1.1"
   id="svg5"
   xml:space="preserve"
   xmlns:inkscape="http://www.inkscape.org/namespaces/inkscape"
   xmlns:sodipodi="http://sodipodi.sourceforge.net/DTD/sodipodi-0.dtd"
   xmlns="http://www.w3.org/2000/svg"
   xmlns:svg="http://www.w3.org/2000/svg"><sodipodi:namedview
     id="namedview7"
     pagecolor="#ffffff"
     bordercolor="#000000"
     borderopacity="0.25"
     inkscape:showpageshadow="2"
     inkscape:pageopacity="0.0"
     inkscape:pagecheckerboard="0"
     inkscape:deskcolor="#d1d1d1"
     inkscape:document-units="mm"
     showgrid="false"
     showguides="false" /><defs
     id="defs2" /><g
     inkscape:groupmode="layer"
     id="layer26"
     inkscape:label="Y"
     transform="translate(-1171.3827,3711.3726)"><g
       id="g40086"
       inkscape:label="Y"><rect
         style="fill:#cccccc;fill-opacity:1;stroke:#1a1a1a;stroke-width:20;stroke-linecap:round;stroke-linejoin:round;stroke-dasharray:none;stroke-opacity:1;paint-order:stroke fill markers"
         id="rect38211-4-8-96"
         width="567.94067"
         height="480"
         x="1181.3827"
         y="-3701.3726"
         rx="48.766338"
         ry="48.766338" /><g
         id="g39262"
         transform="translate(-2310.0091,-2198.6483)"><path
           style="fill:#ffffff"
           d="m 3797.2392,-1077.5198 c -0.6446,-0.3014 -3.2799,-4.6847 -5.8562,-9.7407 -2.5763,-5.056 -7.0717,-13.4677 -9.9898,-18.6927 -8.4837,-15.1904 -10.4821,-23.7343 -10.4821,-44.8139 0,-4.341 -0.2859,-10.6283 -0.6354,-13.9718 l -0.6354,-6.079 -6.2465,9.2775 c -8.6202,12.8028 -7.9822,11.1437 -13.5836,35.3259 -5.1935,22.4213 -9.3785,36.8546 -11.3002,38.9722 l -1.0989,1.2109 -50.5,0.6951 -50.5,0.6951 -1.3696,-1.6526 -1.3696,-1.6525 1.1906,-4.7535 c 0.6549,-2.6143 5.2507,-15.083 10.2129,-27.7081 4.9622,-12.6251 9.9086,-26.3501 10.9919,-30.5 l 1.9697,-7.5453 -0.6281,-6 c -1.5238,-14.5579 -8.3344,-41.9804 -16.019,-64.5001 -4.7519,-13.9252 -7.3346,-26.3117 -8.0275,-38.5 -0.7564,-13.3031 -1.8003,-17.4434 -6.0877,-24.1457 -10.3944,-16.2492 -20.8664,-51.2186 -22.8652,-76.3543 l -0.5963,-7.5 1.2989,-2.4372 1.299,-2.4372 3.25,-0.8414 3.25,-0.8414 -0.035,-2.7214 c -0.019,-1.4968 -0.6853,-6.3214 -1.4803,-10.7214 -0.795,-4.4 -1.4536,-10.025 -1.4636,-12.5 l -0.018,-4.5 1.7485,-3.4801 c 2.1222,-4.2241 7.5183,-8.0199 11.401,-8.0199 h 2.8568 l -0.2547,-8.8932 -0.2547,-8.8931 1.8999,-2.1012 c 2.1684,-2.3982 7.4315,-4.0988 12.7106,-4.1069 l 3.6104,-0.01 3.684,2.5 c 4.4738,3.0361 4.3986,3.0332 7.3293,0.2799 l 2.3632,-2.22 6.8189,-0.3853 6.8189,-0.3853 4.4909,1.9865 4.4908,1.9865 2.6562,3.4824 c 3.7766,4.9514 6.5005,12.1607 14.6592,38.7978 3.9516,12.9016 9.3601,28.9126 12.0189,35.58 2.6587,6.6674 6.6963,18.3477 8.9723,25.9562 5.4719,18.2915 8.1457,23.1217 16.4426,29.7032 l 3.507,2.7819 2.3869,-1.5641 c 1.3129,-0.8602 4.6909,-1.8368 7.5067,-2.1703 l 5.1196,-0.6064 4.6604,1.7799 c 2.5633,0.9789 6.335,3.2927 8.3816,5.1417 l 3.7212,3.3618 9.3752,-10.6485 c 5.1564,-5.8566 12.9574,-13.9764 17.3356,-18.044 l 7.9602,-7.3956 6.2361,-3.07 6.236,-3.07 6.3759,-0.5118 6.3759,-0.5118 5.515,1.6033 5.5149,1.6032 4.4505,3.9174 c 2.4477,2.1546 5.3213,5.5345 6.3856,7.5109 l 1.9352,3.5934 -1.7421,1.7586 c -0.9581,0.9672 -5.8461,4.0085 -10.8621,6.7585 l -9.12,5 -4.1613,8 c -4.8125,9.2518 -19.2833,31.526 -27.7233,42.6731 -3.1953,4.2202 -6.3062,8.763 -6.9132,10.0952 l -1.1036,2.4221 4.1274,10.4048 c 2.27,5.7226 5.139,12.3308 6.3756,14.6848 l 2.2482,4.28 2.9644,-3.9569 c 1.6304,-2.1763 4.4422,-4.6648 6.2483,-5.53 l 3.284,-1.5731 h 8.1503 8.1504 l 4.313,2.0879 c 4.7433,2.2962 11.2608,9.2765 14.2417,15.2531 l 1.9158,3.841 8.8304,0.2422 c 4.8568,0.1332 10.6305,0.7818 12.8305,1.4413 l 4,1.1991 4.659,9.8551 4.6591,9.8552 4.655,-0.5247 4.655,-0.5246 7.6545,3.8852 c 4.2099,2.1368 9.302,5.4611 11.3157,7.3872 l 3.6612,3.5021 0.6202,4.25 c 0.3412,2.3375 0.8734,5.982 1.1827,8.0988 l 0.5623,3.8488 6.3019,10.108 6.3018,10.108 3.6064,10.8565 c 3.8011,11.4424 7.6647,32.1145 7.665,41.0113 l 2e-4,5.2814 -1.25,0.4126 c -0.6875,0.2269 -27.35,0.8879 -59.25,1.4689 -31.9,0.581 -64.75,1.277 -73,1.5467 -8.25,0.2697 -15.5274,0.2438 -16.1719,-0.058 z"
           id="path11669" /><path
           style="fill:#1a1a1a"
           d="m 3859.472,-1080.9589 c 20.3835,-0.5468 47.721,-0.9943 60.75,-0.9943 h 23.6891 l 0.1343,-1.75 c 0.6698,-8.7278 -2.4071,-27.4543 -6.7378,-41.0072 l -3.5972,-11.2572 -5.5248,-8.7428 c -6.9359,-10.9756 -7.8846,-13.2522 -8.7676,-21.0392 l -0.714,-6.2963 -2.2785,-2.7078 c -1.2532,-1.4893 -5.7192,-4.6765 -9.9246,-7.0826 l -7.646,-4.3747 -3.7219,0.048 c -2.0471,0.027 -4.6219,0.1971 -5.7219,0.3789 l -2,0.3305 -5,-10 c -5.9673,-11.9346 -4.7289,-10.8828 -14.5923,-12.3927 l -8.015,-1.227 -3.5133,1.1595 c -1.9324,0.6377 -3.6354,1.0022 -3.7846,0.8099 -0.1492,-0.1924 -1.3342,-2.5997 -2.6335,-5.3497 -1.2993,-2.75 -4.6773,-7.3222 -7.5068,-10.1603 l -5.1444,-5.1602 -3.9051,-1.0842 c -4.9224,-1.3667 -10.8262,-1.3838 -15.6459,-0.045 l -3.7409,1.0389 -3.0117,3.2055 c -1.6565,1.763 -3.2659,3.993 -3.5765,4.9555 -0.3106,0.9625 -1.4288,1.75 -2.4848,1.75 h -1.9201 l -3.634,-7.2162 c -3.365,-6.682 -10.3911,-24.7673 -10.3911,-26.7468 0,-0.4751 2.7842,-4.6153 6.1871,-9.2004 10.4913,-14.1361 27.8531,-40.7839 30.996,-47.5741 l 2.9868,-6.453 2.665,-1.4644 c 20.4843,-11.2554 19.9257,-10.5486 13.6445,-17.2636 l -4.6645,-4.9868 -4.6574,-1.792 -4.6575,-1.792 -6.1667,0.066 -6.1667,0.066 -6.5828,3.2407 -6.5828,3.2407 -8.6391,8.1777 c -4.7515,4.4977 -12.6585,12.7946 -17.5709,18.4376 -9.9241,11.3998 -10.202,11.5386 -14.3539,7.1683 -1.6154,-1.7004 -4.7085,-4.0023 -6.8734,-5.1154 l -3.9364,-2.0238 h -4.7589 -4.7589 l -3.4228,2.1154 c -8.0107,4.9509 -19.5245,-8.9316 -25.6151,-30.8846 -1.7548,-6.325 -5.6466,-17.7405 -8.6485,-25.3679 -3.0018,-7.6273 -8.8147,-25.0032 -12.9174,-38.6131 -8.1302,-26.9705 -10.1601,-32.3883 -14.0415,-37.477 l -2.5675,-3.3662 -3.9686,-1.5879 c -2.1827,-0.8733 -6.4188,-1.5879 -9.4135,-1.5879 h -5.445 l -3.5287,3.0983 -3.5288,3.0982 -4.6775,-3.0982 c -6.0757,-4.0245 -14.8799,-3.761 -18.4596,0.5524 l -1.3415,1.6164 -0.017,9.0944 -0.017,9.0945 -3.5,0.5786 c -11.2488,1.8597 -13.352,7.7535 -9.966,27.9278 2.2982,13.6934 2.318,13.5965 -3.0762,15.049 l -3.9578,1.0657 -0.1241,2.2114 c -0.3948,7.0368 0.6295,14.9655 3.7737,29.2115 6.7764,30.7033 9.0627,37.092 19.0414,53.2073 l 4.4628,7.2073 1.3396,15.2927 c 1.6072,18.3461 2.614,22.9011 10.3947,47.0278 3.3052,10.249 7.6936,25.9764 9.752,34.9497 l 3.7424,16.3153 0.059,10.5 0.059,10.5 -1.8753,5.5 c -1.0314,3.025 -5.9346,15.85 -10.8961,28.5 l -9.021,23 -0.1038,3.5 -0.1038,3.5 13.75,-0.017 c 7.5625,-0.01 29.4679,-0.1216 48.6786,-0.25 l 34.9285,-0.2333 1.4323,-1.4322 c 2.0825,-2.0826 6.1481,-15.5785 10.7145,-35.5678 5.8332,-25.5347 5.8396,-25.5533 12.0214,-34.9092 3.122,-4.7249 6.8741,-10.5033 8.338,-12.8408 1.464,-2.3375 3.3311,-4.25 4.1492,-4.25 h 1.4875 v 12.8548 c 0,7.0701 0.4635,18.5627 1.03,25.5391 l 1.03,12.6843 1.8642,4.7294 c 1.0253,2.6012 5.5403,11.3734 10.0335,19.4938 4.4931,8.1204 8.647,16.1349 9.231,17.81 1.4258,4.09 3.2654,4.5827 15.6895,4.2024 5.842,-0.1788 27.2992,-0.7726 47.6827,-1.3195 z"
           id="path11671" /><path
           style="fill:#000000"
           d="m 3759.5816,-1290.3463 2.782,-2.393 -1.4135,-2.6412 c -0.7775,-1.4526 -2.8924,-3.5552 -4.7,-4.6723 l -3.2864,-2.0311 -3.2694,0.3153 -3.2693,0.3153 -1.3468,2.8237 -1.3469,2.8238 0.6026,2.4009 c 0.7296,2.9069 4.9274,5.3571 9.2714,5.4116 l 3.1943,0.04 z"
           id="path11689" /><path
           style="fill:#f7c73b;fill-opacity:1"
           d="m 3744.9878,-1288.5422 -3.0767,-2.5889 0.015,-3.6611 c 0.02,-4.8866 1.9007,-8.3093 5.161,-9.3907 l 2.6756,-0.8875 4.0219,1.0829 4.0218,1.083 3.0525,3.0525 3.0525,3.0525 v 2.9686 2.9685 l -2.4545,2.4546 -2.4546,2.4545 h -5.4687 -5.4687 l -3.0768,-2.5889 z"
           id="path11687" /><path
           style="fill:#000000"
           d="m 3806.1925,-1289.1111 c 5.3199,-7.5118 11.5954,-17.5871 13.9456,-22.3896 l 4.273,-8.7317 7,-4.318 c 3.85,-2.3748 7.5625,-4.337 8.25,-4.3604 4.0084,-0.1363 -5.2051,-5.8106 -12.1007,-7.4524 l -2.8507,-0.6787 -3.6493,1.1836 c -6.1741,2.0027 -13.2344,7.3674 -23.1493,17.59 -5.225,5.3871 -12.9815,13.2777 -17.2368,17.5345 l -7.7367,7.7397 6.0486,13.2048 c 3.3268,7.2627 6.2988,14.4557 6.6046,15.9844 l 0.5559,2.7796 5.1866,-7.214 c 2.8527,-3.9677 9.5393,-13.36 14.8592,-20.8718 z"
           id="path11685" /><path
           style="fill:#f7c73b;fill-opacity:1"
           d="m 3782.204,-1265.7033 c -1.6838,-4.2625 -5.2109,-12.4346 -7.8379,-18.1603 l -4.7763,-10.4103 3.8993,-3.0897 c 2.1447,-1.6993 5.9005,-5.3397 8.3462,-8.0897 2.4458,-2.75 9.4851,-10.0081 15.6431,-16.1291 l 11.1962,-11.1291 6.6215,-3.2598 6.6216,-3.2598 4.912,0.5818 c 2.7016,0.3199 7.6501,1.9639 10.9967,3.6533 l 6.0847,3.0715 v 1.9722 1.9722 l -3.25,1.3615 c -1.7875,0.7489 -5.8519,3.028 -9.032,5.0647 l -5.7821,3.7031 -3.8217,8.1987 c -2.1019,4.5094 -6.2615,11.5738 -9.2434,15.6988 -2.9819,4.125 -8.3689,11.775 -11.9711,17 -15.6761,22.7383 -14.3786,21.9538 -18.6068,11.25 z"
           id="path11683" /><path
           style="fill:#000000"
           d="m 3637.2393,-1294.2033 c -1.3067,-6.8293 -6.5741,-20.0897 -9.761,-24.5727 -3.9152,-5.5076 -4.2064,-6.357 -5.5449,-16.1773 -2.1066,-15.4558 -7.0223,-32.027 -7.0223,-23.6725 0,11.651 7.9467,38.9483 16.1346,55.4225 6.5198,13.1181 7.1593,14.0475 6.1936,9 z"
           id="path11681" /><path
           style="fill:#000000"
           d="m 3732.4043,-1096.2827 c 1.7289,-4.1377 6.4522,-22.9868 10.0568,-40.1328 3.2611,-15.5121 3.2185,-15.4086 11.5356,-28.0377 3.6221,-5.5 8.7497,-14.085 11.3947,-19.0778 l 4.8091,-9.0778 -4.3305,-7.4148 c -5.7567,-9.8568 -20.5143,-40.6731 -22.9726,-47.9704 l -1.9561,-5.8064 -1.0576,-14.0561 c -0.5817,-7.7309 -1.6636,-15.5278 -2.4042,-17.3264 -0.7406,-1.7987 -1.6483,-5.5212 -2.0171,-8.2722 l -0.6707,-5.0017 -6.5131,-5.4983 c -11.204,-9.4583 -14.9604,-15.7919 -19.9174,-33.583 -1.5195,-5.4534 -5.2339,-16.2152 -8.2543,-23.9152 -3.0204,-7.7 -8.5917,-24.35 -12.3806,-37 -9.2379,-30.8428 -13.9521,-40.5 -19.7697,-40.5 h -2.0455 v 1.3743 c 0,0.7558 0.7088,3.3433 1.5752,5.75 0.8664,2.4066 1.6539,7.149 1.75,10.5385 l 0.1748,6.1628 -2.3302,2.487 -2.3301,2.4869 3.0702,6.9952 c 4.3252,9.8547 7.0114,21.8945 7.7429,34.7053 l 0.6281,11 2.8135,7.1601 c 3.6043,9.1727 10.5363,34.3812 12.4388,45.2346 l 1.4716,8.3946 -1.1702,1.41 c -1.8643,2.2463 -4.7582,3.4597 -6.7463,2.8287 l -1.8362,-0.5827 -0.6895,-6.2227 c -0.8969,-8.0931 -5.6392,-27.0342 -10.6464,-42.5225 l -3.9764,-12.3 -0.9802,-10.7 c -1.3289,-14.5052 -1.3473,-14.5908 -6.9391,-32.2001 -2.707,-8.525 -5.5782,-18.425 -6.3804,-22 -0.8021,-3.575 -2.4317,-9.0875 -3.6211,-12.25 l -2.1627,-5.75 h -1.3454 -1.3455 l -1.7447,4.75 c -2.3947,6.5193 -4.1634,10.453 -5.5587,12.3625 l -1.1783,1.6124 6.1626,31.3876 6.1626,31.3875 4.126,7.9941 c 5.3514,10.3682 6.5002,13.7561 8.4204,24.8317 0.8747,5.0458 2.9407,13.7542 4.591,19.3519 1.6503,5.5978 2.855,11.4478 2.6771,13 l -0.3234,2.8223 -3.1937,0.3092 -3.1938,0.3091 -1.4207,-2.8091 c -2.5296,-5.0013 -4.7765,-12.9678 -7.6644,-27.1743 l -2.829,-13.9169 -4.1182,-8.7879 c -5.5301,-11.8009 -8.0288,-22.096 -14.1263,-58.2031 -1.1571,-6.852 -2.4916,-13.4186 -2.9655,-14.5926 l -0.8616,-2.1344 -0.063,5.3157 c -0.072,6.0435 -1.2034,8.766 -4.9095,11.8138 l -2.5894,2.1295 1.2141,8.3705 c 0.6677,4.6038 3.2537,16.6955 5.7466,26.8705 l 4.5325,18.5 -0.2435,6.6412 -0.2436,6.6412 3.5734,3.9552 c 4.0367,4.4682 5.2399,7.4653 10.284,25.6165 4.7406,17.0594 4.5359,18.6789 -2.1491,17.001 l -2.5623,-0.643 0.7213,8.3939 c 1.1735,13.6567 3.3172,22.9952 10.0506,43.7827 7.0288,21.7 11.2642,37.7151 14.5583,55.049 l 2.1736,11.4376 -0.5633,4.0624 c -1.1695,8.4344 -7.3967,27.2272 -19.4882,58.8124 l -2.9669,7.75 h 42.9501 42.95 l 1.3911,-3.3295 z"
           id="path11679" /><path
           style="fill:#f7c73b;fill-opacity:1"
           d="m 3642.9111,-1091.9733 c 0,-1.2792 3.3286,-11.1354 7.3968,-21.9028 10.1335,-26.8202 13.7461,-38.4323 14.3353,-46.0778 l 0.501,-6.5007 -2.175,-10.9993 c -3.3493,-16.9385 -6.6489,-29.2404 -13.5957,-50.6892 -7.1599,-22.1067 -9.0838,-30.6135 -10.3606,-45.8102 l -0.8821,-10.5 -7.0628,-13.5 c -9.128,-17.4476 -11.2339,-23.273 -15.0902,-41.7426 l -3.1824,-15.2426 0.3078,-4.2574 0.3079,-4.2574 h 2.444 2.444 l 2.2912,9.5 c 1.2602,5.225 2.8123,13.4806 3.4491,18.3458 l 1.1579,8.8459 3.4846,5.0656 c 4.6697,6.7886 6.6442,11.4744 9.5882,22.7541 1.3621,5.2187 2.9524,10.7261 3.534,12.2386 l 1.0575,2.75 h 2.0921 2.0922 l -0.5391,-1.75 c -2.5109,-8.152 -4.79,-16.0651 -6.6819,-23.1996 l -2.2406,-8.4497 -4.0866,-4.4333 -4.0866,-4.4334 -0.1055,-8.617 -0.1055,-8.617 -3.5607,-14 c -4.4862,-17.639 -6.6968,-28.6778 -6.9584,-34.7458 l -0.2045,-4.7457 3.4034,-2.8414 3.4035,-2.8413 0.1783,-4.4129 c 0.098,-2.4271 0.2393,-5.6817 0.3139,-7.2325 l 0.1355,-2.8195 2.25,0.3195 2.25,0.3196 1.2488,5 c 0.6868,2.75 1.9367,9.275 2.7774,14.5 4.9351,30.6705 8.3185,44.5088 13.6522,55.8378 l 4.0782,8.6622 2.398,12 c 3.0119,15.0722 5.1516,22.9721 7.5073,27.7172 l 1.8453,3.7173 1.4893,-0.5715 1.4893,-0.5715 -0.5874,-2.6458 c -0.3231,-1.4551 -1.6315,-6.2457 -2.9075,-10.6457 -1.276,-4.4 -3.25,-12.95 -4.3868,-19 l -2.0668,-11 -4.9815,-10.0619 -4.9814,-10.062 -6.4554,-32.3194 c -6.3383,-31.7335 -6.5903,-34.0337 -4.059,-37.0567 0.6908,-0.825 2.5447,-4.8707 4.1199,-8.9905 l 2.864,-7.4906 1.8024,-0.3471 c 4.0634,-0.7825 8.6086,8.6191 11.676,24.1518 0.6325,3.203 2.9182,10.7801 5.0792,16.8382 3.9526,11.0804 6.2141,21.9636 7.4472,35.8382 l 0.6666,7.5 4.4041,13.808 c 5.0826,15.9351 9.1961,32.6714 10.0629,40.942 l 0.6026,5.75 h 1.2351 c 0.6793,0 1.7919,-0.6709 2.4725,-1.4909 l 1.2373,-1.4909 -0.6717,-4.7591 c -1.3641,-9.6647 -8.9216,-36.6499 -13.4579,-48.0536 l -2.1061,-5.2944 -0.9668,-13.2056 -0.9668,-13.2055 -2.0185,-7.1949 c -1.1101,-3.9572 -3.1488,-9.7507 -4.5302,-12.8744 -3.0345,-6.8614 -3.1495,-9.5436 -0.5118,-11.9307 l 2,-1.81 v -4.6884 c 0,-2.5787 -0.9,-7.3044 -2,-10.5016 -2.4859,-7.2255 -2.488,-8.1685 -0.021,-9.489 8.2623,-4.4219 14.3387,5.3738 24.4957,39.489 3.6025,12.1 9.2107,28.75 12.4627,37 3.2521,8.25 7.1157,19.5 8.5859,25 1.4702,5.5 4.0257,12.8627 5.679,16.3615 l 3.0058,6.3616 4.6457,4.6535 c 2.5551,2.5595 6.7832,6.533 9.3957,8.8301 l 4.75,4.1764 0.044,3.8085 c 0.024,2.0946 0.717,5.6084 1.5396,7.8084 l 1.4958,4 0.9827,13.8479 0.9827,13.8479 1.9682,5.8425 c 2.4262,7.2019 18.5473,40.8301 23.4159,48.8446 5.2897,8.7077 2.9913,15.4834 -13.814,40.724 l -6.6276,9.9543 -3.4404,16.0785 c -4.2196,19.7195 -8.2192,35.6407 -10.0608,40.0481 l -1.3839,3.3123 h -33.8011 c -18.5905,0 -38.8635,0.2963 -45.051,0.6528 l -11.25,0.6483 v -2.3257 z"
           id="path11677" /><path
           style="fill:#000000"
           d="m 3877.782,-1086.5866 59.2719,-0.6928 -0.6612,-5.0869 c -2.3176,-17.8291 -8.2099,-36.8819 -15.0363,-48.6198 -5.0897,-8.7519 -6.9231,-13.5349 -7.8941,-20.5948 -0.3848,-2.798 -1.4955,-6.3959 -2.4681,-7.9952 l -1.7683,-2.9078 -7.3024,-3.7564 c -8.7064,-4.4786 -8.6586,-4.5014 -6.0622,2.8856 1.1274,3.2077 2.0498,7.0853 2.0498,8.6168 v 2.7847 h -3.4611 -3.4611 l -9.4139,-19.3445 -9.4139,-19.3445 -6.2898,-0.6574 c -7.8191,-0.8172 -7.3177,-1.7782 -5.4609,10.467 2.1884,14.4322 2.176,13.9888 0.4221,15.1277 l -1.5785,1.0252 -2.9212,-1.4001 -2.9211,-1.4001 -1.6542,-7.8405 c -4.5415,-21.525 -12.5364,-34.9449 -22.3464,-37.5094 l -4,-1.0456 -4,0.9117 c -8.0321,1.8307 -8.9802,5.9056 -4.9668,21.3474 2.8477,10.9567 2.7228,11.6631 -2.0619,11.6631 h -3.4107 l -3.3901,-7.3374 c -1.8646,-4.0356 -5.6387,-10.6731 -8.3869,-14.75 -6.1065,-9.0588 -8.1999,-13.1141 -12.6668,-24.5371 -1.909,-4.8816 -5.9646,-14.9411 -9.0125,-22.3544 -3.0479,-7.4133 -6.3072,-16.7264 -7.243,-20.6958 l -1.7014,-7.217 -2.907,2.4461 c -3.3898,2.8523 -6.5629,3.8309 -12.6377,3.8975 l -4.3848,0.048 0.6274,11.0437 c 0.8222,14.4724 2.0688,18.3656 13.1735,41.1441 5.1449,10.5533 10.0861,21.5784 10.9806,24.5001 l 1.6262,5.3122 0.3939,11.6074 c 0.2166,6.3841 0.8665,13.5841 1.4441,16 0.5777,2.4159 1.4776,12.1186 1.9999,21.5616 l 0.9495,17.1689 1.8883,5.3311 c 1.0385,2.932 5.2178,11.2587 9.2872,18.5037 4.0695,7.2449 8.6716,15.5205 10.227,18.3901 l 2.8279,5.2175 7.2216,-0.6105 c 3.9718,-0.3357 33.8939,-0.9222 66.4934,-1.3032 z"
           id="path11675" /><path
           style="fill:#f7c73b;fill-opacity:1"
           d="m 3798.3542,-1089.6211 c -2.0606,-3.7577 -5.867,-10.6571 -8.4588,-15.3321 -11.8019,-21.288 -12.5697,-23.8497 -13.4873,-45 -0.2983,-6.875 -0.9891,-14.75 -1.5351,-17.5 -0.5459,-2.75 -1.4017,-11.3 -1.9017,-19 -1.0945,-16.8549 -0.8028,-15.9358 -13.169,-41.5001 l -9.9164,-20.5 -1.4024,-7 c -0.7713,-3.85 -1.5532,-11.5 -1.7374,-17 l -0.335,-10 6.5,-0.5691 c 7.3475,-0.6434 10.2876,-1.9141 12.6022,-5.4466 l 1.6022,-2.4453 1.6981,0.9088 1.698,0.9088 1.7364,7.3217 c 0.955,4.0269 4.0134,12.9467 6.7964,19.8217 2.7831,6.875 6.9712,17.225 9.307,23 5.244,12.9655 6.2635,14.9426 13.1599,25.5227 3.0381,4.661 6.8504,11.4001 8.4718,14.9759 l 2.9479,6.5015 h 1.4901 c 1.9087,0 1.8584,-0.9378 -0.5335,-9.9324 -4.5838,-17.2371 -1.3705,-24.1104 11.2414,-24.0457 14.1908,0.073 23.0445,12.8073 29.4632,42.3778 0.7929,3.6526 3.5096,6.743 4.7964,5.4561 0.3154,-0.3154 -0.3184,-6.1315 -1.4085,-12.9248 -2.3326,-14.5357 -2.9028,-13.4225 6.6925,-13.0652 9.7359,0.3626 7.8272,-1.7444 18.765,20.7145 l 9.4577,19.4197 h 1.5079 c 1.9793,0 1.9371,-0.3879 -0.9746,-8.9486 -3.5156,-10.3363 -1.9783,-11.3728 8.9142,-6.0104 7.4768,3.6808 11.3456,7.1035 12.1383,10.7387 0.3263,1.4962 1.4171,6.1373 2.4239,10.3137 l 1.8306,7.5934 3.6172,5.6546 c 7.9768,12.4698 20.256,55.4586 16.7943,58.7962 -0.4048,0.3903 -21.436,0.973 -46.736,1.2949 -25.3,0.3219 -55.9698,0.8432 -68.1552,1.1585 l -22.1551,0.5731 z"
           id="path11673" /><path
           style="fill:#f7c73b;fill-opacity:1;stroke:none;stroke-width:1;stroke-linecap:round;stroke-linejoin:round;stroke-opacity:1;paint-order:stroke fill markers"
           d="m 3661.2367,-1415.6505 4.1502,-3.2425 -1.297,-7.3927 -2.7235,-11.5431 -1.4267,-5.1879 -6.2254,5.8364 2.594,6.7442 z"
           id="path38151"
           sodipodi:nodetypes="cccccccc" /><path
           style="fill:#f7c73b;fill-opacity:1;stroke:none;stroke-width:1;stroke-linecap:round;stroke-linejoin:round;stroke-opacity:1;paint-order:stroke fill markers"
           d="m 3632.7032,-1422.7839 3.6314,-6.7443 5.5771,-11.4134 -3.7613,-2.8533 -5.058,1.8158 -3.502,2.7236 1.0377,11.2837 z"
           id="path38153" /><path
           style="fill:#f7c73b;fill-opacity:1;stroke:none;stroke-width:1;stroke-linecap:round;stroke-linejoin:round;stroke-opacity:1;paint-order:stroke fill markers"
           d="m 3617.7812,-1400.0469 5.1358,-4.3103 1.1923,-14.0317 -3.4851,-0.4585 -3.76,1.4673 -2.2929,4.5855 0.2752,3.485 1.1006,6.2363 z"
           id="path38155" /><path
           style="fill:#f7c73b;fill-opacity:1;stroke:none;stroke-width:1;stroke-linecap:round;stroke-linejoin:round;stroke-opacity:1;paint-order:stroke fill markers"
           d="m 3617.2044,-1366.1708 -2.6588,-10.9595 -5.7068,1.5564 0.3241,5.7067 2.0754,4.5394 z"
           id="path38157" /></g></g></g></svg>
