<?xml version="1.0" encoding="UTF-8" standalone="no"?>
<!-- Created with Inkscape (http://www.inkscape.org/) -->

<svg
   width="587.94067mm"
   height="500mm"
   viewBox="0 0 587.94067 500"
   version="1.1"
   id="svg5"
   xml:space="preserve"
   xmlns:inkscape="http://www.inkscape.org/namespaces/inkscape"
   xmlns:sodipodi="http://sodipodi.sourceforge.net/DTD/sodipodi-0.dtd"
   xmlns="http://www.w3.org/2000/svg"
   xmlns:svg="http://www.w3.org/2000/svg"><sodipodi:namedview
     id="namedview7"
     pagecolor="#ffffff"
     bordercolor="#000000"
     borderopacity="0.25"
     inkscape:showpageshadow="2"
     inkscape:pageopacity="0.0"
     inkscape:pagecheckerboard="0"
     inkscape:deskcolor="#d1d1d1"
     inkscape:document-units="mm"
     showgrid="false"
     showguides="false" /><defs
     id="defs2" /><g
     inkscape:groupmode="layer"
     id="layer27"
     inkscape:label="Z"
     transform="translate(-1909.8767,3711.3726)"><g
       id="g40100"
       inkscape:label="Z"><rect
         style="fill:#cccccc;fill-opacity:1;stroke:#1a1a1a;stroke-width:20;stroke-linecap:round;stroke-linejoin:round;stroke-dasharray:none;stroke-opacity:1;paint-order:stroke fill markers"
         id="rect38211-4-8-08"
         width="567.94067"
         height="480"
         x="1919.8767"
         y="-3701.3726"
         rx="48.766338"
         ry="48.766338" /><g
         id="g39274"
         transform="translate(-2130.4286,-2203.2003)"><path
           style="fill:#ffffff"
           d="m 4217.9111,-1076.9358 c -1.375,-0.4798 -11.5,-3.8036 -22.5,-7.3864 -29.9636,-9.7594 -46.7284,-15.6385 -49.3381,-17.3021 l -2.3382,-1.4905 0.6545,-2.6692 c 0.36,-1.4681 3.5936,-9.6257 7.1858,-18.128 3.5922,-8.5023 8.0737,-20.0685 9.959,-25.7025 l 3.4278,-10.2438 1.4929,-15.2974 c 2.9022,-29.7391 5.8557,-67.3802 5.7904,-73.7976 l -0.066,-6.5 -2.2135,-8.4778 -2.2134,-8.4777 0.57,-2.8498 c 0.3134,-1.5673 2.4454,-5.5235 4.7377,-8.7913 l 4.1678,-5.9417 4.3268,-34.7308 c 4.9496,-39.7315 6.6143,-49.2167 12.8424,-73.1763 l 4.4828,-17.2454 3.1699,-6.439 c 3.8651,-7.8512 9.5899,-14.5389 14.3989,-16.8209 l 3.59,-1.7036 3.7701,0.637 c 10.7043,1.8085 16.3678,15.2941 19.5356,46.5173 l 0.6595,6.5 -2.0565,16.7589 c -1.1311,9.2175 -2.1644,22.2675 -2.2963,29 l -0.2398,12.2411 2.4966,3.5 c 1.3732,1.925 2.5815,3.6583 2.6852,3.8519 0.1038,0.1935 4.6053,-0.5943 10.0034,-1.7507 5.3981,-1.1564 17.7652,-3.2261 27.4823,-4.5994 9.7171,-1.3733 23.5143,-3.848 30.6605,-5.4994 l 12.9931,-3.0024 h 18.0015 18.0015 l 7.8379,-1.4998 c 4.3109,-0.8249 9.3141,-1.4999 11.1181,-1.5 1.8041,-10e-5 5.953,-1.1252 9.2199,-2.5002 10.3427,-4.3532 12.768,-3.8794 36,7.0323 8.525,4.004 23.5363,10.4896 33.3585,14.4124 22.1509,8.8467 37.538,16.1603 41.8485,19.8908 1.8111,1.5675 5.543,4.1107 8.293,5.6516 8.7282,4.8906 12.5997,7.8051 14.0222,10.5559 l 1.3831,2.6746 -0.9331,6.3912 c -0.5133,3.5152 -1.8599,15.3912 -2.9925,26.3912 -1.1326,11 -2.6981,25.4 -3.479,32 -0.7809,6.6001 -2.3577,20.1001 -3.504,30.0001 -1.1463,9.9 -2.9534,25.2 -4.0157,34 -1.0623,8.8 -2.8447,25.225 -3.961,36.5 -1.1163,11.275 -2.2681,21.9371 -2.5596,23.6936 l -0.5299,3.1937 -2.0659,0.6557 -2.0659,0.6557 -1.08,-1.08 -1.08,-1.08 0.2275,-9.7694 0.2276,-9.7693 -2.5274,-16.5 c -3.5801,-23.3721 -13.899,-77.132 -15.1275,-78.8109 -0.1251,-0.1711 -8.914,-3.4326 -19.5309,-7.2478 -23.26,-8.3588 -26.363,-10.1611 -40.4317,-23.4844 -6.037,-5.7171 -14.3942,-12.9527 -18.5716,-16.079 l -7.5953,-5.6843 -13.7737,-0.2182 -13.7737,-0.2183 -5.5919,4.5547 -5.5919,4.5547 -14.0391,3.9884 c -7.7215,2.1937 -16.3581,4.1754 -19.1924,4.4037 l -5.1533,0.4152 -2.1281,-1.1389 c -1.1704,-0.6264 -3.4639,-2.9831 -5.0967,-5.237 l -2.9686,-4.0981 v -2.9157 c 0,-4.4374 1.654,-6.8603 17.6019,-25.7842 l 1.2641,-1.5 -9.0904,0.325 c -4.9998,0.1788 -13.6321,-0.1773 -19.183,-0.7913 -5.551,-0.6139 -17.0243,-1.3951 -25.4965,-1.736 l -15.4038,-0.6197 -4.3812,-2.3295 -4.3812,-2.3295 -0.459,1.2405 c -0.2525,0.6823 -0.8418,4.8405 -1.3095,9.2405 l -0.8504,8 1.3904,6 c 0.7647,3.3 3.1522,11.9689 5.3055,19.2643 4.5549,15.4313 6.8281,29.4218 7.6824,47.281 l 0.6101,12.7556 -1.2416,6.3496 c -2.0208,10.3339 -6.8109,24.3822 -13.657,40.0531 -6.8621,15.7076 -10.0359,26.2776 -14.3515,47.7965 l -2.7074,13.5 -3.4209,0.1948 c -1.8816,0.1071 -4.546,-0.1977 -5.921,-0.6774 z"
           id="path11707" /><path
           style="fill:#1a1a1a"
           d="m 4225.3288,-1079.2032 c 0.1952,-0.6875 1.5702,-7.5221 3.0555,-15.1879 3.6739,-18.9613 6.6692,-28.8326 13.2184,-43.5621 7.2572,-16.3217 12.0089,-30.4208 13.8827,-41.192 l 1.5121,-8.692 -1.0581,-12.808 c -1.6485,-19.9534 -2.8468,-26.4316 -8.6343,-46.6777 l -5.394,-18.8697 v -5.122 c 0,-7.027 2.2313,-20.6387 3.3832,-20.6387 0.5179,0 3.1559,1.4208 5.8621,3.1574 l 4.9204,3.1574 17.1671,0.7978 c 9.442,0.4387 21.6672,1.2145 27.1672,1.7239 5.5,0.5094 14.3875,0.6932 19.75,0.4086 l 9.75,-0.5176 v 0.9999 c 0,0.5499 -1.052,2.0737 -2.3377,3.3862 -5.366,5.4779 -18.5041,21.8127 -19.1301,23.7848 l -0.6766,2.1319 2.1436,3.4685 c 4.6975,7.6007 8.7123,8.8562 18.0942,5.6584 2.9737,-1.0135 9.5532,-2.8599 14.6213,-4.1032 l 9.2147,-2.2604 6.048,-4.8539 6.0481,-4.8539 3.4224,-0.642 c 1.8823,-0.3531 3.8696,-0.3656 4.4162,-0.028 1.3478,0.833 15.0104,0.9145 18.1994,0.1086 l 2.5636,-0.6478 8.5379,6.3116 c 4.6959,3.4714 13.5215,11.0366 19.6126,16.8116 14.2474,13.5082 17.8561,15.5969 41.2721,23.8892 l 19.4503,6.8879 0.7424,2.8615 c 3.3253,12.8163 11.1936,54.1199 14.7174,77.2573 l 2.0402,13.3959 v 11.5541 11.5542 l 0.9886,-0.9886 c 0.5437,-0.5437 2.1047,-11.5462 3.4689,-24.45 1.3642,-12.9038 4.0729,-36.9614 6.0194,-53.4614 6.9128,-58.5989 9.2904,-79.6886 10.541,-93.5001 0.5229,-5.775 1.2129,-12.4289 1.5332,-14.7864 l 0.5824,-4.2865 -3.2585,-3.0439 c -1.7921,-1.6741 -5.5347,-4.1823 -8.3167,-5.5737 -2.7821,-1.3915 -7.5123,-4.364 -10.5117,-6.6056 -7.131,-5.3296 -20.3624,-11.7607 -42.5466,-20.6796 -9.9,-3.9802 -25.0152,-10.5551 -33.5893,-14.611 -8.5741,-4.0559 -17.7991,-7.8835 -20.5,-8.5058 l -4.9107,-1.1314 -6.5,2.6729 -6.5,2.673 -8.8488,0.9411 c -4.8669,0.5175 -9.268,1.2001 -9.7803,1.5167 -0.5123,0.3166 -10.4804,0.6981 -22.1512,0.8477 l -21.2197,0.272 -13,3.1031 c -7.15,1.7067 -18.625,3.8198 -25.5,4.6958 -6.875,0.876 -17.9,2.7351 -24.5,4.1313 -6.6,1.3962 -13.1381,2.7622 -14.5291,3.0355 l -2.529,0.4969 -3.3624,-5.189 -3.3624,-5.189 0.5923,-14.6421 c 0.3257,-8.0531 1.4506,-21.392 2.4996,-29.642 l 1.9074,-15 -0.8098,-7 c -3.332,-28.8012 -7.6773,-40.2841 -16.1027,-42.5528 l -3.8264,-1.0304 -3.4827,1.6527 c -4.6582,2.2105 -8.8067,7.114 -12.9073,15.2567 l -3.3892,6.7301 -4.6697,17.9718 c -6.6234,25.4907 -9.0091,40.5915 -16.1591,102.2855 l -0.6158,5.3136 -4.3769,6.3922 -4.3768,6.3922 v 2.9652 c 0,1.6309 0.9517,6.9383 2.1148,11.7942 l 2.1148,8.829 -0.5883,8.5 c -5.8684,84.7971 -6.3471,87.581 -21.0047,122.1539 -3.6501,8.6096 -6.6366,16.0917 -6.6366,16.6269 0,3.3165 77.557,29.0008 78.4177,25.9693 z"
           id="path11709" /><path
           style="fill:#000000"
           d="m 4200.9108,-1374.6094 c 1.7174,-11.3052 2.957,-20.7205 2.7547,-20.9228 -1.8166,-1.8167 -9.2689,34.6118 -10.2448,50.0789 l -0.5047,8 2.4361,-8.3005 c 1.3399,-4.5653 3.8413,-17.5503 5.5587,-28.8556 z"
           id="path11725" /><path
           style="fill:#f7c73b;fill-opacity:1"
           d="m 4190.9111,-1336.7645 c 0,-4.8117 0.686,-14.3601 1.5244,-21.2187 l 1.5244,-12.4701 4.9326,-18.5 c 2.7129,-10.175 5.2302,-19.85 5.5939,-21.5 1.3278,-6.0237 7.1713,-14.5 9.9961,-14.5 h 1.4286 v 1.9986 c 0,1.0993 -1.7903,5.9746 -3.9784,10.8341 l -3.9784,8.8354 -2.4273,14.416 c -1.335,7.9287 -3.1923,19.3329 -4.1272,25.3425 -0.9349,6.0096 -2.7194,14.3346 -3.9654,18.5 -1.246,4.1654 -2.5821,9.4506 -2.9691,11.7451 l -0.7035,4.1716 -1.4254,0.547 -1.4253,0.5469 z"
           id="path11723" /><path
           style="fill:#000000"
           d="m 4272.9111,-1315.9816 c 4.675,-0.5572 14.7286,-1.685 22.3414,-2.5063 7.6128,-0.8212 17.5128,-2.3721 22,-3.4464 4.4872,-1.0743 11.0836,-2.6413 14.6586,-3.4823 l 6.5,-1.529 -7,0.443 c -3.85,0.2436 -11.95,1.5697 -18,2.9468 -10.689,2.4331 -17.1515,3.3447 -39.9604,5.6371 -6.0283,0.6059 -11.6533,1.5072 -12.5,2.0031 l -1.5396,0.9015 2.5,0.023 c 1.375,0.013 6.325,-0.4331 11,-0.9903 z"
           id="path11721" /><path
           style="fill:#f7c73b;fill-opacity:1"
           d="m 4252.9111,-1313.8309 c 0,-2.9287 10.626,-5.5796 28.5,-7.11 7.15,-0.6122 20.7528,-2.6654 30.2285,-4.5627 l 17.2284,-3.4497 6.7716,0.015 c 3.7243,0.01 7.3917,0.4081 8.1496,0.8882 1.6607,1.0519 0.6263,3.0965 -1.5665,3.0965 -0.8637,0 -9.4996,1.7626 -19.191,3.9169 -9.6913,2.1544 -23.0206,4.4252 -29.6206,5.0463 -6.6,0.6212 -15.6,1.5343 -20,2.0292 -10.4344,1.1736 -20.5,1.2374 -20.5,0.13 z"
           id="path11719" /><path
           style="fill:#000000"
           d="m 4507.9459,-1207.4532 c 2.7919,-25.3001 5.4745,-51.6192 5.9613,-58.487 l 0.8851,-12.4869 -1.6906,-1.8803 c -6.6051,-7.3465 -26.8312,-18.7836 -46.1906,-26.1191 -17.3448,-6.5722 -27.8072,-10.9904 -47.309,-19.9786 l -16.809,-7.747 -3.691,0.4865 c -2.03,0.2676 -10.3026,2.8144 -18.3834,5.6595 l -14.6925,5.173 -17.8075,3.3886 c -9.7942,1.8636 -22.7576,4.5736 -28.8076,6.0221 l -11,2.6335 -15,1.3921 c -8.25,0.7657 -19.05,1.8457 -24,2.4 -4.95,0.5544 -12.2625,1.016 -16.25,1.0257 l -7.25,0.018 v 3.4491 3.4491 l 3.4956,2.6662 3.4955,2.6662 7.2545,0.8408 c 3.9899,0.4624 11.5412,0.8605 16.7806,0.8847 5.2395,0.024 13.3395,0.5403 18,1.147 4.6606,0.6067 16.1238,1.1963 25.4738,1.3104 l 17,0.2073 6,-2.2333 c 3.3,-1.2284 17.2304,-4.7274 30.9564,-7.7755 l 24.9563,-5.5422 4.886,-2.5349 c 2.6872,-1.3942 5.6962,-2.5349 6.6866,-2.5349 3.6189,0 4.1157,6.7011 0.7647,10.315 l -2.25,2.4265 -24.4072,4.1401 -24.4072,4.1401 -9.0928,4.3378 c -19.1588,9.1398 -40.1257,30.2796 -34.0078,34.2882 l 2.585,1.6937 7.165,-1.8011 c 10.6492,-2.677 19.4461,-6.3169 26.0786,-10.7904 3.2524,-2.1937 7.5131,-4.657 9.4681,-5.4738 l 3.5547,-1.4853 10.0318,0.6695 10.0318,0.6695 2,-1.5331 c 4.2625,-3.2674 13.1149,2.704 35.8236,24.1649 6.1229,5.7864 13.3923,12.0132 16.1544,13.8374 l 5.022,3.3166 18.5843,6.0422 c 10.2214,3.3232 19.9538,6.0423 21.6276,6.0423 1.6738,0 3.5905,0.6594 4.2594,1.4654 l 1.2162,1.4654 -0.6281,3.7846 -0.6281,3.7846 2.559,12.5 c 2.6031,12.7152 7.4138,44.4305 7.6269,50.2819 0.1403,3.8514 1.2588,-5.4418 7.9176,-65.7819 z"
           id="path11717" /><path
           style="fill:#f7c73b;fill-opacity:1"
           d="m 4499.2844,-1126.3651 -1.1267,-1.2397 -0.5083,-9.9242 c -0.6853,-13.3781 -3.204,-31.8153 -6.7805,-49.6345 -1.6268,-8.1051 -2.9578,-17.1186 -2.9578,-20.0301 v -5.2935 l -3.75,-0.165 c -2.0625,-0.091 -11.7025,-2.8194 -21.4222,-6.0639 l -17.6721,-5.8988 -5.5196,-3.3452 c -3.0358,-1.8399 -11.2833,-8.7197 -18.3279,-15.2885 -7.0445,-6.5687 -16.4455,-14.751 -20.8911,-18.1827 l -8.083,-6.2396 -1.917,1.4554 -1.9171,1.4553 -9.7916,-0.5045 c -11.5447,-0.5949 -14.7876,0.1444 -21.8035,4.9705 -9.5434,6.5647 -27.8929,13.3408 -36.1266,13.3408 h -3.8692 l -2.4546,-2.4545 c -3.3483,-3.3484 -3.2937,-3.5176 3.7955,-11.7671 12.6263,-14.6928 20.3969,-20.7183 34.4657,-26.7256 l 8.7843,-3.7508 22.5,-3.7281 c 12.375,-2.0504 23.453,-4.1066 24.6178,-4.5693 l 2.1178,-0.8413 0.4981,-2.6055 c 0.699,-3.6568 -0.6231,-4.0318 -5.6443,-1.6011 -2.3957,1.1598 -16.0828,4.7616 -30.4157,8.004 -14.3329,3.2424 -28.0966,6.7963 -30.586,7.8975 l -4.5261,2.0021 -21.9065,-0.2943 c -12.0486,-0.1619 -22.4096,-0.6053 -23.0246,-0.9853 -0.6149,-0.3801 -10.0176,-1.0544 -20.8948,-1.4985 l -19.7767,-0.8074 -4.0464,-2.0643 c -5.346,-2.7274 -6.562,-4.3565 -7.1509,-9.5807 l -0.4924,-4.3692 1.0909,-0.6742 c 0.6,-0.3708 6.3894,-0.8537 12.8653,-1.0731 6.476,-0.2195 14.9245,-0.8728 18.7745,-1.4518 3.85,-0.5791 12.4,-1.4918 19,-2.0283 6.6,-0.5364 16.95,-2.1429 23,-3.5699 6.05,-1.4269 17.975,-3.9169 26.5,-5.5331 18.1579,-3.4427 29.2645,-6.474 43.8274,-11.9618 l 10.5724,-3.984 3.5501,0.6399 c 1.9525,0.3519 8.5001,2.8979 14.5501,5.6577 23.4255,10.6859 31.6792,14.1794 51.1874,21.6658 21.1589,8.1199 28.9112,12.2205 41.3126,21.8523 l 7.5,5.8251 -0.2298,11.4374 c -0.1263,6.2906 -0.9024,17.5124 -1.7247,24.9374 -0.8222,7.425 -2.8562,25.65 -4.5201,40.5001 -1.6638,14.85 -4.1607,37.575 -5.5486,50.5 -1.3878,12.925 -2.8504,24.6987 -3.2501,26.1639 l -0.7267,2.6638 z"
           id="path11715" /><path
           style="fill:#000000"
           d="m 4220.8856,-1096.5383 c 1.084,-6.0032 3.3354,-15.7649 5.0031,-21.6928 l 3.0321,-10.7779 4.9911,-9.9458 c 5.9022,-11.7616 13.6967,-33.7159 15.3771,-43.3118 l 1.1931,-6.8134 -0.7554,-8.6866 c -1.1285,-12.9761 -5.2049,-32.7214 -10.4644,-50.6867 l -4.6842,-16 0.032,-7 c 0.017,-3.85 0.5398,-8.8 1.161,-11 l 1.1292,-4 -0.01,-14 -0.01,-14 -1.2352,-2.4036 c -1.5082,-2.9346 -5.3306,-5.7917 -8.8719,-6.6312 l -2.6365,-0.6251 -2.1113,2.2662 c -2.6125,2.8042 -5.56,10.4817 -8.7891,22.8937 l -2.4715,9.5 -0.4067,10.5 -0.4066,10.5 -3.0107,12.5 c -7.5445,31.3244 -9.0974,34.3281 -15.3742,29.7383 l -1.7255,-1.2617 4.982,-21.1091 4.982,-21.109 0.4614,-10.3839 c 0.8211,-18.477 8.9564,-44.1869 16.0869,-50.8389 l 2.6415,-2.4643 h 5.5776 5.5776 l -0.6546,-8.0676 -0.6546,-8.0676 1.024,-9.4681 c 0.5632,-5.2075 1.7736,-13.8622 2.6898,-19.2328 l 1.6658,-9.7647 -1.2276,-11.7353 c -0.6751,-6.4544 -1.8824,-14.6684 -2.6827,-18.2532 l -1.4551,-6.5179 -2.383,-2.9821 c -3.0705,-3.8424 -3.1496,-3.7228 -5.5306,8.3569 l -2.014,10.218 -1.9277,2.7215 -1.9277,2.7215 -1.5761,9.5 c -0.8669,5.225 -2.6976,16.5667 -4.0682,25.2037 -1.3707,8.6371 -3.6192,18.9871 -4.9966,23 -1.3775,4.013 -4.4974,16.2963 -6.9333,27.2963 -5.3323,24.0797 -5.3163,24.0358 -11.9678,32.9213 -2.9144,3.8933 -6.0876,8.3004 -7.0516,9.7936 l -1.7527,2.7149 1.5741,4.7851 c 0.8658,2.6318 2.049,8.1601 2.6293,12.2851 l 1.0552,7.5 -1.0642,17.5 c -4.1247,67.8308 -6.2802,79.6353 -20.1699,110.4627 -3.2123,7.1295 -5.8405,13.0463 -5.8405,13.1486 0,0.5413 63.3277,22.3485 63.7518,21.9532 0.1385,-0.1291 1.1387,-5.1464 2.2227,-11.1495 z"
           id="path11713" /><path
           style="fill:#f7c73b;fill-opacity:1"
           d="m 4191.9111,-1091.4739 c -13.475,-4.6534 -27.7625,-9.6502 -31.75,-11.104 l -7.25,-2.6432 v -1.9616 c 0,-1.0789 2.6347,-7.8811 5.8549,-15.1161 11.3926,-25.596 13.581,-33.0369 15.1345,-51.4586 0.5889,-6.9827 1.7995,-19.8958 2.6903,-28.6958 l 1.6197,-16.0001 0.1003,-20.5 0.1003,-20.5 -1.881,-6.1599 -1.8811,-6.1598 0.6179,-2.4619 c 0.3399,-1.354 3.0951,-5.7821 6.1228,-9.8401 7.9341,-10.6341 9.0531,-13.5016 13.992,-35.8558 2.4478,-11.0791 5.5569,-23.379 6.9091,-27.3332 1.3521,-3.9541 3.6495,-14.8393 5.1053,-24.1893 1.4558,-9.35 3.3206,-20.825 4.144,-25.5 l 1.497,-8.5 1.856,-2.5999 1.8559,-2.5999 1.6597,-8.9001 c 0.9129,-4.895 2.0787,-9.9433 2.5907,-11.2184 l 0.931,-2.3183 2.206,0.3183 2.206,0.3183 2.2739,3.3824 c 2.9385,4.3709 3.933,8.1061 5.8885,22.1176 l 1.6051,11.5 -0.5239,9 c -0.2881,4.95 -1.2297,13.275 -2.0923,18.5 l -1.5685,9.5 -0.01,13.75 -0.01,13.75 h -6 -6 l -1.9658,1.9658 c -3.9735,3.9735 -9.4483,17.6451 -13.4866,33.6785 l -1.5476,6.1444 v 8.2464 8.2465 l -5,21.4141 c -5.7873,24.7859 -5.6341,23.537 -2.8361,23.1239 l 2.164,-0.3196 1.8475,-6.5 c 1.0161,-3.575 3.4174,-13.1459 5.3361,-21.2686 l 3.4885,-14.7686 v -8.3747 -8.3747 l 2.8934,-11.3567 c 3.5467,-13.9205 6.4649,-21.7908 9.1477,-24.6705 l 2.0368,-2.1862 3.2111,0.022 c 1.766,0.012 5.074,0.8679 7.3511,1.9019 l 4.14,1.8799 1.0301,3.3481 c 0.5665,1.8415 1.2455,8.9731 1.5088,15.8481 l 0.4788,12.5 -1.5028,8 -1.5027,8 0.5698,6 c 0.3134,3.3 2.1338,11.2709 4.0454,17.7131 4.7711,16.0791 8.2167,31.9502 10.1573,46.787 l 1.6349,12.5 -0.5869,5.7724 c -0.8543,8.4036 -8.9653,32.3749 -15.6417,46.2276 -7.3972,15.3485 -11.7008,29.7534 -14.3404,48 l -1.1573,8 -2.4867,0.22 c -1.3677,0.121 -13.5117,-3.5873 -26.9867,-8.2407 z"
           id="path11711" /></g></g></g></svg>
