<?xml version="1.0" encoding="UTF-8" standalone="no"?>
<!-- Created with Inkscape (http://www.inkscape.org/) -->

<svg
   width="587.94067mm"
   height="500mm"
   viewBox="0 0 587.94067 500"
   version="1.1"
   id="svg5"
   xml:space="preserve"
   xmlns:inkscape="http://www.inkscape.org/namespaces/inkscape"
   xmlns:sodipodi="http://sodipodi.sourceforge.net/DTD/sodipodi-0.dtd"
   xmlns="http://www.w3.org/2000/svg"
   xmlns:svg="http://www.w3.org/2000/svg"><sodipodi:namedview
     id="namedview7"
     pagecolor="#ffffff"
     bordercolor="#000000"
     borderopacity="0.25"
     inkscape:showpageshadow="2"
     inkscape:pageopacity="0.0"
     inkscape:pagecheckerboard="0"
     inkscape:deskcolor="#d1d1d1"
     inkscape:document-units="mm"
     showgrid="false"
     showguides="false" /><defs
     id="defs2" /><g
     inkscape:groupmode="layer"
     id="layer4"
     inkscape:label="C"
     transform="translate(-432.88851,5443.9141)"><g
       id="g38931"
       transform="translate(23.910756,3.4291992)"><rect
         style="fill:#cccccc;fill-opacity:1;stroke:#1a1a1a;stroke-width:20;stroke-linecap:round;stroke-linejoin:round;stroke-dasharray:none;stroke-opacity:1;paint-order:stroke fill markers"
         id="rect38211-4-8"
         width="567.94067"
         height="480"
         x="418.97775"
         y="-5437.3433"
         rx="48.766338"
         ry="48.766338" /><g
         id="g38458"
         transform="translate(-2505.5634,-2514.3901)"><path
           style="fill:#ffffff"
           d="m 3260.831,-2536.2033 c -1.7099,-3.4375 -7.6462,-14.697 -13.1919,-25.0211 l -10.083,-18.771 -11.5725,-3.5464 c -41.1477,-12.6097 -45.7603,-14.6519 -64.7044,-28.646 -17.6118,-13.0099 -21.7203,-14.7528 -39.5789,-16.7896 l -7.9845,-0.9106 -14.3158,-7.5203 -14.3157,-7.5203 -12.8858,-4.3896 c -15.7549,-5.367 -20.5018,-7.7231 -23.2032,-11.5169 l -2.0842,-2.927 v -3.5608 -3.5609 l 2.9927,-3.4085 c 3.4857,-3.9699 10.0377,-7.0064 21.2197,-9.8341 l 7.9828,-2.0187 8.6524,0.3459 8.6524,0.3458 7.5,3.9183 c 4.125,2.1551 9.075,4.7201 11,5.7 1.925,0.9799 6.65,2.2122 10.5,2.7383 l 7,0.9566 5.3664,-2.4045 5.3663,-2.4045 -1.7844,-2.7521 c -0.9815,-1.5136 -6.3213,-8.3537 -11.8664,-15.2002 l -10.0819,-12.4481 0.041,-24.7426 0.041,-24.7426 1.7799,-1.9668 c 3.3214,-3.6701 22.3367,-10.0953 29.9986,-10.1364 l 2.8613,-0.015 -0.6853,-3.75 c -0.3769,-2.0625 -1.2818,-4.6777 -2.0109,-5.8116 l -1.3257,-2.0617 -4.3503,-1.2719 c -2.3927,-0.6996 -10.6677,-3.498 -18.3888,-6.2187 l -14.0385,-4.9467 -4.315,1.5224 c -6.0914,2.1492 -20.5292,3.7751 -34.7819,3.917 l -12.1738,0.1212 -3.1678,-3 c -3.5511,-3.3631 -6.3994,-8.419 -7.4277,-13.1849 l -0.6872,-3.1848 2.2041,-2.2041 c 2.5249,-2.5249 37.3917,-19.568 51.2132,-25.0333 l 4.787,-1.8929 8.213,0.035 c 4.5172,0.019 10.913,0.6516 14.213,1.405 41.308,9.4315 37.3538,7.906 58.5,22.5675 20.9282,14.5104 25.8216,17.4228 52.5,31.2471 12.65,6.5549 23.3223,12.224 23.7161,12.5978 0.3939,0.3739 3.0097,8.7725 5.8128,18.6636 2.8032,9.8911 7.3443,25.4089 10.0914,34.4839 2.7471,9.075 6.0989,20.1821 7.4484,24.6824 l 2.4538,8.1824 8.1589,12.3176 c 4.4873,6.7747 12.092,19.5752 16.8993,28.4457 4.8072,8.8705 9.8392,17.8705 11.1823,20 12.2008,19.3451 40.4467,70.6705 41.3342,75.1079 l 0.6043,3.0214 -1.0384,0.6418 c -0.5711,0.3529 -11.0789,1.7562 -23.3507,3.1184 -47.7419,5.2993 -67.4882,7.636 -71.8124,8.4981 -2.475,0.4935 -5.731,0.9168 -7.2356,0.9407 l -2.7356,0.043 -3.1089,-6.25 z"
           id="path12437" /><path
           style="fill:#1a1a1a"
           d="m 3296.9111,-2536.3799 c 23.8541,-2.8095 67.1965,-7.5734 68.9039,-7.5734 3.4443,0 -9.3136,-24.4861 -36.2112,-69.5 -3.2864,-5.5 -9.9058,-17.2533 -14.7096,-26.1184 -4.8039,-8.8651 -12.33,-21.5172 -16.7247,-28.1157 -9.9479,-14.9365 -6.7751,-5.7884 -31.6199,-91.1691 l -2.1542,-7.4031 -20.9922,-10.8846 c -26.8003,-13.8963 -31.3843,-16.6124 -51.9921,-30.8059 -21.9996,-15.152 -21.8804,-15.097 -44.6172,-20.5975 l -19.3828,-4.689 -7.6266,-0.4797 -7.6267,-0.4798 -5.2661,1.7492 c -2.8964,0.962 -12.2894,5.1036 -20.8734,9.2035 -8.584,4.0999 -17.6158,8.3725 -20.0708,9.4945 -2.455,1.1221 -6.1675,3.1158 -8.25,4.4304 l -3.7864,2.3902 v 2.0273 c 0,14.9886 19.2454,19.3672 51.3807,11.6897 l 8.8807,-2.1217 18.6193,6.3016 c 20.784,7.0343 21.3215,7.3852 22.9826,15.0048 1.4384,6.5978 1.6725,6.3811 -9.1122,8.4346 -10.1187,1.9267 -18.4792,4.8503 -22.1681,7.752 l -2.583,2.0318 0.01,23.1774 0.01,23.1774 1.7434,2.563 c 0.9589,1.4097 5.365,7.0347 9.7915,12.5 4.4265,5.4654 9.1118,11.4588 10.4118,13.3187 l 2.3638,3.3817 -0.9348,1.482 c -0.5142,0.815 -2.9426,2.5558 -5.3964,3.8683 l -4.4616,2.3863 -4.0154,-0.017 c -2.2085,-0.01 -7.0433,-0.659 -10.7438,-1.4432 l -6.7284,-1.4259 -6.7716,-3.9425 c -12.5095,-7.2831 -18.1459,-8.3158 -31.4337,-5.7591 -14.4494,2.7801 -25.008,8.4328 -26.4448,14.1577 l -0.589,2.3467 2.1821,3.0645 c 2.7903,3.9186 6.992,6.0234 22.7448,11.3936 l 12.7689,4.353 14.7117,7.6363 14.7118,7.6363 3.2882,0.013 c 14.3182,0.057 27.3661,5.2787 44.006,17.6103 19.1712,14.2076 22.1691,15.5464 63.4294,28.3259 l 13.1471,4.072 10.4915,19.7393 c 5.7703,10.8567 11.5021,21.7644 12.7372,24.2394 2.821,5.6527 3.2059,5.8802 8.2979,4.9056 2.2986,-0.4399 13.8542,-1.9394 25.6792,-3.3321 z"
           id="path12439" /><path
           style="fill:#f7c73b;fill-opacity:1"
           d="m 3169.7318,-2704.7034 c -0.6251,-1.5125 -2.1747,-5.1326 -3.4437,-8.0447 l -2.3073,-5.2948 1.7151,-0.6677 c 0.9434,-0.3672 3.9531,-0.6845 6.6882,-0.7052 l 4.973,-0.038 0.3382,1.6868 c 0.1859,0.9278 -0.6085,4.8653 -1.7654,8.75 l -2.1035,7.0632 h -1.4791 c -0.8135,0 -1.9905,-1.2375 -2.6155,-2.75 z"
           id="path12449" /><path
           style="fill:#000000"
           d="m 3156.2029,-2684.038 c 1.2145,-1.1466 4.2332,-3.2516 6.7082,-4.678 2.475,-1.4263 4.6342,-2.6849 4.7981,-2.7968 0.164,-0.1119 -1.4728,-3.9694 -3.6374,-8.572 -2.1646,-4.6027 -4.1959,-9.1529 -4.5141,-10.1115 l -0.5784,-1.743 -3.6737,2.493 -3.6736,2.4929 h -4.3819 -4.3819 l -1.11,-2.4362 c -1.5846,-3.4777 -0.5032,-5.3058 3.8514,-6.5111 2.0908,-0.5787 4.3723,-1.4215 5.07,-1.8729 l 1.2686,-0.8207 -3.6902,-2.4295 c -5.1152,-3.3678 -7.4804,-6.9341 -8.0704,-12.169 l -0.5036,-4.4679 2.2209,-0.5808 c 3.3978,-0.8885 6.5562,0.7876 7.9854,4.2379 0.7103,1.7149 2.4163,4.0028 3.791,5.0841 l 2.4995,1.9661 h 9.0081 9.0081 l -0.6934,-10.25 -0.6935,-10.25 -2.5816,-4 c -1.4199,-2.2 -3.7597,-4.9963 -5.1995,-6.214 l -2.6179,-2.214 -3.6218,-0.036 c -4.3615,-0.043 -21.4551,4.1767 -25.5999,6.3201 l -2.964,1.5328 -0.6531,12.8055 c -1.4476,28.3843 -1.8595,26.6163 9.2743,39.8052 4.179,4.9502 8.9405,10.9033 10.5813,13.2291 3.4407,4.8772 3.8017,4.9937 6.775,2.1867 z"
           id="path12447" /><path
           style="fill:#f7c73b;fill-opacity:1"
           d="m 3149.9229,-2680.9313 c -0.5822,-1.0879 -4.7606,-6.53 -9.2852,-12.0936 -4.5246,-5.5636 -9.4641,-11.7154 -10.9766,-13.6707 l -2.75,-3.5551 0.058,-18.1013 c 0.032,-9.9558 0.3764,-19.8987 0.7661,-22.0956 l 0.7083,-3.9942 2.7475,-1.3168 c 4.5453,-2.1785 21.8606,-6.2812 27.4117,-6.4949 l 5.1911,-0.1999 3.6248,3.5 c 1.9937,1.925 4.5475,4.9879 5.6753,6.8064 l 2.0504,3.3064 0.869,11.6436 0.869,11.6436 -1.2354,0.861 c -0.6795,0.4735 -5.6384,0.6501 -11.0198,0.3925 l -9.7843,-0.4685 -2.4528,-1.6071 c -1.349,-0.8839 -3.3677,-3.4005 -4.486,-5.5925 l -2.0335,-3.9854 h -1.9797 -1.9797 v 1.8522 c 0,2.9183 4.1605,8.3434 8.7757,11.443 6.4335,4.3207 5.9469,5.234 -5.1275,9.6242 l -2.8517,1.1305 1.2242,1.4751 c 1.7755,2.1393 4.9225,1.8077 9.4793,-0.9989 2.2,-1.355 4.8296,-2.4777 5.8436,-2.4948 l 1.8436,-0.031 0.5582,2.1344 c 0.307,1.174 2.5532,6.2334 4.9915,11.2432 l 4.4334,9.1088 -1.8352,1.2647 c -1.0093,0.6955 -4.8563,3.5111 -8.5488,6.2567 -7.363,5.4749 -9.1848,5.9846 -10.7745,3.0142 z"
           id="path12445" /><path
           style="fill:#000000"
           d="m 3296.177,-2542.3776 c 11.1287,-1.3333 29.2341,-3.4106 40.2341,-4.6162 11,-1.2056 20.1069,-2.2841 20.2376,-2.3967 0.378,-0.3257 -8.6432,-16.8989 -16.9083,-31.0628 -19.4187,-33.2779 -26.1206,-45.039 -33.3356,-58.5 -4.2745,-7.975 -10.1069,-18.1094 -12.9609,-22.5208 l -5.189,-8.0207 -6.1098,-15.4793 c -8.011,-20.2963 -13.275,-36.348 -18.7844,-57.2798 l -4.5003,-17.098 -1.72,-1.9006 c -0.946,-1.0453 -11.5454,-6.8034 -23.5542,-12.7958 l -21.8341,-10.8953 -11.6705,-7.9854 c -6.4188,-4.3919 -16.2923,-11.1342 -21.9412,-14.9829 l -10.2706,-6.9976 -5.2294,-1.4278 c -2.8761,-0.7853 -12.4293,-3.1403 -21.2293,-5.2334 l -16,-3.8056 -8,-0.039 -8,-0.039 -20,9.1781 c -30.4873,13.9909 -29.1735,13.103 -25.2273,17.0491 l 2.5193,2.5193 15.9417,-1.1357 c 8.768,-0.6247 18.5117,-1.8051 21.6528,-2.6233 9.2491,-2.4091 15.5383,-1.3673 37.1135,6.1476 l 10,3.483 3.1115,-0.5784 3.1115,-0.5784 1.0607,1.2781 c 0.5834,0.7029 1.7773,4.4241 2.653,8.2693 2.3244,10.2054 3.1289,11.6386 8.6368,15.3873 6.0319,4.1053 10.438,9.4679 12.439,15.1394 l 1.4875,4.216 v 8.8398 8.8398 l 2.9081,2.975 2.9081,2.9749 -0.7615,3.3096 c -0.4188,1.8202 -2.1037,6.4595 -3.7443,10.3095 -1.6406,3.85 -3.2765,8.4931 -3.6353,10.318 l -0.6523,3.3181 2.21,-0.3181 2.2101,-0.318 4.4397,-15.7349 4.4398,-15.735 3.4483,-0.6469 3.4483,-0.6469 0.874,1.3819 c 1.0765,1.702 0.3962,5.6094 -3.1319,17.9896 l -2.7381,9.6078 0.5047,2.6404 0.5047,2.6403 -1.5783,2.4089 -1.5784,2.4089 -4.8962,1.6263 c -2.6929,0.8944 -11.8224,5.4915 -20.2878,10.2158 -26.419,14.7435 -31.5048,16.2963 -47.4927,14.5004 l -9.101,-1.0223 -9.899,-4.7195 -9.899,-4.7196 -5.5815,-0.4556 -5.5815,-0.4556 -7.4185,1.5421 c -4.0802,0.8482 -8.9347,2.1838 -10.7879,2.9679 l -3.3694,1.4257 7.0638,0.044 c 12.2602,0.077 16.175,2.3945 16.175,9.5763 v 3.4718 l 4.5976,1.5665 c 2.5287,0.8616 9.8283,4.57 16.2213,8.2408 l 11.6236,6.6741 8.0288,0.8218 c 18.3171,1.8749 25.0871,4.5862 39.1113,15.6633 4.9046,3.8739 12.8757,9.5285 17.7137,12.5657 l 8.7962,5.5223 26.7038,8.6037 c 14.687,4.7321 27.3291,8.9424 28.0935,9.3563 0.7644,0.4138 7.2894,11.4193 14.5,24.4566 l 13.1102,23.7042 2.2659,0.01 c 1.2462,0 11.3712,-1.0846 22.5,-2.4179 z"
           id="path12443" /><path
           style="fill:#f7c73b;fill-opacity:1"
           d="m 3257.3703,-2559.9884 c -6.9824,-12.6692 -13.4297,-23.8697 -14.3273,-24.8899 l -1.6319,-1.8549 -15,-4.659 c -8.25,-2.5625 -20.2986,-6.4391 -26.7746,-8.6147 l -11.7746,-3.9556 -7.7254,-4.6545 c -4.249,-2.56 -10.4254,-6.7004 -13.7254,-9.201 -3.3,-2.5005 -8.8124,-6.6858 -12.2498,-9.3006 l -6.2498,-4.7543 -6.6365,-2.0498 c -3.6501,-1.1274 -10.9627,-2.5655 -16.2502,-3.1958 l -9.6137,-1.146 -5.5,-2.7474 c -3.025,-1.511 -8.6382,-4.5883 -12.4738,-6.8384 -3.8356,-2.25 -9.1231,-4.8049 -11.75,-5.6774 -4.3891,-1.4578 -5.3032,-2.3667 -4.8467,-4.8193 0.091,-0.4916 -0.1252,-2.2208 -0.4814,-3.8428 l -0.6477,-2.949 -3.6502,-1.5292 -3.6502,-1.5292 -8.25,0.5113 -8.25,0.5112 v -1.2343 c 0,-3.619 7.0999,-6.7619 20.3347,-9.0017 l 9.8347,-1.6644 3.1653,0.6836 c 1.7409,0.3759 8.1153,2.9135 14.1653,5.6391 l 11,4.9557 8.5,0.6841 c 14.8825,1.1977 18.8352,-0.1251 47.5,-15.8963 7.15,-3.9339 14.8,-7.852 17,-8.7068 5.7478,-2.2334 6.5,-3.0564 6.5,-7.1122 0,-1.9963 1.35,-8.3528 3,-14.1255 1.65,-5.7726 3,-11.2842 3,-12.2478 v -1.7522 h -1.5248 c -1.8029,0 -2.4644,1.6184 -7.1386,17.4631 -1.953,6.6203 -4.0269,12.6224 -4.6086,13.338 l -1.0577,1.3011 -3.0851,-0.3011 -3.0852,-0.3011 0.1776,-4.1316 0.1776,-4.1317 3.5724,-8.63 c 4.2372,-10.236 4.2393,-10.2593 1.1765,-13.0977 l -2.3958,-2.2204 -0.6357,-9.8943 c -1.0278,-15.9953 -3.3287,-20.7319 -13.3993,-27.583 -6.3391,-4.3125 -5.6286,-2.921 -10.2438,-20.0613 l -1.0098,-3.75 -4.2098,-3e-4 -4.2099,-3e-4 -9.6843,-3.4616 c -5.3263,-1.9039 -13.4066,-4.412 -17.9561,-5.5736 l -8.2719,-2.112 -5.5869,1.5676 c -5.9097,1.6582 -24.9886,3.5379 -36.1782,3.5644 l -6.6774,0.016 -2.1202,-2.6953 -2.1201,-2.6954 0.2975,-2.5322 0.2976,-2.5323 20.5,-9.678 c 11.275,-5.3228 23.5478,-10.6802 27.2729,-11.9051 l 6.773,-2.2273 4.727,0.6072 c 6.7297,0.8643 40.8732,8.5693 46.1672,10.4183 2.4421,0.8529 9.0862,4.7433 14.7648,8.6454 5.6786,3.9021 15.3806,10.5809 21.5599,14.8417 l 11.2352,7.747 16.5,8.0691 c 9.075,4.438 19.7209,9.8958 23.6576,12.1285 l 7.1576,4.0594 3.1547,12.6245 c 8.7348,34.9562 22.7242,73.4474 31.387,86.36 2.4853,3.7045 7.0968,11.5795 10.2478,17.5 6.6916,12.5727 12.6572,23.1547 28.9004,51.2645 17.4237,30.1528 25.4949,44.8481 25.4949,46.4187 v 1.3936 l -4.75,0.574 c -2.6125,0.3156 -13.525,1.4949 -24.25,2.6206 -10.725,1.1257 -28.5517,3.1597 -39.6148,4.5199 -11.0631,1.3603 -20.3659,2.4732 -20.6728,2.4732 -0.3069,0 -6.2708,-10.3657 -13.2532,-23.035 z"
           id="path12441" /><path
           style="fill:#f7c73b;fill-opacity:1;stroke:none;stroke-width:1;stroke-linecap:round;stroke-linejoin:round;stroke-opacity:1;paint-order:stroke fill markers"
           d="m 3077.8836,-2657.4845 0.5503,-2.3844 -0.6419,-4.127 -5.7777,-2.2929 -15.499,0.367 4.127,5.1358 9.1709,2.9347 z"
           id="path37502"
           sodipodi:nodetypes="cccccccc" /></g></g></g></svg>
