<?xml version="1.0" encoding="UTF-8" standalone="no"?>
<!-- Created with Inkscape (http://www.inkscape.org/) -->

<svg
   width="587.94067mm"
   height="500mm"
   viewBox="0 0 587.94067 500"
   version="1.1"
   id="svg5"
   xml:space="preserve"
   xmlns:inkscape="http://www.inkscape.org/namespaces/inkscape"
   xmlns:sodipodi="http://sodipodi.sourceforge.net/DTD/sodipodi-0.dtd"
   xmlns="http://www.w3.org/2000/svg"
   xmlns:svg="http://www.w3.org/2000/svg"><sodipodi:namedview
     id="namedview7"
     pagecolor="#ffffff"
     bordercolor="#000000"
     borderopacity="0.25"
     inkscape:showpageshadow="2"
     inkscape:pageopacity="0.0"
     inkscape:pagecheckerboard="0"
     inkscape:deskcolor="#d1d1d1"
     inkscape:document-units="mm"
     showgrid="false"
     showguides="false" /><defs
     id="defs2" /><g
     inkscape:groupmode="layer"
     id="layer5"
     inkscape:label="D"
     transform="translate(-1171.3826,5443.9141)"><g
       id="g38945"
       transform="translate(-48.574891,3.4291992)"><rect
         style="fill:#cccccc;fill-opacity:1;stroke:#1a1a1a;stroke-width:20;stroke-linecap:round;stroke-linejoin:round;stroke-dasharray:none;stroke-opacity:1;paint-order:stroke fill markers"
         id="rect38211-4-8-8"
         width="567.94067"
         height="480"
         x="1229.9575"
         y="-5437.3433"
         rx="48.766338"
         ry="48.766338" /><g
         id="g38492"
         transform="translate(-2259.9817,-2514.2194)"><path
           id="path12467"
           style="fill:#ffffff"
           d="m 3795.9776,-2847.1704 -6.2833,1.0583 c -3.4558,0.5821 -9.5381,1.3636 -13.5165,1.7364 -7.3863,0.6919 -8.7713,1.4138 -9.4201,4.9097 l -0.369,1.987 -2.1337,-3.6163 -2.1337,-3.6163 -6.4368,-1.1209 c -3.5404,-0.6165 -7.8278,-1.1209 -9.5276,-1.1209 h -3.0908 l -1.0067,3.25 c -0.5536,1.7875 -1.8932,6.8693 -2.977,11.2928 -2.68,10.9389 -14.0009,41.0045 -21.6354,57.4575 -3.4453,7.425 -7.5564,17.3247 -9.1354,21.9997 -1.5791,4.675 -6.4775,15.6726 -10.8856,24.4388 l -8.015,15.9381 -7.0967,0.076 -7.0968,0.076 -3.7496,2.8603 c -7.5674,5.7719 -25.2515,35.6016 -36.5254,61.6112 -10.9376,25.2338 -25.5772,49.9524 -40.5686,68.4997 -17.1265,21.1887 -22.4627,29.2112 -22.4627,33.7705 v 2.5947 l 2.25,0.756 c 1.2375,0.4157 22.2751,5.818 46.7501,12.005 v 0 l 44.5001,11.2494 3.9703,-0.1875 3.9698,-0.1882 3.7977,-5.4999 c 2.0886,-3.025 6.2118,-8.2229 9.1632,-11.5507 l 5.3666,-6.0503 6.8663,-2.867 c 9.9823,-4.1681 19.9506,-9.1746 27.3658,-13.7438 l 6.5003,-4.0055 4.5,-5.6126 c 7.4969,-9.3507 18.1307,-20.1383 25,-25.3612 3.575,-2.7181 10.6627,-8.61 15.7505,-13.0933 l 9.2506,-8.1514 1.4816,-4.0323 c 0.815,-2.2176 2.1884,-9.4316 3.052,-16.0316 0.8636,-6.6 1.7886,-12.7447 2.0551,-13.655 l 0.4843,-1.6552 4.1155,1.6165 4.1155,1.6169 6.1851,9.5379 c 11.849,18.2729 17.1336,23.1242 47.7997,43.8806 l 19.7115,13.3418 3.5408,4.1367 c 1.9475,2.2751 6.2033,9.5465 9.4578,16.1582 l 5.9175,12.0215 3.4846,11.6902 c 7.1857,24.1069 6.9601,24.1436 32.7132,-5.2653 4.6116,-5.2664 15.8098,-18.0378 24.8848,-28.3807 9.075,-10.3429 17.2844,-19.9842 18.2433,-21.425 l 1.7431,-2.6195 0.01,-3.7378 c 0.012,-6.9171 -12.7833,-42.6815 -23.5278,-65.7619 l -5.3536,-11.5 -3.0185,-16.5003 c -3.632,-19.8552 -8.7517,-40.0977 -14.4104,-56.9764 l -4.1833,-12.4773 -8,-4.0974 c -4.4,-2.2537 -9.4361,-4.5939 -11.1916,-5.2007 l -3.192,-1.1033 -2.6789,-4.2442 c -1.4735,-2.3342 -8.0533,-13.5916 -14.6219,-25.0171 -6.5685,-11.4253 -13.6497,-22.5325 -15.7359,-24.6822 l -3.7931,-3.9083 -8.8935,-3.2365 c -13.8162,-5.0281 -39.8283,-11.6608 -51.1096,-13.0317 z m -26.7612,23.1836 1.7219,3.8452 c 3.3986,7.5908 7.926,9.5456 25.5679,11.0381 l 11.095,0.9385 3.4049,1.7534 c 3.7624,1.9374 18.8326,12.1509 23.1635,15.6987 l 2.758,2.2593 1.8629,5.5 c 1.0246,3.025 2.1227,6.9031 2.4402,8.6175 l 0.5772,3.1171 -6.1986,0.646 c -9.0549,0.9436 -16.6124,3.1905 -19.3353,5.7485 -5.279,4.9594 -22.3629,33.1227 -22.3629,36.8659 0,3.5304 5.81,24.7121 7.9044,28.8174 l 2.1363,4.1874 -1.7704,-0.067 c -8.2403,-0.3142 -16.5652,-5.0637 -26.2367,-14.9681 l -6.6156,-6.7748 -4.408,-1.1865 -4.4075,-1.187 -8.6217,0.3421 -8.6217,0.3421 3.2226,-7.0001 c 3.1721,-6.8911 12.3744,-34.7223 16.4031,-49.6088 3.2715,-12.089 5.0392,-23.4512 5.7035,-36.6577 z" /><path
           id="path12469"
           style="fill:#1a1a1a"
           d="m 3796.4112,-2844.9798 -13.438,1.7632 -13.4379,1.7632 -0.8408,3.2499 -0.8408,3.2499 -1.7213,-0.01 -1.7213,-0.01 -1.6284,-3.8788 -1.6283,-3.8794 -7.152,-1.2061 c -3.9335,-0.6635 -7.7118,-0.9914 -8.3964,-0.7287 l -1.2444,0.4775 -2.3497,9.8676 c -3.0068,12.6283 -13.3011,40.6318 -22.008,59.8682 -3.7341,8.25 -8.0885,18.8249 -9.6764,23.4999 -1.5878,4.675 -6.4935,15.6998 -10.9016,24.4998 l -8.015,16 -6.5433,0.1179 -6.5433,0.1173 -3.0582,1.5813 c -8.0657,4.1709 -24.366,31.2724 -40.4073,67.1835 -11.3569,25.424 -23.6045,45.574 -40.2901,66.2843 -11.9828,14.873 -17.9732,23.2854 -19.5678,27.4794 l -0.9374,2.466 5.6736,1.7064 c 7.9311,2.3854 87.3136,22.362 89.303,22.473 l 1.6289,0.091 5.8317,-7.7499 v -5e-4 c 3.2077,-4.2625 7.5674,-9.6331 9.6883,-11.9347 l 3.856,-4.1842 7.6833,-3.1885 c 10.2301,-4.2452 18.3017,-8.3007 26.1829,-13.1558 l 6.4999,-4.0039 4.4999,-5.6131 c 7.4969,-9.3507 18.1307,-20.1378 25.0001,-25.3607 24.6551,-18.7456 26.4474,-21.2806 29.3734,-41.5525 l 2.1265,-14.7345 1.8588,-0.355 c 1.0223,-0.1954 3.8805,0.4166 6.351,1.3601 l 4.4917,1.7152 5.5371,8.6289 c 12.34,19.2294 17.347,23.8985 47.2617,44.0748 10.175,6.8626 20.5685,14.5425 23.0973,17.0662 l 4.5982,4.5883 6.5795,13.4498 c 3.6188,7.3974 7.5642,17.0499 8.7674,21.4499 6.432,23.5198 5.538,23.7242 32.4574,-7.4238 4.95,-5.7276 15.0288,-17.2004 22.3976,-25.4951 7.3688,-8.2947 14.7042,-16.8676 16.3008,-19.0511 l 2.9032,-3.9703 -0.6609,-3.9093 c -1.4817,-8.7701 -14.3535,-43.282 -23.0431,-61.7823 l -5.5402,-11.7946 -3.3073,-17.787 c -3.7337,-20.0819 -8.9099,-40.5537 -14.3583,-56.7867 l -3.6917,-10.9999 -9,-4.5821 c -4.95,-2.52 -9.9153,-4.8151 -11.034,-5.1 l -2.0339,-0.5178 -6.5826,-10.9001 c -3.6204,-5.9951 -10.0799,-17.1428 -14.3547,-24.7731 -9.001,-16.0666 -12.0356,-19.854 -18.5554,-23.1578 -9.6164,-4.873 -41.5467,-13.5321 -56.9397,-15.4414 z m -29.0675,16.0858 c 0.974,0.01 3.3193,2.9032 4.9537,6.473 l 2.4453,5.3408 4.3031,2.1957 4.3036,2.1952 11.0309,0.9803 c 15.6824,1.3936 38.3006,12.3701 44.2732,21.4855 1.8579,2.8356 5.2576,14.6733 5.2576,18.3074 v 2.5802 l -8.9379,1.2651 -8.9375,1.265 -4.3124,2.1761 -4.3124,2.1761 -7.6807,11.5001 c -4.2243,6.325 -8.8933,13.9497 -10.3755,16.9436 l -2.6945,5.4436 1.2506,7.0001 c 1.3425,7.512 4.738,18.2707 7.3758,23.3717 0.8936,1.728 1.6247,3.8394 1.6247,4.6917 v 1.5493 l -2.25,-0.083 c -1.2375,-0.046 -4.9279,-0.731 -8.2005,-1.5224 v -5e-4 c -8.1622,-1.974 -13.5037,-5.3421 -21.2881,-13.4235 -9.0702,-9.4164 -16.5194,-11.4901 -31.0116,-8.633 l -4.2498,0.8382 v -1.447 c 0,-0.7959 1.5353,-4.7733 3.4121,-8.8382 14.3466,-31.0706 22.7125,-67.6674 23.5702,-103.1095 0.012,-0.4996 0.1774,-0.7239 0.4501,-0.7219 z" /><path
           style="fill:#f7c73b;fill-opacity:1"
           d="m 3743.5833,-2818.6747 c -0.6818,-1.1033 2.999,-18.3498 4.1651,-19.516 l 0.837,-0.837 2.8038,1.066 2.8037,1.066 -0.5541,8.0844 c -0.6239,9.1023 -0.8166,9.4432 -5.8632,10.3699 l -3.6355,0.6676 z"
           id="path12489" /><path
           style="fill:#f7c73b;fill-opacity:1"
           d="m 3846.2698,-2711.4611 c -0.3182,-0.8292 0.2584,-2.6746 1.2813,-4.1008 1.023,-1.4262 3.4416,-5.3602 5.3746,-8.7423 l 3.5146,-6.1492 h 1.4854 1.4854 l -0.1269,5.1071 c -0.2346,9.4397 -10.5125,20.4053 -13.0144,13.8852 z"
           id="path12487" /><path
           style="fill:#000000"
           d="m 3825.493,-2698.6173 c 2.795,-0.8272 6.845,-2.4902 9,-3.6954 l 3.9181,-2.1913 0.3009,-4.0895 0.3009,-4.0895 -3.2017,-0.6403 c -8.6386,-1.7278 -14.1979,-6.3296 -15.3832,-12.7339 l -0.6285,-3.3962 1.4002,-1.8974 1.4002,-1.8975 2.529,0.6348 2.529,0.6347 1.2277,2.964 c 1.5828,3.8211 4.8969,5.945 10.468,6.7086 l 4.4576,0.611 3.5756,-7.347 3.5756,-7.3471 -3.6856,-13.086 -3.6857,-13.086 -8.59,1.8586 c -11.8601,2.566 -19.6079,10.6618 -29.2344,30.5476 l -2.0953,4.3283 1.745,7.1867 c 1.7483,7.2002 5.3071,16.2093 8.0777,20.4481 l 1.478,2.2614 2.7195,-0.5913 c 1.4957,-0.3252 5.0064,-1.2681 7.8014,-2.0954 z"
           id="path12485" /><path
           style="fill:#f7c73b;fill-opacity:1"
           d="m 3812.2733,-2695.2034 c -4.2945,-6.0813 -9.1529,-19.6329 -10.0386,-28.0006 l -0.6087,-5.7507 6.1929,-10.2493 c 3.4061,-5.6372 7.7754,-12.4224 9.7096,-15.0784 l 3.5168,-4.8291 3.2548,-1.3599 c 4.1772,-1.7454 20.3394,-5.0869 21.0701,-4.3562 0.3059,0.3059 1.4664,4.1153 2.5787,8.4653 1.1124,4.3499 2.9465,10.6089 4.0758,13.9089 l 2.0533,6 -4.0246,8.1205 c -5.0386,10.1664 -8.2731,11.2812 -18.2491,6.2897 l -3.6069,-1.8047 -1.2645,-3.0527 c -0.6954,-1.679 -1.8848,-3.0528 -2.6431,-3.0528 h -1.3787 v 3.0988 3.0988 l 3.1442,2.9371 3.1441,2.9371 5.7407,1.5961 5.7406,1.596 0.5199,4.612 c 0.6893,6.1154 -0.4162,7.835 -6.964,10.8327 -10.2608,4.6975 -20.2075,6.5278 -21.9633,4.0414 z"
           id="path12483" /><path
           style="fill:#000000"
           d="m 3921.2223,-2543.857 c 3.9538,-4.6657 11.2388,-12.9495 16.1888,-18.4086 4.95,-5.459 13.799,-15.4881 19.6644,-22.2867 l 10.6643,-12.3612 -1.7536,-5.7699 c -4.7668,-15.6842 -15.9907,-44.1596 -22.5676,-57.2549 l -4.6713,-9.3012 -2.8773,-15.6069 c -3.2092,-17.4066 -6.0756,-30.1448 -9.1375,-40.607 l -2.0487,-7 -9.2624,-9.5 c -5.0943,-5.225 -13.6077,-15.35 -18.9187,-22.5 l -9.6564,-13 -7.1155,-14 c -11.1797,-21.9964 -16.3006,-28.5881 -25.3197,-32.5921 -9.2256,-4.0957 -37.3265,-10.786 -52.0842,-12.4002 l -6.0843,-0.6656 -8.4157,1.1233 c -4.6287,0.6178 -9.9083,1.3544 -11.7326,1.6368 l -3.3167,0.5135 0.6872,3.1922 c 0.3779,1.7557 1.3379,4.4651 2.1332,6.0209 l 1.4459,2.8288 3.3023,1.3798 c 1.8163,0.7589 9.2149,2.0688 16.4414,2.911 7.2264,0.8422 14.7646,2.2105 16.7515,3.0407 4.976,2.0791 27.6814,16.0903 29.7136,18.3359 l 1.655,1.8288 4.5551,17.4231 c 6.0257,23.0484 7.0494,26.2963 10.6318,33.731 l 3.0394,6.3078 3.8886,2.4547 3.8885,2.4547 v 2.1999 2.1999 l -2.7225,2.1709 -2.7226,2.1709 0.2194,5.0432 0.2195,5.0432 -2.7469,2.1444 c -11.7814,9.1976 -19.8943,14.6535 -26.7469,17.9871 l -8,3.8918 -10.8406,2.2522 -10.8406,2.2523 -7.862,-1.1459 c -10.341,-1.5073 -14.8335,-3.9418 -24.4568,-13.2536 -8.5183,-8.2425 -11.7371,-10.3041 -17.8036,-11.4031 l -3.8036,-0.689 -5.2592,1.5289 c -13.3076,3.8686 -14.2246,6.9328 -3.3656,11.2465 13.4362,5.3376 20.5582,11.0969 28.2381,22.8353 l 5.2341,8 16.4708,6.3504 16.4708,6.3504 2.7688,5.6453 c 9.2986,18.9596 16.7159,26.1966 49.3502,48.1508 l 18.3007,12.3116 3.6993,4.2189 c 7.9142,9.026 21.3137,34.2781 23.9555,45.1458 l 1.7437,7.1731 1.8112,-1.6335 c 0.9961,-0.8984 5.0461,-5.4508 9,-10.1164 z"
           id="path12477" /><path
           style="fill:#f7c73b;fill-opacity:1"
           d="m 3908.4376,-2530.2033 c -0.2259,-0.6875 -1.1123,-4.175 -1.9697,-7.75 -5.5765,-23.2515 -20.8936,-44.3338 -43.0568,-59.263 -35.0277,-23.5948 -44.5374,-32.8404 -52.8514,-51.3838 l -1.8513,-4.1292 -14.6487,-5.7063 c -17.9567,-6.9949 -18.3869,-7.2649 -22.8234,-14.3215 -7.3762,-11.7325 -16.3698,-18.7978 -30.9176,-24.2885 l -8.4076,-3.1733 v -1.2508 c 0,-0.688 1.7387,-2.8218 3.8639,-4.7417 l 3.8639,-3.4908 5.2745,-1.7519 5.2745,-1.7519 5.862,0.5315 5.862,0.5316 4.2496,2.5405 c 2.3373,1.3973 7.3045,5.6736 11.0383,9.5029 l 6.7888,6.9623 4.7112,2.3374 4.7113,2.3375 11,-0.01 11,-0.01 6.4337,-1.764 c 9.6311,-2.6405 17.7066,-6.5794 26.0635,-12.7124 4.1266,-3.0283 9.1872,-6.6295 11.246,-8.0024 2.0587,-1.373 3.786,-2.7214 3.8385,-2.9964 0.052,-0.275 0.17,-2.9039 0.2612,-5.8419 l 0.166,-5.342 2.2455,-1.8183 c 2.9824,-2.415 2.8317,-3.6434 -0.6694,-5.4538 l -2.915,-1.5074 -2.9762,-5.495 c -3.8812,-7.1658 -5.4016,-11.678 -10.6506,-31.6082 -2.3997,-9.1117 -5.0505,-18.2118 -5.8906,-20.2224 l -1.5275,-3.6558 -5.8125,-3.7192 c -22.5417,-14.4236 -23.4676,-14.8001 -41.1675,-16.7408 l -11.6801,-1.2807 -3.8594,-1.8314 -3.8593,-1.8314 -1.8512,-4.0758 c -1.0181,-2.2417 -1.8611,-5.7548 -1.8731,-7.8068 l -0.022,-3.731 2.25,-0.4868 c 14.2702,-3.0877 29.0244,-3.0789 44.9935,0.027 31.1365,6.0559 41.814,10.1358 49.5615,18.9374 l 4.0027,4.5474 8.0864,15.8501 8.0864,15.8502 9.2598,12.8392 c 5.0928,7.0615 13.8297,17.6112 19.4153,23.4436 l 10.1557,10.6044 2.0476,6.9247 c 3.1955,10.8068 7.0035,27.6473 9.6294,42.5847 l 2.4013,13.6601 4.6868,9.332 c 7.7197,15.3708 24.4236,59.6309 24.4236,64.7149 0,1.9188 -7.1987,10.6472 -24.9645,30.2692 -5.7945,6.4 -15.4855,17.5023 -21.5355,24.6718 l -11,13.0355 -1.7814,0.078 c -0.9797,0.043 -1.9662,-0.4843 -2.1921,-1.1718 z"
           id="path12475" /><path
           style="fill:#000000"
           d="m 3671.4111,-2532.665 c 2.2,-3.0887 6.25,-8.0938 9,-11.1224 l 5,-5.5067 9.5,-4.4071 c 5.225,-2.424 11.075,-5.1432 13,-6.0428 1.925,-0.8996 6.1071,-3.179 9.2936,-5.0653 l 5.7935,-3.4297 12.6988,-13.4591 12.6988,-13.4591 8.0077,-5.5855 c 7.703,-5.3731 21.1241,-17.0857 22.8302,-19.924 0.8277,-1.3771 4.6774,-26.8303 4.6774,-30.9263 v -2.1972 l -3.75,-2.2386 c -5.0587,-3.0199 -9.4389,-7.1914 -15.4711,-14.7342 l -5.0461,-6.3097 -7.5889,-5.121 c -4.174,-2.8165 -11.2014,-6.6471 -15.6164,-8.5124 -4.4151,-1.8653 -8.59,-3.6322 -9.2775,-3.9263 l -1.25,-0.5349 v -3.4963 -3.4963 l 5.3525,-12.1467 c 9.5929,-21.7699 10.4664,-23.9999 14.1598,-36.1468 2.0067,-6.6 5.378,-18.75 7.4917,-27 l 3.8431,-15 1.5143,-13.8308 1.5143,-13.8309 -0.8745,-2.1692 -0.8744,-2.1691 -0.063,4.6276 -0.063,4.6275 -1.6046,1.3318 c -0.8826,0.7324 -4.3701,1.5095 -7.75,1.7269 l -6.1454,0.3952 -4.95,13.1455 c -2.7226,7.2301 -7.3305,18.0002 -10.24,23.9337 -2.9094,5.9335 -7.3583,16.7335 -9.8863,24 -5.3962,15.5105 -17.1419,39.8774 -24.6861,51.2118 l -5.3247,8 -2.7138,0.3172 -2.7139,0.3171 -0.8537,-2.3079 c -0.8776,-2.3724 -0.2199,-5.9242 1.7939,-9.687 1.3968,-2.61 0.4522,-2.7049 -3.1671,-0.3182 -8.5655,5.6483 -24.2093,31.9892 -39.0752,65.7945 -9.8283,22.3499 -26.9666,49.9215 -42.8207,68.8888 -4.5993,5.5025 -10.0659,12.1228 -12.148,14.7118 l -3.7856,4.7072 5.2856,1.4822 c 4.7872,1.3425 78.6007,20.2339 79.7856,20.4199 0.275,0.043 2.3,-2.4486 4.5,-5.5372 z"
           id="path12473" /><path
           style="fill:#f7c73b;fill-opacity:1"
           d="m 3622.9111,-2535.8344 c -40.5951,-10.3893 -44,-11.3983 -44,-13.0391 0,-0.4411 3.8348,-5.4771 8.5218,-11.191 27.8723,-33.9789 39.5062,-52.4007 54.3566,-86.0714 11.5991,-26.299 24.8492,-48.6245 33.7008,-56.7837 l 4.3761,-4.0338 h 3.0224 3.0223 v 1.4798 c 0,0.8139 -0.7235,3.288 -1.6078,5.498 -1.5906,3.9753 -1.2865,7.693 0.537,6.566 4.6985,-2.9038 23.7239,-39.9672 30.5833,-59.5795 2.5838,-7.3875 6.3108,-16.5891 8.2821,-20.448 1.9714,-3.859 6.5795,-14.4413 10.2403,-23.5163 l 6.656,-16.5 6.3562,-0.7948 c 7.8143,-0.9772 8.9263,-1.8466 9.0526,-7.0776 0.1386,-5.7391 1.2304,-9.1276 2.9412,-9.1276 h 1.4507 l 0.7657,6 0.7657,6 -1.5242,13.9938 -1.5241,13.9938 -4.5181,17.3402 c -6.3505,24.3731 -9.6991,34.3544 -17.6705,52.6722 -7.7213,17.7429 -9.3884,22.231 -8.5641,23.0554 0.3064,0.3064 3.971,2.0411 8.1435,3.855 16.6448,7.2358 22.2211,11.3393 34.4385,25.343 3.4673,3.9741 8.256,8.3696 10.6417,9.7677 5.6338,3.3016 5.6378,3.3307 3.1057,22.3171 l -2.1626,16.2157 -6.4444,6.5471 c -3.5444,3.6009 -10.0444,9.0513 -14.4444,12.1121 l -8,5.5649 -15.5,15.7789 -15.5,15.7789 -17.5316,8.4949 -17.5315,8.4949 -4.4877,4.8372 c -2.4681,2.6605 -6.6828,7.6498 -9.3659,11.0873 l -4.8783,6.25 -2.1025,-0.1301 c -1.1564,-0.072 -20.7775,-4.9095 -43.6025,-10.751 z"
           id="path12471" /></g></g></g></svg>
