<?xml version="1.0" encoding="UTF-8" standalone="no"?>
<!-- Created with Inkscape (http://www.inkscape.org/) -->

<svg
   width="587.94067mm"
   height="500mm"
   viewBox="0 0 587.94067 500"
   version="1.1"
   id="svg5"
   xml:space="preserve"
   xmlns:inkscape="http://www.inkscape.org/namespaces/inkscape"
   xmlns:sodipodi="http://sodipodi.sourceforge.net/DTD/sodipodi-0.dtd"
   xmlns="http://www.w3.org/2000/svg"
   xmlns:svg="http://www.w3.org/2000/svg"><sodipodi:namedview
     id="namedview7"
     pagecolor="#ffffff"
     bordercolor="#000000"
     borderopacity="0.25"
     inkscape:showpageshadow="2"
     inkscape:pageopacity="0.0"
     inkscape:pagecheckerboard="0"
     inkscape:deskcolor="#d1d1d1"
     inkscape:document-units="mm"
     showgrid="false"
     showguides="false" /><defs
     id="defs2" /><g
     inkscape:groupmode="layer"
     id="layer6"
     inkscape:label="E"
     transform="translate(-1909.8767,5443.9141)"><g
       id="g38959"
       transform="translate(-27.234335,-4.882806e-4)"><rect
         style="fill:#cccccc;fill-opacity:1;stroke:#1a1a1a;stroke-width:20;stroke-linecap:round;stroke-linejoin:round;stroke-dasharray:none;stroke-opacity:1;paint-order:stroke fill markers"
         id="rect38211-4-8-8-0"
         width="567.94067"
         height="480"
         x="1947.1111"
         y="-5433.9136"
         rx="48.766338"
         ry="48.766338" /><g
         id="g38526"
         transform="translate(-2107.5562,-2509.762)"><path
           style="fill:#ffffff"
           d="m 4495.493,-2497.0615 c 7.655,-3.9095 22.4681,-10.6937 32.9181,-15.076 10.45,-4.3823 25.6262,-10.9094 33.7248,-14.5047 l 14.7248,-6.5368 -1.1431,-2.1372 c -0.6287,-1.1754 -6.2398,-10.6417 -12.469,-21.0362 -11.0053,-18.3643 -13.3203,-23.3411 -13.3319,-28.6609 -0.014,-6.4135 -9.4118,-57.3367 -12.4603,-67.5176 -0.8362,-2.7926 -4.0727,-9.0926 -7.1923,-14 -3.1196,-4.9073 -8.0305,-12.9725 -10.9131,-17.9225 -2.8826,-4.95 -6.3536,-9.8325 -7.7132,-10.8502 l -2.4721,-1.8502 -5.8011,1.2983 -5.8011,1.2982 -1.0762,-1.8017 c -0.5919,-0.9909 -2.2339,-3.6675 -3.6488,-5.948 l -2.5727,-4.1464 -5.4273,-2.9844 -5.4274,-2.9845 -6.9435,0.1606 -6.9435,0.1605 -2.9071,-2.4462 c -1.599,-1.3454 -6.7994,-4.3497 -11.5566,-6.6761 l -8.6493,-4.2299 h -7.8398 -7.8399 l -1.525,-3 c -2.1952,-4.3183 -7.6889,-9.8577 -16.4044,-16.5407 -4.185,-3.2091 -11.9156,-10.7323 -17.1791,-16.7184 -11.3904,-12.9541 -14.1148,-15.2531 -31.7118,-26.761 l -13.5,-8.8286 -7.5,-7.2042 c -8.3097,-7.982 -12.626,-10.6061 -17.6816,-10.7494 l -3.3818,-0.096 -3.1133,3.1133 -3.1133,3.1133 -2.3292,6.8358 -2.3292,6.8358 -0.1441,-3 -0.1441,-3 -0.7634,3 -0.7634,3 -0.1402,-2.5 c -0.077,-1.375 -1.0043,-4.4032 -2.0602,-6.7293 l -1.9199,-4.2294 -3.3082,-2.0169 c -1.8194,-1.1093 -4.6846,-2.0186 -6.3669,-2.0207 h -3.0589 l -5.9411,3.6344 c -3.2677,1.9989 -9.7662,5.8619 -14.4412,8.5844 -4.675,2.7224 -10.8699,6.516 -13.7665,8.43 -5.8089,3.8388 -19.518,10.3515 -21.7889,10.3515 h -1.4446 v -1.891 c 0,-1.0401 2.4899,-6.1026 5.5332,-11.25 5.8925,-9.9667 8.2441,-16.2479 9.1499,-24.4401 l 0.5618,-5.081 -2.8724,-2.2588 -2.8725,-2.2588 -0.1294,-8.1601 c -0.1445,-9.1161 -2.5818,-22.4444 -5.5668,-30.442 l -1.9713,-5.2818 -2.2352,-1.4646 c -1.2294,-0.8055 -4.327,-1.8553 -6.8836,-2.3329 l -4.6484,-0.8685 -1.5389,1.7004 c -0.8463,0.9353 -2.9366,4.5859 -4.645,8.1127 -1.7083,3.5267 -6.5844,11.8132 -10.8357,18.4144 -4.2513,6.6012 -8.9796,14.3322 -10.5074,17.1801 -1.5278,2.8479 -5.7097,8.6979 -9.2932,13 -12.6642,15.2039 -16.4301,24.6742 -27.7388,69.7564 l -4.2479,16.9343 -6.007,3.5657 c -3.3039,1.9611 -8.0401,4.7638 -10.5251,6.2281 l -4.5181,2.6625 -0.5849,11.3375 c -0.3218,6.2357 -0.7893,19.6625 -1.0389,29.8375 -0.2496,10.175 -0.9238,20.9751 -1.4981,24.0001 -2.0519,10.8072 -4.075,40.8359 -4.0806,60.5685 l -0.01,20.0685 -1.6125,5.4298 c -2.1684,7.302 -7.1257,16.9554 -14.3808,28.0044 -7.2958,11.1108 -7.2816,10.4274 -0.2567,12.4081 6.5706,1.8526 42.4773,12.73 61.6642,18.6802 l 12.9142,4.005 0.8432,-1.3323 c 7.8564,-12.4128 34.138,-59.066 35.2545,-62.5813 l 1.509,-4.7509 0.9914,-19 0.9914,-19 2.0928,-9 2.0928,-9 0.588,-17.624 0.5881,-17.6239 -1.7591,-16.0646 -1.759,-16.0647 1.1193,-3.2106 c 0.6155,-1.7659 1.1192,-7.5311 1.1192,-12.8116 v -9.6009 l 11.7548,-9.7141 c 6.4651,-5.3428 16.2266,-14.2674 21.6921,-19.8325 l 9.9372,-10.1183 6.0579,-3.0543 c 6.8661,-3.4617 15.3921,-9.046 23.769,-15.568 l 5.7111,-4.4464 1.156,-3.5027 1.156,-3.5027 0.8676,1.3696 0.8677,1.3696 0.054,-1.5 c 0.03,-0.825 0.6874,-0.044 1.4609,1.7354 0.7735,1.7795 5.3684,7.1921 10.2109,12.028 4.8424,4.836 13.6076,13.9966 19.4783,20.3569 5.8706,6.3603 13.5065,13.7727 16.9686,16.472 3.4622,2.6992 8.5946,7.1577 11.4056,9.9077 l 5.1107,5 8.2364,18.7849 c 9.2895,21.1757 12.1095,28.804 12.1095,32.7443 v 2.7161 l -4.25,3.8989 c -2.3375,2.1444 -7.5324,6.5435 -11.5442,9.7758 -4.0118,3.2322 -7.7481,6.7249 -8.3029,7.7615 l -1.0086,1.8846 3.5978,18.217 c 1.9788,10.0193 4.9655,23.9419 6.637,30.939 l 3.0391,12.7221 1.9404,2.4667 c 4.9839,6.3361 55.177,46.9536 69.1867,55.9878 l 8.7954,5.6716 5.335,8.2149 c 2.9343,4.5182 7.194,11.9274 9.4659,16.4649 4.9768,9.9397 3.6111,9.8644 20.6903,1.1418 z"
           id="path12523" /><path
           style="fill:#1a1a1a;fill-opacity:1"
           d="m 4205.4346,-2769.9154 c -0.5354,-0.8663 2.4367,-14.3823 6.0555,-27.538 l 1.3754,-5 9.7845,-15.9885 9.7845,-15.9886 1.8856,-0.3631 1.8857,-0.3632 -0.6185,3.8115 c -0.6101,3.7596 -12.2113,27.5658 -17.4002,35.7059 l -2.6684,4.186 -0.4249,9.2915 -0.4249,9.2915 -3.8391,1.9585 c -4.4197,2.2548 -4.5973,2.2876 -5.3952,0.9965 z"
           id="path12539" /><path
           style="fill:#1a1a1a"
           d="m 4161.4111,-2514.9165 c -6.6,-2.0654 -21.4362,-6.7023 -32.9694,-10.3042 -24.3541,-7.6061 -23.2232,-6.4372 -16.1317,-16.674 6.5479,-9.4522 10.7358,-17.4807 13.0712,-25.0586 l 1.6951,-5.5 0.8813,-29 c 0.8212,-27.0217 1.4755,-36.5923 3.8965,-57 0.522,-4.4 1.2127,-18.5751 1.5349,-31.5001 0.3221,-12.925 0.8324,-24.625 1.1338,-26 l 0.5482,-2.5 8.6701,-4.8772 c 19.7489,-11.1096 50.6829,-30.8514 60.0623,-38.3312 l 6.6077,-5.2695 10.5,-4.1499 c 13.0217,-5.1464 26.7652,-11.9648 34,-16.8679 3.025,-2.0501 7.975,-4.9664 11,-6.4808 3.025,-1.5143 9.1,-4.8982 13.5,-7.5197 12.5387,-7.4706 15.1315,-7.6065 18.5168,-0.9709 5.462,10.7064 -2.6896,21.0867 -25.0133,31.8521 l -7.4965,3.615 -7.5035,7.6086 c -4.1269,4.1847 -12.0035,11.2206 -17.5035,15.6354 -5.5,4.4148 -11.3217,9.4285 -12.9371,11.1415 -3.6999,3.9235 -4.8445,3.8996 -8.9304,-0.1863 -1.8154,-1.8154 -5.4503,-4.1217 -8.0775,-5.125 l -4.7768,-1.8243 -4.0892,1.2252 c -2.249,0.6738 -5.5174,2.6533 -7.263,4.3989 l -3.1738,3.1739 -0.696,4.476 c -2.4171,15.5452 -14.6012,34.9761 -21.9316,34.9761 h -3.9932 l -4.3903,-2.1253 -4.3904,-2.1253 -1.0521,1.0521 -1.0522,1.0521 0.6028,2.4018 0.6028,2.4018 2.5711,1.1714 c 1.414,0.6443 4.814,1.1714 7.5553,1.1714 h 4.9844 l 0.5597,1.4588 c 0.3079,0.8023 0.098,2.9398 -0.4657,4.75 -0.564,1.8102 -1.5246,5.8197 -2.1348,8.91 l -1.1093,5.6188 -3.0284,3.3812 c -4.3888,4.9001 -9.7437,14.0506 -12.0314,20.5594 l -1.9867,5.6526 0.5859,2.3346 c 0.3223,1.2841 1.1704,2.3347 1.8848,2.3347 h 1.2987 l 3.3324,-8.0714 c 1.8329,-4.4393 5.739,-11.6668 8.6803,-16.0611 l 5.3478,-7.9897 2.5537,-10.0743 c 2.6546,-10.4724 4.8567,-15.531 11.4502,-26.3036 6.1622,-10.0677 8.5843,-15.4536 10.4776,-23.298 0.9688,-4.014 2.4148,-7.9515 3.2133,-8.75 l 1.452,-1.452 h 4.3815 c 17.4116,0 19.0252,26.7269 3.6828,61 l -2.0144,4.5 0.6536,26.6679 c 0.6677,27.2438 0.8449,28.5483 3.7274,27.4422 l 1.66,-0.637 -0.3669,-27.7365 -0.3669,-27.7366 1.5076,-2.9877 c 7.8964,-15.649 10.3332,34.3546 2.7772,56.9878 l -2.0031,6 -0.6409,19.656 -0.6408,19.6561 -4.3366,8.3439 c -4.7384,9.1171 -25.2947,44.6783 -28.3788,49.094 l -1.9208,2.75 -2.1819,-0.104 c -1.2,-0.057 -7.5819,-1.7939 -14.1819,-3.8592 z"
           id="path12529" /><path
           style="fill:#1a1a1a"
           d="m 4218.5778,-2776.62 c -2.7594,-2.7594 -0.063,-12.9113 5.8013,-21.8395 2.3493,-3.5768 6.0175,-10.3315 8.1517,-15.0104 l 3.8803,-8.5071 1.5,0.2704 1.5,0.2705 0.3104,4.3014 0.3105,4.3014 -1.5943,4.69 c -0.8768,2.5795 -2.9294,6.4899 -4.5614,8.6899 -4.0534,5.4644 -7.0941,12.0418 -7.7183,16.6962 l -0.5208,3.8823 -2.0855,1.4607 c -2.2569,1.5808 -3.9215,1.8466 -4.9739,0.7942 z"
           id="path12541" /><path
           style="fill:#1a1a1a"
           d="m 4157.9111,-2740.9221 c 0,-1.8771 0.9901,-5.6886 10.1053,-38.9034 5.3616,-19.537 6.9412,-22.8095 17.1694,-35.5706 4.8745,-6.0815 9.9251,-13.1172 11.2235,-15.635 1.2985,-2.5177 5.8105,-9.7177 10.0266,-16 4.2162,-6.2822 8.7992,-13.6723 10.1845,-16.4223 3.3303,-6.6112 5.1084,-8.5 8.0019,-8.5 h 2.4013 l 2.1516,4.75 2.1517,4.75 0.042,9.5 0.042,9.5 -3.6728,7.5 c -2.0201,4.125 -6.7899,12.675 -10.5995,19 -9.5693,15.8874 -9.8023,16.3996 -13.2668,29.1638 -7.6753,28.2779 -6.6835,27.0236 -34.4095,43.5139 -9.7679,5.8096 -11.5514,6.3274 -11.5514,3.3536 z"
           id="path12535" /><path
           style="fill:#1a1a1a"
           d="m 4482.2021,-2496.2033 c -0.5246,-0.6875 -2.4439,-4.175 -4.265,-7.75 -7.2051,-14.1438 -15.5175,-24.19 -23.2345,-28.0808 -7.7163,-3.8904 -27.2252,-18.9979 -52.2915,-40.4939 -18.7658,-16.093 -16.1538,-11.3519 -23.0982,-41.9253 -8.5975,-37.8516 -8.3924,-35.1066 -2.8779,-38.5148 1.8291,-1.1304 5.8402,-4.7714 8.9137,-8.0911 l 5.5881,-6.0359 1.5653,0.3209 1.5654,0.3208 2.9181,7.5001 c 3.6033,9.261 3.6346,8.2904 -0.5745,17.8635 -3.9575,9.0009 -4.2134,10.4205 -1.7949,9.9547 2.392,-0.4606 6.6777,-7.1177 9.2221,-14.3248 l 2.1527,-6.0981 -3.0156,-6.4477 c -1.6586,-3.5462 -4.3347,-11.6227 -5.9469,-17.9477 -3.3926,-13.3096 -5.3324,-18.4859 -11.6174,-31 -2.5093,-4.9963 -5.4415,-11.3146 -6.516,-14.0406 -3.2272,-8.1875 -6.671,-12.4206 -16.9462,-20.8301 -5.3847,-4.407 -14.0085,-12.6409 -19.1641,-18.2976 -5.1555,-5.6566 -14.2112,-15.269 -20.1237,-21.3609 l -10.75,-11.0761 0.022,-2.9473 c 0.024,-3.2743 3.2144,-10.9461 5.688,-13.6794 3.4605,-3.8238 7.2207,-1.9145 21.4054,10.869 4.1884,3.7747 14.0884,11.352 22,16.8384 15.8713,11.0063 23.478,17.6899 31.442,27.6265 l 5.2913,6.6018 9.0203,6.8072 c 4.9612,3.7439 10.3579,8.6697 11.9928,10.9462 1.6348,2.2764 5.2327,6.5465 7.9953,9.4891 2.7627,2.9426 5.5412,6.6011 6.1745,8.1301 0.6333,1.529 1.8023,3.0298 2.5978,3.335 l 1.4463,0.555 0.5643,-1.4706 c 0.3104,-0.8088 0.068,-2.8934 -0.5378,-4.6324 -1.4396,-4.1295 -1.4053,-7.8633 0.072,-7.8633 1.8496,0 16.7598,7.8828 22.8257,12.0676 l 5.5,3.7943 6.5638,-0.5529 6.5638,-0.5529 3.0378,1.5709 c 3.0532,1.5789 9.3346,8.022 9.3346,9.575 0,3.7237 10.6387,7.0361 14.4912,4.5118 3.1612,-2.0712 3.9551,-1.4587 7.6586,5.9091 1.7078,3.3974 6.0218,10.5686 9.5866,15.936 l 6.4816,9.7588 2.4206,7.6226 c 3.1494,9.9175 7.6769,32.4907 11.4352,57.0139 1.6515,10.7762 3.7143,21 4.5841,22.7195 2.6548,5.2484 20.3485,33.5123 21.3774,34.1482 0.5306,0.3279 0.9599,1.5821 0.954,2.7872 l -0.011,2.191 -18.2392,7.9392 c -10.0316,4.3667 -24.5025,10.5553 -32.1576,13.7525 -7.655,3.1973 -18.3472,8.2871 -23.7605,11.3107 -10.3312,5.7706 -11.9743,6.2864 -13.5302,4.2476 z"
           id="path12525" /><path
           style="fill:#f7c73b;fill-opacity:1"
           d="m 4176.9111,-2752.0931 c 6.875,-4.3083 13.2715,-8.4398 14.2145,-9.1811 2.5336,-1.9916 5.1544,-8.7666 9.7829,-25.2902 4.7563,-16.9795 3.7236,-14.6546 14.7173,-33.133 4.6609,-7.8342 9.8382,-17.4899 11.5051,-21.4572 l 3.0307,-7.2133 -0.5901,-6.319 c -0.3245,-3.4755 -1.5052,-8.3879 -2.6237,-10.9164 l -2.0337,-4.5975 -1.5831,1.3139 c -0.8707,0.7226 -2.8537,3.8158 -4.4066,6.8737 -1.5529,3.0579 -6.5787,11.2483 -11.1684,18.2009 -4.5897,6.9526 -9.7824,15.0526 -11.5394,18 -1.757,2.9474 -6.2222,8.9589 -9.9227,13.3589 -9.7849,11.6345 -10.7269,14.0218 -22.1731,56.1894 l -3.8516,14.1894 2.0709,-1.0926 c 1.1391,-0.6009 7.696,-4.6175 14.571,-8.9259 z"
           id="path12537" /><path
           style="fill:#f7c73b;fill-opacity:1"
           d="m 4216.8464,-2633.3261 c 0.5856,-5.2516 1.0647,-16.5146 1.0647,-25.0288 v -15.4804 l -0.8839,-0.5463 c -1.4556,-0.8996 -3.5781,5.575 -3.5825,10.9283 0,2.75 0.1303,13.775 0.2945,24.5 l 0.2987,19.5 0.8719,-2.1622 c 0.4795,-1.1892 1.351,-6.459 1.9366,-11.7106 z"
           id="path12533" /><path
           style="fill:#f7c73b;fill-opacity:1"
           d="m 4184.7374,-2527.2367 c 11.8164,-19.7456 20.1955,-34.5226 22.7934,-40.1972 l 2.318,-5.0632 0.4859,-18.0283 c 0.2672,-9.9156 0.7793,-18.7932 1.1381,-19.7281 l 0.6523,-1.6998 h -2.9904 -2.9903 l -0.6052,-2.25 c -0.3328,-1.2375 -0.9065,-14.0218 -1.2748,-28.4095 l -0.6696,-26.1595 3.1009,-7.8405 c 1.7055,-4.3123 4.7383,-12.9933 6.7395,-19.2911 l 3.6386,-11.4504 -0.6993,-7.0496 c -0.3847,-3.8772 -1.3771,-8.7542 -2.2054,-10.8379 l -1.5059,-3.7884 -2.8264,-1.4616 c -7.1168,-3.6802 -9.4046,-1.9418 -12.7817,9.7127 l -2.7501,9.4907 -6.5849,11.4175 c -9.1807,15.9185 -9.3839,16.3783 -12.2623,27.7332 l -2.571,10.1428 -5.3417,7.8448 c -2.9379,4.3145 -6.8391,11.5071 -8.6693,15.9833 -3.6396,8.9019 -4.9905,10.0818 -8.7344,7.6287 l -2.4879,-1.6302 0.5512,-5.3406 0.5512,-5.3407 4.1229,-7.9249 c 2.2677,-4.3586 5.7498,-9.8254 7.7382,-12.1483 l 3.6151,-4.2235 1.8317,-7.6535 c 1.0074,-4.2095 1.8324,-8.1036 1.8333,-8.6536 v -1 l -4.9383,-0.099 -4.9383,-0.099 -2.5397,-1.664 c -3.0028,-1.9675 -4.2183,-5.8972 -2.9444,-9.5195 1.1729,-3.3349 3.9099,-3.8377 7.2895,-1.3391 1.4687,1.0858 4.5294,2.2884 6.8017,2.6722 l 4.1314,0.698 1.8252,-1.8366 c 1.0039,-1.0102 4.6107,-6.7815 8.0152,-12.8252 l 6.1901,-10.9885 1.0428,-6.4886 c 1.2478,-7.7641 3.2308,-10.7637 9.0975,-13.7614 l 4.4034,-2.25 h 3.7052 c 4.7187,0 11.589,2.9489 15.0965,6.4799 l 2.7255,2.7437 7.2745,-6.4142 c 4.001,-3.5278 10.1995,-8.7229 13.7745,-11.5447 3.575,-2.8217 9.5674,-8.264 13.3164,-12.094 l 6.8165,-6.9637 7.3625,-3.5438 c 8.1391,-3.9177 21.1424,-13.116 24.4051,-17.2639 2.5726,-3.2705 2.5906,-4.7206 0.1264,-10.1493 l -1.9291,-4.25 h -2.16 c -1.188,0 -5.8961,2.2567 -10.4625,5.0149 -4.5663,2.7582 -10.0288,5.7329 -12.1389,6.6105 -2.11,0.8775 -7.6341,4.0925 -12.2756,7.1442 -8.0285,5.2786 -31.6001,17.2304 -33.9823,17.2304 -2.665,0 -13.9487,6.0385 -18.0785,9.6747 -6.7528,5.9458 -32.111,22.1623 -58.207,37.223 l -9.707,5.6023 -0.538,5 c -0.2959,2.75 -0.7545,14.9 -1.0191,27 -0.2646,12.1 -0.9491,25.6 -1.5211,30 -2.2803,17.5395 -4.0078,43.855 -4.0078,61.0513 v 18.1287 l -1.9346,7.5641 c -2.3184,9.0649 -5.5037,15.6117 -12.6919,26.0856 -5.947,8.6653 -5.9492,8.6703 -3.9862,8.6703 0.763,0 11.4505,3.1973 23.75,7.1052 31.3406,9.9577 40.2554,12.6033 41.0712,12.1884 0.3897,-0.1982 4.2677,-6.3079 8.6178,-13.577 z"
           id="path12531" /><path
           style="fill:#f7c73b;fill-opacity:1"
           d="m 4493.767,-2502.2475 c 7.6525,-4.2989 11.9505,-6.2506 52.261,-23.731 l 21.6169,-9.374 -3.1674,-4.5504 c -9.969,-14.3215 -23.2245,-38.0591 -21.9593,-39.3242 1.3851,-1.3851 -9.2277,-59.2564 -13.1352,-71.6257 l -2.4325,-7.7005 -6.6413,-9.8631 c -3.6526,-5.4246 -7.6059,-11.9271 -8.7849,-14.45 -1.1791,-2.5228 -2.4821,-5.1188 -2.8954,-5.7689 l -0.7517,-1.1819 -2.733,1.4258 c -4.6461,2.4237 -13.2077,-0.888 -16.4766,-6.3732 -0.8813,-1.4788 -3.2342,-4.261 -5.2286,-6.1826 l -3.6263,-3.4938 -5.2008,0.1962 c -2.8604,0.1079 -6.3622,0.2861 -7.7817,0.3959 l -2.581,0.1997 -5.919,-4.0152 c -4.6971,-3.1863 -14.7394,-8.8635 -19.6497,-11.1086 -0.4018,-0.1838 0.038,1.7386 0.9765,4.2719 l 1.7071,4.606 -1.0855,1.7209 -1.0855,1.7208 h -2.8768 -2.8768 l -3.1643,-4.8358 c -1.7403,-2.6597 -4.0739,-5.473 -5.1857,-6.2517 -1.1118,-0.7788 -4.1856,-4.3633 -6.8307,-7.9658 l -4.8092,-6.5499 -9.2296,-6.9373 -9.2295,-6.9374 -3.8966,-5.261 c -6.235,-8.4181 -17.6822,-18.5115 -33.1859,-29.2611 -7.9324,-5.5 -17.1394,-12.5179 -20.4598,-15.5955 -3.3204,-3.0775 -8.2322,-7.2577 -10.915,-9.2892 l -4.878,-3.6937 -1.7796,1.6106 c -7.9174,7.1652 -7.1224,11.7509 4.0355,23.2762 5.225,5.3971 14.6568,15.3623 20.9596,22.145 6.3028,6.7827 15.3652,15.4129 20.1387,19.1784 l 8.6791,6.8463 3.0136,4.7609 c 1.6575,2.6186 4.2421,7.911 5.7435,11.761 1.5014,3.85 4.2273,9.711 6.0575,13.0244 4.4461,8.049 7.8465,17.296 10.9034,29.651 1.39,5.6179 3.9331,13.2643 5.6513,16.992 l 3.1239,6.7775 -0.6102,3.7776 c -0.8674,5.3697 -7.345,18.0248 -10.1754,19.8793 l -2.3871,1.5641 -2.0489,-0.6503 -2.049,-0.6503 0.018,-3.1826 c 0.01,-1.7505 1.555,-6.5317 3.4331,-10.625 l 3.4146,-7.4425 -1.547,-3.5575 c -0.8509,-1.9567 -2.0212,-5.0201 -2.6008,-6.8076 -1.3612,-4.1978 -1.7666,-4.1175 -6.1368,1.2158 -2.0127,2.4562 -5.6669,5.9075 -8.1205,7.6695 l -4.461,3.2037 v 1.8687 c 0,2.0868 9.1934,43.0676 11.6774,52.0539 l 1.5927,5.7617 6.1415,5.7383 c 17.133,16.0084 54.1387,45.2672 61.2072,48.3939 7.4327,3.2879 17.4231,15.162 24.4788,29.0945 4.6022,9.0878 4.0013,8.9369 13.7583,3.4558 z"
           id="path12527" /></g></g></g></svg>
