<?xml version="1.0" encoding="UTF-8" standalone="no"?>
<!-- Created with Inkscape (http://www.inkscape.org/) -->

<svg
   width="587.94067mm"
   height="500mm"
   viewBox="0 0 587.94067 500"
   version="1.1"
   id="svg5"
   xml:space="preserve"
   xmlns:inkscape="http://www.inkscape.org/namespaces/inkscape"
   xmlns:sodipodi="http://sodipodi.sourceforge.net/DTD/sodipodi-0.dtd"
   xmlns="http://www.w3.org/2000/svg"
   xmlns:svg="http://www.w3.org/2000/svg"><sodipodi:namedview
     id="namedview7"
     pagecolor="#ffffff"
     bordercolor="#000000"
     borderopacity="0.25"
     inkscape:showpageshadow="2"
     inkscape:pageopacity="0.0"
     inkscape:pagecheckerboard="0"
     inkscape:deskcolor="#d1d1d1"
     inkscape:document-units="mm"
     showgrid="false"
     showguides="false" /><defs
     id="defs2" /><g
     inkscape:groupmode="layer"
     id="layer7"
     inkscape:label="F"
     transform="translate(-2648.3709,5443.9141)"><g
       id="g38973"
       transform="translate(6.9258016)"><rect
         style="fill:#cccccc;fill-opacity:1;stroke:#1a1a1a;stroke-width:20;stroke-linecap:round;stroke-linejoin:round;stroke-dasharray:none;stroke-opacity:1;paint-order:stroke fill markers"
         id="rect38211-4-8-8-0-4"
         width="567.94067"
         height="480"
         x="2651.4451"
         y="-5433.9141"
         rx="48.766338"
         ry="48.766338" /><g
         id="g38560"
         transform="translate(-1969.8153,-2510.9579)"><path
           style="fill:#ffffff"
           d="m 5046.8339,-2519.5786 c -6.8138,-7.4939 -17.1802,-19.5502 -23.0365,-26.7916 l -10.6478,-13.1664 -9.8692,-8.607 c -5.4281,-4.7338 -22.3238,-20.915 -37.5459,-35.9583 l -27.6765,-27.3514 -2.9788,-6 c -1.6383,-3.3 -4.1681,-9.8045 -5.6217,-14.4545 l -2.6429,-8.4544 -4.7417,-5.0456 c -2.6079,-2.775 -7.6487,-8.8203 -11.2017,-13.4339 -3.5531,-4.6135 -7.1988,-9.3079 -8.1016,-10.4319 l -1.6415,-2.0435 -2.6191,2.9318 c -1.4405,1.6126 -5.0538,7.2069 -8.0295,12.4319 -6.8489,12.0258 -13.0078,18.7988 -29.5765,32.5257 -7.2855,6.0359 -21.6266,18.0909 -31.8691,26.789 -10.2426,8.698 -23.9629,19.4845 -30.4898,23.9701 -6.5268,4.4855 -12.8997,9.5189 -14.1618,11.1854 -4.271,5.6391 -29.5531,48.9651 -34.2778,58.7421 l -4.6934,9.7122 -1.7269,0.038 c -0.9499,0.021 -2.5237,-1.1997 -3.4975,-2.7122 -0.9737,-1.5125 -5.6118,-7.925 -10.3067,-14.25 -25.7159,-34.6444 -42.5024,-57.1562 -46.4881,-62.3438 -2.4694,-3.2141 -4.7537,-6.8953 -5.0762,-8.1805 l -0.5865,-2.3366 7.4602,-12.3196 c 11.2741,-18.6178 14.0315,-24.7329 22.0973,-49.0055 12.0358,-36.2195 17.211,-48.1247 28.9853,-66.6793 l 6.5775,-10.3652 4.1507,-10.6348 c 9.3547,-23.969 22.7069,-42.7793 34.9109,-49.182 l 2.5,-1.3116 6,0.042 6,0.042 5.5,2.1533 c 3.025,1.1844 7.0534,3.4461 8.9521,5.0262 l 3.452,2.8729 4.7583,-4.0122 4.7582,-4.0122 5.8042,0.4198 5.8041,0.4199 4.8623,2.3537 4.8623,2.3538 3.1232,4.3576 c 1.7178,2.3967 4.2965,7.3237 5.7304,10.9489 l 2.607,6.5914 4.6919,-7.0576 c 5.3605,-8.0633 12.2219,-14.5334 17.1301,-16.1533 l 3.3675,-1.1114 -0.9518,-2.5034 c -0.5235,-1.3769 -0.9518,-3.8836 -0.9518,-5.5703 v -3.0668 l 3.5601,-3.3577 3.5601,-3.3576 5.4768,-1.5921 5.4767,-1.5921 3.8023,0.6424 3.8023,0.6424 16.5239,-17.8299 c 9.0881,-9.8064 18.4596,-19.1712 20.8254,-20.8107 l 4.3014,-2.9809 h 4.1588 4.1587 l 3.4268,2.3538 c 1.8847,1.2946 4.8892,4.2636 6.6767,6.5978 l 3.25,4.2441 v 3.0711 c 0,1.6891 -0.7875,4.501 -1.75,6.2487 l -1.75,3.1776 1.8945,1.1535 c 5.6129,3.4173 10.1991,7.5564 11.0482,9.971 l 0.9597,2.7288 -1.2489,4.7268 c -1.9015,7.1966 -13.993,30.4943 -19.9313,38.4033 l -5.2778,7.0292 7.8519,10.6472 c 4.3186,5.8559 9.5444,13.0096 11.613,15.8971 4.4807,6.2546 4.0813,6.2045 9.0907,1.1415 2.2,-2.2235 5.8,-4.9788 8,-6.123 l 4,-2.0802 5.6043,-0.082 5.6043,-0.082 5.6931,3.78 c 3.1312,2.079 5.9283,4.3932 6.2159,5.1426 l 0.5229,1.3626 2.6797,-1.3981 c 10.4473,-5.4506 24.3305,0.1632 34.6222,13.9997 3.7186,4.9994 10.454,12.9281 14.9676,17.6193 l 8.2066,8.5294 1.304,4.6575 1.304,4.6575 10.9821,13.8131 c 6.0402,7.5972 12.3547,16.5131 14.0323,19.8131 9.6998,19.0803 28.3029,76.6965 27.5605,85.3585 l -0.2995,3.4951 -9.5,8.4805 c -5.225,4.6643 -18.05,16.2302 -28.5,25.702 -37.4233,33.9201 -31.8173,32.1716 -47.5772,14.8386 z"
           id="path12551" /><path
           style="fill:#1a1a1a"
           d="m 5071.4769,-2517.6443 c 5.4638,-4.7801 15.3449,-13.6676 21.958,-19.75 6.6131,-6.0825 17.5566,-15.9404 24.3188,-21.9065 14.9229,-13.166 14.035,-10.7317 9.7822,-26.8188 -11.5521,-43.6985 -22.2955,-68.8765 -37.6096,-88.1406 l -10.1808,-12.8069 -3.3171,-7.1931 -3.3171,-7.1932 -5.7,-5.5 c -3.135,-3.025 -9.4611,-10.5022 -14.058,-16.616 l -8.3579,-11.1161 -3.4974,-1.6596 c -1.9236,-0.9128 -6.0336,-2.1285 -9.1335,-2.7015 l -5.6361,-1.0419 -4.8444,1.742 -4.8443,1.742 -4.1748,-3.7716 c -10.3455,-9.3465 -19.8817,-8.6334 -30.6351,2.291 -6.283,6.3828 -5.9065,6.4315 -11.3187,-1.463 -2.475,-3.6101 -8.2125,-11.5599 -12.75,-17.6661 -9.6416,-12.9751 -9.337,-11.6974 -4.1851,-17.5503 7.0604,-8.021 20.7854,-34.1902 22.5443,-42.9848 l 0.6347,-3.1738 -3.307,-3.0892 c -1.8189,-1.6991 -5.0238,-3.9651 -7.122,-5.0355 -4.3416,-2.2149 -4.6326,-3.5161 -1.8186,-8.1314 2.9098,-4.7726 2.5176,-6.721 -2.5099,-12.4683 l -4.5137,-5.1598 -3.4006,-1.1223 -3.4006,-1.1223 -3.3357,1.4004 c -4.7451,1.9919 -20.1311,17.4267 -38.7042,38.827 l -2.2816,2.6288 -6.2275,-0.4999 -6.2276,-0.4999 -4.1029,2.0932 c -2.2566,1.1512 -5.073,3.3263 -6.2585,4.8335 l -2.1556,2.7404 0.6,2.0375 c 0.3299,1.1207 0.8587,3.4534 1.1751,5.184 l 0.5751,3.1464 -2.3641,0.7106 c -1.3002,0.3909 -4.5366,2.0819 -7.1919,3.7579 l -4.8279,3.0471 -5.9886,8.9063 -5.9886,8.9063 -1.589,-0.3105 -1.589,-0.3106 -1.7161,-5.0512 c -2.3349,-6.8729 -4.4505,-10.7842 -8.0519,-14.886 l -3.0417,-3.4642 -5.4771,-2.0493 c -3.0125,-1.1271 -6.7485,-2.0493 -8.3022,-2.0493 h -2.825 l -3.8875,3.0843 c -2.1381,1.6963 -4.2474,3.7213 -4.6872,4.5 -1.1909,2.1083 -3.0635,1.7247 -5.776,-1.1832 -1.3334,-1.4295 -4.6655,-3.7396 -7.4048,-5.1337 l -4.9805,-2.5347 -6.0721,-0.4874 -6.072,-0.4874 -3.9543,2.0174 c -11.0315,5.6278 -23.7535,24.0991 -33.7824,49.0491 l -4.4993,11.1934 -6.5371,10.2545 c -10.5191,16.5008 -20.7964,40.9664 -30.9709,73.7278 -4.1152,13.251 -9.6317,24.934 -19.0951,40.4406 l -6.6769,10.9406 0.5398,2.0594 c 0.297,1.1326 2.9117,5.0451 5.8106,8.6943 2.8989,3.6493 11.5469,15.1243 19.2178,25.5 7.6708,10.3758 18.5817,25.079 24.2462,32.6738 5.6645,7.5947 10.7972,14.7392 11.4058,15.8765 l 1.1067,2.0678 5.7438,-10.8765 c 6.5576,-12.4175 30.0864,-52.3533 33.5284,-56.9085 1.2601,-1.6675 7.3224,-6.4681 13.4718,-10.668 6.1494,-4.1999 19.1389,-14.3666 28.8655,-22.5926 9.7266,-8.2259 24.4987,-20.6238 32.8269,-27.5507 18.172,-15.1144 23.8607,-21.2832 30.5665,-33.1469 11.8832,-21.0231 11.2678,-21.0551 28.6475,1.4901 1.9079,2.475 5.4003,6.525 7.7608,9 l 4.2918,4.5001 2.9884,9.1653 c 1.6437,5.0409 4.321,11.7909 5.9495,15 l 2.9609,5.8347 11.8462,11.4477 c 6.5154,6.2963 18.8212,18.4644 27.3462,27.0402 8.525,8.5759 19.9178,19.3517 25.3173,23.9464 l 9.8174,8.354 10.6826,13.2074 c 10.9908,13.5883 34.0754,39.5043 35.1884,39.5043 0.3442,0 5.0963,-3.911 10.5601,-8.691 z"
           id="path12553" /><path
           style="fill:#000000"
           d="m 4935.8466,-2805.5996 c 18.4397,-22.1473 24.9876,-35.0465 20.1754,-39.7455 l -3.8891,-3.7976 -1.6626,0.3447 c -0.9144,0.1895 -9.2235,8.435 -18.4648,18.3232 l -16.8022,17.9786 5.0887,4.5214 c 2.7988,2.4868 5.9955,5.4864 7.1039,6.6659 2.7079,2.8815 2.3115,3.0828 8.4507,-4.2907 z"
           id="path12569" /><path
           style="fill:#f7c73b;fill-opacity:1"
           d="m 4923.9917,-2801.0963 c -2.4307,-2.7791 -6.1432,-6.1936 -8.25,-7.5879 -5.1837,-3.4304 -5.1696,-3.4656 5.9194,-14.8056 5.3625,-5.4839 13.5857,-14.1316 18.2738,-19.2171 l 8.5237,-9.2465 h 2.2486 2.2486 l 4.4776,4.1274 4.4777,4.1274 v 2.6226 2.6226 l -8.6218,13 c -19.5373,29.4587 -22.603,32.0077 -29.2944,24.3571 z"
           id="path12567" /><path
           style="fill:#000000"
           d="m 4950.7859,-2782.2034 c 4.7614,-6.3451 18.1252,-31.8895 18.1252,-34.6455 v -1.9683 l -2.9044,-2.0681 c -4.2026,-2.9925 -5.2038,-2.6468 -9.0956,3.1405 -5.8522,8.7025 -13.0537,18.0595 -17.3585,22.5541 l -4.0827,4.2626 1.8209,3.3812 c 6.0054,11.1514 8.4196,12.1073 13.4951,5.3435 z"
           id="path12565" /><path
           style="fill:#f7c73b;fill-opacity:1"
           d="m 4940.6475,-2778.2034 c -9.4812,-11.8601 -9.4482,-11.2794 -1.1817,-20.75 3.6006,-4.125 8.9823,-11.1639 11.9593,-15.6419 2.9771,-4.4781 6.1368,-8.866 7.0217,-9.7509 l 1.609,-1.609 2.6776,0.6468 c 1.4727,0.3557 3.9152,1.5117 5.4277,2.569 l 2.75,1.9222 v 3.7101 3.7102 l -3.361,6.9718 c -13.8618,28.7541 -20.7231,35.9518 -26.9026,28.2217 z"
           id="path12563" /><path
           style="fill:#000000"
           d="m 4754.9647,-2553.5765 c 3.5299,-5.9823 10.2759,-17.1768 14.991,-24.8768 l 8.573,-14 6.4412,-4.1353 c 3.5427,-2.2745 9.471,-6.0718 13.174,-8.4386 3.7031,-2.3668 10.9365,-7.9309 16.0743,-12.3647 5.1379,-4.4338 19.4282,-16.3864 31.7562,-26.5614 12.328,-10.175 24.1185,-20.2185 26.2011,-22.3189 l 3.7865,-3.8188 4.932,-9.8282 4.932,-9.8282 5.6052,-6.0543 5.6052,-6.0543 -5.2503,-10.2987 c -2.8877,-5.6643 -5.6741,-10.8649 -6.192,-11.5569 l -0.9416,-1.2583 -4.4312,5.7065 c -2.4371,3.1386 -5.2501,6.28 -6.2509,6.9811 l -1.8198,1.2746 0.4972,4.4103 0.4971,4.4103 -2.1169,2.1169 c -2.61,2.61 -3.5914,2.6423 -6.0347,0.1991 l -1.9177,-1.9178 -0.6823,-5.461 -0.6823,-5.461 1.2324,-2.3712 c 0.6778,-1.3042 4.0213,-5.2963 7.4299,-8.8713 3.4087,-3.575 6.9724,-7.6941 7.9195,-9.1535 l 1.7219,-2.6535 -3.4392,-8.8465 c -1.8916,-4.8656 -5.0636,-12.3872 -7.0489,-16.7149 l -3.6097,-7.8684 -4.482,5.4443 c -2.4651,2.9943 -6.7653,7.3695 -9.5559,9.7226 -2.7906,2.3531 -8.4206,7.3815 -12.511,11.1742 l -7.4371,6.8957 h -2.5421 -2.5421 l -0.8474,-2.25 -0.8474,-2.25 1.3458,-2.6349 c 0.7401,-1.4492 6.1042,-7.1165 11.9201,-12.5939 l 10.5743,-9.9591 -1.4623,-1.2136 c -0.8043,-0.6675 -1.7525,-2.8752 -2.1072,-4.906 -1.5198,-8.7035 -8.1284,-17.1276 -14.6866,-18.7215 l -2.6751,-0.6502 -4.6757,4.3098 c -5.0176,4.6252 -17.6162,20.843 -21.9923,28.3103 l -2.6718,4.5591 h -3.2826 -3.2825 l -1.2848,-1.548 -1.2847,-1.548 1.7569,-3.702 c 0.9663,-2.0361 4.8643,-8.0609 8.6623,-13.3885 8.6539,-12.1392 8.0386,-14.2605 -5.3,-18.2748 l -4.3996,-1.3241 -2.9475,1.2424 c -3.9026,1.645 -14.6849,13.277 -19.9123,21.4816 -4.3151,6.7725 -5.2753,8.6913 -10.2898,20.5614 -1.6265,3.85 -5.1595,10.839 -7.8513,15.5311 -14.2069,24.7643 -29.4291,60.3794 -35.4617,82.969 -4.076,15.2627 -11.2387,30.0683 -21.7194,44.8945 l -4.5204,6.3946 0.9037,1.2867 c 0.497,0.7077 4.0927,5.4801 7.9904,10.6054 9.6981,12.7527 34.9177,46.8003 40.8585,55.1609 l 4.8618,6.8421 3.1642,-7.9653 c 1.7404,-4.3809 6.0524,-12.8599 9.5824,-18.8421 z"
           id="path12561" /><path
           style="fill:#f7c73b;fill-opacity:1"
           d="m 4738.9072,-2526.6845 c -1.2108,-2.0521 -6.5767,-9.5896 -11.9243,-16.75 -5.3476,-7.1604 -16.3289,-21.8813 -24.4029,-32.7133 -8.074,-10.8319 -15.1275,-19.9709 -15.6744,-20.309 -0.547,-0.338 -0.9945,-1.788 -0.9945,-3.2221 v -2.6076 l 7.062,-10.8304 c 9.1328,-14.0062 15.017,-26.636 18.7926,-40.3364 6.5549,-23.7856 16.8492,-48.6552 30.8379,-74.5001 5.5072,-10.175 11.6352,-22.2474 13.6177,-26.8275 7.3269,-16.9278 16.8622,-30.5072 26.6799,-37.9954 l 4.4606,-3.4023 4.7063,0.5574 c 16.5791,1.9636 20.2663,8.8984 11.2652,21.1874 -3.6178,4.9392 -7.4793,10.7215 -8.581,12.8494 l -2.0032,3.869 0.9138,0.9138 c 1.3816,1.3817 3.8012,0.06 5.3576,-2.9258 2.4545,-4.7093 15.8171,-22.1926 21.2454,-27.7969 l 5.2584,-5.4291 h 3.2923 c 4.4742,0 9.4788,2.5347 13.0618,6.6156 l 2.9794,3.3934 1.5623,5.7455 c 0.8593,3.16 2.2684,7.1639 3.1313,8.8974 l 1.5689,3.1519 -0.8546,1.4112 c -0.47,0.7763 -3.7796,4.0135 -7.3546,7.1939 -12.0305,10.7025 -16.5604,16.5088 -14.0771,18.0435 1.1351,0.7015 25.9561,-21.3903 31.8826,-28.3768 2.368,-2.7915 4.8812,-5.0756 5.5848,-5.0756 h 1.2794 l 4.6919,10.4521 c 12.1163,26.9912 12.0788,28.1167 -1.3672,41.0479 -2.2876,2.2 -4.7772,5.1766 -5.5325,6.6147 l -1.3733,2.6146 1.2057,4.8084 c 1.3544,5.4015 3.0162,6.6192 4.7111,3.4522 l 1.1408,-2.1316 -1.1203,-3.1791 -1.1203,-3.1792 3.4132,-3 c 1.8772,-1.65 5.3393,-5.603 7.6934,-8.7845 2.3542,-3.1816 4.7171,-5.639 5.2509,-5.4611 1.5531,0.5177 13.6288,24.0049 13.6854,26.6182 l 0.052,2.3726 -5.75,6.1502 -5.75,6.1501 -4.2153,8.712 -4.2153,8.7119 -4.2823,4.6458 c -2.3552,2.5551 -9.9084,9.2503 -16.7847,14.8781 -6.8763,5.6278 -22.1232,18.3426 -33.882,28.255 l -21.3795,18.0226 -10.3484,6.1524 -10.3484,6.1523 -2.3938,3.2122 c -8.8403,11.8622 -31.2386,51.5203 -34.1842,60.5259 l -1.6963,5.1864 h -1.2861 c -0.7074,0 -2.2768,-1.6791 -3.4876,-3.7312 z"
           id="path12559" /><path
           style="fill:#000000"
           d="m 5071.5954,-2525.2033 c 4.8868,-4.5375 12.4694,-11.4429 16.8504,-15.3453 13.7158,-12.2175 27.891,-24.7717 31.8432,-28.2018 l 3.799,-3.2971 -1.2305,-5.2029 c -7.7198,-32.6414 -27.6103,-80.0162 -39.5515,-94.203 -8.9896,-10.68 -12.325,-15.6629 -13.6174,-20.3435 l -0.9554,-3.4602 -5.7618,-5.5981 c -3.169,-3.079 -9.1254,-9.8732 -13.2364,-15.0982 -4.111,-5.225 -9.1438,-10.9625 -11.184,-12.75 l -3.7095,-3.25 h -5.5513 -5.5512 l 3.4725,6.25 c 1.9099,3.4375 5.4046,10.0611 7.7659,14.719 l 4.2934,8.469 0.07,4.0002 0.07,4.0001 -1.8291,0.3694 c -1.006,0.2032 -2.8103,0.1232 -4.0095,-0.1778 l -2.1804,-0.5472 -2.8177,-6.468 c -3.855,-8.8489 -12.0392,-22.9516 -17.2526,-29.7289 l -4.3186,-5.6142 -3.6433,-1.7288 -3.6432,-1.7289 -3.4097,0.6397 -3.4097,0.6397 -3.9931,3.7985 -3.9931,3.7986 v 2.0737 c 0,2.4455 19.8822,42.4908 24.6869,49.7226 1.8222,2.7427 3.3131,5.7947 3.3131,6.7822 v 1.7956 l -2.1591,0.7987 c -7.1856,2.6581 -13.7778,-5.5445 -21.0252,-26.1614 -4.7861,-13.6152 -6.897,-17.3284 -16.2048,-28.5057 -3.9829,-4.7828 -10.1188,-12.5211 -13.6353,-17.1961 -3.5166,-4.675 -11.6226,-15.025 -18.0135,-23 -6.3908,-7.975 -13.3753,-17.2 -15.5212,-20.5 -2.1459,-3.3 -6.2503,-8.3692 -9.121,-11.2649 l -5.2194,-5.265 -7.1827,-3.4422 -7.1827,-3.4422 -2.8379,1.4675 c -3.4497,1.7839 -5.254,4.89 -4.5251,7.79 1.513,6.0199 30.511,51.8772 45.8216,72.4623 4.6247,6.218 9.5106,13.418 10.8574,16 1.3468,2.582 6.3375,10.3195 11.0905,17.1945 4.753,6.875 12.0961,18.018 16.318,24.7622 l 7.6763,12.2622 -0.3179,2.2378 -0.318,2.2379 -3.6299,0.3032 -3.6299,0.3032 -2.1948,-2.8032 c -1.2072,-1.5418 -6.677,-9.5533 -12.1551,-17.8033 -5.4781,-8.25 -12.8327,-18.6922 -16.3434,-23.2049 l -6.3832,-8.205 0.4928,-1.8844 0.4928,-1.8845 -6.1308,-7.9106 c -3.372,-4.3508 -9.6013,-12.267 -13.8429,-17.5915 -4.2417,-5.3245 -10.4532,-14.3245 -13.8034,-20 -3.3501,-5.6755 -8.6164,-14.5941 -11.7028,-19.8191 -3.0864,-5.225 -6.4498,-10.5598 -7.4742,-11.8551 l -1.8625,-2.3552 -3.9832,2.0321 c -2.1908,1.1176 -4.5181,2.6765 -5.1718,3.4641 l -1.1885,1.4321 1.3867,3.9302 c 0.7626,2.1616 3.0575,7.2481 5.0996,11.3032 2.0422,4.0552 5.4369,12.3626 7.5439,18.4609 3.4,9.8404 19.3419,43.124 24.4698,51.0877 4.4949,6.9808 15.9418,21.9863 20.8208,27.2934 l 5.2642,5.7261 1.3132,5.9903 c 0.7222,3.2946 2.6914,8.9084 4.3759,12.4749 l 3.0629,6.4847 24.0459,24.5153 c 13.2253,13.4835 28.7894,28.5007 34.5869,33.3717 14.7142,12.3625 16.3602,13.9835 24.5157,24.1437 3.9734,4.95 12.521,15.075 18.9947,22.5 6.4737,7.425 11.9896,14.0625 12.2575,14.75 0.8279,2.1248 1.7969,1.5057 10.9574,-7 z"
           id="path12557" /><path
           style="fill:#f7c73b;fill-opacity:1"
           d="m 5047.1908,-2530.2033 c -7.7264,-8.9375 -16.7449,-19.625 -20.0412,-23.75 -6.6643,-8.3397 -10.5602,-12.1531 -23.7385,-23.2355 -4.95,-4.1628 -20.3011,-18.9753 -34.1135,-32.9166 l -25.1136,-25.3479 -3.1139,-6.5958 c -1.7127,-3.6277 -3.6279,-9.0277 -4.256,-12 -1.4459,-6.8424 -1.7374,-7.3599 -7.571,-13.4425 -2.6576,-2.771 -8.5489,-10.2477 -13.0918,-16.615 l -8.2598,-11.5767 -9.5405,-18.885 -9.5405,-18.8851 -4.4797,-12.7686 c -2.4637,-7.0228 -6.4911,-16.7807 -8.9496,-21.6841 l -4.4701,-8.9154 v -3.0879 -3.088 l 4.6958,-2.978 c 2.5827,-1.6379 5.9143,-2.978 7.4037,-2.978 h 2.7079 l 4.9302,7.75 c 2.7116,4.2625 7.3111,12.025 10.2211,17.25 6.769,12.1538 16.444,26.2081 25.471,37 10.3445,12.3672 12.6342,15.6626 14.7479,21.2253 1.0426,2.744 4.5129,8.4284 7.7118,12.6319 3.1988,4.2036 9.2218,12.8178 13.3845,19.1428 13.5506,20.5899 14.4739,21.6522 16.7984,19.3278 l 0.9379,-0.9379 -9.1751,-14.4449 c -5.0463,-7.9447 -12.0336,-18.4173 -15.5275,-23.2724 -3.4938,-4.8551 -7.4184,-10.9301 -8.7213,-13.5 -1.303,-2.5699 -6.2782,-10.0726 -11.0562,-16.6726 -19.6227,-27.1056 -44.2331,-66.0564 -47.2268,-74.7458 l -1.3179,-3.8252 1.5242,-2.9475 c 6.3155,-12.2128 25.0509,-3.7571 40.3179,18.1963 3.9481,5.6772 10.3259,14.1472 14.173,18.8222 3.8471,4.675 11.8201,14.8 17.7179,22.5 5.8978,7.7 13.3661,17.15 16.5963,21 7.8082,9.3066 9.9064,13.0634 14.222,25.4646 5.6293,16.1764 12.2019,27.0354 16.3636,27.0354 3.1216,0 3.0297,-1.0927 -0.5059,-6.014 -1.9053,-2.6521 -5.8127,-9.9214 -8.6832,-16.154 -2.8704,-6.2326 -6.3993,-13.357 -7.842,-15.832 -1.4427,-2.475 -4.0755,-7.393 -5.8508,-10.9288 l -3.2278,-6.4289 1.129,-3.7684 1.1291,-3.7684 3.5916,-2.9605 c 1.9754,-1.6283 5.3613,-3.4097 7.5242,-3.9587 l 3.9326,-0.9982 3.4703,0.9582 c 6.6616,1.8393 16.9033,15.2806 25.8484,33.9235 4.7741,9.95 6.0447,11.9302 7.655,11.9302 3.3499,0 0.2879,-8.2196 -10.006,-26.8607 -2.2357,-4.0484 -4.0648,-8.1599 -4.0648,-9.1365 v -1.7757 l 4.25,-0.6014 c 2.3375,-0.3308 5.9925,-0.1919 8.1222,0.3087 l 3.8721,0.9101 3.4455,3.3278 c 1.8949,1.8303 6.2275,6.9277 9.6278,11.3277 3.4003,4.4 8.8154,10.6826 12.0335,13.9614 l 5.8511,5.9613 3.0012,6.352 3.0012,6.3521 8.8774,10.6866 c 4.8826,5.8777 10.6419,14.0617 12.7984,18.1867 5.4214,10.37 23.4486,60.0697 28.1437,77.5899 l 2.1135,7.8866 -4.356,4.0117 c -2.3957,2.2065 -9.9627,8.9618 -16.8154,15.0118 -6.8528,6.05 -19.3107,17.1875 -27.6844,24.75 -18.3443,16.5672 -14.232,16.8988 -31.0021,-2.5 z"
           id="path12555" /></g></g></g></svg>
