<?xml version="1.0" encoding="UTF-8" standalone="no"?>
<!-- Created with Inkscape (http://www.inkscape.org/) -->

<svg
   width="587.94067mm"
   height="500mm"
   viewBox="0 0 587.94067 500"
   version="1.1"
   id="svg5"
   xml:space="preserve"
   xmlns:inkscape="http://www.inkscape.org/namespaces/inkscape"
   xmlns:sodipodi="http://sodipodi.sourceforge.net/DTD/sodipodi-0.dtd"
   xmlns="http://www.w3.org/2000/svg"
   xmlns:svg="http://www.w3.org/2000/svg"><sodipodi:namedview
     id="namedview7"
     pagecolor="#ffffff"
     bordercolor="#000000"
     borderopacity="0.25"
     inkscape:showpageshadow="2"
     inkscape:pageopacity="0.0"
     inkscape:pagecheckerboard="0"
     inkscape:deskcolor="#d1d1d1"
     inkscape:document-units="mm"
     showgrid="false"
     showguides="false" /><defs
     id="defs2" /><g
     inkscape:groupmode="layer"
     id="layer8"
     inkscape:label="G"
     transform="translate(-3386.865,5443.9141)"><g
       id="g39001"
       transform="translate(0,-11.739258)"><rect
         style="fill:#cccccc;fill-opacity:1;stroke:#1a1a1a;stroke-width:20;stroke-linecap:round;stroke-linejoin:round;stroke-dasharray:none;stroke-opacity:1;paint-order:stroke fill markers"
         id="rect38211-4-8-8-0-4-7"
         width="567.94067"
         height="480"
         x="3396.865"
         y="-5422.1748"
         rx="48.766338"
         ry="48.766338" /><g
         id="g38608"
         transform="translate(-1789.6038,-2499.4342)"><path
           style="fill:#ffffff"
           d="m 5349.9111,-2506.6898 c -1.3132,-0.5065 -27.8615,-17.3497 -77.25,-49.0103 l -14.75,-9.4555 v -2.295 -2.295 l 8.0121,-7.5372 c 9.1574,-8.6147 58.4201,-48.4592 71.6552,-57.9561 8.433,-6.0511 21.8879,-14.4475 34.8327,-21.737 11.7476,-6.6153 22.1471,-13.7985 32.5,-22.4487 11.0303,-9.2162 19.7773,-15.3654 24.8385,-17.4619 l 3.0205,-1.2511 -6.0715,-4.1579 c -3.3393,-2.2868 -7.4701,-5.8887 -9.1795,-8.0042 l -3.108,-3.8463 0.1767,-7.6537 c 0.097,-4.2095 0.8798,-9.9037 1.7392,-12.6537 2.0117,-6.4375 2.0918,-6.047 -1.5504,-7.5557 l -3.1346,-1.2984 -2.0027,-4.5273 -2.0026,-4.5273 -0.4867,-9.0456 -0.4867,-9.0457 -1.2596,-1.5 c -0.6928,-0.825 -2.276,-3.52 -3.5183,-5.9889 l -2.2588,-4.489 -0.066,-8.011 -0.066,-8.0111 2.0676,-4 2.0677,-4 0.5995,-9.5 c 0.6909,-10.9478 2.9679,-22.7189 5.2473,-27.1267 l 1.5767,-3.049 5.1788,-2.3568 c 8.8789,-4.0405 22.4446,-7.4267 36.5835,-9.1316 l 13.5954,-1.6394 33.5,-0.098 33.5,-0.098 5.5,2.6125 c 9.8677,4.6871 32.4389,21.1573 48.5,35.3904 4.4,3.8992 11.4335,9.866 15.63,13.2595 l 7.6301,6.17 7.0323,10.2838 c 10.7942,15.7848 14.3642,18.7248 39.8572,32.8237 15.1311,8.3683 23.0795,14.1174 24.4304,17.6706 l 0.9761,2.5672 -1.496,12.1112 c -0.8228,6.6611 -2.4304,20.4361 -3.5726,30.6111 -1.1422,10.175 -2.7161,23 -3.4977,28.5 -0.7815,5.5 -2.7751,22.2034 -4.4302,37.1187 -2.9853,26.9024 -4.0148,32.3813 -6.0845,32.3813 -2.4022,0 -6.7961,-3.1788 -12.4751,-9.025 -3.3,-3.3971 -10.5,-10.0688 -16,-14.8258 -5.5,-4.7571 -16.075,-14.5342 -23.5,-21.7271 -7.425,-7.1928 -16.4069,-15.2134 -19.9597,-17.8234 l -6.4598,-4.7455 -1.2775,1.7471 c -0.7027,0.961 -1.5469,3.1828 -1.8761,4.9375 l -0.5985,3.1904 1.6734,4.8859 1.6734,4.8859 -0.6346,5.7269 c -0.3491,3.1498 -1.3336,8.0804 -2.1878,10.9569 l -1.5532,5.23 -3.5168,3.2212 -3.5168,3.2213 1.1476,4.8219 1.1475,4.8218 -1.0193,5.3273 c -1.2798,6.6887 -0.6986,5.9003 -9.0067,12.2164 l -7.0351,5.3484 v 3.6258 c 0,13.9301 -10.8429,23.095 -33.374,28.2091 l -9.2091,2.0903 -5.5887,-1.7579 -5.5888,-1.7579 -2.2302,1.1936 c -5.8935,3.1541 -32.654,9.0021 -41.2418,9.0126 l -6.2674,0.01 -20.7027,-5.097 -20.7027,-5.097 -22.0813,17.8393 c -29.7799,24.059 -39.0817,31.3542 -39.8589,31.2604 -0.3599,-0.043 -1.3294,-0.3393 -2.1544,-0.6575 z"
           id="path12585" /><path
           style="fill:#1a1a1a"
           d="m 5360.1174,-2515.2403 c 4.2385,-3.4172 17.8837,-14.4409 30.3227,-24.4972 l 22.6162,-18.2841 20.1774,5.2073 20.1774,5.2074 h 8 8 l 12,-2.7578 c 6.6,-1.5167 14.7821,-3.8618 18.1825,-5.2112 l 6.1825,-2.4534 3.6896,1.5416 c 9.2111,3.8486 32.3639,-2.5308 41.1795,-11.3463 l 3.2207,-3.2207 1.5226,-5.1272 c 0.8374,-2.8199 1.5226,-6.5508 1.5226,-8.2908 v -3.1635 l 6.6443,-4.8781 6.6442,-4.878 1.3558,-3.2448 c 1.668,-3.9922 1.7333,-9.3166 0.1778,-14.5084 l -1.1779,-3.9315 4.0776,-3.7274 4.0777,-3.7273 1.6002,-5.3887 c 2.0622,-6.9442 2.0412,-14.3231 -0.057,-20.179 l -1.6678,-4.6534 1.9581,-5.8417 1.9581,-5.8416 1.531,-0.2949 c 2.9084,-0.5601 14.4293,8.3268 28.8853,22.2813 7.9788,7.702 17.6538,16.684 21.5,19.96 3.8462,3.2761 11.5404,10.3636 17.0981,15.75 13.8075,13.3819 12.0464,15.8222 16.3863,-22.7064 1.6107,-14.3 4.2636,-36.8 5.8954,-50 4.6305,-37.4594 6.1314,-50.7407 6.122,-54.1721 l -0.01,-3.172 -4.25,-3.652 c -2.3375,-2.0086 -11.7442,-7.8946 -20.9037,-13.08 -20.3143,-11.5004 -27.8828,-17.0773 -33.2406,-24.4932 -2.2582,-3.1256 -6.1765,-8.5866 -8.7074,-12.1357 l -4.6017,-6.4529 -11.691,-9.921 c -6.4301,-5.4566 -15.805,-13.4137 -20.8331,-17.6824 -11.4517,-9.7222 -30.5315,-23.1676 -37.7717,-26.6174 l -5.5,-2.6206 -33,0.066 -33,0.066 -13.7784,1.7448 c -38.4504,4.869 -44.1856,9.8601 -46.2517,40.251 l -0.739,10.8713 -1.8654,3.4852 -1.8655,3.4852 0.01,6.0148 c 0.01,7.8536 1.3491,12.4277 4.9893,17.0084 l 2.9673,3.7338 -0.06,8.1689 -0.06,8.169 1.705,4.2614 1.7051,4.2614 3.8738,1.9763 c 2.1306,1.0869 3.8738,2.1978 3.8738,2.4686 0,0.2707 -0.9,3.7401 -2,7.7095 -1.1,3.9695 -2,9.8352 -2,13.035 v 5.8177 l 4.7831,4.7831 c 2.6308,2.6308 6.9058,6.0271 9.5,7.5475 l 4.7169,2.7642 v 1.7041 1.7041 l -3.3754,1.2206 c -5.246,1.8969 -14.1632,8.0502 -25.489,17.5884 -10.1694,8.5644 -20.715,15.8575 -32.6356,22.5703 -12.9448,7.2894 -26.3997,15.6858 -34.8327,21.7369 -13.6055,9.7627 -62.9721,49.7385 -71.9842,58.291 l -8.0395,7.6295 17.8929,11.4325 c 9.841,6.2879 30.2837,19.3946 45.4282,29.126 32.109,20.6324 27.6496,19.253 37.2416,11.5197 z"
           id="path12587" /><path
           style="fill:#000000"
           d="m 5446.5368,-2799.6166 c 6.4163,-4.894 8.0713,-10.5491 3.5485,-12.1258 l -2.8258,-0.9851 -1.9242,1.0235 c -3.2469,1.7269 -12.4242,8.9469 -12.4242,9.7745 0,4.1544 9.1704,5.7111 13.6257,2.3129 z"
           id="path12629" /><path
           style="fill:#1a1a1a"
           d="m 5434.6611,-2797.1071 -4.75,-3.015 v -1.7938 -1.7938 l 5.25,-3.9783 c 2.8875,-2.1881 6.6835,-4.7978 8.4356,-5.7992 l 3.1856,-1.8209 4.0547,1.2148 4.0547,1.2148 0.5911,2.3551 0.5911,2.355 -1.6703,3.2299 c -0.9186,1.7764 -3.5427,4.9693 -5.8314,7.0953 l -4.1611,3.8653 -2.5,-0.057 c -1.375,-0.031 -4.6375,-1.4138 -7.25,-3.0721 z"
           id="path12627" /><path
           style="fill:#000000"
           d="m 5476.6018,-2771.5677 2.1907,-0.5875 0.6846,-5.6489 c 0.3766,-3.1069 1.0941,-6.4364 1.5945,-7.3989 l 0.9099,-1.75 h 2.4081 2.4081 l 1.5567,2.2226 c 0.8562,1.2223 1.5567,3.7758 1.5567,5.6743 v 3.4518 l 2.471,-2.3214 c 2.9395,-2.7615 4.9416,-8.2471 4.1545,-11.3831 l -0.5646,-2.2495 -3.9599,-0.2337 c -2.1779,-0.1285 -6.5697,-0.9134 -9.7595,-1.7443 l -5.7997,-1.5106 -1.298,1.797 c -3.5239,4.8782 -9.8285,10.3355 -15.4748,13.3949 l -6.269,3.3968 -7.5,-0.1969 c -12.3248,-0.3235 -21.7644,-4.2432 -25.5168,-10.5957 l -1.7068,-2.8892 0.037,-6.4657 0.037,-6.4657 -2.6266,0.3092 -2.6266,0.3092 -1.9483,3.3482 -1.9483,3.3482 -0.1006,7.2461 -0.1006,7.2461 1.4272,1.7217 c 3.9258,4.7359 12.4142,6.2931 40.8471,7.4935 10.2991,0.4349 19.6257,0.8533 20.7257,0.9298 1.1,0.077 2.9858,-0.1252 4.1907,-0.4483 z"
           id="path12625" /><path
           style="fill:#f7c73b;fill-opacity:1"
           d="m 5445.9111,-2770.0191 c -24.5458,-1.184 -33.2845,-2.957 -37.0728,-7.5216 l -1.4272,-1.7196 v -8.5963 -8.5964 l 2.0663,-3.9387 2.0662,-3.9388 2.7267,-0.9088 c 1.4996,-0.4999 3.8346,-0.6308 5.1888,-0.291 l 2.4622,0.618 -0.5707,6.7297 -0.5706,6.7296 2.0918,3.3174 2.0918,3.3173 5.704,2.6114 5.7039,2.6113 7.567,0.4381 7.5671,0.438 6.0824,-3.0703 c 6.3064,-3.1835 10.9788,-7.16 15.459,-13.1564 l 2.61,-3.4932 5.0171,1.8041 c 2.7595,0.9923 7.6541,2.0694 10.8771,2.3936 6.6844,0.6724 7.3249,1.2648 7.3408,6.7887 l 0.012,4 -2.0899,3.5 c -2.2321,3.7381 -5.6867,6.9414 -7.5254,6.9778 l -1.1227,0.022 -0.4861,-5.0589 c -0.2674,-2.7823 -0.9996,-5.5723 -1.6273,-6.2 l -1.1415,-1.1411 -1.16,1.1601 c -0.6381,0.638 -1.5441,3.9677 -2.0133,7.3992 -1.1987,8.7647 0.1487,8.5099 -35.8267,6.7746 z"
           id="path12623" /><path
           style="fill:#000000"
           d="m 5478.4254,-2752.203 -0.014,-9.25 3.567,-0.2994 3.5669,-0.2995 1.2786,2.7995 c 0.7032,1.5397 1.5253,5.1795 1.8269,8.0885 l 0.5485,5.2891 2.2752,-2.1375 c 1.2514,-1.1756 3.2503,-4.404 4.442,-7.1742 l 2.1668,-5.0368 -0.65,-3.4647 -0.65,-3.4647 -2.186,0.6282 c -1.2022,0.3455 -4.8859,1.4029 -8.1859,2.3499 l -6,1.7216 -16,-0.186 c -8.8,-0.1023 -22.6957,-0.8898 -30.8793,-1.75 -8.1836,-0.8602 -15.0461,-1.564 -15.25,-1.564 -0.2039,0 -0.3707,3.1174 -0.3707,6.9275 v 6.9274 l 2.5608,2.0143 c 3.0349,2.3873 9.0226,3.66 23.9392,5.0885 6.05,0.5794 12.35,1.2086 14,1.3981 1.65,0.1895 6.8314,0.412 11.5143,0.4944 l 8.5143,0.1498 -0.014,-9.25 z"
           id="path12621" /><path
           style="fill:#f7c73b;fill-opacity:1"
           d="m 5465.9111,-2740.6075 c -1.925,-0.184 -11.15,-1.0597 -20.5,-1.9461 -17.0472,-1.6161 -24.487,-3.2672 -27.75,-6.1586 l -1.75,-1.5507 v -8.786 c 0,-10.6146 -0.8548,-10.0309 12.199,-8.3302 5.8764,0.7655 18.2481,1.8208 27.4927,2.3449 l 16.8083,0.953 7.5,-1.3255 c 4.125,-0.729 9.4815,-2.1266 11.9032,-3.1058 l 4.4032,-1.7802 1.8468,2.2806 1.8468,2.2807 -0.01,4.1392 -0.01,4.1392 -2.3833,5.1184 c -2.4101,5.1762 -5.7152,8.3816 -8.6421,8.3816 h -1.5999 l -1.1029,-7.1252 c -1.1919,-7.7008 -2.1982,-9.4932 -4.7746,-8.5046 l -1.6567,0.6358 0.7171,8.6091 0.7171,8.6092 -1.3776,0.8725 c -1.3332,0.8445 -6.647,0.9397 -13.8776,0.2487 z"
           id="path12619" /><path
           style="fill:#f7c73b;fill-opacity:1"
           d="m 5547.8969,-2663.7029 c -2.9551,-1.5126 -5.8483,-3.5648 -6.4293,-4.5606 l -1.0565,-1.8106 2.8058,-2.4394 2.8057,-2.4395 3.1943,0.015 c 1.7568,0.01 7.0192,1.5425 11.6942,3.4092 l 8.5,3.3942 v 1.7035 1.7035 l -6,1.8725 c -7.9007,2.4658 -9.1762,2.3961 -15.5142,-0.8479 z"
           id="path12617" /><path
           style="fill:#000000"
           d="m 5541.9111,-2618.5378 c 5.225,-1.4609 13.1699,-4.3528 17.6554,-6.4264 l 8.1554,-3.7703 1.7896,-2.7314 1.7896,-2.7313 0.4277,-5.9128 0.4277,-5.9129 -5.2237,3.2473 -5.2238,3.2472 -8.723,0.1584 c -4.7977,0.087 -9.6726,0.6666 -10.8332,1.2877 -1.1606,0.6212 -5.548,1.1294 -9.7496,1.1294 h -7.6395 l -7.4696,-2.5075 c -4.1083,-1.3791 -10.2171,-3.8944 -13.575,-5.5895 l -6.1053,-3.0819 -2.4921,1.3337 c -2.7412,1.4671 -9.2106,9.4279 -9.2106,11.334 0,2.2927 3.6621,4.4863 14.0534,8.4177 5.7456,2.1737 14.7216,5.7674 19.9466,7.9859 5.225,2.2184 10.175,3.8413 11,3.6062 0.825,-0.2351 5.775,-1.6226 11,-3.0835 z"
           id="path12615" /><path
           style="fill:#f7c73b;fill-opacity:1"
           d="m 5517.4111,-2617.3127 c -5.5,-2.3798 -14.05,-5.8091 -19,-7.6207 -17.6512,-6.4596 -18.8944,-9.3382 -8.7273,-20.2076 l 4.501,-4.8119 h 2.7671 c 1.5219,0 6.5228,1.7883 11.1132,3.9741 13.9742,6.6541 26.53,8.792 32.7486,5.5762 l 2.8032,-1.4496 7.923,0.1029 7.923,0.1029 3.6027,-1.7096 c 1.9815,-0.9403 4.6358,-2.8093 5.8984,-4.1533 1.2627,-1.344 2.8923,-2.4436 3.6214,-2.4436 h 1.3257 v 7.7656 7.7656 l -1.8427,3.4844 -1.8427,3.4844 -7.4073,3.7721 c -6.9319,3.5301 -29.57,10.7478 -33.5961,10.7115 -0.9962,-0.01 -6.3112,-1.9635 -11.8112,-4.3434 z"
           id="path12613" /><path
           style="fill:#000000"
           d="m 5661.2982,-2649.4529 c 0.8563,-7.7 3.1955,-27.9501 5.1983,-45.0001 2.0027,-17.05 3.7028,-34.135 3.778,-37.9668 l 0.1366,-6.9669 -8.1945,-5.0331 c -4.507,-2.7682 -13.2575,-7.9582 -19.4456,-11.5332 -6.1881,-3.575 -14.2405,-8.8313 -17.8941,-11.6808 l -6.6431,-5.1809 -8.2822,-12.0792 -8.2822,-12.0792 -6.6291,-5.2097 c -3.6461,-2.8653 -10.2292,-8.3802 -14.6292,-12.2552 -10.9193,-9.6165 -22.0505,-17.9842 -36.4595,-27.4078 l -12.1335,-7.9354 -8.6243,-0.7184 c -36.4913,-3.0397 -86.078,1.8052 -100.5119,9.8206 l -3.7291,2.0709 -1.5274,5.2539 c -0.84,2.8897 -1.8122,8.6236 -2.1603,12.7421 l -0.633,7.4881 3.8895,1.0799 c 2.1392,0.594 5.0193,1.0825 6.4002,1.0856 l 2.5107,0.01 6.9893,-4.6231 c 6.5965,-4.3633 16.4893,-13.0329 16.4893,-14.4505 0,-0.3568 -2.7168,-0.895 -6.0374,-1.1961 -6.7508,-0.6122 -9.2026,-2.0514 -8.7609,-5.1428 l 0.2983,-2.088 h 10.5713 10.5714 l 1.7501,-1.75 1.7501,-1.75 h 11.6785 c 6.4232,0 18.4714,-0.7014 26.7737,-1.5611 8.3023,-0.8597 17.3023,-1.4231 20,-1.252 l 4.9049,0.3112 0.2557,2 c 0.1407,1.1 -0.1164,2.5714 -0.5712,3.2697 l -0.827,1.2698 -13.4287,1.9756 -13.4288,1.9757 -14.5593,0.01 -14.5592,0.01 -4.4453,5.25 c -2.4449,2.8875 -5.0449,6.0182 -5.7777,6.9572 l -1.3325,1.7073 4.087,3.8879 4.087,3.8879 v 4.0467 4.0467 l -4.6531,5.1753 c -9.4784,10.5423 -16.017,12.6677 -24.7061,8.0309 l -5.6408,-3.0101 v 1.3551 c 0,3.2764 7.3353,6.7775 14.6908,7.0119 l 4.8092,0.1532 6,-3.7242 c 7.0216,-4.3584 12.8881,-9.586 17.4232,-15.5258 l 3.2449,-4.25 h 2.0479 2.0478 l 3.5361,3.75 3.536,3.75 7.9368,0.1174 7.9368,0.1175 1.8391,1.5746 c 1.0115,0.8661 2.1535,3.2882 2.5378,5.3826 l 0.6988,3.8079 2.8593,3.2869 c 3.7366,4.2955 7.5101,11.8217 8.4073,16.7683 1.0699,5.8988 2.6346,8.3011 10.1242,15.5441 14.9691,14.4764 28.1088,17.8888 45.824,11.9007 12.5324,-4.2363 16.5,-3.833 16.5,1.6769 v 2.277 l -2.25,1.4281 c -1.2375,0.7855 -6.3534,2.8209 -11.3687,4.5231 l -9.1187,3.0949 -4.8813,-0.02 c -15.9788,-0.066 -34.9981,-9.1212 -47.2017,-22.4739 l -5.1318,-5.615 -1.061,-4.1956 c -1.9333,-7.6455 -4.4696,-14.0345 -5.7368,-14.4511 l -1.25,-0.4111 v 1.6232 c 0,0.8928 0.8392,3.2928 1.8648,5.3333 1.0256,2.0406 2.1578,5.3271 2.5159,7.3034 l 0.6511,3.5932 -2.0135,6.5189 c -2.0841,6.7477 -5.2505,11.7947 -7.3998,11.7947 -0.6799,0 -1.9758,0.5625 -2.8796,1.25 l -1.6434,1.25 1.4171,6.5 c 1.6467,7.5531 1.8749,14.8506 0.5715,18.2787 l -0.9158,2.409 -3.3342,1.4061 -3.3341,1.4062 -22.5,-0.3033 -22.5,-0.3034 -2.25,-1.4697 -2.25,-1.4697 v -2.3545 c 0,-1.295 0.632,-2.879 1.4044,-3.5201 l 1.4045,-1.1656 9.3455,0.5816 c 5.1401,0.3199 11.0331,0.7947 13.0956,1.055 l 3.75,0.4733 v -3.3893 -3.3894 l 1.4873,-1.2343 c 0.818,-0.6789 2.1231,-0.9903 2.9003,-0.6921 l 1.4131,0.5422 0.6875,4.0697 0.6876,4.0696 h 5.3447 5.3447 l 0.6482,-2.0422 c 0.748,-2.3568 -0.138,-9.1703 -1.7274,-13.2844 l -1.0921,-2.8266 -2.097,0.5734 c -1.1533,0.3154 -4.3469,0.8411 -7.0969,1.1681 l -5,0.5947 -20.4011,-2.1071 c -11.2206,-1.1589 -20.467,-1.9875 -20.5475,-1.8415 -1.6036,2.9085 -2.6692,7.1829 -3.1914,12.8022 l -0.6466,6.957 3.4499,3.2532 c 1.8975,1.7893 6.5745,5.3368 10.3933,7.8833 l 6.9434,4.6302 9.2589,-1.5949 9.2589,-1.5949 10.7411,2.6693 c 5.9076,1.4682 16.1411,3.6198 22.7411,4.7813 27.7851,4.8901 38.1722,7.1953 46.8352,10.3943 5.0406,1.8614 10.112,3.664 11.2698,4.0059 l 2.105,0.6214 4.8555,-3.2713 4.8555,-3.2714 5.8201,-8.75 5.82,-8.75 h 2.9343 2.9342 l 1.1018,2.0587 1.1017,2.0586 -0.5994,2.7291 c -0.3296,1.501 -2.3832,5.4121 -4.5634,8.6914 -2.1801,3.2792 -3.9654,6.476 -3.9671,7.1039 0,1.159 16.5509,13.8022 24.0141,18.3407 2.2452,1.3654 7.7723,6.2386 12.2824,10.8293 4.5102,4.5907 14.2198,13.5986 21.5769,20.0176 7.3571,6.4189 15.2321,13.31 17.5,15.3137 l 4.1234,3.6429 1.1651,-10.1429 c 0.6408,-5.5787 1.8657,-16.443 2.722,-24.143 z"
           id="path12611" /><path
           style="fill:#f7c73b;fill-opacity:1"
           d="m 5654.3161,-2614.0765 c -1.0478,-1.168 -7.98,-7.3391 -15.405,-13.7136 -7.425,-6.3745 -18.1294,-16.2327 -23.7875,-21.907 l -10.2875,-10.3171 -7.207,-4.6195 c -3.9638,-2.5407 -10.6969,-7.3248 -14.9625,-10.6312 l -7.7555,-6.0116 v -1.6185 c 0,-0.8901 2.0331,-4.7548 4.5179,-8.5882 l 4.5179,-6.9698 -0.2679,-2.5 -0.2679,-2.5 h -1.4334 c -0.7884,0 -3.9384,3.6668 -7,8.1484 -10.9241,15.9905 -15.1175,17.6728 -29.8381,11.9705 -11.172,-4.3276 -17.2297,-5.7842 -41.8578,-10.0643 -11.0711,-1.9241 -24.5249,-4.6404 -29.8973,-6.0363 l -9.768,-2.5379 -9.7691,1.6275 -9.769,1.6275 -7.6912,-5.3169 c -4.2301,-2.9243 -8.9927,-6.5328 -10.5836,-8.0189 l -2.8925,-2.702 v -6.9839 -6.984 l 1.6519,-5.1148 1.6519,-5.1149 h 3.3959 c 1.8678,0 9.5619,0.7265 17.0981,1.6144 l 13.7022,1.6143 12.7331,-0.5407 12.7331,-0.5408 1.5169,5.1079 c 1.8187,6.1241 1.9769,13.885 0.3169,15.5449 l -1.2,1.2 h -6.7882 -6.7882 l -0.6367,-3.9818 c -0.7573,-4.7358 -2.3869,-4.3568 -2.3869,0.5552 v 3.4553 l -14,-0.6684 -14,-0.6683 v 2.0456 2.0456 l 2.3637,0.5933 c 1.3,0.3263 11.6466,0.6262 22.9924,0.6665 l 20.6289,0.073 2.6928,-1.3081 2.6929,-1.3082 0.8173,-3 c 0.941,-3.4544 0.2883,-9.7064 -1.8045,-17.2842 -1.6923,-6.1281 -1.4783,-6.6872 3.4429,-8.9939 l 3.6736,-1.7219 2.3779,-4.7953 c 1.3079,-2.6375 2.6058,-6.8167 2.8843,-9.2872 l 0.5063,-4.4918 -2.7478,-6.4651 -2.7477,-6.4652 1.6366,-2.4977 c 2.929,-4.4703 6.2491,-1.0213 9.1471,9.5023 4.6139,16.7544 20.5205,29.9068 42.3746,35.0376 l 9.2942,2.182 3.8521,-0.616 c 11.5245,-1.8429 23.8152,-8.1108 21.1433,-10.7826 l -1.0446,-1.0447 -9.3381,3.0296 c -5.136,1.6662 -10.9579,3.2992 -12.9375,3.6289 l -3.5993,0.5993 -8.8628,-2.1049 c -17.4798,-4.1515 -32.0411,-16.6373 -35.3525,-30.3136 -1.5192,-6.2747 -4.0477,-11.1835 -8.5143,-16.5297 l -3.5718,-4.2751 v -2.783 c 0,-3.5702 -2.3904,-5.5258 -6.3619,-5.2045 -1.7259,0.1396 -5.6086,-0.2224 -8.6281,-0.8044 l -5.49,-1.0582 -2.3325,-2.9803 c -3.0978,-3.9583 -4.4368,-3.7659 -8.0578,1.1579 -4.1047,5.5815 -12.9911,12.9586 -19.6968,16.3514 l -5.5008,2.7831 -5.5554,-0.5734 c -3.0555,-0.3153 -7.6393,-1.6142 -10.1863,-2.8864 l -4.631,-2.313 -0.8436,-3.3861 -0.8435,-3.3862 0.9989,-0.9989 0.999,-0.999 6.0239,3.1351 c 10.1108,5.2621 28.1059,-3.7997 28.1059,-14.1531 v -2.072 l -4.6884,-4.366 -4.6883,-4.366 1.8725,-3.2039 c 1.0299,-1.7621 3.8467,-5.5041 6.2597,-8.3155 l 4.3871,-5.1117 18.6787,-0.5806 c 10.2733,-0.3193 22.7287,-1.2798 27.6787,-2.1345 4.95,-0.8547 9.3375,-1.5557 9.75,-1.5578 0.4125,0 0.75,-0.6788 0.75,-1.5038 v -1.5 l -2.75,0.02 c -1.5125,0.011 -8.825,0.677 -16.25,1.4802 -7.425,0.8031 -19.4625,1.4691 -26.75,1.4801 l -13.25,0.02 -2.0047,2.0047 -2.0047,2.0048 -9.9953,-0.6551 -9.9953,-0.655 v 1.0913 c 0,1.7132 1.5478,2.2806 8.2402,3.0203 l 6.2339,0.689 0.3272,1.7027 0.3271,1.7027 -4.3142,4.7103 c -4.939,5.3923 -21.0534,16.3843 -24.0197,16.3843 -13.5021,0 -15.7712,-5.6469 -10.5837,-26.3394 l 1.2132,-4.8395 2.7534,-2.3169 c 3.2902,-2.7685 15.858,-7.1006 26.5803,-9.1622 l 7.7423,-1.4886 33.7007,-0.5484 c 18.5355,-0.3017 36.6262,-0.2352 40.2017,0.1477 l 6.5009,0.6962 13.2984,8.832 c 13.6025,9.0341 23.7419,16.7654 39.3693,30.0191 15.6741,13.2934 19.5335,17.3121 26.6233,27.7223 l 6.9619,10.2223 4.6719,3.8559 c 6.7501,5.5711 11.8818,8.8835 28.1719,18.1846 22.8552,13.0494 21.6943,11.406 19.5839,27.7241 -0.8387,6.485 -2.4475,19.8908 -3.5752,29.7908 -1.1277,9.9 -2.9189,25.425 -3.9806,34.5001 -2.5647,21.9228 -5.0292,45.0795 -5.0286,47.25 l 5e-4,1.75 h -1.845 c -1.0148,0 -2.7023,-0.9556 -3.75,-2.1236 z"
           id="path12609" /><path
           style="fill:#000000"
           d="m 5548.0778,-2591.7426 c 0.1833,-0.4343 3.5958,-3.41 7.5833,-6.6127 3.9875,-3.2026 7.3001,-6.3347 7.3613,-6.9603 0.061,-0.6255 0.1737,-2.8246 0.25,-4.8868 l 0.1387,-3.7495 -1.0991,-5e-4 c -0.6044,-3e-4 -7.2546,1.7995 -14.7781,3.9995 -7.5235,2.2 -15.3837,4 -17.467,4 h -3.788 l -18.9469,-7.3622 c -10.4208,-4.0492 -20.8761,-8.2943 -23.234,-9.4335 l -4.287,-2.0712 -1.0742,2.6834 c -0.5907,1.4759 -1.849,4.7376 -2.796,7.2482 l -1.7219,4.5648 6.0961,2.3336 c 3.3529,1.2835 9.9211,4.2349 14.5961,6.5586 4.675,2.3237 11.728,5.3848 15.6733,6.8024 l 7.1733,2.5775 12.1087,-0.086 c 6.6598,-0.047 12.3943,0.2001 12.7434,0.5492 0.9048,0.9048 5.0704,0.7867 5.468,-0.155 z"
           id="path12607" /><path
           style="fill:#f7c73b;fill-opacity:1"
           d="m 5526.9111,-2589.9285 -13.5,-0.6089 -7.7578,-3.2005 c -4.2667,-1.7603 -11.2417,-4.9343 -15.5,-7.0534 -4.2582,-2.1191 -10.1047,-4.6862 -12.9922,-5.7048 l -5.25,-1.8519 0.052,-1.5525 c 0.028,-0.8538 1.2995,-4.9274 2.8243,-9.0524 l 2.7723,-7.5 1.6746,-0.3232 c 0.9211,-0.1777 4.2224,0.8822 7.3363,2.3553 3.1138,1.4731 8.5165,3.7529 12.0058,5.0663 3.4894,1.3134 11.5314,4.416 17.8713,6.8948 14.0512,5.4937 12.2919,5.4973 31.1508,-0.064 8.5249,-2.5141 16.1328,-4.3282 16.9063,-4.0314 l 1.4063,0.5397 v 5.9206 5.9206 l -1.75,1.9825 c -0.9625,1.0905 -4.9498,4.5153 -8.8606,7.6108 l -7.1106,5.6282 -3.8894,-0.1833 c -2.1392,-0.1008 -9.9644,-0.4573 -17.3894,-0.7922 z"
           id="path12605" /><path
           style="fill:#000000"
           d="m 5528.1503,-2564.9315 c 10.4003,-3.909 21.3505,-13.7652 18.4811,-16.6346 -0.4026,-0.4025 -7.1831,-0.8324 -15.0679,-0.9553 l -14.3359,-0.2234 -7.6694,-2.1041 -7.6694,-2.1041 -7.7389,0.01 c -4.2563,0 -9.424,0.4736 -11.4837,1.0456 l -3.745,1.0401 -2.4943,3.6706 -2.4943,3.6707 1.7393,1.0337 c 0.9565,0.5686 9.6142,4.0717 19.2392,7.7847 l 17.5,6.751 5,-0.4116 c 2.75,-0.2264 7.5826,-1.3824 10.7392,-2.5688 z"
           id="path12603" /><path
           style="fill:#f7c73b;fill-opacity:1"
           d="m 5497.4111,-2564.9625 c -20.8158,-8.0939 -23.7264,-9.4027 -24.8413,-11.1701 l -1.0542,-1.6712 1.9478,-3.6915 c 1.0712,-2.0303 3.0484,-4.4235 4.3938,-5.3183 l 2.4461,-1.6267 10.5539,-0.5812 10.5539,-0.5812 8.5,2.4091 8.5,2.409 7,-0.4796 c 3.85,-0.2638 10.8202,0.043 15.4894,0.6815 l 8.4893,1.1611 0.3316,1.7218 c 0.9956,5.1699 -8.2049,14.1086 -19.0588,18.5165 l -6.2515,2.5388 -7,0.3685 -7,0.3684 z"
           id="path12601" /><path
           style="fill:#000000"
           d="m 5420.6665,-2609.7182 0.4212,-1.2649 -5.8383,-2.5953 c -3.2111,-1.4275 -10.9795,-5.032 -17.2633,-8.0102 l -11.425,-5.4148 -1.0014,1.0014 -1.0013,1.0014 1.9263,2.1317 c 5.4634,6.0458 33.0178,16.6467 34.1818,13.1507 z"
           id="path12599" /><path
           style="fill:#000000"
           d="m 5404.7194,-2610.358 c -17.6296,-7.1513 -22.1934,-10.3762 -21.6306,-15.2849 l 0.3223,-2.8104 2.408,-0.3403 2.408,-0.3403 13.092,6.2116 c 7.2006,3.4164 14.9564,7.0739 17.2352,8.1278 l 4.1431,1.9161 0.565,2.1605 c 1.5723,6.0124 -4.3262,6.1269 -18.543,0.3599 z"
           id="path12597" /><path
           style="fill:#000000"
           d="m 5414.6534,-2586.6801 c 0.202,-0.606 -1.7914,-2.587 -4.4298,-4.4022 -2.6383,-1.8152 -7.384,-5.6788 -10.546,-8.5857 -3.162,-2.907 -6.428,-5.2853 -7.2578,-5.2853 h -1.5087 v 2.415 2.415 l 4.7085,4.1445 c 8.4675,7.4535 18.083,12.151 19.0338,9.2987 z"
           id="path12595" /><path
           style="fill:#000000"
           d="m 5406.9111,-2584.9925 c -7.9298,-4.305 -15.1059,-9.9774 -17.2351,-13.6234 l -1.8469,-3.1626 0.6494,-2.5874 0.6494,-2.5874 h 2.9947 2.9946 l 5.147,4.6353 c 2.8308,2.5495 7.7344,6.4631 10.8969,8.6969 l 5.75,4.0615 v 2.2213 c 0,6.1851 -2.0445,6.6647 -10,2.3458 z"
           id="path12593" /><path
           style="fill:#000000"
           d="m 5351.3635,-2519.8193 c 1.6762,-1.5763 13.3976,-11.3073 26.0476,-21.6246 12.65,-10.3172 23.6191,-19.3377 24.3757,-20.0454 l 1.3758,-1.2869 -3.2038,-4.4613 -3.2039,-4.4612 -0.5403,-4.0287 -0.5404,-4.0288 2.2016,-1.1783 2.2017,-1.1783 2.063,1.8298 c 1.1346,1.0063 3.5183,4.0797 5.297,6.8297 4.8043,7.4277 5.8943,8.0768 19.1995,11.4332 28.1265,7.0952 33.6609,7.5441 49.7741,4.0372 12.8406,-2.7946 12.8204,-2.7733 5.1542,-5.4521 -6.9616,-2.4325 -12.0911,-5.5977 -13.5798,-8.3793 l -0.9215,-1.7219 1.3653,-7.1655 c 2.075,-10.8901 4.0565,-13.1508 13.1993,-15.0588 l 3.7825,-0.7893 -6.8449,-2.4202 -6.8449,-2.4202 -2.4675,-2.9325 -2.4675,-2.9324 0.6503,-3.8491 c 0.7558,-4.4736 0.9549,-4.3984 -5.2385,-1.9795 -2.6328,1.0283 -7.7997,2.6181 -11.4819,3.5329 l -6.695,1.6632 -2.555,-0.6413 -2.5551,-0.6413 v -3.2846 -3.2846 l 1.75,-0.6922 c 0.9625,-0.3808 5.4884,-1.7845 10.0575,-3.1193 4.5691,-1.3348 10.4238,-3.4995 13.0105,-4.8102 l 4.7031,-2.3833 3.2406,-7.9258 c 5.1076,-12.4921 12.7336,-19.8261 23.0043,-22.1235 l 4.2661,-0.9543 4.7091,1.4173 4.7091,1.4172 7.6877,-1.568 7.6877,-1.568 11.3895,4.5047 c 6.2642,2.4775 13.2322,4.7993 15.4845,5.1594 l 4.0951,0.6549 3.4149,-1.127 c 3.3629,-1.1099 12.2327,-9.0958 10.1025,-9.0958 -0.6016,0 -3.0554,0.8901 -5.453,1.978 -7.2893,3.3076 -16.8287,0.4415 -27.3237,-8.2094 l -3.6849,-3.0374 0.6416,-2.5561 c 0.3528,-1.4059 1.9693,-4.2326 3.5921,-6.2816 l 2.9505,-3.7253 -6.9359,-1.5776 c -3.8148,-0.8676 -12.0338,-2.2886 -18.2646,-3.1576 -13.3046,-1.8557 -26.3018,-4.4451 -40.7417,-8.117 l -10.4073,-2.6465 -4.5927,1.038 c -21.4414,4.8464 -28.3652,7.8166 -39.0926,16.7702 -12.4106,10.3584 -26.7355,20.4468 -45.4053,31.977 -28.2653,17.4563 -34.2859,21.643 -56.1475,39.0453 -24.8966,19.8182 -46.1856,37.2677 -46.9224,38.4598 -0.3058,0.4949 3.3885,3.3547 8.2096,6.3552 15.6112,9.716 56.5974,36.0965 62.7656,40.3987 7.2211,5.0366 6.2537,4.8986 9.9524,1.4203 z"
           id="path12591" /><path
           style="fill:#f7c73b;fill-opacity:1"
           d="m 5336.9111,-2521.2298 c -17.8508,-11.7691 -65.2384,-41.875 -67.6215,-42.9608 l -2.3785,-1.0838 v -1.7897 -1.7897 l 8.252,-6.8924 c 43.8329,-36.6111 69.5137,-55.5581 100.9406,-74.4731 14.071,-8.4689 27.9272,-18.2096 37.8074,-26.5778 9.1224,-7.7265 16.8864,-12.5518 23.1394,-14.3813 23.6933,-6.932 24.1651,-6.9646 40.617,-2.8076 6.459,1.632 17.3686,3.897 24.2436,5.0333 43.8998,7.256 42.4135,6.6817 36.5097,14.1086 -5.2493,6.6036 -4.2166,8.242 9.7167,15.4146 l 7.4318,3.8257 6.6814,-2.6748 c 3.6748,-1.4711 7.4005,-2.6747 8.2793,-2.6747 h 1.5979 l -0.6776,2.75 c -0.8601,3.4909 -5.8245,8.6829 -10.3601,10.8352 l -3.5035,1.6625 -6.0878,-0.5089 -6.0878,-0.509 -10.5,-4.2319 -10.5,-4.232 -7.721,1.2313 -7.7211,1.2313 -6.3158,-1.2553 -6.3158,-1.2554 -4.6388,2.052 c -2.5514,1.1285 -6.6428,3.8991 -9.092,6.1567 l -4.4532,4.1048 -4.2515,9.3744 -4.2515,9.3745 -4.7868,2.242 c -2.6327,1.2331 -8.9858,3.4481 -14.1179,4.9223 l -9.3313,2.6803 -0.3539,1.838 -0.354,1.8381 5.543,-0.5721 c 3.0487,-0.3147 9.4833,-2.1542 14.2991,-4.0879 10.3375,-4.1507 10.5502,-4.089 9.738,2.8209 l -0.6278,5.3417 2.1422,1.8342 c 1.1782,1.0088 5.1725,2.9843 8.8762,4.39 l 6.7339,2.5557 0.3196,2.2083 0.3195,2.2083 h -2.8577 c -1.5717,0 -4.8655,1.0125 -7.3195,2.25 l -4.4619,2.25 -1.6698,5 c -0.9184,2.75 -1.7059,6.4596 -1.75,8.2437 l -0.08,3.2437 4.19,3.0352 c 2.3044,1.6693 7.2544,3.966 11,5.1037 l 6.81,2.0685 v 1.7906 1.7907 l -8.75,2.0749 c -4.8125,1.1411 -11.435,2.5936 -14.7167,3.2278 l -5.9668,1.1529 -6.5332,-0.6557 c -3.5933,-0.3606 -14.9553,-2.6982 -25.2488,-5.1946 l -18.7155,-4.5388 -2.7845,-3.2619 c -1.5315,-1.794 -4.0316,-5.3929 -5.5559,-7.9975 l -2.7714,-4.7356 -1.2286,0.4364 -1.2286,0.4364 0.2716,2.3898 c 0.1494,1.3144 1.8369,4.6727 3.75,7.4629 4.6384,6.765 5.431,5.4422 -11.6759,19.486 -8.3349,6.8425 -21.044,17.2784 -28.2425,23.1909 -15.4119,12.6587 -13.6541,12.3515 -25.6032,4.4735 z"
           id="path12589" /><path
           style="fill:#f7c73b;fill-opacity:1;stroke:none;stroke-width:1;stroke-linecap:round;stroke-linejoin:round;stroke-opacity:1;paint-order:stroke fill markers"
           d="m 5450.5462,-2817.6828 8.1712,9.2085 -2.2051,5.5772 -7.263,6.355 -10.3757,1.0377 -9.2085,-3.6317 -0.1298,-5.0582 7.3926,-6.7442 10.5058,-3.6315 z"
           id="path37849"
           sodipodi:nodetypes="cccccccccc" /></g></g></g></svg>
