<?xml version="1.0" encoding="UTF-8" standalone="no"?>
<!-- Created with Inkscape (http://www.inkscape.org/) -->

<svg
   width="587.94067mm"
   height="500mm"
   viewBox="0 0 587.94067 500"
   version="1.1"
   id="svg5"
   xml:space="preserve"
   xmlns:inkscape="http://www.inkscape.org/namespaces/inkscape"
   xmlns:sodipodi="http://sodipodi.sourceforge.net/DTD/sodipodi-0.dtd"
   xmlns="http://www.w3.org/2000/svg"
   xmlns:svg="http://www.w3.org/2000/svg"><sodipodi:namedview
     id="namedview7"
     pagecolor="#ffffff"
     bordercolor="#000000"
     borderopacity="0.25"
     inkscape:showpageshadow="2"
     inkscape:pageopacity="0.0"
     inkscape:pagecheckerboard="0"
     inkscape:deskcolor="#d1d1d1"
     inkscape:document-units="mm"
     showgrid="false"
     showguides="false" /><defs
     id="defs2" /><g
     id="g40161"
     inkscape:groupmode="layer"
     inkscape:label="H"
     style="display:inline"
     transform="translate(1044.0997,4866.4004)"><rect
       style="fill:#cccccc;fill-opacity:1;stroke:#1a1a1a;stroke-width:20;stroke-linecap:round;stroke-linejoin:round;stroke-dasharray:none;stroke-opacity:1;paint-order:stroke fill markers"
       id="rect38211-8"
       width="567.94067"
       height="480"
       x="-1034.0997"
       y="-4856.4004"
       rx="48.766338"
       ry="48.766338" /><g
       id="g39018"
       transform="translate(-2813.8441,-2408.6859)"><path
         style="fill:#ffffff"
         d="m 2117.9111,-2036.0318 c -2.475,-0.4697 -10.5434,-3.8448 -17.9297,-7.5002 -7.3863,-3.6554 -16.3863,-7.7572 -20,-9.1152 -3.6137,-1.3579 -9.7203,-4.1159 -13.5703,-6.1289 l -7,-3.66 -12,-11.6354 -12,-11.6354 -8.129,-4.0735 -8.129,-4.0735 -4.5032,-5.1479 -4.5033,-5.1479 -1.9271,1.0314 c -3.3513,1.7935 -15.4592,15.2108 -25.4165,28.165 -5.2845,6.875 -13.7493,17.1125 -18.8108,22.75 l -9.2027,10.25 h -2.4545 -2.4545 l -19.2738,-18.75 c -10.6006,-10.3125 -27.2437,-26.3691 -36.9847,-35.6813 l -17.7109,-16.9313 v -2.1212 -2.1212 l 14.8538,-16.9475 c 13.9247,-15.8875 24.1317,-26.2912 30.3624,-30.9475 l 2.6762,-2 -1.0177,-6 -1.0178,-6 0.4407,-37.5 0.4407,-37.5 2.07,-8.5 c 1.1385,-4.675 3.3947,-12.3659 5.0137,-17.0909 4.9823,-14.5408 6.3261,-26.7384 5.1932,-47.1386 l -0.4848,-8.7295 1.6478,-1.6478 1.6478,-1.6478 7.0903,-0.5073 7.0903,-0.5073 4.4501,1.6995 4.4501,1.6995 3.1136,3.5462 c 6.4305,7.324 9.9218,27.7251 6.8395,39.9662 l -1.1401,4.5278 1.2118,5.415 c 1.5082,6.7393 1.245,6.8031 9.0684,-2.1976 11.2673,-12.9627 30.024,-30.5961 43.5,-40.8949 7.15,-5.4643 17.7431,-14.6748 23.5402,-20.4679 22.0788,-22.0634 30.3415,-27.926 37.4733,-26.5881 l 3.5003,0.6567 3.7815,3.7034 c 2.0798,2.0369 4.474,4.7981 5.3203,6.1361 l 1.5389,2.4326 3.4227,-2.5646 c 1.8826,-1.4105 4.8629,-3.2927 6.6231,-4.1826 l 3.2004,-1.6181 h 5.2378 5.2377 l 3.2875,2.25 c 1.8081,1.2375 4.086,3.825 5.0619,5.75 0.9759,1.925 1.8962,3.6968 2.0451,3.9374 0.4391,0.7094 6.1442,-6.3263 6.1887,-7.6319 0.022,-0.657 -2.2092,-3.132 -4.9589,-5.5 l -4.9995,-4.3055 -5e-4,-2.75 -5e-4,-2.75 h 5.1017 c 7.9246,0 34.3135,2.1742 35.1165,2.8933 2.0221,1.8107 8.1823,30.8995 7.1264,33.6511 l -0.5586,1.4556 h -2.6987 c -1.4843,0 -4.2487,-1.1576 -6.143,-2.5725 -1.8944,-1.4148 -4.2036,-2.9906 -5.1317,-3.5016 l -1.6873,-0.9292 -8.5889,10.6593 -8.5889,10.6592 1.9596,2.0924 c 5.4879,5.8597 4.3816,21.2058 -1.8043,25.0289 -1.5355,0.9489 -1.3833,3.5635 0.2074,3.5635 0.7205,0 2.7455,1.4034 4.5,3.1187 l 3.1898,3.1186 v 3.2248 c 0,7.4027 -8.6708,25.7613 -21.439,45.3926 l -6.7346,10.3546 2.6481,2.7641 c 1.4564,1.5202 7.8033,7.4356 14.1042,13.1453 l 11.4561,10.3813 10.3619,14.5 c 23.7587,33.2468 33.9811,49.5883 39.3522,62.9086 5.2374,12.9885 7.5567,16.9371 14.7376,25.0914 3.6326,4.125 10.7232,12.9 15.7569,19.5 5.0337,6.6 11.7632,14.9188 14.9544,18.4861 10.3956,11.621 11.176,11.3026 -47.6978,19.4571 -26.4256,3.6601 -67.9528,9.3239 -73,9.9563 -1.65,0.2068 -5.025,-0.01 -7.5,-0.478 z"
         id="path12077" /><path
         style="fill:#1a1a1a"
         d="m 2154.9111,-2041.9492 c 15.675,-2.1929 37.05,-5.148 47.5,-6.567 20.892,-2.8368 45.381,-6.9848 46.2261,-7.8299 0.2966,-0.2966 -1.3333,-2.6921 -3.6221,-5.3233 -2.2888,-2.6311 -8.8506,-10.8589 -14.5818,-18.2839 -5.7312,-7.425 -13.3954,-16.875 -17.0316,-21 -7.0028,-7.9442 -10.1092,-13.3333 -15.4837,-26.8619 -3.7533,-9.4477 -13.1438,-24.7611 -30.4389,-49.6381 -16.0956,-23.1514 -17.4048,-24.6997 -33.481,-39.5946 -16.603,-15.3829 -15.9716,-12.4404 -5.9888,-27.9054 8.801,-13.6343 18.26,-32.1498 19.6917,-38.5454 l 0.9056,-4.0455 -0.7928,-2.143 c -0.436,-1.1787 -2.614,-3.1833 -4.84,-4.4546 -4.9043,-2.8009 -4.8883,-2.5102 -0.5627,-10.2451 l 3.5,-6.2586 v -5.0772 -5.0771 l -2.5,-2.9711 c -3.4926,-4.1508 -3.5007,-4.1298 6.25,-16.2765 l 8.75,-10.9001 h 1.7741 c 0.9758,0 4.084,1.586 6.9072,3.528 2.8232,1.9421 5.6248,3.3653 6.2259,3.1628 l 1.0928,-0.3682 -0.3114,-2.9128 c -0.2647,-2.4756 -4.4337,-21.5698 -5.7877,-26.5078 l -0.4374,-1.5951 -13.784,-1.1549 c -7.5812,-0.6352 -15.898,-1.1549 -18.4817,-1.1549 h -4.6978 v 1.1471 c 0,0.6309 2.5512,3.4656 5.6693,6.2993 l 5.6692,5.1521 -3.8827,5.2007 -3.8827,5.2008 h -1.6887 -1.6888 l -1.0514,-2.75 c -1.2805,-3.3491 -2.8667,-5.3059 -6.1167,-7.5459 l -2.4725,-1.7041 -4.5275,0.01 -4.5275,0.01 -5.1781,2.9698 c -2.848,1.6333 -5.462,3.4291 -5.809,3.9906 -0.347,0.5614 -1.4622,1.0208 -2.4781,1.0208 h -1.8472 l -3.4671,-4.8259 -3.4671,-4.8259 -3.5278,-1.6741 c -7.5585,-3.5868 -10.3741,-1.7588 -36.7256,23.8435 -7.975,7.7482 -19.225,17.6028 -25,21.8989 l -10.5,7.8113 -21.4352,21.6153 -21.4352,21.6153 -1.4106,-3.4568 c -0.7757,-1.9013 -1.658,-5.8554 -1.9606,-8.787 l -0.5501,-5.3301 1.3205,-5.5047 1.3206,-5.5047 -1.5484,-10.3609 -1.5484,-10.361 -2.246,-4.6396 -2.246,-4.6397 -3.9477,-2.492 -3.9477,-2.4921 -4.6826,-0.5527 -4.6826,-0.5528 -4.3745,1.1799 -4.3744,1.1799 0.6998,13.678 0.6999,13.6779 -1.1739,9 -1.174,9 -4.0198,12.4512 c -2.2108,6.8482 -4.6821,15.8482 -5.4917,20 l -1.472,7.5488 -0.5314,32.5 -0.5313,32.5 1.2553,9.9149 1.2554,9.9149 -2.8837,2.0525 c -8.0036,5.6966 -44.3837,45.0393 -44.3837,47.9981 0,1.0586 62.9238,62.5409 70.5174,68.902 l 3.3215,2.7823 9.6444,-10.7785 c 5.3044,-5.9281 13.5532,-15.9505 18.3306,-22.2718 4.7773,-6.3213 12.5111,-15.4358 17.1861,-20.2544 l 8.5,-8.7611 h 3 3 l 4.3309,5.029 4.3309,5.029 8.1691,4.0937 8.1691,4.0937 12,11.6268 12,11.6268 6,3.1678 c 3.3,1.7424 9.6,4.5872 14,6.322 4.4,1.7347 12.9004,5.6421 18.8899,8.6829 19.4974,9.8989 16.5084,9.6619 54.6101,4.3314 z"
         id="path12079" /><path
         id="path24920"
         style="fill:#b31d37;fill-opacity:1;stroke:#1a1a1a;stroke-width:1;stroke-linecap:round;stroke-linejoin:round;stroke-opacity:1;paint-order:stroke fill markers"
         d="m 2144.1348,-2367.2168 c 1.2512,1.394 0.5048,3.5246 -0.7266,4.6621 -23.0762,28.9727 -69.2285,86.918 -69.2285,86.918 l -1.3936,3.9943 6.2884,3.6924 5.1765,0.4967 3.9599,-1.9256 c 0,0 45.4323,-55.4987 68.1485,-83.2481 1.6858,-1.497 4.3032,-1.1595 6.1212,-0.093 2.8211,1.3973 5.6179,2.8427 8.4217,4.2749 -1.735,-8.2285 -3.47,-16.457 -5.205,-24.6856 -9.7429,-0.6093 -19.4857,-1.2187 -29.2285,-1.8281 2.5553,2.5807 5.1106,5.1615 7.666,7.7422 z"
         sodipodi:nodetypes="scccccccccccss" /><path
         style="fill:#000000"
         d="m 2069.4993,-2278.7699 c 5.3823,-8.0383 15.8532,-21.2816 38.9118,-49.2145 6.05,-7.3289 12.2356,-15.1575 13.7457,-17.3971 l 2.7457,-4.0718 v -3.1611 -3.1611 l -3.1946,-2.6882 -3.1947,-2.6881 -3.3983,0.5515 c -6.4305,1.0435 -24.2234,20.0808 -37.9902,40.647 l -5.6898,8.5 -15.2662,15.8998 c -17.4544,18.1789 -16.486,16.5063 -11.0581,19.1002 2.3018,1.1 6.4591,4.1002 9.2385,6.6672 l 5.0534,4.6671 2.2599,-2.6671 c 1.2428,-1.467 4.7656,-6.4097 7.8283,-10.9838 z"
         id="path12099" /><path
         style="fill:#f7c73b;fill-opacity:1"
         d="m 2056.4111,-2264.3106 c -2.9147,-3.2564 -10.4274,-8.9449 -14.75,-11.1685 l -3.75,-1.929 v -1.5843 c 0,-0.8714 7.1077,-8.9816 15.7948,-18.0226 8.6871,-9.0411 17.8773,-19.5883 20.4226,-23.4383 2.5453,-3.85 10.4353,-13.975 17.5333,-22.5 l 12.9056,-15.5 4.058,-2.25 4.058,-2.25 h 4.0371 4.0372 l 3.0767,2.5889 3.0767,2.5889 v 5.1886 5.1886 l -1.6957,2.4725 c -1.6642,2.4265 -12.798,16.1646 -34.8263,42.9725 -6.1012,7.425 -13.048,16.425 -15.4373,20 -12.7276,19.0436 -15.1898,21.3865 -18.5407,17.6427 z"
         id="path12097" /><path
         style="fill:#000000"
         d="m 2115.6501,-2278.9533 c 4.4406,-6.325 11.2498,-14.9786 15.1315,-19.2303 9.9277,-10.8737 11.5625,-14.5305 9.005,-20.1435 l -1.1244,-2.4679 -1.3109,0.503 c -1.2217,0.4688 -23.3901,26.8777 -40.0528,47.7143 l -7.2967,9.1244 3.9788,3.8086 3.9787,3.8086 4.8085,-5.8086 c 2.6446,-3.1947 8.4417,-10.9836 12.8823,-17.3086 z"
         id="path12095" /><path
         style="fill:#f7c73b;fill-opacity:1"
         d="m 2095.9111,-2254.5537 c -3.5136,-2.3918 -9,-7.6348 -9,-8.6007 0,-1.1885 35.3578,-44.6526 44.1544,-54.2775 l 5.0463,-5.5214 h 2.2391 2.2392 l 1.1605,2.5471 c 3.2078,7.0404 0.7852,13.4234 -9.2424,24.3513 -3.9034,4.2539 -11.3721,13.7475 -16.5971,21.0967 -5.225,7.3493 -11.3,15.3298 -13.5,17.7343 l -4,4.372 z"
         id="path12093" /><path
         style="fill:#000000"
         d="m 2138.1355,-2276.9533 4.87,-9.5 -2.158,-1.75 c -1.1869,-0.9625 -2.9977,-1.75 -4.0239,-1.75 h -1.866 l -3.7733,4.9184 c -2.0752,2.7052 -6.9232,9.3131 -10.7732,14.6842 -3.85,5.3711 -9.1433,12.1148 -11.763,14.9859 l -4.7629,5.2203 6.1888,5.6005 6.1888,5.6005 8.5013,-14.2549 c 4.6757,-7.8402 10.6928,-18.5299 13.3714,-23.7549 z"
         id="path12091" /><path
         style="fill:#f7c73b;fill-opacity:1"
         d="m 2108.6436,-2242.2427 c -7.9911,-7.3334 -8.0797,-7.8968 -2.2426,-14.2546 2.4695,-2.6897 9.2496,-11.543 15.067,-19.6739 5.8174,-8.1309 11.3828,-15.2146 12.3674,-15.7416 l 1.7902,-0.9581 3.5345,0.9759 c 1.944,0.5368 4.0835,1.6374 4.7544,2.4458 l 1.2199,1.4699 -0.6848,2.763 c -1.5685,6.3288 -25.954,49.2945 -27.9371,49.2236 -0.6058,-0.022 -4.1468,-2.8341 -7.8689,-6.25 z"
         id="path12089" /><path
         style="fill:#000000"
         d="m 1955.0321,-2056.7033 c 1.9398,-2.0625 5.9372,-6.9 8.8832,-10.75 2.946,-3.85 10.6715,-13.3738 17.1677,-21.1641 l 11.8114,-14.1641 6.5083,-4.7788 c 7.9458,-5.8342 9.032,-3.7662 -7.8279,-14.9035 -7.885,-5.2086 -15.1487,-10.3679 -16.1415,-11.465 l -1.8053,-1.9948 1.7973,-4.7062 c 0.9886,-2.5884 3.5822,-6.6425 5.7637,-9.0092 l 3.9664,-4.303 3.9489,-1.0633 3.9489,-1.0633 7.4759,1.1332 c 14.8323,2.2483 24.1572,6.447 35.2945,15.892 l 5.4124,4.5901 -1.2497,-2.3472 c -0.6873,-1.291 -6.0549,-7.366 -11.928,-13.5 -12.4485,-13.0017 -19.7,-22.3737 -30.6806,-39.6528 -4.369,-6.875 -10.6659,-15.65 -13.9931,-19.5 -15.5951,-18.0456 -16.3607,-31.3407 -2.2235,-38.6119 4.4208,-2.2737 4.2491,-1.5057 1.65,-7.3813 -2.5293,-5.7179 -2.6653,-10.1262 -0.4448,-14.4201 l 1.6551,-3.2007 4.6406,-2.943 4.6407,-2.943 h 4.3699 c 5.2006,0 7.5196,1.0719 12.3941,5.729 l 3.6555,3.4925 1.2228,-2.3608 c 1.8196,-3.5129 6.0297,-6.7025 9.8481,-7.461 l 3.382,-0.6718 16.118,-15.4453 c 20.2174,-19.3737 22.7978,-22.1675 26.4496,-28.6382 1.6265,-2.882 7.0548,-10.7338 12.0629,-17.4484 5.008,-6.7147 9.1055,-12.6987 9.1055,-13.2978 0,-1.9924 -3.9898,-6.7288 -7.4908,-8.8925 l -3.4551,-2.1354 -1.5025,0.8409 c -0.8264,0.4625 -10.4011,9.621 -21.2771,20.3523 -10.876,10.7314 -22.8322,21.7992 -26.5694,24.5952 -6.2034,4.6412 -24.1498,21.2514 -46.9769,43.4791 l -8.8707,8.6378 0.3213,6.7281 0.3212,6.728 -1.75,1.1291 -1.75,1.129 -1.6626,-1.0487 c -0.9144,-0.5768 -2.4369,-3.7245 -3.3834,-6.9949 -0.9465,-3.2704 -2.92,-9.7712 -4.3857,-14.4462 l -2.6648,-8.5 0.6331,-7 c 1.8278,-20.2114 0.4815,-31.2098 -4.5031,-36.7885 -3.8408,-4.2986 -4.229,-3.4821 -2.9308,6.1639 0.6074,4.5138 0.8135,9.7579 0.4578,11.6536 l -0.6466,3.4467 -1.8912,1.0121 c -1.0402,0.5567 -3.2057,1.0122 -4.8124,1.0122 h -2.9211 l -0.5939,6.25 c -0.3267,3.4375 -1.7519,10.075 -3.1672,14.75 -1.4153,4.675 -3.7316,12.775 -5.1474,18 l -2.5741,9.5 -0.748,34.1601 c -0.4114,18.7881 -0.4429,37.9131 -0.07,42.5 l 0.6781,8.3399 2.8084,5.8963 2.8085,5.8963 6.9347,7.3004 6.9347,7.3005 -0.3265,2.3032 -0.3266,2.3033 -2.1823,0.3107 c -4.0489,0.5764 -12.0497,-5.5061 -19.9755,-15.186 l -3.1578,-3.8567 -1.1331,0.7003 c -0.6232,0.3852 -9.6907,9.9679 -20.1501,21.2949 l -19.017,20.5947 4.3079,4.2394 c 19.1159,18.8119 60.3406,58.4027 60.8131,58.4027 0.3239,0 2.176,-1.6875 4.1158,-3.75 z"
         id="path12087" /><path
         style="fill:#f7c73b;fill-opacity:1"
         d="m 1916.9111,-2081.5409 c -39.1734,-37.9602 -36.7255,-31.8258 -20,-50.1207 29.6564,-32.4392 28.7653,-31.7937 34.0641,-24.6774 3.2875,4.4151 15.5185,15.3857 17.1533,15.3857 1.965,0 0.2889,-2.718 -5.7592,-9.3388 -12.1813,-13.3348 -13.4662,-18.3596 -13.4376,-52.5477 0.036,-43.4494 1.2726,-54.9116 8.4889,-78.7093 1.9853,-6.5473 3.873,-14.7167 4.1947,-18.1542 l 0.585,-6.25 h 3.1643 c 1.7403,0 3.9976,-0.6094 5.0161,-1.3541 l 1.8519,-1.3541 -0.6652,-11.6459 -0.6651,-11.6459 h 2.5813 2.5813 l 2.842,2.842 c 3.2738,3.2737 4.4937,7.2174 5.9772,19.3218 l 1.0618,8.6637 -1.6309,4.8038 -1.631,4.8038 0.5682,4.797 c 0.3124,2.6383 2.1635,9.7321 4.1135,15.7639 1.95,6.0319 3.5454,11.6238 3.5454,12.4265 0,1.8492 1.9077,3.0766 3.0158,1.9404 l 0.8415,-0.8629 -0.9244,-4.8889 -0.9244,-4.8888 2.0081,-3.2492 c 1.1045,-1.787 7.29,-8.1304 13.7457,-14.0964 6.4558,-5.966 16.6877,-15.6053 22.7377,-21.4206 6.05,-5.8153 14.375,-13.2044 18.5,-16.4201 4.125,-3.2158 16.7693,-15.0019 28.0985,-26.1914 11.3292,-11.1895 21.139,-20.3446 21.7997,-20.3446 3.9764,0 15.1018,10.2914 15.1018,13.9697 0,0.9285 -4.0964,7.0527 -9.1031,13.6092 -5.0067,6.5566 -10.8758,14.9044 -13.0424,18.5506 -4.4754,7.5317 -5.6027,8.7661 -26.87,29.4223 l -15.4971,15.0518 -4.8711,1.3638 -4.8712,1.3639 -2.6225,3.7964 -2.6226,3.7964 -1.8882,0.038 c -1.0385,0.021 -3.8244,-1.7468 -6.1909,-3.9281 -2.3665,-2.1814 -5.4738,-4.2601 -6.9052,-4.6193 l -2.6024,-0.6532 -4.4282,1.6912 c -4.8011,1.8335 -9.1078,6.1958 -10.1274,10.2582 l -0.6416,2.5567 2.2503,5.1162 c 1.2377,2.814 2.4597,6.0276 2.7156,7.1414 l 0.4652,2.0251 -3.8625,1.7041 c -2.1244,0.9373 -5.3606,3.1688 -7.1917,4.959 l -3.3292,3.255 0.4979,6.2034 0.498,6.2034 2.3329,3.8124 c 1.2832,2.0969 5.1618,7.1431 8.6192,11.2139 3.4574,4.0708 9.7606,12.8458 14.0071,19.5 11.3712,17.8184 17.5821,25.9479 28.3429,37.0986 20.7443,21.4958 22.5265,30.765 2.8069,14.5986 -9.0654,-7.432 -24.8671,-13.0987 -36.5258,-13.0987 h -5.3371 l -4.0753,3.6818 c -3.9361,3.556 -7.932,9.8696 -7.9291,12.5284 7e-4,0.7094 7.0882,6.0263 15.75,11.8154 l 15.7486,10.5257 v 1.7249 1.725 l -6.9679,5.2494 -6.9678,5.2494 -10.8812,13 c -5.9847,7.15 -13.9918,17.0012 -17.7937,21.8915 -15.8812,20.4282 -8.9963,22.6785 -48.8894,-15.9791 z"
         id="path12085" /><path
         style="fill:#000000"
         d="m 2173.4111,-2050.5464 c 21.45,-2.9847 43.4055,-6.0972 48.79,-6.9168 5.3846,-0.8196 11.1104,-1.4901 12.7242,-1.4901 h 2.9341 l -10.1295,-13.25 c -5.5712,-7.2875 -13.4844,-17.075 -17.585,-21.75 -10.3791,-11.8329 -12.4912,-15.1552 -17.2059,-27.0645 -5.3756,-13.5788 -8.9534,-19.984 -22.3072,-39.9355 -18.7549,-28.0213 -24.9152,-36.2796 -31.6883,-42.4807 -3.5928,-3.2894 -13.1286,-12.5144 -21.1907,-20.5 -31.1465,-30.8512 -37.4928,-36.8087 -41.9563,-39.386 l -4.6145,-2.6646 -1.1295,1.361 c -0.6213,0.7485 -1.3938,2.6822 -1.7168,4.2972 l -0.5872,2.9362 5.675,7.9099 c 7.7725,10.8332 24.6731,29.9798 37.1354,42.0704 l 10.3522,10.0434 v 2.0842 c 0,1.1462 -0.6203,2.5989 -1.3784,3.2281 l -1.3783,1.1439 -2.3717,-0.9158 c -6.6119,-2.5531 -30.8313,-27.764 -44.8936,-46.7315 -4.0351,-5.4426 -10.8394,-13.3588 -15.1207,-17.5915 l -7.784,-7.6959 -7.2867,-4.0409 c -9.9303,-5.5071 -15.0468,-5.1438 -18.1626,1.2896 l -1.4971,3.091 1.1866,1.4342 c 0.6526,0.7888 6.1925,5.8396 12.311,11.2241 l 11.1245,9.79 12.1334,14.999 c 6.6733,8.2494 15.2658,19.5314 19.0944,25.0711 3.8285,5.5397 8.55,12.1532 10.4921,14.6967 3.774,4.9426 4.4452,8.3334 2.0441,10.3261 l -1.487,1.2341 -2.3804,-0.5974 -2.3804,-0.5975 -4.1581,-5.3896 c -2.287,-2.9643 -5.5128,-8.1863 -7.1686,-11.6044 l -3.0104,-6.2147 -6.7343,-7.1599 c -3.7038,-3.9379 -11.0578,-12.3348 -16.3421,-18.6598 -5.2844,-6.325 -12.0195,-13.525 -14.967,-16 -2.9475,-2.475 -10.8232,-9.7654 -17.5017,-16.2008 l -12.1427,-11.7008 -2.7072,-0.6794 -2.7072,-0.6795 -2.663,1.9791 -2.6629,1.9792 -0.3083,2.5674 -0.3084,2.5674 2.8084,5.5127 c 3.2061,6.2935 18.5719,24.0247 34.7978,40.1547 10.7345,10.671 38.7682,43.5443 51.3296,60.191 l 6.1809,8.1909 v 2.4917 2.4916 l -2,0.6348 c -3.3182,1.0532 -5.3295,-0.2303 -9,-5.7432 -1.925,-2.8912 -6.65,-8.6472 -10.5,-12.7909 -3.85,-4.1438 -13.525,-15.4335 -21.5,-25.0883 -7.975,-9.6547 -17.3185,-19.8982 -20.7633,-22.7634 -3.4448,-2.8651 -10.5505,-10.359 -15.7904,-16.6532 -12.7703,-15.3395 -17.2823,-18.3655 -22.2238,-14.9043 l -2.2225,1.5567 8e-4,2.6933 c 10e-4,4.376 5.2704,14.2346 12.1577,22.7472 7.1641,8.8547 9.9833,12.8438 18.337,25.9461 6.9064,10.8323 13.6557,19.2983 23.917,30 4.2189,4.4 10.7492,12.5 14.5118,18 3.7626,5.5 10.4678,14.6261 14.9006,20.2802 4.4327,5.6541 8.3477,11.1882 8.6999,12.298 l 0.6404,2.0178 -1.205,1.452 c -0.6628,0.7986 -2.1837,1.452 -3.3797,1.452 h -2.1746 l -3.5391,-3.75 c -1.9466,-2.0625 -6.2581,-7.125 -9.5813,-11.25 l -6.0422,-7.5 -6.573,-2.3226 c -3.6151,-1.2775 -8.5074,-3.7937 -10.8716,-5.5915 -11.5772,-8.8037 -22.4803,-13.3261 -34.2987,-14.2266 l -7,-0.5333 6.1822,4.0187 c 7.0521,4.5842 9.6511,7.943 9.6511,12.4722 0,1.7376 0.6826,3.8396 1.5169,4.6712 0.8344,0.8315 4.6277,5.703 8.4297,10.8254 7.4825,10.0812 10.9841,13.0778 20.6462,17.6688 l 6.2765,2.9823 8.6487,8.8567 c 10.4388,10.6899 18.4736,16.9024 24.8765,19.2344 12.1681,4.4318 16.8558,6.566 26.4156,12.0262 5.6474,3.2256 12.5379,6.6657 15.3123,7.6448 l 5.0443,1.78 6,-0.5865 c 3.3,-0.3226 23.55,-3.0286 45,-6.0133 z"
         id="path12083" /><path
         style="fill:#f7c73b;fill-opacity:1"
         d="m 2116.16,-2043.3472 c -2.3382,-0.7677 -8.6382,-3.8848 -14,-6.927 -11.3451,-6.4368 -15.7705,-8.5256 -26.8759,-12.6854 l -8.127,-3.0442 -7.373,-6.3311 c -4.0552,-3.4821 -10.1384,-9.2082 -13.5183,-12.7247 l -6.1454,-6.3937 -8.6015,-4.3374 -8.6016,-4.3374 -3.5678,-4.1626 c -1.9623,-2.2894 -5.1208,-6.4995 -7.0188,-9.3557 -1.898,-2.8561 -4.7939,-6.1493 -6.4353,-7.318 l -2.9843,-2.1251 v -4.5867 -4.5868 l -4.0447,-3.8476 c -2.2246,-2.1162 -5.8246,-4.7557 -8,-5.8655 l -3.9553,-2.0178 v -1.9797 -1.9797 h 6.7899 c 11.7351,0 26.9674,5.2935 35.6533,12.3903 4.7009,3.8407 8.2693,5.7819 15.8268,8.6095 l 5.433,2.0328 6.5377,8.2337 c 3.5957,4.5285 7.7447,9.5291 9.2199,11.1123 l 2.6822,2.8786 1.0773,-1.0773 1.0772,-1.0772 -1.8265,-2.8014 c -1.0046,-1.5407 -4.5596,-6.1763 -7.8999,-10.3013 -3.3404,-4.125 -9.2978,-12.2491 -13.2387,-18.0536 -3.9409,-5.8044 -11.9924,-15.7044 -17.8921,-22 l -10.7267,-11.4464 -10.3868,-15.7275 c -5.7128,-8.6501 -13.75,-19.9001 -17.8604,-25 l -7.4735,-9.2725 -2.9889,-7.1625 -2.9888,-7.1625 0.6099,-3.0494 0.6099,-3.0494 2.3474,-1.5381 c 1.2911,-0.846 3.8016,-1.5381 5.5789,-1.5381 h 3.2314 l 3.7898,2.6263 c 2.0844,1.4445 7.6714,7.3035 12.4156,13.0199 4.7441,5.7164 12.2378,13.6471 16.6526,17.6237 7.2832,6.5602 11.7926,11.6668 30.0912,34.0761 3.2129,3.9347 8.6516,10.079 12.086,13.654 3.4344,3.575 7.9569,9.0875 10.0499,12.25 l 3.8056,5.75 h 1.9654 1.9654 l -0.5992,-1.5613 c -1.699,-4.4277 -47.6206,-59.5144 -53.9259,-64.6886 -11.2788,-9.2556 -37.2186,-40.3332 -40.2158,-48.1815 l -1.7117,-4.4819 0.6379,-2.5414 0.6378,-2.5415 3.9257,-2.5979 3.9256,-2.5978 3.6542,1.2059 3.6541,1.206 16.078,15.39 c 8.8428,8.4645 16.4106,15.39 16.8172,15.39 0.4066,0 4.9398,5.0625 10.0737,11.25 5.1339,6.1875 12.7275,14.8744 16.8746,19.3041 l 7.5402,8.0542 2.591,5.4458 c 1.425,2.9953 4.6685,8.2584 7.2077,11.6959 l 4.6168,6.25 h 2.002 c 2.8564,0 2.5422,-1.0441 -2.2991,-7.64 -2.3657,-3.223 -6.9324,-9.685 -10.1482,-14.36 -14.8644,-21.6092 -29.8748,-38.6276 -48.3458,-54.8134 l -7.2048,-6.3135 v -2.2886 c 0,-1.2588 1.0272,-3.8178 2.2826,-5.6866 l 2.2826,-3.3979 4.1374,-1.4416 4.1374,-1.4416 7.7872,3.8486 7.7872,3.8487 9.3995,9.0929 c 5.1696,5.0012 12.5829,13.368 16.4739,18.593 13.6258,18.2975 39.9621,46 43.7314,46 2.5451,0 0.2455,-3.2683 -8.1062,-11.5208 -11.939,-11.7974 -28.8411,-30.8607 -36.657,-41.3442 l -6.256,-8.3913 0.015,-3.6218 c 0.01,-1.9921 0.5819,-4.7469 1.275,-6.1219 l 1.2603,-2.5 2.2605,-0.3242 2.2605,-0.3242 4.7145,2.7108 c 2.5929,1.491 8.5395,6.6031 13.2145,11.3604 4.675,4.7573 19.5726,19.4333 33.1059,32.6134 l 24.606,23.9638 6.8347,9.5 c 21.9649,30.5301 34.5208,51.4306 40.5159,67.4425 3.6173,9.6612 5.6827,12.7155 18.9521,28.0274 7.21,8.3197 14.1778,17.2006 24.8885,31.7216 l 1.4031,1.9023 -0.9031,0.7795 c -0.4967,0.4287 -6.5281,1.5473 -13.4031,2.4857 -6.875,0.9384 -30.05,4.1889 -51.5,7.2233 -21.45,3.0344 -42.6,5.7202 -47,5.9683 l -8,0.4513 -4.2512,-1.3958 z"
         id="path12081" /><path
         style="fill:#f7c73b;fill-opacity:1;stroke:none;stroke-width:1;stroke-linecap:round;stroke-linejoin:round;stroke-opacity:1;paint-order:stroke fill markers"
         d="m 1942.0935,-2310.1756 -1.4267,-22.9565 5.188,-1.8158 2.5939,2.7237 1.1673,21.2704 -3.5018,1.8158 z"
         id="path38058" /><path
         style="fill:#f7c73b;fill-opacity:1;stroke:none;stroke-width:1;stroke-linecap:round;stroke-linejoin:round;stroke-opacity:1;paint-order:stroke fill markers"
         d="m 1999.556,-2123.7315 0.642,-7.7037 -7.0617,-5.4108 -7.4285,-5.1358 -2.1373,-0.4277 -1.974,-0.395 -2.2168,5.0414 9.2628,7.6119 z"
         id="path38060"
         sodipodi:nodetypes="ccccccccc" /></g></g></svg>
