<?xml version="1.0" encoding="UTF-8" standalone="no"?>
<!-- Created with Inkscape (http://www.inkscape.org/) -->

<svg
   width="587.94067mm"
   height="500mm"
   viewBox="0 0 587.94067 500"
   version="1.1"
   id="svg5"
   xml:space="preserve"
   xmlns:inkscape="http://www.inkscape.org/namespaces/inkscape"
   xmlns:sodipodi="http://sodipodi.sourceforge.net/DTD/sodipodi-0.dtd"
   xmlns="http://www.w3.org/2000/svg"
   xmlns:svg="http://www.w3.org/2000/svg"><sodipodi:namedview
     id="namedview7"
     pagecolor="#ffffff"
     bordercolor="#000000"
     borderopacity="0.25"
     inkscape:showpageshadow="2"
     inkscape:pageopacity="0.0"
     inkscape:pagecheckerboard="0"
     inkscape:deskcolor="#d1d1d1"
     inkscape:document-units="mm"
     showgrid="false"
     showguides="false" /><defs
     id="defs2" /><g
     inkscape:groupmode="layer"
     id="layer10"
     inkscape:label="I"
     transform="translate(305.60562,4866.4004)"><g
       id="g40235"
       inkscape:label="I"
       style="display:inline"><rect
         style="fill:#cccccc;fill-opacity:1;stroke:#1a1a1a;stroke-width:20;stroke-linecap:round;stroke-linejoin:round;stroke-dasharray:none;stroke-opacity:1;paint-order:stroke fill markers"
         id="rect38211-4-80"
         width="567.94067"
         height="480"
         x="-295.60562"
         y="-4856.4004"
         rx="48.766338"
         ry="48.766338" /><g
         id="g39031"
         transform="translate(-2654.5456,-2406.8826)"><path
           style="fill:#ffffff"
           d="m 2544.9229,-2038.7033 c 0.01,-0.4125 0.6742,-7.6094 1.4839,-15.9931 l 1.4722,-15.2432 3.4463,-6.8434 c 1.8955,-3.7639 4.174,-9.7295 5.0633,-13.2569 0.8894,-3.5274 3.3856,-11.8134 5.5471,-18.4134 5.9139,-18.057 8.9902,-35.2231 14.5156,-81 l 1.5692,-13 5.3791,-20.0665 c 2.9585,-11.0365 7.2569,-24.9865 9.5521,-31 6.5766,-17.2312 8.0549,-22.4089 8.689,-30.4335 l 0.5927,-7.5 8.0888,-8.8234 c 4.4489,-4.8529 8.4488,-9.4654 8.8886,-10.25 1.4884,-2.6552 4.559,-1.4478 16.8958,6.6436 6.7675,4.4386 21.1859,12.5291 32.041,17.9789 22.0062,11.0483 26.0682,13.4245 31.8,18.6029 l 3.9635,3.5807 v 2.1426 c 0,1.1784 -2.523,5.911 -5.6068,10.517 -7.114,10.6257 -8.3932,13.7539 -8.3932,20.524 v 5.4805 l 2.5559,8.0908 2.5559,8.0908 -2.5175,2.9919 c -1.3846,1.6455 -2.9634,4.6068 -3.5084,6.5807 l -0.9909,3.5888 3.5234,17.5016 c 3.852,19.1333 4.7204,22.1131 6.6166,22.7041 0.6957,0.2168 5.3859,1.5376 10.4225,2.935 16.2098,4.4975 34.4444,11.5507 50.8425,19.666 8.8,4.3551 18.7,8.6319 22,9.5041 l 6,1.5859 14.8331,0.5799 14.8331,0.58 8.4299,-1.3113 c 10.3576,-1.6113 6.7237,3.6013 30.7247,-44.0731 11.1896,-22.2266 21.995,-43.0855 24.012,-46.3532 2.017,-3.2676 3.6672,-6.4317 3.6672,-7.0313 0,-5.1497 -57.9685,-50.1994 -78,-60.617 l -4.5,-2.3403 -13,-0.1193 -13,-0.1194 -6,-2.5693 c -18.7174,-8.0151 -32.9081,-13.8073 -39.7734,-16.2342 -4.2753,-1.5114 -11.4753,-4.9815 -16,-7.7114 -4.5246,-2.7299 -11.1516,-5.8718 -14.7266,-6.982 -15.3494,-4.7668 -22.4038,-7.4582 -37.5,-14.3073 -8.8,-3.9926 -17.8,-7.837 -20,-8.5433 -2.2,-0.7063 -7.3187,-2.7916 -11.3748,-4.6341 -9.1321,-4.1481 -9.1418,-4.1479 -13.804,0.2757 -6.6227,6.2837 -27.0829,19.3744 -30.2814,19.3744 -1.6485,0 -1.2711,-1.674 2.5059,-11.1143 1.9502,-4.8742 3.8038,-11.0408 4.1191,-13.7035 l 0.5734,-4.8413 -3.1252,-3.5594 c -3.5259,-4.0158 -8.6396,-6.7815 -12.5388,-6.7815 h -2.6234 l -2.5165,4.25 c -14.1448,23.8885 -26.812,49.0545 -29.32,58.25 l -1.0909,4 -5.7617,4.5792 -5.7617,4.5792 -7.9085,12.3878 c -4.3496,6.8133 -9.6762,15.6652 -11.8368,19.6708 -2.1607,4.0057 -4.4979,7.283 -5.194,7.283 h -1.2657 l -0.6637,-8.6348 c -0.365,-4.7492 -2.3108,-16.7867 -4.324,-26.75 l -3.6603,-18.1152 0.4193,-10 c 0.2307,-5.5 0.3846,-16.3 0.3421,-24 l -0.077,-14 -1.2794,-6 c -0.7036,-3.3 -2.5003,-8.7 -3.9926,-12 l -2.7134,-6 -3.7076,-3.25 -3.7077,-3.25 h -3.505 c -3.6037,0 -10.7216,3.0522 -12.021,5.1546 -0.4022,0.6508 -0.7984,6.6197 -0.8805,13.2643 l -0.1492,12.0811 -2.1348,8 c -2.7808,10.4206 -4.0318,18.2897 -5.2644,33.1153 l -1.0072,12.1152 1.0199,11.3848 c 0.561,6.2616 1.9513,15.6597 3.0895,20.8847 1.1382,5.225 2.298,11.525 2.5773,14 l 0.5078,4.5 -2.4579,5.5 c -1.3518,3.025 -3.2336,8.9875 -4.1818,13.25 l -1.7239,7.75 h -1.318 -1.3181 l -2.0121,-6.25 c -1.1066,-3.4375 -2.9243,-9.973 -4.0393,-14.5234 -1.115,-4.5504 -3.6672,-11.3943 -5.6717,-15.2088 l -3.6444,-6.9353 -4.7836,-4.4745 -4.7836,-4.4745 -3.8254,-0.7177 -3.8254,-0.7176 -4.4182,1.1816 c -2.4299,0.65 -6.3853,2.5945 -8.7897,4.3212 l -4.3716,3.1394 1.3827,1.5798 c 0.7604,0.8689 1.7266,2.7048 2.147,4.0798 0.4204,1.375 1.8236,4.1786 3.1183,6.2301 l 2.3539,3.7302 v 4.1159 c 0,2.2638 0.7269,6.6164 1.6154,9.6726 l 1.6153,5.5565 -1.2438,7.2715 -1.2438,7.2714 2.2515,3.643 2.2515,3.6431 -1.2723,14.2784 c -0.6998,7.8531 -1.0331,17.1604 -0.7406,20.6828 l 0.5317,6.4045 5.6738,18.5 c 3.1206,10.175 6.5767,19.7574 7.6802,21.2943 1.1036,1.5369 2.4297,5.4219 2.9469,8.6334 1.1918,7.4008 7.5925,26.4753 11.9416,35.587 l 3.3342,6.9853 -2.1869,11 c -1.2027,6.05 -2.4528,12.8546 -2.778,15.1214 l -0.5912,4.1214 5.3573,0.6021 c 2.9465,0.3311 17.5072,1.3256 32.3572,2.2098 14.85,0.8843 34.875,2.1823 44.5,2.8845 9.625,0.7022 18.5125,1.3407 19.75,1.4188 1.2375,0.078 2.2553,-0.1955 2.2618,-0.608 z"
           id="path12119" /><path
           style="fill:#1a1a1a;fill-opacity:1"
           d="m 2548.9111,-2303.3565 c 0,-6.3493 9.2927,-27.1952 15.3991,-34.5443 2.4896,-2.9962 6.4557,-8.9455 8.8137,-13.2207 l 4.2872,-7.7732 2.2647,-0.029 2.2647,-0.029 3.6443,3.3398 3.6444,3.3398 -1.1844,4.9102 c -0.6515,2.7006 -3.3014,10.0025 -5.8889,16.2264 l -4.7045,11.3163 -6.6875,3.5142 c -3.6782,1.9328 -9.5037,5.953 -12.9457,8.9338 -6.2839,5.4418 -8.9071,6.6246 -8.9071,4.0163 z"
           id="path12137" /><path
           style="fill:#1a1a1a"
           d="m 2534.8522,-2041.3455 c -0.2621,-0.2621 -8.1186,-0.9614 -17.4588,-1.554 -35.1886,-2.2325 -62.1257,-4.1191 -66.2323,-4.6387 l -4.25,-0.5376 v -2.1888 c 0,-1.2038 1.1621,-7.4413 2.5876,-13.8612 l 2.5916,-11.6725 -2.5242,-4.3275 c -3.1127,-5.3365 -12.2418,-31.909 -13.2251,-38.495 -0.3968,-2.6579 -2.4345,-8.2075 -4.5282,-12.3325 l -3.8067,-7.5 -3.4769,-13.5 c -1.9123,-7.425 -4.0156,-16.2 -4.6741,-19.5 l -1.1971,-6 1.2842,-16.2699 1.2843,-16.2698 -2.0066,-2.2302 c -3.1401,-3.4897 -3.3571,-5.2692 -1.3975,-11.4568 l 1.8276,-5.7706 -1.8881,-6.8134 c -2.0754,-7.4892 -1.8558,-8.6893 1.5899,-8.6893 1.2752,0 2.8746,-0.6701 3.5543,-1.489 l 1.2358,-1.4891 -0.6425,-3.4248 c -0.3534,-1.8837 -2.0136,-5.9943 -3.6895,-9.1348 l -3.047,-5.71 1.0015,-1.0014 1.0014,-1.0015 3.4891,0.6545 3.489,0.6546 3.6427,3.7207 c 2.0035,2.0465 5.4225,7.3208 7.5977,11.7208 l 3.9551,8 1.9357,9 1.9357,9 5.4681,11.0082 c 5.5166,11.106 9.0113,16.4918 10.7012,16.4918 h 0.9198 l -0.6355,-13.2518 -0.6356,-13.2517 1.718,-5.9983 c 0.9448,-3.299 2.8246,-8.3653 4.1772,-11.2583 l 2.4593,-5.2602 -2.5255,-12.9525 c -1.3891,-7.1238 -3.0274,-17.3568 -3.6406,-22.7398 l -1.1151,-9.7874 0.6144,-9 c 0.8012,-11.7369 4.0879,-33.6139 6.6294,-44.1276 l 2.0128,-8.3262 -0.6674,-9.4951 -0.6675,-9.4952 1.2681,-1.528 1.2681,-1.5279 h 4.0095 4.0095 l 3.118,3.3268 c 1.715,1.8298 3.9879,5.5423 5.0509,8.25 l 1.9328,4.9232 0.6857,31 0.6856,31 2.5734,12.2427 c 1.4154,6.7335 3.0725,16.8585 3.6824,22.5 1.7295,15.9971 2.8791,23.9215 4.091,28.2001 l 1.1168,3.9429 1.8557,-2.4429 c 1.0206,-1.3435 4.1972,-7.6178 7.059,-13.9428 8.9913,-19.8716 19.6502,-36.3308 27.2208,-42.0335 16.5281,-12.4501 22.3825,-16.4595 32.037,-21.9405 5.8948,-3.3466 14.4099,-7.8067 18.9224,-9.9114 4.5125,-2.1047 10.6123,-5.4665 13.5551,-7.4707 2.9428,-2.0041 6.3936,-3.6439 7.6684,-3.6439 h 2.318 l 2.0815,3.368 2.0816,3.3681 v 4.248 4.2479 l -3.4029,4.634 c -6.6977,9.1206 -22.4961,22.4155 -31.0793,26.1542 l -4.0178,1.7502 -3.7253,5.0558 c -2.049,2.7807 -7.397,9.1324 -11.8845,14.1148 l -8.1591,9.059 h -4.3405 -4.3406 l 0.5963,2.9812 0.5962,2.9813 -1.6918,5.2687 c -0.9305,2.8979 -3.4931,9.0232 -5.6948,13.6118 -4.3844,9.1376 -4.4373,9.6299 -0.8436,7.8382 3.0607,-1.5259 5.9561,-6.5768 10.6205,-18.5265 l 3.6477,-9.3454 4.0098,-2.9046 c 4.5238,-3.2771 6.4944,-3.6294 7.3807,-1.3197 l 0.6082,1.5849 -3.1861,8.3878 c -3.0537,8.039 -6.0391,19.779 -6.0757,23.8923 l -0.017,1.95 0.8716,-0.95 c 3.0768,-3.3535 12.1284,-31.2803 12.1284,-37.4196 0,-5.0046 0.8148,-6.6667 7.2698,-14.83 l 4.9813,-6.2996 5.3939,-3.4504 c 2.9666,-1.8977 6.3352,-3.4504 7.4857,-3.4504 h 2.0919 l -0.6692,3.75 c -0.3681,2.0625 -3.1687,10.95 -6.2235,19.75 -8.4876,24.4497 -11.0972,32.8191 -14.8214,47.5341 l -3.4254,13.534 -2.0931,17.966 c -7.2508,62.2369 -12.1705,84.9595 -22.5097,103.9659 l -4.3519,8 -1.547,11 c -0.8509,6.05 -1.6673,12.8 -1.8142,15 l -0.2672,4 -2.0412,0.2922 c -1.1226,0.1607 -2.2556,0.078 -2.5177,-0.1844 z"
           id="path12121" /><path
           style="fill:#1a1a1a"
           d="m 2790.8552,-2127.0218 c -9.0892,-0.9654 -17.1382,-3.8784 -31.0283,-11.2294 -13.1722,-6.971 -29.8926,-13.6012 -45.9143,-18.2065 -15.0627,-4.3297 -17.3532,-8.8339 -19.6901,-38.7208 l -0.604,-7.7253 1.7977,-0.6898 1.7977,-0.6899 5.5521,6.2879 5.5522,6.2879 4.4,1.886 4.4001,1.8861 -0.745,1.7412 c -0.4098,0.9576 -0.9575,2.9786 -1.2171,4.4911 l -0.4721,2.75 h 1.056 c 1.7256,0 18.8526,-17.8714 25.3769,-26.48 l 6.048,-7.98 -0.5563,-7.3553 -0.5563,-7.3553 -4.2001,-8.8381 -4.2001,-8.8382 -3.6206,-3.5061 c -1.9913,-1.9283 -7.3437,-5.3807 -11.8942,-7.6718 -4.5505,-2.2912 -10.6255,-6.3021 -13.5,-8.9131 -9.4023,-8.5406 -17.2382,-13.6013 -34.8635,-22.5161 -9.5495,-4.8302 -22.3128,-12.041 -28.3628,-16.0242 -6.05,-3.9831 -13.0905,-8.4214 -15.6455,-9.8628 l -4.6455,-2.6208 -2.7083,-7.7691 c -1.4895,-4.273 -2.774,-9.5691 -2.8545,-11.7691 l -0.1462,-4 2.6578,-0.3075 2.6578,-0.3075 7.8793,3.9616 c 4.3337,2.1789 9.871,4.498 12.3051,5.1534 2.4341,0.6554 7.9816,2.9796 12.3277,5.1648 11.3901,5.7268 23.1737,10.3134 34.2465,13.33 l 9.6676,2.6337 8.6291,4.9025 c 4.746,2.6964 16.5041,8.0424 26.1291,11.88 9.625,3.8376 21.1,8.5689 25.5,10.514 4.4,1.9451 11.3304,4.2805 15.401,5.1898 l 7.401,1.6531 7.3329,-0.6198 7.3329,-0.6199 2.7661,1.2146 c 4.377,1.9219 22.8918,13.6877 33.7976,21.4778 10.1513,7.2511 16.3405,12.1674 34.3427,27.2794 l 10.1256,8.5 v 2 c 0,1.1 -1.8295,4.7 -4.0618,8 -2.2323,3.3 -12.0918,21.975 -21.9101,41.5 -9.8182,19.525 -18.4592,36.3044 -19.2022,37.2877 l -1.3508,1.7876 -8.9859,1.4586 c -9.6011,1.5583 -21.3062,1.6971 -33.5418,0.3976 z"
           id="path12129" /><path
           style="fill:#000000"
           d="m 2713.8431,-2194.7814 c -10.2457,-6.4977 -15.9959,-15.7317 -18.0167,-28.9323 l -1.2059,-7.8772 0.68,-3.6246 c 0.374,-1.9935 3.3561,-7.7001 6.6269,-12.6812 l 5.9469,-9.0566 h 1.5516 c 3.7244,0 21.761,10.7782 23.5121,14.0503 1.1976,2.2376 1.0099,3.196 -2.6817,13.6997 l -2.5481,7.25 h -2.0522 -2.0521 l -3.8625,-4.1839 -3.8626,-4.1838 -1.1106,1.1106 -1.1107,1.1107 0.6673,2.6584 c 0.9205,3.6678 4.7057,6.9134 9.7997,8.4029 2.3576,0.6893 5.746,2.228 7.5298,3.4192 l 3.2431,2.1659 0.01,2.4056 c 0.01,2.5772 -3.1239,7.2995 -8.8481,13.3444 l -3.551,3.75 h -2.1013 c -1.1557,0 -4.108,-1.2727 -6.5608,-2.8281 z"
           id="path12133" /><path
           style="fill:#f7c73b;fill-opacity:1"
           d="m 2568.5419,-2318.0832 7.1308,-3.92 4.6296,-11.1139 c 2.5462,-6.1127 4.895,-12.7735 5.2193,-14.8019 l 0.5897,-3.688 -3.2521,-2.7365 -3.2521,-2.7364 -3.598,6.367 c -4.2397,7.5025 -7.3046,11.9432 -11.6113,16.8234 -3.058,3.4652 -8.343,14.8181 -10.9855,23.5984 l -1.3045,4.3346 4.6516,-4.1033 c 2.5584,-2.2568 7.8605,-5.8673 11.7825,-8.0234 z"
           id="path12139" /><path
           style="fill:#f7c73b;fill-opacity:1"
           d="m 2826.3936,-2130.0637 c 6.73,-1.2508 5.2484,1.0408 25.8061,-39.9159 10.0692,-20.0605 19.9694,-38.9367 22.0005,-41.947 l 3.6929,-5.4733 -1.241,-1.1017 c -20.8484,-18.5081 -42.5631,-35.0983 -62.9064,-48.0608 l -12.3346,-7.8595 -13,-0.6024 -13,-0.6025 -6,-1.9912 c -3.3,-1.0951 -10.725,-4.0781 -16.5,-6.6288 -5.775,-2.5507 -16.35,-6.9172 -23.5,-9.7033 -7.15,-2.7861 -16.825,-7.2618 -21.5,-9.9461 l -8.5,-4.8806 -9.6032,-2.605 c -11.6194,-3.152 -17.7071,-5.4996 -33.4581,-12.9026 -6.6337,-3.1179 -12.7413,-5.6689 -13.5726,-5.6689 -0.8312,0 -5.7117,-2.0444 -10.8456,-4.5431 l -9.3343,-4.5431 -0.9835,0.9834 -0.9834,0.9835 2.0655,5.3097 c 1.136,2.9203 2.5847,6.9989 3.2193,9.0637 l 1.1537,3.7541 4.6711,2.6155 c 2.5691,1.4385 6.6961,3.9948 9.1711,5.6807 12.4985,8.5136 16.9505,11.1201 34.5,20.198 19.7663,10.2245 26.9086,14.7986 34.5,22.0945 l 4.5,4.3248 9,4.6323 c 4.95,2.5478 10.6292,6.1999 12.6205,8.1157 l 3.6206,3.4834 4.3426,9.138 4.3426,9.1381 0.3955,9.0418 0.3955,9.0418 -4.838,6.4936 c -2.6608,3.5715 -9.531,11.3311 -15.267,17.2436 l -10.429,10.75 h -2.8226 -2.8226 l -0.6041,-2.4069 -0.6041,-2.4068 1.1661,-2.1788 c 0.6413,-1.1983 1.0171,-2.2528 0.835,-2.3431 -6.1275,-3.0424 -8.4443,-4.763 -11.847,-8.7984 -5.3943,-6.3974 -5.682,-6.2262 -4.8458,2.884 2.4957,27.1905 3.7051,29.3874 18.526,33.6533 16.1689,4.654 33.18,11.4489 47.8358,19.1078 20.9546,10.9505 39.5916,13.7257 62.9825,9.3785 z"
           id="path12131" /><path
           style="fill:#f7c73b;fill-opacity:1"
           d="m 2727.8584,-2201.6719 c 6.6103,-8.5627 6.4711,-8.908 -5.3737,-13.3398 l -5.4906,-2.0542 -2.5415,-3.0204 -2.5415,-3.0205 v -3.7232 c 0,-7.216 3.4126,-7.9293 8.9976,-1.8808 l 3.9174,4.2425 0.9637,-0.9925 c 1.1376,-1.1716 5.1213,-12.7697 5.1213,-14.9101 0,-2.0763 -20.5004,-15.7914 -21.4648,-14.3603 -7.1319,10.5833 -10.6489,16.53 -11.413,19.2977 l -0.9592,3.4737 1.0042,7.2463 c 1.7082,12.3267 9.1495,23.7967 18.5759,28.6327 4.7435,2.4336 5.1756,2.218 11.2042,-5.5911 z"
           id="path12135" /><path
           id="path12119-4"
           style="fill:#1a1a1a"
           d="m 2418.7658,-2268.2039 c -3.6628,0.667 -7.1043,2.2611 -10.1407,4.3359 5.6466,9.7801 5.9542,19.7152 8.9271,28.755 0.6739,2.2486 1.6154,4.611 0.9793,6.9857 -0.6855,3.8111 -1.321,7.6309 -1.9786,11.4468 0.6569,1.0606 1.3138,2.1211 1.9707,3.1817 5.8065,0 11.5733,-1.1597 17.0058,-3.3614 2.8355,-1.1731 5.86,-2.5938 7.8379,-4.916 0.7765,-0.8551 1.3209,-1.9903 1.0363,-3.1645 -0.3555,-1.655 -1.0587,-3.2114 -1.4356,-4.8639 -2.322,-8.1824 -4.0797,-16.6337 -8.0283,-24.242 -1.1312,-2.2782 -2.1731,-4.6592 -3.8006,-6.6326 -2.2662,-2.2324 -4.6172,-4.3897 -6.9808,-6.5091 -1.2694,-0.635 -2.7321,-0.6455 -4.0937,-0.9609 -0.4315,-0.043 -0.865,-0.073 -1.2988,-0.055 z"
           sodipodi:nodetypes="scccccccccccccss" /><path
           style="fill:#f7c73b;fill-opacity:1"
           d="m 2537.9111,-2049.2771 c 0,-2.9281 0.7278,-9.5656 1.6172,-14.75 l 1.6173,-9.4262 5.2742,-10 c 9.4565,-17.9299 13.9227,-38.7871 20.4493,-95.5 3.21,-27.893 7.7031,-46.1472 19.814,-80.5 3.2963,-9.35 6.3218,-18.5305 6.7233,-20.4012 l 0.73,-3.4012 -3.8626,2.313 c -5.2156,3.123 -7.7094,5.4578 -12.5988,11.7954 l -4.1426,5.3696 -0.781,6.4877 c -2.0348,16.9017 -14.2039,44.3731 -17.9823,40.5947 l -1.0077,-1.0076 1.5575,-9.0249 c 0.8566,-4.9637 2.9664,-12.9188 4.6885,-17.6781 3.6097,-9.9757 3.3869,-10.9998 -1.3888,-6.3841 l -3.4524,3.3367 -2.6431,7.5 c -1.4538,4.125 -4.0059,9.8811 -5.6715,12.7914 l -3.0283,5.2915 -2.5212,0.9585 c -3.6275,1.3792 -6.3684,1.1812 -7.0161,-0.5068 l -0.5623,-1.4654 5.0102,-10.2846 c 2.7556,-5.6565 5.4738,-12.0166 6.0404,-14.1335 l 1.0302,-3.8489 -1.1894,-1.9046 -1.1894,-1.9045 1.1318,-1.7466 1.1319,-1.7465 4.0347,0.2596 4.0348,0.2596 8.8494,-9.7596 c 4.8672,-5.3678 10.3394,-11.8438 12.1605,-14.3911 l 3.3111,-4.6314 3.6656,-1.4528 c 11.3724,-4.5074 34.1656,-26.3897 34.1656,-32.8002 0,-1.2364 -0.9226,-3.7408 -2.0503,-5.5654 l -2.0502,-3.3174 -1.6998,0.643 c -0.9348,0.3536 -3.7247,2.0616 -6.1997,3.7956 -2.475,1.7339 -10.6136,6.173 -18.0857,9.8644 -40.4545,19.9859 -55.3677,34.6688 -71.8597,70.75 -2.9298,6.4099 -6.3187,12.8982 -7.5309,14.4184 l -2.2039,2.764 -1.5698,-0.6024 -1.5697,-0.6024 -1.6207,-5.5747 c -0.8913,-3.0662 -2.267,-12.006 -3.0571,-19.8664 -0.7901,-7.8604 -2.9819,-22.5939 -4.8707,-32.7412 l -3.4341,-18.4496 0.5275,-23 0.5276,-23 -1.646,-6.5 c -1.9194,-7.5797 -6.0741,-14.0886 -9.8377,-15.4123 l -2.6496,-0.9318 -1.5436,1.2811 -1.5435,1.281 0.5954,10.141 0.5955,10.141 -2.0552,8 c -1.1304,4.4 -2.9806,14.634 -4.1117,22.7422 l -2.0564,14.7423 0.031,11.7577 0.031,11.7578 1.974,11 c 1.0856,6.05 2.4934,14.375 3.1284,18.5 l 1.1544,7.5 -3.1248,6.5 -3.1249,6.5 -1.1781,7.2294 -1.1782,7.2294 1.0884,9.5815 c 3.1091,27.37 -16.2756,5.4629 -23.6926,-26.7757 -2.3588,-10.2526 -7.1312,-20.3721 -12.1935,-25.8557 l -3.6087,-3.9089 h -1.999 -1.9989 l 2.8907,5.7309 2.8907,5.7308 -0.2954,4.4868 -0.2954,4.4868 -3,1.5324 c -1.65,0.8427 -3.1133,1.5706 -3.2518,1.6174 -0.1384,0.047 0.4192,2.2968 1.2392,5 1.8557,6.1171 1.8595,10.1841 0.013,13.4149 -1.9774,3.4591 -1.842,6.5959 0.3759,8.711 2.9138,2.7787 3.3207,5.5499 2.1115,14.381 -0.6159,4.4984 -1.149,12.2804 -1.1846,17.2934 l -0.065,9.1146 4.1637,16.5 4.1637,16.5 3.9428,7.7337 3.9429,7.7337 0.9537,5.7663 c 1.2194,7.3722 9.4839,31.4846 12.6627,36.9444 3.032,5.2077 3.0263,6.8106 -0.073,20.5422 -1.3783,6.1056 -2.3386,11.2685 -2.1341,11.473 0.3796,0.3796 72.3621,5.5726 85.39,6.1601 l 3.2501,0.1466 z"
           id="path12123" /><path
           style="fill:#f7c73b;fill-opacity:1;stroke:none;stroke-width:1;stroke-linecap:round;stroke-linejoin:round;stroke-opacity:1;paint-order:stroke fill markers"
           d="m 2417.9544,-2264.133 5.4473,10.6353 0.3891,6.8739 -5.4473,3.3722 -2.3345,-11.0243 -3.6316,-8.9492 z"
           id="path38062" /></g></g></g></svg>
